M48
; DRILL file {KiCad 9.0.6-9.0.6~ubuntu24.04.1} date 2025-12-22T13:13:51-0500
; FORMAT={-:-/ absolute / metric / decimal}
; #@! TF.CreationDate,2025-12-22T13:13:51-05:00
; #@! TF.GenerationSoftware,Kicad,Pcbnew,9.0.6-9.0.6~ubuntu24.04.1
; #@! TF.FileFunction,MixedPlating,1,4
FMAT,2
METRIC
; #@! TA.AperFunction,Plated,PTH,ViaDrill
T1C0.250
; #@! TA.AperFunction,Plated,PTH,ViaDrill
T2C0.300
; #@! TA.AperFunction,Plated,PTH,ComponentDrill
T3C0.300
; #@! TA.AperFunction,Plated,PTH,ViaDrill
T4C0.400
; #@! TA.AperFunction,Plated,PTH,ComponentDrill
T5C0.400
; #@! TA.AperFunction,Plated,PTH,ComponentDrill
T6C1.000
%
G90
G05
T1
X114.5Y-65.5
X114.699Y-74.083
X114.719Y-77.096
X114.75Y-68.7
X114.775Y-76.291
X114.832Y-75.543
X114.9Y-64.907
X114.923Y-74.799
X115.1Y-67.1
X115.2Y-72.8
X115.222Y-73.546
X115.228Y-71.545
X115.331Y-68.26
X115.341Y-66.107
X115.495Y-77.65
X115.5Y-64.4
X115.682Y-72.099
X115.726Y-70.126
X115.753Y-70.898
X115.8Y-69.4
X115.807Y-66.65
X115.842Y-74.85
X115.86Y-67.801
X115.912Y-73.252
X134.04Y-77.74
X135.9Y-80.1
X153.6Y-85.173
T2
X115.0Y-62.2
X115.121Y-63.024
X115.684Y-78.5
X116.5Y-62.1
X117.2Y-81.2
X118.1Y-51.1
X121.0Y-53.4
X121.8Y-84.2
X122.3Y-72.595
X123.0Y-51.0
X123.0Y-74.076
X123.0Y-75.084
X123.0Y-76.4
X123.0Y-78.9
X123.007Y-77.529
X123.1Y-84.2
X123.3Y-56.6
X125.939Y-61.987
X125.965Y-60.535
X126.0Y-63.297
X126.0Y-65.917
X126.02Y-64.607
X126.023Y-67.227
X126.053Y-68.577
X126.8Y-60.1
X126.85Y-58.95
X126.9Y-55.125
X126.9Y-56.025
X126.9Y-56.9
X126.9Y-57.892
X129.5Y-86.9
X129.8Y-63.7
X129.9Y-70.8
X130.3Y-73.4
X131.1Y-74.1
X131.255Y-75.179
X131.5Y-72.4
X131.879Y-75.828
X132.526Y-76.454
X133.5Y-68.0
X133.9Y-90.1
X134.173Y-68.727
X134.7Y-69.5
X135.0Y-83.6
X135.1Y-90.2
X135.9Y-82.8
X136.0Y-62.3
X136.2Y-86.0
X136.2Y-90.2
X136.3Y-83.6
X137.245Y-81.004
X137.3Y-90.2
X137.55Y-82.35
X137.7Y-85.0
X137.877Y-65.023
X138.3Y-90.2
X139.5Y-83.2
X139.6Y-90.2
X140.2Y-68.4
X140.2Y-66.3
X140.3Y-97.5
X141.088Y-68.307
X141.173Y-67.073
X141.2Y-69.2
X142.145Y-69.091
X142.287Y-78.649
X142.5Y-70.5
X143.041Y-69.005
X143.577Y-70.415
X143.6Y-79.2
X143.9Y-71.8
X144.2Y-60.8
X144.714Y-79.083
X145.2Y-71.7
X145.353Y-68.5
X145.668Y-67.168
X145.9Y-79.2
X146.1Y-71.1
X146.3Y-72.9
X146.6Y-68.4
X146.7Y-69.9
X147.05Y-79.25
X147.1Y-72.1
X147.4Y-94.2
X147.8Y-97.7
X148.1Y-83.9
X148.1Y-84.8
X148.1Y-85.7
X148.1Y-86.8
X148.1Y-87.7
X148.1Y-88.6
X148.2Y-79.2
X148.2Y-89.5
X148.404Y-63.416
X148.6Y-65.3
X148.6Y-74.1
X149.0Y-61.5
X149.0Y-62.5
X149.1Y-60.6
X149.2Y-79.2
X150.4Y-79.2
X150.752Y-64.148
X151.5Y-90.5
X151.641Y-95.632
X151.7Y-67.0
X151.729Y-87.893
X152.2Y-88.6
X152.59Y-89.39
X152.753Y-95.819
X152.9Y-69.6
X153.2Y-91.2
X153.2Y-96.6
X153.295Y-82.539
X153.742Y-87.458
X153.8Y-90.0
X153.9Y-75.7
X153.9Y-92.6
X154.9Y-65.3
X154.9Y-79.0
X155.0Y-75.9
X155.4Y-64.8
X157.2Y-77.3
X157.8Y-63.4
X158.1Y-55.3
X158.1Y-77.1
X158.3Y-62.9
X158.9Y-70.423
X158.9Y-71.913
X159.6Y-79.0
X160.0Y-53.1
X160.0Y-56.8
X160.175Y-84.883
X160.2Y-89.5
X160.315Y-88.194
X160.475Y-80.281
X160.544Y-81.23
X160.6Y-82.58
X160.8Y-83.7
X160.978Y-84.522
X161.0Y-90.825
X161.119Y-81.05
X161.173Y-85.719
X161.3Y-50.4
X161.6Y-55.5
X161.653Y-87.629
X161.7Y-74.7
X162.0Y-51.7
X162.0Y-90.1
X162.0Y-91.6
X162.2Y-62.2
X162.2Y-85.6
T3
X134.4Y-74.0
X138.0Y-70.4
X138.0Y-74.0
X138.0Y-77.6
X141.6Y-74.0
X148.3Y-82.7
T4
X114.0Y-66.4
X114.226Y-70.126
X115.0Y-54.6
X116.0Y-54.3
X118.181Y-49.951
X119.6Y-49.9
X120.9Y-52.0
X120.9Y-58.8
X139.9Y-60.2
X141.1Y-60.3
X144.0Y-57.4
X145.35Y-60.35
X146.9Y-60.4
X150.762Y-57.201
X152.6Y-60.4
X153.9Y-60.4
X154.188Y-58.012
X155.1Y-50.1
X155.9Y-50.7
X157.9Y-51.662
X161.549Y-57.6
X162.1Y-54.2
T5
X114.0Y-50.7
X114.0Y-55.6
X114.0Y-59.7
X114.0Y-64.0
X114.0Y-83.6
X114.0Y-88.6
X114.0Y-93.6
X114.3Y-78.4
X115.3Y-98.0
X116.0Y-60.8
X116.4Y-53.0
X117.7Y-91.2
X119.9Y-60.951
X119.9Y-84.3
X120.3Y-98.0
X122.4Y-80.0
X122.4Y-82.2
X125.1Y-84.3
X125.3Y-98.0
X125.5Y-50.9
X125.6Y-69.5
X127.2Y-61.3
X127.7Y-91.2
X128.9Y-55.4
X128.9Y-62.8
X129.2Y-72.8
X130.2Y-65.1
X130.3Y-98.0
X131.9Y-50.9
X132.4Y-81.7
X134.4Y-91.2
X135.3Y-94.8
X135.3Y-98.0
X136.7Y-91.3
X136.9Y-50.9
X138.9Y-91.3
X140.3Y-96.2
X140.8Y-55.65
X141.3Y-90.1
X141.9Y-98.0
X143.6Y-63.6
X143.9Y-87.4
X144.0Y-50.9
X145.3Y-98.0
X146.9Y-55.7
X147.0Y-90.4
X147.7Y-75.0
X148.4Y-68.1
X150.0Y-74.4
X150.1Y-90.2
X150.2Y-58.1
X150.3Y-98.0
X150.7Y-94.1
X151.8Y-79.3
X153.2Y-74.6
X153.7Y-93.7
X154.4Y-70.3
X154.7Y-55.7
X155.3Y-98.0
X156.4Y-63.2
X157.1Y-50.6
X158.5Y-68.4
X158.8Y-76.0
X160.3Y-98.0
X161.6Y-63.2
X161.6Y-68.2
X161.6Y-73.2
T6
X125.5Y-53.0
X128.04Y-53.0
X130.58Y-53.0
X133.12Y-53.0
X135.66Y-53.0
X138.2Y-53.0
X140.74Y-53.0
X143.28Y-53.0
X145.82Y-53.0
X148.36Y-53.0
X150.9Y-53.0
X153.44Y-53.0
M30
