G04 #@! TF.GenerationSoftware,KiCad,Pcbnew,9.0.6-9.0.6~ubuntu24.04.1*
G04 #@! TF.CreationDate,2025-12-22T13:13:51-05:00*
G04 #@! TF.ProjectId,breakout-sky-qfn,62726561-6b6f-4757-942d-736b792d7166,3.2*
G04 #@! TF.SameCoordinates,PX6bc3e40PY5e69ec0*
G04 #@! TF.FileFunction,Copper,L4,Bot*
G04 #@! TF.FilePolarity,Positive*
%FSLAX46Y46*%
G04 Gerber Fmt 4.6, Leading zero omitted, Abs format (unit mm)*
G04 Created by KiCad (PCBNEW 9.0.6-9.0.6~ubuntu24.04.1) date 2025-12-22 13:13:51*
%MOMM*%
%LPD*%
G01*
G04 APERTURE LIST*
G04 #@! TA.AperFunction,ComponentPad*
%ADD10C,0.820000*%
G04 #@! TD*
G04 #@! TA.AperFunction,ComponentPad*
%ADD11C,0.620000*%
G04 #@! TD*
G04 #@! TA.AperFunction,ComponentPad*
%ADD12R,1.700000X1.700000*%
G04 #@! TD*
G04 #@! TA.AperFunction,ComponentPad*
%ADD13C,1.700000*%
G04 #@! TD*
G04 #@! TA.AperFunction,SMDPad,CuDef*
%ADD14R,1.600000X0.300000*%
G04 #@! TD*
G04 #@! TA.AperFunction,SMDPad,CuDef*
%ADD15R,1.800000X0.800000*%
G04 #@! TD*
G04 #@! TA.AperFunction,ViaPad*
%ADD16C,0.600000*%
G04 #@! TD*
G04 #@! TA.AperFunction,ViaPad*
%ADD17C,0.800000*%
G04 #@! TD*
G04 #@! TA.AperFunction,ViaPad*
%ADD18C,0.650000*%
G04 #@! TD*
G04 #@! TA.AperFunction,ViaPad*
%ADD19C,0.500000*%
G04 #@! TD*
G04 #@! TA.AperFunction,Conductor*
%ADD20C,0.200000*%
G04 #@! TD*
G04 #@! TA.AperFunction,Conductor*
%ADD21C,0.160000*%
G04 #@! TD*
G04 #@! TA.AperFunction,Conductor*
%ADD22C,0.300000*%
G04 #@! TD*
G04 #@! TA.AperFunction,Conductor*
%ADD23C,0.350000*%
G04 #@! TD*
G04 #@! TA.AperFunction,Conductor*
%ADD24C,0.220000*%
G04 #@! TD*
G04 #@! TA.AperFunction,Conductor*
%ADD25C,0.250000*%
G04 #@! TD*
G04 APERTURE END LIST*
D10*
X154700000Y-55700000D03*
X119900000Y-84300000D03*
X160300000Y-98000000D03*
X150300000Y-98000000D03*
X114000000Y-83600000D03*
X141300000Y-90100000D03*
D11*
X138000000Y-70400000D03*
D10*
X150700000Y-94100000D03*
D12*
X125500000Y-53000000D03*
D13*
X128040000Y-53000000D03*
X130580000Y-53000000D03*
X133120000Y-53000000D03*
X135660000Y-53000000D03*
X138200000Y-53000000D03*
X140740000Y-53000000D03*
X143280000Y-53000000D03*
X145820000Y-53000000D03*
X148360000Y-53000000D03*
X150900000Y-53000000D03*
X153440000Y-53000000D03*
D10*
X136900000Y-50900000D03*
X114000000Y-88600000D03*
X138900000Y-91300000D03*
X114000000Y-55600000D03*
X125300000Y-98000000D03*
X130200000Y-65100000D03*
X128900000Y-62800000D03*
X135300000Y-94800000D03*
X150200000Y-58100000D03*
X150000000Y-74400000D03*
X144000000Y-50900000D03*
X127200000Y-61300000D03*
X131900000Y-50900000D03*
X150100000Y-90200000D03*
X125500000Y-50900000D03*
X148400000Y-68100000D03*
X114000000Y-59700000D03*
X140300000Y-96200000D03*
X122400000Y-82200000D03*
X161600000Y-73200000D03*
D11*
X148300000Y-82700000D03*
X138000000Y-74000000D03*
D10*
X158500000Y-68400000D03*
X115300000Y-98000000D03*
D11*
X138000000Y-77600000D03*
D10*
X155300000Y-98000000D03*
D11*
X134400000Y-74000000D03*
D10*
X140800000Y-55650000D03*
X146900000Y-55700000D03*
X127700000Y-91200000D03*
X117700000Y-91200000D03*
X134400000Y-91200000D03*
X143600000Y-63600000D03*
X114000000Y-93600000D03*
X119899789Y-60951371D03*
X143900000Y-87400000D03*
X151800000Y-79300000D03*
X132400000Y-81700000D03*
X158800000Y-76000000D03*
X147000000Y-90400000D03*
X153700000Y-93700000D03*
X114000000Y-50700000D03*
X156400000Y-63200000D03*
X130300000Y-98000000D03*
X129200000Y-72800000D03*
X153200000Y-74600000D03*
X116400000Y-53000000D03*
X125100000Y-84300000D03*
X161600000Y-68200000D03*
X145300000Y-98000000D03*
X157100000Y-50600000D03*
X122400000Y-80000000D03*
X154400000Y-70300000D03*
X161600000Y-63200000D03*
X136700000Y-91300000D03*
X114300000Y-78400000D03*
X147700000Y-75000000D03*
X141900000Y-98000000D03*
X120300000Y-98000000D03*
X125600000Y-69500000D03*
X135300000Y-98000000D03*
X128900000Y-55400000D03*
X114000000Y-64000000D03*
X116000000Y-60800000D03*
D11*
X141600000Y-74000000D03*
D14*
X117200000Y-63750000D03*
X120800000Y-63750000D03*
X117200000Y-64250000D03*
X120800000Y-64250000D03*
X117200000Y-64750000D03*
X120800000Y-64750000D03*
X117200000Y-65250000D03*
X120800000Y-65250000D03*
X117200000Y-65750000D03*
X120800000Y-65750000D03*
X117200000Y-66250000D03*
X120800000Y-66250000D03*
X117200000Y-66750000D03*
X120800000Y-66750000D03*
X117200000Y-67250000D03*
X120800000Y-67250000D03*
X117200000Y-67750000D03*
X120800000Y-67750000D03*
X117200000Y-68250000D03*
X120800000Y-68250000D03*
X117200000Y-68750000D03*
X120800000Y-68750000D03*
X117200000Y-69250000D03*
X120800000Y-69250000D03*
X117200000Y-69750000D03*
X120800000Y-69750000D03*
X117200000Y-70250000D03*
X120800000Y-70250000D03*
X117200000Y-70750000D03*
X120800000Y-70750000D03*
X117200000Y-71250000D03*
X120800000Y-71250000D03*
X117200000Y-71750000D03*
X120800000Y-71750000D03*
X117200000Y-72250000D03*
X120800000Y-72250000D03*
X117200000Y-72750000D03*
X120800000Y-72750000D03*
X117200000Y-73250000D03*
X120800000Y-73250000D03*
X117200000Y-73750000D03*
X120800000Y-73750000D03*
X117200000Y-74250000D03*
X120800000Y-74250000D03*
X117200000Y-74750000D03*
X120800000Y-74750000D03*
X117200000Y-75250000D03*
X120800000Y-75250000D03*
X117200000Y-75750000D03*
X120800000Y-75750000D03*
X117200000Y-76250000D03*
X120800000Y-76250000D03*
X117200000Y-76750000D03*
X120800000Y-76750000D03*
X117200000Y-77250000D03*
X120800000Y-77250000D03*
X117200000Y-77750000D03*
X120800000Y-77750000D03*
X117200000Y-78250000D03*
X120800000Y-78250000D03*
D15*
X119000000Y-62050000D03*
X119000000Y-79950000D03*
D14*
X155200000Y-80000000D03*
X158800000Y-80000000D03*
X155200000Y-80500000D03*
X158800000Y-80500000D03*
X155200000Y-81000000D03*
X158800000Y-81000000D03*
X155200000Y-81500000D03*
X158800000Y-81500000D03*
X155200000Y-82000000D03*
X158800000Y-82000000D03*
X155200000Y-82500000D03*
X158800000Y-82500000D03*
X155200000Y-83000000D03*
X158800000Y-83000000D03*
X155200000Y-83500000D03*
X158800000Y-83500000D03*
X155200000Y-84000000D03*
X158800000Y-84000000D03*
X155200000Y-84500000D03*
X158800000Y-84500000D03*
X155200000Y-85000000D03*
X158800000Y-85000000D03*
X155200000Y-85500000D03*
X158800000Y-85500000D03*
X155200000Y-86000000D03*
X158800000Y-86000000D03*
X155200000Y-86500000D03*
X158800000Y-86500000D03*
X155200000Y-87000000D03*
X158800000Y-87000000D03*
X155200000Y-87500000D03*
X158800000Y-87500000D03*
X155200000Y-88000000D03*
X158800000Y-88000000D03*
X155200000Y-88500000D03*
X158800000Y-88500000D03*
X155200000Y-89000000D03*
X158800000Y-89000000D03*
X155200000Y-89500000D03*
X158800000Y-89500000D03*
X155200000Y-90000000D03*
X158800000Y-90000000D03*
X155200000Y-90500000D03*
X158800000Y-90500000D03*
X155200000Y-91000000D03*
X158800000Y-91000000D03*
X155200000Y-91500000D03*
X158800000Y-91500000D03*
X155200000Y-92000000D03*
X158800000Y-92000000D03*
D15*
X157000000Y-78300000D03*
X157000000Y-93700000D03*
D16*
X147100000Y-72100000D03*
D17*
X153900000Y-60400000D03*
D18*
X141172702Y-67072702D03*
X160600000Y-82579674D03*
D17*
X145350000Y-60350000D03*
D18*
X136200000Y-86000000D03*
D16*
X153800000Y-90000000D03*
D18*
X146100000Y-71100000D03*
X139500000Y-83200000D03*
D16*
X118100000Y-51100000D03*
D18*
X161300000Y-50400000D03*
X147800000Y-97700000D03*
X162000000Y-90100000D03*
X151700000Y-67000000D03*
X137700000Y-85000000D03*
X133500000Y-68000000D03*
D17*
X120900000Y-58800000D03*
D19*
X115495163Y-77649509D03*
D17*
X139900000Y-60200000D03*
D16*
X136000000Y-62300000D03*
D17*
X146900000Y-60400000D03*
X152600000Y-60400000D03*
D18*
X143600000Y-79200000D03*
X140200000Y-66300000D03*
X160000000Y-56800000D03*
D16*
X153295340Y-82538509D03*
D19*
X114774941Y-76290846D03*
D18*
X130300000Y-73400000D03*
X147400000Y-94200000D03*
X121000000Y-53400000D03*
D19*
X115725735Y-70125735D03*
D18*
X160000000Y-53100000D03*
X123300000Y-56600000D03*
X135900000Y-82800000D03*
D16*
X153200000Y-91200000D03*
D19*
X134039616Y-77739616D03*
X114698585Y-74083062D03*
D18*
X146700000Y-69900000D03*
X162000000Y-51700000D03*
X162000000Y-91600000D03*
D19*
X115681978Y-72099000D03*
D18*
X151640982Y-95632500D03*
X160175002Y-84882913D03*
D17*
X161549000Y-57600000D03*
D18*
X132525923Y-76453796D03*
X161652905Y-87628709D03*
X153742462Y-87457538D03*
X161173415Y-85718819D03*
X117200000Y-81200000D03*
D19*
X153599770Y-85172959D03*
D18*
X160475000Y-80280611D03*
X140199997Y-68400000D03*
D17*
X114000000Y-66400000D03*
D19*
X115340580Y-66107178D03*
D18*
X134700000Y-69500000D03*
D17*
X141100000Y-60300000D03*
D18*
X129900000Y-70800000D03*
X154900000Y-79000000D03*
X143900000Y-71800000D03*
X123000000Y-51000000D03*
D19*
X115331339Y-68259522D03*
D17*
X114225735Y-70125735D03*
D18*
X131100000Y-74100000D03*
X135000000Y-83600000D03*
D16*
X144200000Y-60800000D03*
D18*
X145200000Y-71700000D03*
X137245000Y-81004155D03*
D17*
X150761800Y-57201120D03*
D18*
X158300001Y-62899999D03*
X137877298Y-65022702D03*
D17*
X154187500Y-58012500D03*
D18*
X134172702Y-68727298D03*
X142287457Y-78648674D03*
X157800000Y-63400000D03*
X131500000Y-72400000D03*
D17*
X144000001Y-57400001D03*
D18*
X122300000Y-72595000D03*
X150400000Y-79200000D03*
X139600000Y-90200000D03*
X149200000Y-79200000D03*
X138300000Y-90200000D03*
X123000000Y-74076273D03*
X146300000Y-72900000D03*
D16*
X155400000Y-64800000D03*
X154900000Y-65300000D03*
D18*
X136300000Y-83600000D03*
D16*
X137550000Y-82350000D03*
D17*
X120900000Y-52000000D03*
D18*
X158100000Y-55300000D03*
X161600000Y-55500000D03*
D17*
X157900000Y-51662500D03*
D16*
X162200000Y-62200000D03*
X162200000Y-85600000D03*
X145667627Y-67167627D03*
X153900000Y-92600000D03*
D18*
X142500000Y-70500000D03*
X146600000Y-68400000D03*
D16*
X151500000Y-90500000D03*
D18*
X150752298Y-64147702D03*
D16*
X160978390Y-84521726D03*
X145353021Y-68500443D03*
X152900000Y-69600000D03*
D18*
X143577116Y-70415494D03*
X161000000Y-90825000D03*
D16*
X148600000Y-65300000D03*
X148600000Y-74100000D03*
D18*
X125965000Y-60535000D03*
X147050000Y-79250000D03*
X136200000Y-90200000D03*
X123000000Y-76400000D03*
X133900000Y-90100000D03*
X144714304Y-79083041D03*
X123000000Y-78900000D03*
X126023430Y-67226888D03*
X126000000Y-63296888D03*
X137300000Y-90200000D03*
X123000000Y-75084369D03*
X148200000Y-79200000D03*
X126000000Y-65916888D03*
X142144601Y-69090598D03*
D16*
X161700000Y-74700000D03*
X152590352Y-89390352D03*
X149000000Y-62500000D03*
X160800000Y-83700000D03*
D18*
X115121026Y-63024379D03*
D17*
X162100000Y-54200000D03*
X115000000Y-54600000D03*
X116000000Y-54300000D03*
D18*
X160544469Y-81229674D03*
X161118815Y-81050000D03*
X115000000Y-62200000D03*
D16*
X152200000Y-88600000D03*
X158900000Y-71913175D03*
X155000000Y-75900000D03*
X149000000Y-61500000D03*
X158100000Y-77100000D03*
D18*
X141200000Y-69200000D03*
X126900000Y-56025003D03*
D19*
X115227596Y-71544685D03*
D16*
X153900000Y-75700000D03*
X149100000Y-60600000D03*
X157200000Y-77300000D03*
X158900000Y-70423245D03*
X151728504Y-87892755D03*
D18*
X141088368Y-68306947D03*
X123100000Y-84200000D03*
D19*
X114718699Y-77096090D03*
D18*
X131879080Y-75828018D03*
D19*
X115221866Y-73545771D03*
D18*
X126850000Y-58950000D03*
D19*
X114831988Y-75543016D03*
D18*
X126052519Y-68576888D03*
X126020017Y-64606888D03*
X125939422Y-61986888D03*
X121800000Y-84200000D03*
X131255102Y-75179438D03*
D16*
X115683849Y-78499571D03*
D19*
X114900000Y-64907178D03*
D18*
X116500000Y-62100000D03*
D19*
X115912089Y-73252350D03*
D18*
X126900000Y-57891636D03*
X126800000Y-60100000D03*
D19*
X115842228Y-74850000D03*
X115500000Y-64400000D03*
X115200000Y-72800000D03*
D18*
X126900000Y-56900000D03*
D19*
X114923337Y-74798597D03*
D18*
X129800000Y-63700000D03*
X135100000Y-90200000D03*
X123006951Y-77529097D03*
X145900000Y-79200000D03*
X126900000Y-55125000D03*
D19*
X115753393Y-70898078D03*
D16*
X160314764Y-88193861D03*
D18*
X152753474Y-95818579D03*
D19*
X114750000Y-68700000D03*
X115800000Y-69400000D03*
D18*
X148100000Y-84800000D03*
D19*
X115100000Y-67100000D03*
D18*
X148100000Y-83899997D03*
X148200000Y-89500000D03*
D17*
X155900000Y-50700000D03*
X155100000Y-50100000D03*
D18*
X159600000Y-79000000D03*
D17*
X119600000Y-49900000D03*
X118180982Y-49951096D03*
D19*
X115860263Y-67801000D03*
D18*
X148100000Y-87700000D03*
D19*
X114500000Y-65500000D03*
D18*
X140300000Y-97499998D03*
X129500000Y-86900000D03*
D19*
X135900000Y-80100000D03*
X115806801Y-66650000D03*
D18*
X148100000Y-88600000D03*
X148100000Y-86800000D03*
X148100000Y-85700000D03*
D16*
X148403689Y-63415551D03*
D18*
X143040513Y-69004891D03*
X153200000Y-96600000D03*
D16*
X160200000Y-89500000D03*
D20*
X117200000Y-76250000D02*
X114815787Y-76250000D01*
D21*
X122950000Y-69250000D02*
X125600000Y-66600000D01*
D20*
X158800000Y-82500000D02*
X160520326Y-82500000D01*
X122900000Y-70400000D02*
X122900000Y-70600000D01*
X155200000Y-90000000D02*
X153800000Y-90000000D01*
X122200000Y-71750000D02*
X122850000Y-71750000D01*
D21*
X120800000Y-75250000D02*
X122050000Y-75250000D01*
D20*
X120800000Y-72250000D02*
X121700000Y-72250000D01*
X114100000Y-66300000D02*
X114000000Y-66400000D01*
X115397758Y-66050000D02*
X115340580Y-66107178D01*
D21*
X126758112Y-62641888D02*
X126900000Y-62500000D01*
D20*
X115340580Y-66107178D02*
X115147758Y-66300000D01*
X115681978Y-72099000D02*
X114101000Y-72099000D01*
X115725735Y-70125735D02*
X114225735Y-70125735D01*
D21*
X122790913Y-78239369D02*
X123639369Y-78239369D01*
D20*
X160116376Y-90100000D02*
X162000000Y-90100000D01*
X153333849Y-82500000D02*
X153295340Y-82538509D01*
X154284924Y-88000000D02*
X153742462Y-87457538D01*
X114701846Y-74198597D02*
X114698585Y-74195336D01*
X115850000Y-70250000D02*
X115725735Y-70125735D01*
X116187144Y-68250000D02*
X116036144Y-68401000D01*
D21*
X127396353Y-68603647D02*
X127696353Y-68603647D01*
D20*
X115495163Y-77649509D02*
X115250491Y-77649509D01*
X160200000Y-91700000D02*
X161900000Y-91700000D01*
D21*
X115259756Y-63820000D02*
X115179756Y-63900000D01*
D20*
X160000000Y-91500000D02*
X160200000Y-91700000D01*
X155200000Y-82500000D02*
X153333849Y-82500000D01*
X122750000Y-71200000D02*
X122800000Y-71250000D01*
D21*
X123883601Y-65617171D02*
X125548884Y-63951888D01*
D20*
X115233401Y-74260132D02*
X115171866Y-74198597D01*
X161200000Y-88600000D02*
X161200000Y-88081614D01*
X117200000Y-72250000D02*
X115832978Y-72250000D01*
D21*
X125538112Y-65261888D02*
X126238112Y-65261888D01*
D20*
X120800000Y-64250000D02*
X121550000Y-64250000D01*
X155200000Y-80000000D02*
X155200000Y-79300000D01*
D21*
X122550000Y-68250000D02*
X125538112Y-65261888D01*
D20*
X115472817Y-68401000D02*
X115331339Y-68259522D01*
X155200000Y-85000000D02*
X153772729Y-85000000D01*
X119899789Y-61099789D02*
X119899789Y-60951371D01*
D21*
X125548884Y-63951888D02*
X126455272Y-63951888D01*
D20*
X117200000Y-68250000D02*
X116187144Y-68250000D01*
X114815787Y-76250000D02*
X114774941Y-76290846D01*
D21*
X115179756Y-63900000D02*
X114000000Y-63900000D01*
D20*
X116015686Y-74250000D02*
X116005554Y-74260132D01*
X116000000Y-66050000D02*
X115397758Y-66050000D01*
X120800000Y-62600000D02*
X120800000Y-62000000D01*
D21*
X120800000Y-68250000D02*
X122550000Y-68250000D01*
D20*
X159716376Y-90500000D02*
X160116376Y-90100000D01*
X122750000Y-70250000D02*
X122900000Y-70400000D01*
X120800000Y-62000000D02*
X119899789Y-61099789D01*
X115147758Y-66300000D02*
X114100000Y-66300000D01*
X120800000Y-70250000D02*
X120800000Y-71750000D01*
X158800000Y-81000000D02*
X159755611Y-81000000D01*
D21*
X123882829Y-65617171D02*
X123883601Y-65617171D01*
X122050000Y-75250000D02*
X122539369Y-75739369D01*
D20*
X122900000Y-70600000D02*
X122750000Y-70750000D01*
X122850000Y-71750000D02*
X122850000Y-71300000D01*
D21*
X127200000Y-66100000D02*
X127200000Y-65500000D01*
D20*
X160950000Y-88850000D02*
X161200000Y-88600000D01*
X115832978Y-72250000D02*
X115681978Y-72099000D01*
X122400000Y-62600000D02*
X120800000Y-62600000D01*
D21*
X120800000Y-69250000D02*
X122950000Y-69250000D01*
X120800000Y-73250000D02*
X124650000Y-73250000D01*
D20*
X122850000Y-71300000D02*
X122800000Y-71250000D01*
X155200000Y-91000000D02*
X153400000Y-91000000D01*
D21*
X122301000Y-77749456D02*
X122790913Y-78239369D01*
X126700000Y-66600000D02*
X127200000Y-66100000D01*
D20*
X155200000Y-79300000D02*
X154900000Y-79000000D01*
D21*
X122539369Y-75739369D02*
X123539369Y-75739369D01*
D20*
X116036144Y-68401000D02*
X115472817Y-68401000D01*
D21*
X121801544Y-65250000D02*
X125791024Y-61260520D01*
D20*
X120800000Y-70250000D02*
X122750000Y-70250000D01*
D21*
X123539369Y-75739369D02*
X124000000Y-76200000D01*
D20*
X117200000Y-74250000D02*
X116015686Y-74250000D01*
X159792089Y-84500000D02*
X160175002Y-84882913D01*
X115250491Y-77649509D02*
X114100000Y-78800000D01*
X115171866Y-74198597D02*
X114701846Y-74198597D01*
X158800000Y-91500000D02*
X160000000Y-91500000D01*
X120800000Y-71750000D02*
X122200000Y-71750000D01*
D21*
X126838962Y-63568198D02*
X126838962Y-63305036D01*
D20*
X120800000Y-70750000D02*
X122750000Y-70750000D01*
X117200000Y-70250000D02*
X115850000Y-70250000D01*
X160392234Y-86500000D02*
X161173415Y-85718819D01*
X158800000Y-90500000D02*
X159716376Y-90500000D01*
X161200000Y-88081614D02*
X161652905Y-87628709D01*
D22*
X117200000Y-81000000D02*
X117200000Y-81200000D01*
D21*
X121904632Y-66250000D02*
X125512743Y-62641888D01*
D20*
X158800000Y-86500000D02*
X160392234Y-86500000D01*
D21*
X116170244Y-64250000D02*
X115740244Y-63820000D01*
D20*
X158800000Y-84500000D02*
X159792089Y-84500000D01*
X117200000Y-77250000D02*
X116164215Y-77250000D01*
D21*
X127239480Y-61260520D02*
X127300000Y-61200000D01*
D22*
X117200000Y-78250000D02*
X117200000Y-81000000D01*
D21*
X122301000Y-77627457D02*
X122301000Y-77749456D01*
X120800000Y-67250000D02*
X122250000Y-67250000D01*
D20*
X158800000Y-89000000D02*
X159800000Y-89000000D01*
X120800000Y-63750000D02*
X120800000Y-62600000D01*
D21*
X124750000Y-71250000D02*
X127396353Y-68603647D01*
X117200000Y-64250000D02*
X116170244Y-64250000D01*
D20*
X161900000Y-91700000D02*
X162000000Y-91600000D01*
X159950000Y-88850000D02*
X160950000Y-88850000D01*
D21*
X123639369Y-78239369D02*
X124800000Y-79400000D01*
D20*
X117200000Y-66250000D02*
X116200000Y-66250000D01*
D21*
X125512743Y-62641888D02*
X126758112Y-62641888D01*
D20*
X160520326Y-82500000D02*
X160600000Y-82579674D01*
X159800000Y-89000000D02*
X159950000Y-88850000D01*
D21*
X121923543Y-77250000D02*
X122301000Y-77627457D01*
D20*
X116164215Y-77250000D02*
X115764706Y-77649509D01*
D21*
X120800000Y-71250000D02*
X122800000Y-71250000D01*
X115740244Y-63820000D02*
X115259756Y-63820000D01*
X125600000Y-66600000D02*
X126700000Y-66600000D01*
D20*
X115764706Y-77649509D02*
X115495163Y-77649509D01*
D21*
X126455272Y-63951888D02*
X126838962Y-63568198D01*
D20*
X114698585Y-74195336D02*
X114698585Y-74083062D01*
D21*
X126238112Y-65261888D02*
X126900000Y-64600000D01*
D20*
X159755611Y-81000000D02*
X160475000Y-80280611D01*
D21*
X122250000Y-67250000D02*
X123882829Y-65617171D01*
D20*
X122750000Y-70750000D02*
X122750000Y-71200000D01*
X114100000Y-78800000D02*
X114100000Y-78900000D01*
D21*
X127696353Y-68603647D02*
X130200000Y-66100000D01*
D20*
X121700000Y-72250000D02*
X122200000Y-71750000D01*
X153400000Y-91000000D02*
X153200000Y-91200000D01*
D21*
X120800000Y-66250000D02*
X121904632Y-66250000D01*
D20*
X116005554Y-74260132D02*
X115233401Y-74260132D01*
D21*
X125791024Y-61260520D02*
X127239480Y-61260520D01*
X124000000Y-76200000D02*
X124000000Y-76300000D01*
D20*
X120800000Y-64250000D02*
X120800000Y-63750000D01*
D21*
X120800000Y-65250000D02*
X121801544Y-65250000D01*
D20*
X116200000Y-66250000D02*
X116000000Y-66050000D01*
D21*
X127200000Y-65500000D02*
X128600000Y-64100000D01*
D20*
X155200000Y-88000000D02*
X154284924Y-88000000D01*
D21*
X120800000Y-77250000D02*
X121923543Y-77250000D01*
X127300000Y-61200000D02*
X128000000Y-61200000D01*
X126838962Y-63305036D02*
X127600000Y-62543998D01*
D20*
X122400000Y-63400000D02*
X122400000Y-62600000D01*
X121550000Y-64250000D02*
X122400000Y-63400000D01*
X153772729Y-85000000D02*
X153599770Y-85172959D01*
D21*
X130200000Y-66100000D02*
X130200000Y-65100000D01*
X122800000Y-71250000D02*
X124750000Y-71250000D01*
D22*
X135000000Y-81900000D02*
X136650000Y-80250000D01*
X137245000Y-81004155D02*
X137245000Y-80845000D01*
X137245000Y-80845000D02*
X136650000Y-80250000D01*
X144200000Y-61000000D02*
X131100000Y-74100000D01*
X135000000Y-83600000D02*
X135000000Y-81900000D01*
X144200000Y-60800000D02*
X144200000Y-61000000D01*
X136650000Y-80250000D02*
X145200000Y-71700000D01*
D23*
X144400002Y-57000000D02*
X150560680Y-57000000D01*
D22*
X144000001Y-58899999D02*
X144000001Y-57400001D01*
X137877298Y-65022702D02*
X131500000Y-71400000D01*
D23*
X154187500Y-57987500D02*
X154187500Y-58012500D01*
D22*
X131500000Y-71400000D02*
X131500000Y-72400000D01*
D23*
X144000001Y-57400001D02*
X144400002Y-57000000D01*
X150761800Y-57201120D02*
X153401120Y-57201120D01*
D22*
X142287457Y-78648674D02*
X142551326Y-78648674D01*
X142551326Y-78648674D02*
X158300001Y-62899999D01*
D23*
X150560680Y-57000000D02*
X150761800Y-57201120D01*
D22*
X137877298Y-65022702D02*
X144000001Y-58899999D01*
D23*
X153401120Y-57201120D02*
X154187500Y-57987500D01*
D24*
X120800000Y-72750000D02*
X122145000Y-72750000D01*
X122145000Y-72750000D02*
X122300000Y-72595000D01*
X150400000Y-79500000D02*
X150400000Y-79200000D01*
X139800000Y-90100000D02*
X150400000Y-79500000D01*
X120800000Y-73750000D02*
X122673727Y-73750000D01*
X138300000Y-90200000D02*
X149200000Y-79300000D01*
X122673727Y-73750000D02*
X123000000Y-74076273D01*
X149200000Y-79300000D02*
X149200000Y-79200000D01*
D22*
X147300000Y-72900000D02*
X146300000Y-72900000D01*
X146300000Y-72900000D02*
X146300000Y-73200000D01*
X146300000Y-73200000D02*
X137550000Y-81950000D01*
X137550000Y-81950000D02*
X137550000Y-82350000D01*
X137550000Y-82350000D02*
X136300000Y-83600000D01*
X155400000Y-64800000D02*
X147300000Y-72900000D01*
D23*
X134434000Y-51774000D02*
X135660000Y-53000000D01*
X121126000Y-51774000D02*
X134434000Y-51774000D01*
X120900000Y-52000000D02*
X121126000Y-51774000D01*
D22*
X161600000Y-55500000D02*
X161400000Y-55300000D01*
X161400000Y-55300000D02*
X158100000Y-55300000D01*
X150900000Y-53000000D02*
X150900000Y-51500000D01*
D23*
X157737500Y-51500000D02*
X157900000Y-51662500D01*
X144780000Y-51500000D02*
X143280000Y-53000000D01*
X150900000Y-51500000D02*
X144780000Y-51500000D01*
X150900000Y-51500000D02*
X157737500Y-51500000D01*
D20*
X145667627Y-67332373D02*
X145667627Y-67167627D01*
X154100000Y-91500000D02*
X153900000Y-91700000D01*
X153900000Y-91700000D02*
X153900000Y-92600000D01*
X150635253Y-62200000D02*
X145667627Y-67167627D01*
X142500000Y-70500000D02*
X145667627Y-67332373D01*
X162200000Y-62200000D02*
X150635253Y-62200000D01*
X155200000Y-91500000D02*
X154100000Y-91500000D01*
X151600000Y-90600000D02*
X151500000Y-90500000D01*
X150752298Y-64247702D02*
X150752298Y-64147702D01*
X154034315Y-90600000D02*
X151600000Y-90600000D01*
X155200000Y-90500000D02*
X154134315Y-90500000D01*
X146600000Y-68400000D02*
X150752298Y-64247702D01*
X154134315Y-90500000D02*
X154034315Y-90600000D01*
X148600000Y-73900000D02*
X152900000Y-69600000D01*
X148400000Y-65400000D02*
X148300000Y-65400000D01*
X145635343Y-68500443D02*
X145701000Y-68566100D01*
X145701000Y-67999000D02*
X145701000Y-68566100D01*
X143851606Y-70415494D02*
X143577116Y-70415494D01*
X160825000Y-91000000D02*
X161000000Y-90825000D01*
X148500000Y-65400000D02*
X148600000Y-65300000D01*
X148600000Y-74100000D02*
X148600000Y-73900000D01*
X148400000Y-65400000D02*
X148500000Y-65400000D01*
X148300000Y-65400000D02*
X145701000Y-67999000D01*
X145701000Y-68566100D02*
X143851606Y-70415494D01*
X158800000Y-91000000D02*
X160825000Y-91000000D01*
X145353021Y-68500443D02*
X145635343Y-68500443D01*
D24*
X120800000Y-64750000D02*
X121750000Y-64750000D01*
X121750000Y-64750000D02*
X125965000Y-60535000D01*
X146750000Y-79250000D02*
X147050000Y-79250000D01*
X120800000Y-75750000D02*
X121850000Y-75750000D01*
X122500000Y-76400000D02*
X123000000Y-76400000D01*
X136200000Y-90200000D02*
X136200000Y-89800000D01*
X136200000Y-89800000D02*
X146750000Y-79250000D01*
X121850000Y-75750000D02*
X122500000Y-76400000D01*
X144714304Y-79083041D02*
X144616959Y-79083041D01*
X121750000Y-77750000D02*
X122900000Y-78900000D01*
X120800000Y-77750000D02*
X121750000Y-77750000D01*
X144616959Y-79083041D02*
X133900000Y-89800000D01*
X133900000Y-89800000D02*
X133900000Y-90100000D01*
X125673112Y-67226888D02*
X126023430Y-67226888D01*
X120800000Y-69750000D02*
X123150000Y-69750000D01*
X123150000Y-69750000D02*
X125673112Y-67226888D01*
X120800000Y-66750000D02*
X122050000Y-66750000D01*
X125503112Y-63296888D02*
X126000000Y-63296888D01*
X122050000Y-66750000D02*
X125503112Y-63296888D01*
X148000000Y-79200000D02*
X148200000Y-79200000D01*
X137300000Y-90200000D02*
X137300000Y-89900000D01*
X120800000Y-74750000D02*
X122781262Y-74750000D01*
X122781262Y-74750000D02*
X123115631Y-75084369D01*
X137300000Y-89900000D02*
X148000000Y-79200000D01*
X122750000Y-68750000D02*
X125583112Y-65916888D01*
X125583112Y-65916888D02*
X126000000Y-65916888D01*
X120800000Y-68750000D02*
X122750000Y-68750000D01*
D20*
X154200000Y-89500000D02*
X154050000Y-89350000D01*
X152630704Y-89350000D02*
X152590352Y-89390352D01*
X149000000Y-62500000D02*
X148300000Y-62500000D01*
X155200000Y-89500000D02*
X154200000Y-89500000D01*
X142144601Y-68655399D02*
X142144601Y-69090598D01*
X148300000Y-62500000D02*
X142144601Y-68655399D01*
X154050000Y-89350000D02*
X152630704Y-89350000D01*
D22*
X161900000Y-54400000D02*
X115200000Y-54400000D01*
D20*
X158800000Y-81500000D02*
X160668815Y-81500000D01*
D25*
X115000000Y-62200000D02*
X115000000Y-62903353D01*
X117200000Y-63750000D02*
X116550000Y-63750000D01*
D20*
X159774143Y-82000000D02*
X160544469Y-81229674D01*
D25*
X115000000Y-62903353D02*
X115121026Y-63024379D01*
X115296647Y-63200000D02*
X115121026Y-63024379D01*
D20*
X158800000Y-82000000D02*
X159774143Y-82000000D01*
D25*
X116000000Y-63200000D02*
X115296647Y-63200000D01*
D22*
X115200000Y-54400000D02*
X115000000Y-54600000D01*
D20*
X160668815Y-81500000D02*
X161118815Y-81050000D01*
D25*
X116550000Y-63750000D02*
X116000000Y-63200000D01*
D22*
X162100000Y-54200000D02*
X161900000Y-54400000D01*
D20*
X141744601Y-68536003D02*
X141744601Y-68255399D01*
X155000000Y-75900000D02*
X155200000Y-75900000D01*
X141744601Y-68255399D02*
X148500000Y-61500000D01*
X158900000Y-72200000D02*
X158900000Y-71913175D01*
X148500000Y-61500000D02*
X149000000Y-61500000D01*
X155200000Y-75900000D02*
X158900000Y-72200000D01*
X154234924Y-88950000D02*
X153691280Y-88950000D01*
X155200000Y-89000000D02*
X154284925Y-89000000D01*
X141200000Y-69200000D02*
X141200000Y-69080604D01*
X153691280Y-88950000D02*
X153341280Y-88600000D01*
X154284925Y-89000000D02*
X154234924Y-88950000D01*
X141200000Y-69080604D02*
X141744601Y-68536003D01*
X153341280Y-88600000D02*
X152200000Y-88600000D01*
X117200000Y-71750000D02*
X116181507Y-71750000D01*
X115976192Y-71544685D02*
X115227596Y-71544685D01*
X116181507Y-71750000D02*
X115976192Y-71544685D01*
X148700000Y-60500000D02*
X141088368Y-68111632D01*
X141088368Y-68111632D02*
X141088368Y-68306947D01*
X153900000Y-75700000D02*
X154000000Y-75700000D01*
X158900000Y-70800000D02*
X158900000Y-70423245D01*
X153223084Y-87892755D02*
X151728504Y-87892755D01*
X155200000Y-88500000D02*
X153830329Y-88500000D01*
X154000000Y-75700000D02*
X158900000Y-70800000D01*
X153830329Y-88500000D02*
X153223084Y-87892755D01*
X149000000Y-60500000D02*
X148700000Y-60500000D01*
X115752439Y-77096090D02*
X114718699Y-77096090D01*
X117200000Y-76750000D02*
X116098529Y-76750000D01*
X131471982Y-75828018D02*
X123100000Y-84200000D01*
X116098529Y-76750000D02*
X115752439Y-77096090D01*
X131879080Y-75828018D02*
X131471982Y-75828018D01*
X117200000Y-73750000D02*
X116129232Y-73750000D01*
X116129232Y-73750000D02*
X116029232Y-73850000D01*
X115221866Y-73682596D02*
X115221866Y-73545771D01*
X116029232Y-73850000D02*
X115389270Y-73850000D01*
X115389270Y-73850000D02*
X115221866Y-73682596D01*
X117200000Y-75750000D02*
X117150000Y-75800000D01*
X117150000Y-75800000D02*
X115088972Y-75800000D01*
X115088972Y-75800000D02*
X114831988Y-75543016D01*
D24*
X122460086Y-67750000D02*
X125603198Y-64606888D01*
X125603198Y-64606888D02*
X126020017Y-64606888D01*
X120800000Y-67750000D02*
X122460086Y-67750000D01*
X125616200Y-61986888D02*
X125939422Y-61986888D01*
X121853088Y-65750000D02*
X125616200Y-61986888D01*
X120800000Y-65750000D02*
X121853088Y-65750000D01*
X131255102Y-75179438D02*
X130820562Y-75179438D01*
X117200000Y-77750000D02*
X116287155Y-77750000D01*
X115683849Y-78353306D02*
X115683849Y-78499571D01*
X130820562Y-75179438D02*
X121800000Y-84200000D01*
X116287155Y-77750000D02*
X115683849Y-78353306D01*
D20*
X117200000Y-65250000D02*
X115897617Y-65250000D01*
X115897617Y-65250000D02*
X115747617Y-65100000D01*
X115747617Y-65100000D02*
X115092822Y-65100000D01*
X115092822Y-65100000D02*
X114900000Y-64907178D01*
X117200000Y-73250000D02*
X115914439Y-73250000D01*
X115914439Y-73250000D02*
X115912089Y-73252350D01*
X117200000Y-74750000D02*
X115942228Y-74750000D01*
X115942228Y-74750000D02*
X115842228Y-74850000D01*
X115950000Y-64750000D02*
X115600000Y-64400000D01*
X115600000Y-64400000D02*
X115500000Y-64400000D01*
X117200000Y-64750000D02*
X115950000Y-64750000D01*
X116102350Y-72652350D02*
X115663560Y-72652350D01*
X115663560Y-72652350D02*
X115565910Y-72750000D01*
X115565910Y-72750000D02*
X115250000Y-72750000D01*
X117200000Y-72750000D02*
X116200000Y-72750000D01*
X116200000Y-72750000D02*
X116102350Y-72652350D01*
X115250000Y-72750000D02*
X115200000Y-72800000D01*
X116050000Y-75400000D02*
X115524740Y-75400000D01*
X116200000Y-75250000D02*
X116050000Y-75400000D01*
X115524740Y-75400000D02*
X114923337Y-74798597D01*
X117200000Y-75250000D02*
X116200000Y-75250000D01*
D24*
X120800000Y-76750000D02*
X122227854Y-76750000D01*
X135100000Y-90200000D02*
X135100000Y-89700000D01*
X135100000Y-89700000D02*
X145600000Y-79200000D01*
X145600000Y-79200000D02*
X145900000Y-79200000D01*
X122227854Y-76750000D02*
X123006951Y-77529097D01*
D20*
X115895270Y-70898078D02*
X115753393Y-70898078D01*
X116247192Y-71250000D02*
X115895270Y-70898078D01*
X117200000Y-71250000D02*
X116247192Y-71250000D01*
X159715075Y-88500000D02*
X160021214Y-88193861D01*
X158800000Y-88500000D02*
X159715075Y-88500000D01*
X160021214Y-88193861D02*
X160314764Y-88193861D01*
X116326131Y-68801000D02*
X116316610Y-68810522D01*
X116377132Y-68750000D02*
X116326131Y-68801000D01*
X114860522Y-68810522D02*
X114750000Y-68700000D01*
X116316610Y-68810522D02*
X114860522Y-68810522D01*
X117200000Y-68750000D02*
X116377132Y-68750000D01*
X117200000Y-69250000D02*
X115950000Y-69250000D01*
X115950000Y-69250000D02*
X115800000Y-69400000D01*
X151950000Y-80950000D02*
X148100000Y-84800000D01*
X155200000Y-81000000D02*
X154350610Y-81000000D01*
X154350610Y-81000000D02*
X154300609Y-80950000D01*
X153099387Y-80950000D02*
X151950000Y-80950000D01*
X154300609Y-80950000D02*
X153099388Y-80950001D01*
X153099388Y-80950001D02*
X153099387Y-80950000D01*
X117200000Y-67250000D02*
X115250000Y-67250000D01*
X115250000Y-67250000D02*
X115100000Y-67100000D01*
X155200000Y-80500000D02*
X151499997Y-80500000D01*
X151499997Y-80500000D02*
X148100000Y-83899997D01*
X148200000Y-89434314D02*
X148200000Y-89500000D01*
X152599770Y-84758745D02*
X152599770Y-85034544D01*
X155200000Y-84000000D02*
X153358515Y-84000000D01*
X152599770Y-85034544D02*
X148200000Y-89434314D01*
X153358515Y-84000000D02*
X152599770Y-84758745D01*
D23*
X154900000Y-49700000D02*
X118432078Y-49700000D01*
D20*
X158800000Y-79575000D02*
X159375000Y-79000000D01*
X158800000Y-80000000D02*
X158800000Y-79575000D01*
D23*
X118432078Y-49700000D02*
X118180982Y-49951096D01*
D20*
X159375000Y-79000000D02*
X159600000Y-79000000D01*
X158800000Y-80500000D02*
X159450000Y-80500000D01*
D23*
X155900000Y-50700000D02*
X154900000Y-49700000D01*
D20*
X158800000Y-80500000D02*
X158800000Y-80000000D01*
X117200000Y-67750000D02*
X115911263Y-67750000D01*
X115911263Y-67750000D02*
X115860263Y-67801000D01*
X153564579Y-83188509D02*
X152611491Y-83188509D01*
X155200000Y-83000000D02*
X153753088Y-83000000D01*
X152611491Y-83188509D02*
X148100000Y-87700000D01*
X153753088Y-83000000D02*
X153564579Y-83188509D01*
X116221015Y-65650000D02*
X115731931Y-65650000D01*
X117200000Y-65750000D02*
X116321016Y-65750000D01*
X115731931Y-65650000D02*
X115581931Y-65500000D01*
X115581931Y-65500000D02*
X114500000Y-65500000D01*
X116321016Y-65750000D02*
X116221015Y-65650000D01*
X155200000Y-84500000D02*
X153424200Y-84500000D01*
X153424200Y-84500000D02*
X152999770Y-84924430D01*
X141100002Y-97499998D02*
X140300000Y-97499998D01*
X135900000Y-80100000D02*
X129500000Y-86500000D01*
X129500000Y-86500000D02*
X129500000Y-86900000D01*
X152999770Y-84924430D02*
X152999770Y-85600230D01*
X152999770Y-85600230D02*
X141100002Y-97499998D01*
X115906801Y-66750000D02*
X115806801Y-66650000D01*
X117200000Y-66750000D02*
X115906801Y-66750000D01*
X153111491Y-83588509D02*
X148100000Y-88600000D01*
X153730264Y-83588509D02*
X153111491Y-83588509D01*
X155200000Y-83500000D02*
X153818774Y-83500000D01*
X153818774Y-83500000D02*
X153730264Y-83588509D01*
X153950000Y-81750000D02*
X153150000Y-81750000D01*
X154200000Y-82000000D02*
X153950000Y-81750000D01*
X155200000Y-82000000D02*
X154200000Y-82000000D01*
X153150000Y-81750000D02*
X148100000Y-86800000D01*
X154134924Y-81350000D02*
X152450000Y-81350000D01*
X154284925Y-81500000D02*
X154134924Y-81350000D01*
X152450000Y-81350000D02*
X148100000Y-85700000D01*
X155200000Y-81500000D02*
X154284925Y-81500000D01*
X143040513Y-69004891D02*
X143040513Y-68659487D01*
X148600000Y-63300000D02*
X148519240Y-63300000D01*
X148284449Y-63415551D02*
X148403689Y-63415551D01*
X148519240Y-63300000D02*
X148403689Y-63415551D01*
X143040513Y-68659487D02*
X148284449Y-63415551D01*
X158800000Y-89500000D02*
X160200000Y-89500000D01*
G04 #@! TA.AperFunction,Conductor*
G36*
X134559285Y-69539140D02*
G01*
X134594939Y-69599228D01*
X134592448Y-69669053D01*
X134562473Y-69717579D01*
X132362181Y-71917872D01*
X132342744Y-71928484D01*
X132326011Y-71942985D01*
X132312679Y-71944901D01*
X132300858Y-71951357D01*
X132278771Y-71949777D01*
X132256853Y-71952929D01*
X132244601Y-71947333D01*
X132231166Y-71946373D01*
X132213439Y-71933102D01*
X132193297Y-71923904D01*
X132186014Y-71912572D01*
X132175233Y-71904501D01*
X132167495Y-71883755D01*
X132155523Y-71865126D01*
X132152371Y-71843207D01*
X132150816Y-71839037D01*
X132150500Y-71830191D01*
X132150500Y-71720807D01*
X132170185Y-71653768D01*
X132186814Y-71633131D01*
X134243815Y-69576129D01*
X134305136Y-69542646D01*
X134307134Y-69542229D01*
X134413491Y-69521074D01*
X134427337Y-69515338D01*
X134496804Y-69507867D01*
X134559285Y-69539140D01*
G37*
G04 #@! TD.AperFunction*
G04 #@! TA.AperFunction,Conductor*
G36*
X117274391Y-49520185D02*
G01*
X117320146Y-49572989D01*
X117330090Y-49642147D01*
X117321914Y-49671950D01*
X117315088Y-49688429D01*
X117315085Y-49688437D01*
X117280482Y-49862400D01*
X117280482Y-50039791D01*
X117315085Y-50213754D01*
X117315088Y-50213763D01*
X117382965Y-50377636D01*
X117382972Y-50377649D01*
X117481517Y-50525130D01*
X117481520Y-50525134D01*
X117606943Y-50650557D01*
X117606947Y-50650560D01*
X117754428Y-50749105D01*
X117754441Y-50749112D01*
X117824018Y-50777931D01*
X117918316Y-50816990D01*
X117918318Y-50816990D01*
X117918323Y-50816992D01*
X118092286Y-50851595D01*
X118092289Y-50851596D01*
X118092291Y-50851596D01*
X118269675Y-50851596D01*
X118269676Y-50851595D01*
X118327664Y-50840060D01*
X118443640Y-50816992D01*
X118443643Y-50816990D01*
X118443648Y-50816990D01*
X118607529Y-50749109D01*
X118755017Y-50650560D01*
X118828359Y-50577217D01*
X118889680Y-50543734D01*
X118959372Y-50548718D01*
X119003719Y-50577218D01*
X119025962Y-50599461D01*
X119025966Y-50599465D01*
X119173446Y-50698009D01*
X119173459Y-50698016D01*
X119296363Y-50748923D01*
X119337334Y-50765894D01*
X119337336Y-50765894D01*
X119337341Y-50765896D01*
X119511304Y-50800499D01*
X119511307Y-50800500D01*
X119511309Y-50800500D01*
X119688693Y-50800500D01*
X119688694Y-50800499D01*
X119758576Y-50786599D01*
X119862658Y-50765896D01*
X119862661Y-50765894D01*
X119862666Y-50765894D01*
X120026547Y-50698013D01*
X120174035Y-50599464D01*
X120299464Y-50474035D01*
X120322920Y-50438931D01*
X120328481Y-50430609D01*
X120382094Y-50385804D01*
X120431583Y-50375500D01*
X154156568Y-50375500D01*
X154168870Y-50379112D01*
X154181649Y-50378063D01*
X154201754Y-50388768D01*
X154223607Y-50395185D01*
X154233448Y-50405644D01*
X154243321Y-50410901D01*
X154255879Y-50429483D01*
X154264769Y-50438931D01*
X154268332Y-50445296D01*
X154301987Y-50526547D01*
X154374898Y-50635666D01*
X154377286Y-50639931D01*
X154384026Y-50669420D01*
X154393065Y-50698286D01*
X154391733Y-50703138D01*
X154392855Y-50708044D01*
X154382584Y-50736492D01*
X154374581Y-50765667D01*
X154370837Y-50769029D01*
X154369129Y-50773761D01*
X154345111Y-50792137D01*
X154322602Y-50812357D01*
X154317035Y-50813619D01*
X154313639Y-50816219D01*
X154301011Y-50817255D01*
X154269085Y-50824500D01*
X144713467Y-50824500D01*
X144582969Y-50850458D01*
X144582959Y-50850461D01*
X144460030Y-50901380D01*
X144460027Y-50901381D01*
X144368311Y-50962665D01*
X144349397Y-50975302D01*
X144349391Y-50975307D01*
X143680371Y-51644326D01*
X143619048Y-51677811D01*
X143573293Y-51679118D01*
X143386287Y-51649500D01*
X143173713Y-51649500D01*
X143125042Y-51657208D01*
X142963760Y-51682753D01*
X142761585Y-51748444D01*
X142572179Y-51844951D01*
X142400213Y-51969890D01*
X142249890Y-52120213D01*
X142124949Y-52292182D01*
X142120202Y-52301499D01*
X142072227Y-52352293D01*
X142004405Y-52369087D01*
X141938271Y-52346548D01*
X141899234Y-52301495D01*
X141894626Y-52292452D01*
X141855270Y-52238282D01*
X141855269Y-52238282D01*
X141222962Y-52870589D01*
X141205925Y-52807007D01*
X141140099Y-52692993D01*
X141047007Y-52599901D01*
X140932993Y-52534075D01*
X140869409Y-52517037D01*
X141501716Y-51884728D01*
X141447550Y-51845375D01*
X141258217Y-51748904D01*
X141056129Y-51683242D01*
X140846246Y-51650000D01*
X140633754Y-51650000D01*
X140423872Y-51683242D01*
X140423869Y-51683242D01*
X140221782Y-51748904D01*
X140032439Y-51845380D01*
X139978282Y-51884727D01*
X139978282Y-51884728D01*
X140610591Y-52517037D01*
X140547007Y-52534075D01*
X140432993Y-52599901D01*
X140339901Y-52692993D01*
X140274075Y-52807007D01*
X140257037Y-52870591D01*
X139624728Y-52238282D01*
X139624727Y-52238282D01*
X139585380Y-52292440D01*
X139585376Y-52292446D01*
X139580760Y-52301505D01*
X139532781Y-52352297D01*
X139464959Y-52369087D01*
X139398826Y-52346543D01*
X139359794Y-52301493D01*
X139355051Y-52292184D01*
X139355049Y-52292181D01*
X139355048Y-52292179D01*
X139230109Y-52120213D01*
X139079786Y-51969890D01*
X138907820Y-51844951D01*
X138718414Y-51748444D01*
X138718413Y-51748443D01*
X138718412Y-51748443D01*
X138516243Y-51682754D01*
X138516241Y-51682753D01*
X138516240Y-51682753D01*
X138354957Y-51657208D01*
X138306287Y-51649500D01*
X138093713Y-51649500D01*
X138045042Y-51657208D01*
X137883760Y-51682753D01*
X137681585Y-51748444D01*
X137492179Y-51844951D01*
X137320213Y-51969890D01*
X137169890Y-52120213D01*
X137044949Y-52292182D01*
X137040484Y-52300946D01*
X136992509Y-52351742D01*
X136924688Y-52368536D01*
X136858553Y-52345998D01*
X136819516Y-52300946D01*
X136815050Y-52292182D01*
X136690109Y-52120213D01*
X136539786Y-51969890D01*
X136367820Y-51844951D01*
X136178414Y-51748444D01*
X136178413Y-51748443D01*
X136178412Y-51748443D01*
X135976243Y-51682754D01*
X135976241Y-51682753D01*
X135976240Y-51682753D01*
X135814957Y-51657208D01*
X135766287Y-51649500D01*
X135553713Y-51649500D01*
X135423247Y-51670164D01*
X135366714Y-51679118D01*
X135366707Y-51679119D01*
X135297413Y-51670164D01*
X135259628Y-51644327D01*
X134864609Y-51249307D01*
X134864605Y-51249304D01*
X134753975Y-51175383D01*
X134753965Y-51175378D01*
X134631036Y-51124459D01*
X134631028Y-51124457D01*
X134500535Y-51098500D01*
X134500531Y-51098500D01*
X121059469Y-51098500D01*
X121045751Y-51101228D01*
X120997382Y-51101228D01*
X120988692Y-51099500D01*
X120988691Y-51099500D01*
X120811309Y-51099500D01*
X120811306Y-51099500D01*
X120637341Y-51134103D01*
X120637332Y-51134106D01*
X120473459Y-51201983D01*
X120473446Y-51201990D01*
X120325965Y-51300535D01*
X120325961Y-51300538D01*
X120200538Y-51425961D01*
X120200535Y-51425965D01*
X120101990Y-51573446D01*
X120101983Y-51573459D01*
X120034106Y-51737332D01*
X120034103Y-51737341D01*
X119999500Y-51911304D01*
X119999500Y-52088695D01*
X120034103Y-52262658D01*
X120034106Y-52262667D01*
X120101983Y-52426540D01*
X120101990Y-52426553D01*
X120200535Y-52574034D01*
X120200538Y-52574038D01*
X120325961Y-52699461D01*
X120325965Y-52699464D01*
X120473446Y-52798009D01*
X120473459Y-52798016D01*
X120596363Y-52848923D01*
X120637334Y-52865894D01*
X120637336Y-52865894D01*
X120637341Y-52865896D01*
X120811304Y-52900499D01*
X120811307Y-52900500D01*
X120811309Y-52900500D01*
X120988693Y-52900500D01*
X120988694Y-52900499D01*
X121046682Y-52888964D01*
X121162658Y-52865896D01*
X121162661Y-52865894D01*
X121162666Y-52865894D01*
X121326547Y-52798013D01*
X121474035Y-52699464D01*
X121599464Y-52574035D01*
X121629959Y-52528396D01*
X121645853Y-52504610D01*
X121699465Y-52459804D01*
X121748955Y-52449500D01*
X124026000Y-52449500D01*
X124093039Y-52469185D01*
X124138794Y-52521989D01*
X124150000Y-52573500D01*
X124150000Y-52750000D01*
X125066988Y-52750000D01*
X125034075Y-52807007D01*
X125000000Y-52934174D01*
X125000000Y-53065826D01*
X125034075Y-53192993D01*
X125066988Y-53250000D01*
X124150000Y-53250000D01*
X124150000Y-53625500D01*
X124130315Y-53692539D01*
X124077511Y-53738294D01*
X124026000Y-53749500D01*
X116774361Y-53749500D01*
X116707322Y-53729815D01*
X116686684Y-53713185D01*
X116574035Y-53600536D01*
X116574034Y-53600535D01*
X116574033Y-53600534D01*
X116426553Y-53501990D01*
X116426540Y-53501983D01*
X116262667Y-53434106D01*
X116262658Y-53434103D01*
X116088694Y-53399500D01*
X116088691Y-53399500D01*
X115911309Y-53399500D01*
X115911306Y-53399500D01*
X115737341Y-53434103D01*
X115737332Y-53434106D01*
X115573459Y-53501983D01*
X115573446Y-53501990D01*
X115425965Y-53600535D01*
X115425961Y-53600538D01*
X115334329Y-53692171D01*
X115273006Y-53725656D01*
X115222457Y-53726107D01*
X115088695Y-53699500D01*
X115088691Y-53699500D01*
X114911309Y-53699500D01*
X114911306Y-53699500D01*
X114737341Y-53734103D01*
X114737332Y-53734106D01*
X114573459Y-53801983D01*
X114573446Y-53801990D01*
X114425965Y-53900535D01*
X114425961Y-53900538D01*
X114300538Y-54025961D01*
X114300535Y-54025965D01*
X114201990Y-54173446D01*
X114201983Y-54173459D01*
X114134106Y-54337332D01*
X114134103Y-54337341D01*
X114099500Y-54511304D01*
X114099500Y-54688695D01*
X114134103Y-54862658D01*
X114134106Y-54862667D01*
X114201983Y-55026540D01*
X114201990Y-55026553D01*
X114300535Y-55174034D01*
X114300538Y-55174038D01*
X114425961Y-55299461D01*
X114425965Y-55299464D01*
X114573446Y-55398009D01*
X114573459Y-55398016D01*
X114623384Y-55418695D01*
X114737334Y-55465894D01*
X114737336Y-55465894D01*
X114737341Y-55465896D01*
X114911304Y-55500499D01*
X114911307Y-55500500D01*
X114911309Y-55500500D01*
X115088693Y-55500500D01*
X115088694Y-55500499D01*
X115146682Y-55488964D01*
X115262658Y-55465896D01*
X115262661Y-55465894D01*
X115262666Y-55465894D01*
X115426547Y-55398013D01*
X115574035Y-55299464D01*
X115665672Y-55207826D01*
X115726993Y-55174343D01*
X115777542Y-55173892D01*
X115823982Y-55183129D01*
X115911306Y-55200500D01*
X115911309Y-55200500D01*
X116088693Y-55200500D01*
X116088694Y-55200499D01*
X116146682Y-55188964D01*
X116262658Y-55165896D01*
X116262661Y-55165894D01*
X116262666Y-55165894D01*
X116426547Y-55098013D01*
X116426550Y-55098010D01*
X116426552Y-55098010D01*
X116466378Y-55071399D01*
X116533055Y-55050520D01*
X116535270Y-55050500D01*
X125950500Y-55050500D01*
X126017539Y-55070185D01*
X126063294Y-55122989D01*
X126074500Y-55174500D01*
X126074500Y-55206305D01*
X126074500Y-55206307D01*
X126074499Y-55206307D01*
X126106222Y-55365783D01*
X126106225Y-55365793D01*
X126168450Y-55516017D01*
X126168734Y-55516549D01*
X126168798Y-55516859D01*
X126170783Y-55521650D01*
X126169874Y-55522026D01*
X126182975Y-55584952D01*
X126170293Y-55628152D01*
X126170783Y-55628355D01*
X126168898Y-55632903D01*
X126168742Y-55633438D01*
X126168455Y-55633974D01*
X126106224Y-55784213D01*
X126106222Y-55784219D01*
X126074500Y-55943695D01*
X126074500Y-55943698D01*
X126074500Y-56106308D01*
X126074500Y-56106310D01*
X126074499Y-56106310D01*
X126106222Y-56265786D01*
X126106225Y-56265796D01*
X126168047Y-56415049D01*
X126175516Y-56484518D01*
X126168047Y-56509953D01*
X126106225Y-56659206D01*
X126106222Y-56659216D01*
X126074500Y-56818692D01*
X126074500Y-56818695D01*
X126074500Y-56981305D01*
X126074500Y-56981307D01*
X126074499Y-56981307D01*
X126106222Y-57140783D01*
X126106224Y-57140789D01*
X126136750Y-57214487D01*
X126168452Y-57291021D01*
X126182008Y-57311310D01*
X126192444Y-57326928D01*
X126213321Y-57393606D01*
X126194836Y-57460986D01*
X126192444Y-57464708D01*
X126168454Y-57500611D01*
X126168450Y-57500618D01*
X126106224Y-57650846D01*
X126106222Y-57650852D01*
X126074500Y-57810328D01*
X126074500Y-57810331D01*
X126074500Y-57972941D01*
X126074500Y-57972943D01*
X126074499Y-57972943D01*
X126106222Y-58132419D01*
X126106225Y-58132429D01*
X126168450Y-58282655D01*
X126168451Y-58282657D01*
X126189737Y-58314514D01*
X126210614Y-58381192D01*
X126192128Y-58448571D01*
X126189737Y-58452293D01*
X126118449Y-58558982D01*
X126056225Y-58709206D01*
X126056222Y-58709216D01*
X126024500Y-58868692D01*
X126024500Y-58868695D01*
X126024500Y-59031305D01*
X126024500Y-59031307D01*
X126024499Y-59031307D01*
X126056222Y-59190783D01*
X126056225Y-59190793D01*
X126118450Y-59341018D01*
X126171300Y-59420114D01*
X126192178Y-59486792D01*
X126173693Y-59554172D01*
X126170363Y-59559279D01*
X126163917Y-59568649D01*
X126158792Y-59573775D01*
X126104453Y-59655099D01*
X126103989Y-59655774D01*
X126077513Y-59677300D01*
X126051314Y-59699196D01*
X126050332Y-59699400D01*
X126049777Y-59699852D01*
X126046286Y-59700242D01*
X126001824Y-59709500D01*
X125883693Y-59709500D01*
X125724216Y-59741222D01*
X125724206Y-59741225D01*
X125573980Y-59803450D01*
X125573976Y-59803452D01*
X125438779Y-59893788D01*
X125438771Y-59893794D01*
X125323794Y-60008771D01*
X125323788Y-60008779D01*
X125233452Y-60143976D01*
X125233450Y-60143980D01*
X125171225Y-60294206D01*
X125171222Y-60294216D01*
X125139500Y-60453692D01*
X125139500Y-60453695D01*
X125139500Y-60616305D01*
X125139500Y-60616307D01*
X125139499Y-60616307D01*
X125171222Y-60775783D01*
X125171223Y-60775785D01*
X125171224Y-60775789D01*
X125181154Y-60799762D01*
X125188623Y-60869230D01*
X125157349Y-60931709D01*
X125154274Y-60934895D01*
X122225488Y-63863681D01*
X122164165Y-63897166D01*
X122137807Y-63900000D01*
X120950000Y-63900000D01*
X120950000Y-64295500D01*
X120947449Y-64304185D01*
X120948738Y-64313147D01*
X120937759Y-64337187D01*
X120930315Y-64362539D01*
X120923474Y-64368466D01*
X120919713Y-64376703D01*
X120897478Y-64390992D01*
X120877511Y-64408294D01*
X120866996Y-64410581D01*
X120860935Y-64414477D01*
X120826000Y-64419500D01*
X120774000Y-64419500D01*
X120706961Y-64399815D01*
X120661206Y-64347011D01*
X120650000Y-64295500D01*
X120650000Y-63600000D01*
X120950000Y-63600000D01*
X122100000Y-63600000D01*
X122100000Y-63552172D01*
X122099999Y-63552155D01*
X122093598Y-63492627D01*
X122093596Y-63492620D01*
X122043354Y-63357913D01*
X122043350Y-63357906D01*
X121957190Y-63242812D01*
X121957187Y-63242809D01*
X121842093Y-63156649D01*
X121842086Y-63156645D01*
X121707379Y-63106403D01*
X121707372Y-63106401D01*
X121647844Y-63100000D01*
X120950000Y-63100000D01*
X120950000Y-63600000D01*
X120650000Y-63600000D01*
X120650000Y-63100000D01*
X120124000Y-63100000D01*
X120056961Y-63080315D01*
X120011206Y-63027511D01*
X120000000Y-62976000D01*
X120000000Y-62661628D01*
X120019685Y-62594589D01*
X120024303Y-62588858D01*
X120036203Y-62571049D01*
X120070027Y-62520428D01*
X120080500Y-62467777D01*
X120080499Y-61632224D01*
X120070027Y-61579572D01*
X120070025Y-61579569D01*
X120070025Y-61579568D01*
X120030132Y-61519865D01*
X119970430Y-61479974D01*
X119970423Y-61479971D01*
X119917780Y-61469500D01*
X118082225Y-61469500D01*
X118029571Y-61479973D01*
X118029568Y-61479974D01*
X117969865Y-61519867D01*
X117929974Y-61579569D01*
X117929971Y-61579576D01*
X117919500Y-61632218D01*
X117919500Y-62467774D01*
X117929973Y-62520428D01*
X117929974Y-62520431D01*
X117976652Y-62590288D01*
X117973683Y-62592271D01*
X117997161Y-62635245D01*
X118000000Y-62661628D01*
X118000000Y-63295500D01*
X117980315Y-63362539D01*
X117927511Y-63408294D01*
X117876000Y-63419500D01*
X116745187Y-63419500D01*
X116678148Y-63399815D01*
X116632393Y-63347011D01*
X116622449Y-63277853D01*
X116623565Y-63271333D01*
X116625500Y-63261606D01*
X116625500Y-63138394D01*
X116601463Y-63017548D01*
X116554311Y-62903714D01*
X116554310Y-62903713D01*
X116554307Y-62903707D01*
X116482937Y-62796894D01*
X116462059Y-62730216D01*
X116480544Y-62662836D01*
X116532523Y-62616146D01*
X116558892Y-62608320D01*
X116558700Y-62607603D01*
X116566548Y-62605500D01*
X116566550Y-62605500D01*
X116695116Y-62571051D01*
X116810384Y-62504501D01*
X116904501Y-62410384D01*
X116971051Y-62295116D01*
X117005500Y-62166550D01*
X117005500Y-62033450D01*
X116971051Y-61904884D01*
X116904501Y-61789616D01*
X116810384Y-61695499D01*
X116700790Y-61632225D01*
X116695118Y-61628950D01*
X116695117Y-61628949D01*
X116695116Y-61628949D01*
X116566550Y-61594500D01*
X116433450Y-61594500D01*
X116304884Y-61628949D01*
X116304881Y-61628950D01*
X116189619Y-61695497D01*
X116189613Y-61695501D01*
X116095501Y-61789613D01*
X116095497Y-61789619D01*
X116028950Y-61904881D01*
X116028948Y-61904886D01*
X116022279Y-61929775D01*
X115985913Y-61989434D01*
X115923066Y-62019962D01*
X115853690Y-62011666D01*
X115799813Y-61967180D01*
X115787944Y-61945131D01*
X115731549Y-61808980D01*
X115731547Y-61808976D01*
X115641211Y-61673779D01*
X115641205Y-61673771D01*
X115526228Y-61558794D01*
X115526220Y-61558788D01*
X115391023Y-61468452D01*
X115391019Y-61468450D01*
X115240793Y-61406225D01*
X115240783Y-61406222D01*
X115081307Y-61374500D01*
X115081305Y-61374500D01*
X114918695Y-61374500D01*
X114918693Y-61374500D01*
X114759216Y-61406222D01*
X114759206Y-61406225D01*
X114608980Y-61468450D01*
X114608976Y-61468452D01*
X114473779Y-61558788D01*
X114473771Y-61558794D01*
X114358794Y-61673771D01*
X114358788Y-61673779D01*
X114268452Y-61808976D01*
X114268450Y-61808980D01*
X114206225Y-61959206D01*
X114206222Y-61959216D01*
X114174500Y-62118692D01*
X114174500Y-62118695D01*
X114174500Y-62281305D01*
X114174500Y-62281307D01*
X114174499Y-62281307D01*
X114206222Y-62440783D01*
X114206225Y-62440793D01*
X114268449Y-62591017D01*
X114285240Y-62616146D01*
X114311655Y-62655680D01*
X114317166Y-62663927D01*
X114338043Y-62730604D01*
X114328628Y-62780261D01*
X114327250Y-62783586D01*
X114327249Y-62783591D01*
X114295526Y-62943071D01*
X114295526Y-62943074D01*
X114295526Y-63105684D01*
X114295526Y-63105686D01*
X114295525Y-63105686D01*
X114327248Y-63265162D01*
X114327251Y-63265172D01*
X114389476Y-63415398D01*
X114389478Y-63415402D01*
X114479814Y-63550599D01*
X114479820Y-63550607D01*
X114594797Y-63665584D01*
X114594805Y-63665590D01*
X114730000Y-63755924D01*
X114730001Y-63755924D01*
X114730005Y-63755927D01*
X114823606Y-63794698D01*
X114835810Y-63804532D01*
X114850497Y-63810016D01*
X114862458Y-63826007D01*
X114878006Y-63838536D01*
X114882956Y-63853410D01*
X114892348Y-63865965D01*
X114893765Y-63885883D01*
X114900072Y-63904830D01*
X114896260Y-63920945D01*
X114897308Y-63935658D01*
X114887099Y-63959682D01*
X114884962Y-63968722D01*
X114882309Y-63973574D01*
X114834916Y-64044505D01*
X114807890Y-64109748D01*
X114804686Y-64115613D01*
X114784502Y-64135781D01*
X114766593Y-64158006D01*
X114759062Y-64161204D01*
X114755263Y-64165001D01*
X114744743Y-64167285D01*
X114720069Y-64177765D01*
X114681089Y-64185519D01*
X114681084Y-64185520D01*
X114544511Y-64242090D01*
X114544498Y-64242097D01*
X114421584Y-64324226D01*
X114421580Y-64324229D01*
X114317051Y-64428758D01*
X114317048Y-64428762D01*
X114234919Y-64551676D01*
X114234912Y-64551689D01*
X114178342Y-64688262D01*
X114178340Y-64688268D01*
X114159905Y-64780947D01*
X114127519Y-64842857D01*
X114107179Y-64859856D01*
X114021583Y-64917048D01*
X113917051Y-65021580D01*
X113917048Y-65021584D01*
X113834919Y-65144498D01*
X113834912Y-65144511D01*
X113778343Y-65281082D01*
X113778340Y-65281092D01*
X113749500Y-65426079D01*
X113749500Y-65426082D01*
X113749500Y-65573918D01*
X113749500Y-65573920D01*
X113749499Y-65573920D01*
X113778340Y-65718907D01*
X113778343Y-65718917D01*
X113834912Y-65855488D01*
X113834919Y-65855501D01*
X113917048Y-65978415D01*
X113917051Y-65978419D01*
X114021580Y-66082948D01*
X114021584Y-66082951D01*
X114144498Y-66165080D01*
X114144511Y-66165087D01*
X114281082Y-66221656D01*
X114281087Y-66221658D01*
X114281091Y-66221658D01*
X114281092Y-66221659D01*
X114426079Y-66250500D01*
X114426082Y-66250500D01*
X114573919Y-66250500D01*
X114598387Y-66245633D01*
X114667978Y-66251860D01*
X114723156Y-66294722D01*
X114746401Y-66360612D01*
X114730334Y-66428609D01*
X114691470Y-66470352D01*
X114621584Y-66517048D01*
X114621580Y-66517051D01*
X114517051Y-66621580D01*
X114517048Y-66621584D01*
X114434919Y-66744498D01*
X114434912Y-66744511D01*
X114378343Y-66881082D01*
X114378340Y-66881092D01*
X114349500Y-67026079D01*
X114349500Y-67026082D01*
X114349500Y-67173918D01*
X114349500Y-67173920D01*
X114349499Y-67173920D01*
X114378340Y-67318907D01*
X114378343Y-67318917D01*
X114434912Y-67455488D01*
X114434919Y-67455501D01*
X114517048Y-67578415D01*
X114517051Y-67578419D01*
X114621580Y-67682948D01*
X114621584Y-67682951D01*
X114692580Y-67730390D01*
X114737385Y-67784003D01*
X114746092Y-67853328D01*
X114715937Y-67916355D01*
X114656494Y-67953074D01*
X114647881Y-67955109D01*
X114531092Y-67978340D01*
X114531082Y-67978343D01*
X114394511Y-68034912D01*
X114394498Y-68034919D01*
X114271584Y-68117048D01*
X114271580Y-68117051D01*
X114167051Y-68221580D01*
X114167048Y-68221584D01*
X114084919Y-68344498D01*
X114084912Y-68344511D01*
X114028343Y-68481082D01*
X114028340Y-68481092D01*
X113999500Y-68626079D01*
X113999500Y-68626082D01*
X113999500Y-68773918D01*
X113999500Y-68773920D01*
X113999499Y-68773920D01*
X114028340Y-68918907D01*
X114028343Y-68918917D01*
X114084912Y-69055488D01*
X114084919Y-69055501D01*
X114167048Y-69178415D01*
X114167051Y-69178419D01*
X114271580Y-69282948D01*
X114271584Y-69282951D01*
X114394498Y-69365080D01*
X114394511Y-69365087D01*
X114498823Y-69408294D01*
X114531087Y-69421658D01*
X114531091Y-69421658D01*
X114531092Y-69421659D01*
X114676079Y-69450500D01*
X114676082Y-69450500D01*
X114823919Y-69450500D01*
X114914815Y-69432419D01*
X114984406Y-69438646D01*
X115039584Y-69481508D01*
X115060624Y-69529844D01*
X115078340Y-69618907D01*
X115078343Y-69618917D01*
X115134912Y-69755488D01*
X115134919Y-69755501D01*
X115217048Y-69878415D01*
X115217051Y-69878419D01*
X115321580Y-69982948D01*
X115321584Y-69982951D01*
X115392545Y-70030366D01*
X115437350Y-70083978D01*
X115446057Y-70153303D01*
X115415903Y-70216331D01*
X115392545Y-70236570D01*
X115274977Y-70315126D01*
X115274973Y-70315129D01*
X115170444Y-70419658D01*
X115170441Y-70419662D01*
X115088312Y-70542576D01*
X115088305Y-70542589D01*
X115031736Y-70679160D01*
X115031733Y-70679170D01*
X115015549Y-70760533D01*
X114983164Y-70822444D01*
X114941385Y-70850902D01*
X114872104Y-70879599D01*
X114872094Y-70879604D01*
X114749180Y-70961733D01*
X114749176Y-70961736D01*
X114644647Y-71066265D01*
X114644644Y-71066269D01*
X114562515Y-71189183D01*
X114562508Y-71189196D01*
X114505939Y-71325767D01*
X114505936Y-71325777D01*
X114477096Y-71470764D01*
X114477096Y-71470767D01*
X114477096Y-71618603D01*
X114477096Y-71618605D01*
X114477095Y-71618605D01*
X114505936Y-71763592D01*
X114505939Y-71763602D01*
X114562508Y-71900173D01*
X114562515Y-71900186D01*
X114644644Y-72023100D01*
X114644647Y-72023104D01*
X114692406Y-72070863D01*
X114725891Y-72132186D01*
X114720907Y-72201878D01*
X114692407Y-72246225D01*
X114617048Y-72321584D01*
X114534919Y-72444498D01*
X114534912Y-72444511D01*
X114478343Y-72581082D01*
X114478340Y-72581092D01*
X114449500Y-72726079D01*
X114449500Y-72726082D01*
X114449500Y-72873918D01*
X114449500Y-72873920D01*
X114449499Y-72873920D01*
X114478340Y-73018907D01*
X114478343Y-73018917D01*
X114533396Y-73151828D01*
X114540865Y-73221297D01*
X114533397Y-73246732D01*
X114531724Y-73250772D01*
X114500208Y-73326858D01*
X114500207Y-73326861D01*
X114500207Y-73326862D01*
X114500206Y-73326863D01*
X114471366Y-73471850D01*
X114471366Y-73471853D01*
X114471366Y-73619689D01*
X114471366Y-73619691D01*
X114471365Y-73619691D01*
X114500206Y-73764678D01*
X114500209Y-73764688D01*
X114556778Y-73901259D01*
X114556785Y-73901272D01*
X114598588Y-73963834D01*
X114619466Y-74030512D01*
X114600981Y-74097892D01*
X114564377Y-74135827D01*
X114444921Y-74215645D01*
X114444917Y-74215648D01*
X114340388Y-74320177D01*
X114340385Y-74320181D01*
X114258256Y-74443095D01*
X114258249Y-74443108D01*
X114201680Y-74579679D01*
X114201677Y-74579689D01*
X114172837Y-74724676D01*
X114172837Y-74724679D01*
X114172837Y-74872515D01*
X114172837Y-74872517D01*
X114172836Y-74872517D01*
X114201677Y-75017504D01*
X114201679Y-75017509D01*
X114206480Y-75029101D01*
X114213946Y-75098571D01*
X114195021Y-75145438D01*
X114166902Y-75187522D01*
X114110331Y-75324098D01*
X114110328Y-75324108D01*
X114081488Y-75469095D01*
X114081488Y-75469098D01*
X114081488Y-75616934D01*
X114081488Y-75616936D01*
X114081487Y-75616936D01*
X114110328Y-75761923D01*
X114110331Y-75761933D01*
X114166900Y-75898504D01*
X114166907Y-75898517D01*
X114249036Y-76021431D01*
X114249039Y-76021435D01*
X114353568Y-76125964D01*
X114353572Y-76125967D01*
X114446186Y-76187850D01*
X114490991Y-76241462D01*
X114499698Y-76310787D01*
X114469544Y-76373814D01*
X114424748Y-76405513D01*
X114363207Y-76431004D01*
X114363197Y-76431009D01*
X114240283Y-76513138D01*
X114240279Y-76513141D01*
X114135750Y-76617670D01*
X114135747Y-76617674D01*
X114053618Y-76740588D01*
X114053611Y-76740601D01*
X113997042Y-76877172D01*
X113997039Y-76877182D01*
X113968199Y-77022169D01*
X113968199Y-77022172D01*
X113968199Y-77170008D01*
X113968199Y-77170010D01*
X113968198Y-77170010D01*
X113997039Y-77314997D01*
X113997042Y-77315007D01*
X114053611Y-77451578D01*
X114053618Y-77451591D01*
X114135747Y-77574505D01*
X114135750Y-77574509D01*
X114240279Y-77679038D01*
X114240283Y-77679041D01*
X114363197Y-77761170D01*
X114363210Y-77761177D01*
X114479625Y-77809397D01*
X114499786Y-77817748D01*
X114499790Y-77817748D01*
X114499791Y-77817749D01*
X114644778Y-77846590D01*
X114644781Y-77846590D01*
X114792618Y-77846590D01*
X114817638Y-77841612D01*
X114919708Y-77821309D01*
X114989298Y-77827536D01*
X115044476Y-77870398D01*
X115067721Y-77936287D01*
X115051654Y-78004285D01*
X115047002Y-78011816D01*
X114974457Y-78120387D01*
X114974451Y-78120398D01*
X114914113Y-78266069D01*
X114914110Y-78266081D01*
X114883349Y-78420724D01*
X114883349Y-78578417D01*
X114914110Y-78733060D01*
X114914113Y-78733072D01*
X114974451Y-78878743D01*
X114974458Y-78878756D01*
X115062059Y-79009859D01*
X115062062Y-79009863D01*
X115173556Y-79121357D01*
X115173560Y-79121360D01*
X115304663Y-79208961D01*
X115304676Y-79208968D01*
X115345796Y-79226000D01*
X115450352Y-79269308D01*
X115569655Y-79293039D01*
X115605002Y-79300070D01*
X115605005Y-79300071D01*
X115605007Y-79300071D01*
X115762693Y-79300071D01*
X115762694Y-79300070D01*
X115917346Y-79269308D01*
X116063028Y-79208965D01*
X116194138Y-79121360D01*
X116305638Y-79009860D01*
X116330609Y-78972489D01*
X116342222Y-78955109D01*
X116395834Y-78910304D01*
X116445324Y-78900000D01*
X117050000Y-78900000D01*
X117050000Y-78204499D01*
X117052550Y-78195813D01*
X117051262Y-78186852D01*
X117062240Y-78162811D01*
X117069685Y-78137460D01*
X117076525Y-78131532D01*
X117080287Y-78123296D01*
X117102521Y-78109006D01*
X117122489Y-78091705D01*
X117133003Y-78089417D01*
X117139065Y-78085522D01*
X117173996Y-78080499D01*
X117226001Y-78080499D01*
X117293039Y-78100184D01*
X117338794Y-78152988D01*
X117350000Y-78204499D01*
X117350000Y-78900000D01*
X117876000Y-78900000D01*
X117943039Y-78919685D01*
X117988794Y-78972489D01*
X118000000Y-79024000D01*
X118000000Y-79338371D01*
X117980315Y-79405410D01*
X117975698Y-79411140D01*
X117929972Y-79479572D01*
X117929971Y-79479576D01*
X117919500Y-79532218D01*
X117919500Y-80367774D01*
X117929973Y-80420428D01*
X117929974Y-80420431D01*
X117969867Y-80480134D01*
X118000379Y-80500521D01*
X118029572Y-80520027D01*
X118029575Y-80520027D01*
X118029576Y-80520028D01*
X118048394Y-80523771D01*
X118082223Y-80530500D01*
X119917776Y-80530499D01*
X119970428Y-80520027D01*
X120030133Y-80480133D01*
X120070027Y-80420428D01*
X120080500Y-80367777D01*
X120080499Y-79532224D01*
X120070027Y-79479572D01*
X120070025Y-79479570D01*
X120070025Y-79479567D01*
X120023349Y-79409714D01*
X120026312Y-79407733D01*
X120002828Y-79364704D01*
X120000000Y-79338371D01*
X120000000Y-78704499D01*
X120019685Y-78637460D01*
X120072489Y-78591705D01*
X120124000Y-78580499D01*
X121617775Y-78580499D01*
X121617776Y-78580499D01*
X121670428Y-78570027D01*
X121730133Y-78530133D01*
X121730924Y-78528950D01*
X121754707Y-78493356D01*
X121770027Y-78470428D01*
X121772811Y-78456428D01*
X121805196Y-78394519D01*
X121865911Y-78359944D01*
X121935680Y-78363683D01*
X121982110Y-78392939D01*
X122166351Y-78577180D01*
X122199836Y-78638503D01*
X122200287Y-78689052D01*
X122174500Y-78818690D01*
X122174500Y-78818695D01*
X122174500Y-78981305D01*
X122174500Y-78981307D01*
X122174499Y-78981307D01*
X122206222Y-79140783D01*
X122206225Y-79140793D01*
X122268450Y-79291019D01*
X122268452Y-79291023D01*
X122358788Y-79426220D01*
X122358794Y-79426228D01*
X122473771Y-79541205D01*
X122473779Y-79541211D01*
X122608976Y-79631547D01*
X122608980Y-79631549D01*
X122759206Y-79693774D01*
X122759211Y-79693776D01*
X122759215Y-79693776D01*
X122759216Y-79693777D01*
X122918692Y-79725500D01*
X122918695Y-79725500D01*
X123081307Y-79725500D01*
X123188598Y-79704157D01*
X123240789Y-79693776D01*
X123340943Y-79652290D01*
X123391019Y-79631549D01*
X123391023Y-79631547D01*
X123499084Y-79559343D01*
X123526225Y-79541208D01*
X123641208Y-79426225D01*
X123731548Y-79291021D01*
X123735573Y-79281305D01*
X123752290Y-79240943D01*
X123793776Y-79140789D01*
X123817007Y-79024000D01*
X123825500Y-78981307D01*
X123825500Y-78818692D01*
X123793777Y-78659216D01*
X123793776Y-78659215D01*
X123793776Y-78659211D01*
X123793774Y-78659206D01*
X123731549Y-78508980D01*
X123731547Y-78508976D01*
X123641211Y-78373779D01*
X123641205Y-78373771D01*
X123573139Y-78305705D01*
X123539654Y-78244382D01*
X123544638Y-78174690D01*
X123573139Y-78130343D01*
X123648156Y-78055325D01*
X123648159Y-78055322D01*
X123715334Y-77954787D01*
X123738498Y-77920120D01*
X123738500Y-77920116D01*
X123776004Y-77829572D01*
X123800727Y-77769886D01*
X123832451Y-77610402D01*
X123832451Y-77447792D01*
X123832451Y-77447789D01*
X123800728Y-77288313D01*
X123800727Y-77288312D01*
X123800727Y-77288308D01*
X123772911Y-77221153D01*
X123738500Y-77138077D01*
X123738498Y-77138074D01*
X123665108Y-77028237D01*
X123644230Y-76961560D01*
X123662715Y-76894180D01*
X123665108Y-76890457D01*
X123731547Y-76791022D01*
X123731549Y-76791019D01*
X123769043Y-76700499D01*
X123793776Y-76640789D01*
X123809693Y-76560771D01*
X123825500Y-76481307D01*
X123825500Y-76318692D01*
X123793777Y-76159216D01*
X123793776Y-76159215D01*
X123793776Y-76159211D01*
X123774320Y-76112240D01*
X123731549Y-76008980D01*
X123731547Y-76008976D01*
X123641211Y-75873779D01*
X123641205Y-75873771D01*
X123597299Y-75829865D01*
X123563814Y-75768542D01*
X123568798Y-75698850D01*
X123597300Y-75654502D01*
X123641205Y-75610597D01*
X123641208Y-75610594D01*
X123714771Y-75500499D01*
X123731547Y-75475392D01*
X123731549Y-75475388D01*
X123793774Y-75325162D01*
X123793776Y-75325158D01*
X123816625Y-75210292D01*
X123825500Y-75165676D01*
X123825500Y-75003061D01*
X123793777Y-74843585D01*
X123793776Y-74843584D01*
X123793776Y-74843580D01*
X123766961Y-74778842D01*
X123731549Y-74693350D01*
X123731548Y-74693348D01*
X123702056Y-74649210D01*
X123681179Y-74582535D01*
X123699663Y-74515155D01*
X123702057Y-74511430D01*
X123731548Y-74467294D01*
X123793776Y-74317062D01*
X123813950Y-74215645D01*
X123825500Y-74157580D01*
X123825500Y-73994965D01*
X123793777Y-73835489D01*
X123793776Y-73835488D01*
X123793776Y-73835484D01*
X123793774Y-73835479D01*
X123731549Y-73685253D01*
X123731547Y-73685249D01*
X123641211Y-73550052D01*
X123641205Y-73550044D01*
X123526228Y-73435067D01*
X123526220Y-73435061D01*
X123391023Y-73344725D01*
X123391019Y-73344723D01*
X123240793Y-73282498D01*
X123240783Y-73282495D01*
X123081307Y-73250772D01*
X123075245Y-73250176D01*
X123075507Y-73247505D01*
X123019595Y-73231088D01*
X122973840Y-73178284D01*
X122963896Y-73109126D01*
X122983532Y-73057882D01*
X122994675Y-73041205D01*
X123031548Y-72986021D01*
X123093776Y-72835789D01*
X123115599Y-72726079D01*
X123125500Y-72676307D01*
X123125500Y-72513692D01*
X123093777Y-72354216D01*
X123093776Y-72354215D01*
X123093776Y-72354211D01*
X123090794Y-72347011D01*
X123031549Y-72203980D01*
X123031547Y-72203976D01*
X122941211Y-72068779D01*
X122941205Y-72068771D01*
X122826228Y-71953794D01*
X122826220Y-71953788D01*
X122691023Y-71863452D01*
X122691019Y-71863450D01*
X122540793Y-71801225D01*
X122540783Y-71801222D01*
X122381307Y-71769500D01*
X122381305Y-71769500D01*
X122224000Y-71769500D01*
X122217332Y-71767542D01*
X122210491Y-71768762D01*
X122184240Y-71757825D01*
X122156961Y-71749815D01*
X122152411Y-71744564D01*
X122145995Y-71741891D01*
X122129823Y-71718496D01*
X122111206Y-71697011D01*
X122109263Y-71688754D01*
X122106265Y-71684416D01*
X122101975Y-71657769D01*
X122100070Y-71649670D01*
X122095174Y-71504170D01*
X122095815Y-71501680D01*
X122095815Y-71486742D01*
X122099999Y-71447831D01*
X122100000Y-71447821D01*
X122100000Y-71400000D01*
X120950000Y-71400000D01*
X120950000Y-71600000D01*
X121921618Y-71600000D01*
X121928408Y-71601993D01*
X121935377Y-71600766D01*
X121961493Y-71611708D01*
X121988657Y-71619685D01*
X121993289Y-71625031D01*
X121999818Y-71627767D01*
X122015873Y-71651094D01*
X122034412Y-71672489D01*
X122035419Y-71679492D01*
X122039431Y-71685322D01*
X122040326Y-71713620D01*
X122044356Y-71741647D01*
X122041416Y-71748084D01*
X122041640Y-71755157D01*
X122027093Y-71779446D01*
X122015331Y-71805203D01*
X122008507Y-71810481D01*
X122005742Y-71815099D01*
X121987212Y-71826954D01*
X121976669Y-71835110D01*
X121972928Y-71836963D01*
X121908979Y-71863452D01*
X121878894Y-71883554D01*
X121871717Y-71887110D01*
X121844881Y-71891838D01*
X121818881Y-71899980D01*
X121816666Y-71900000D01*
X120950000Y-71900000D01*
X120950000Y-72295500D01*
X120947449Y-72304185D01*
X120948738Y-72313147D01*
X120937759Y-72337187D01*
X120930315Y-72362539D01*
X120923474Y-72368466D01*
X120919713Y-72376703D01*
X120897478Y-72390992D01*
X120877511Y-72408294D01*
X120866996Y-72410581D01*
X120860935Y-72414477D01*
X120826000Y-72419500D01*
X120774000Y-72419500D01*
X120706961Y-72399815D01*
X120661206Y-72347011D01*
X120650000Y-72295500D01*
X120650000Y-71100000D01*
X120950000Y-71100000D01*
X122100000Y-71100000D01*
X122100000Y-71052179D01*
X122099999Y-71052168D01*
X122095815Y-71013258D01*
X122095815Y-70986742D01*
X122099999Y-70947831D01*
X122100000Y-70947821D01*
X122100000Y-70900000D01*
X120950000Y-70900000D01*
X120950000Y-71100000D01*
X120650000Y-71100000D01*
X120650000Y-70600000D01*
X120950000Y-70600000D01*
X122100000Y-70600000D01*
X122100000Y-70552179D01*
X122099999Y-70552168D01*
X122095815Y-70513258D01*
X122095815Y-70486742D01*
X122099999Y-70447831D01*
X122100000Y-70447821D01*
X122100000Y-70400000D01*
X120950000Y-70400000D01*
X120950000Y-70600000D01*
X120650000Y-70600000D01*
X120650000Y-70204499D01*
X120669685Y-70137460D01*
X120722489Y-70091705D01*
X120774000Y-70080499D01*
X120879137Y-70080499D01*
X120945549Y-70100000D01*
X122100000Y-70100000D01*
X122123181Y-70076819D01*
X122184504Y-70043334D01*
X122210862Y-70040500D01*
X122543584Y-70040500D01*
X122610623Y-70060185D01*
X122646684Y-70095606D01*
X122675794Y-70139171D01*
X122675797Y-70139174D01*
X122675800Y-70139178D01*
X122760825Y-70224203D01*
X122760829Y-70224206D01*
X122860819Y-70291018D01*
X122860820Y-70291018D01*
X122860821Y-70291019D01*
X122860823Y-70291020D01*
X122919028Y-70315129D01*
X122971924Y-70337039D01*
X123089866Y-70360499D01*
X123089870Y-70360500D01*
X123089871Y-70360500D01*
X123210130Y-70360500D01*
X123210131Y-70360499D01*
X123328076Y-70337039D01*
X123439181Y-70291018D01*
X123539171Y-70224206D01*
X125042767Y-68720609D01*
X125104088Y-68687126D01*
X125173779Y-68692110D01*
X125229713Y-68733982D01*
X125252063Y-68784098D01*
X125258742Y-68817674D01*
X125258744Y-68817681D01*
X125320969Y-68967907D01*
X125320971Y-68967911D01*
X125411307Y-69103108D01*
X125411313Y-69103116D01*
X125526290Y-69218093D01*
X125526298Y-69218099D01*
X125661495Y-69308435D01*
X125661499Y-69308437D01*
X125798266Y-69365087D01*
X125811730Y-69370664D01*
X125811734Y-69370664D01*
X125811735Y-69370665D01*
X125971211Y-69402388D01*
X125971214Y-69402388D01*
X126133826Y-69402388D01*
X126241117Y-69381045D01*
X126293308Y-69370664D01*
X126443540Y-69308436D01*
X126443542Y-69308435D01*
X126567663Y-69225500D01*
X126578744Y-69218096D01*
X126693727Y-69103113D01*
X126777182Y-68978213D01*
X126784066Y-68967911D01*
X126784068Y-68967907D01*
X126816087Y-68890606D01*
X126846295Y-68817677D01*
X126870108Y-68697964D01*
X126878019Y-68658195D01*
X126878019Y-68495580D01*
X126846296Y-68336104D01*
X126846295Y-68336103D01*
X126846295Y-68336099D01*
X126822816Y-68279416D01*
X126784068Y-68185868D01*
X126784066Y-68185864D01*
X126693730Y-68050667D01*
X126693724Y-68050659D01*
X126618089Y-67975024D01*
X126584604Y-67913701D01*
X126589588Y-67844009D01*
X126618090Y-67799661D01*
X126664635Y-67753116D01*
X126664638Y-67753113D01*
X126754978Y-67617909D01*
X126817206Y-67467677D01*
X126848930Y-67308193D01*
X126848930Y-67145583D01*
X126848930Y-67145580D01*
X126817207Y-66986104D01*
X126817206Y-66986103D01*
X126817206Y-66986099D01*
X126773707Y-66881082D01*
X126754979Y-66835868D01*
X126754977Y-66835864D01*
X126664641Y-66700667D01*
X126664635Y-66700659D01*
X126611829Y-66647853D01*
X126578344Y-66586530D01*
X126583328Y-66516838D01*
X126611827Y-66472493D01*
X126641208Y-66443113D01*
X126731548Y-66307909D01*
X126793776Y-66157677D01*
X126811211Y-66070027D01*
X126825500Y-65998195D01*
X126825500Y-65835580D01*
X126793777Y-65676104D01*
X126793776Y-65676103D01*
X126793776Y-65676099D01*
X126788727Y-65663910D01*
X126731549Y-65525868D01*
X126731547Y-65525864D01*
X126641211Y-65390667D01*
X126641205Y-65390659D01*
X126610123Y-65359577D01*
X126576638Y-65298254D01*
X126581622Y-65228562D01*
X126610124Y-65184214D01*
X126661222Y-65133116D01*
X126661225Y-65133113D01*
X126751565Y-64997909D01*
X126813793Y-64847677D01*
X126828914Y-64771661D01*
X126845517Y-64688195D01*
X126845517Y-64525580D01*
X126813794Y-64366104D01*
X126813793Y-64366103D01*
X126813793Y-64366099D01*
X126791860Y-64313147D01*
X126751566Y-64215868D01*
X126751564Y-64215864D01*
X126661228Y-64080667D01*
X126661222Y-64080659D01*
X126610123Y-64029560D01*
X126576638Y-63968237D01*
X126581622Y-63898545D01*
X126610124Y-63854197D01*
X126641205Y-63823116D01*
X126641208Y-63823113D01*
X126669142Y-63781307D01*
X128974499Y-63781307D01*
X129006222Y-63940783D01*
X129006225Y-63940793D01*
X129068450Y-64091019D01*
X129068452Y-64091023D01*
X129158788Y-64226220D01*
X129158794Y-64226228D01*
X129273771Y-64341205D01*
X129273779Y-64341211D01*
X129408976Y-64431547D01*
X129408980Y-64431549D01*
X129559206Y-64493774D01*
X129559211Y-64493776D01*
X129559215Y-64493776D01*
X129559216Y-64493777D01*
X129718692Y-64525500D01*
X129718695Y-64525500D01*
X129881307Y-64525500D01*
X130027210Y-64496477D01*
X130040789Y-64493776D01*
X130191021Y-64431548D01*
X130191023Y-64431547D01*
X130288980Y-64366094D01*
X130326225Y-64341208D01*
X130441208Y-64226225D01*
X130486790Y-64158006D01*
X130531547Y-64091023D01*
X130531549Y-64091019D01*
X130569457Y-63999500D01*
X130593776Y-63940789D01*
X130622837Y-63794695D01*
X130625500Y-63781307D01*
X130625500Y-63618692D01*
X130593777Y-63459216D01*
X130593776Y-63459215D01*
X130593776Y-63459211D01*
X130580114Y-63426227D01*
X130531549Y-63308980D01*
X130531547Y-63308976D01*
X130441211Y-63173779D01*
X130441205Y-63173771D01*
X130326228Y-63058794D01*
X130326220Y-63058788D01*
X130191023Y-62968452D01*
X130191019Y-62968450D01*
X130040793Y-62906225D01*
X130040783Y-62906222D01*
X129881307Y-62874500D01*
X129881305Y-62874500D01*
X129718695Y-62874500D01*
X129718693Y-62874500D01*
X129559216Y-62906222D01*
X129559206Y-62906225D01*
X129408980Y-62968450D01*
X129408976Y-62968452D01*
X129273779Y-63058788D01*
X129273771Y-63058794D01*
X129158794Y-63173771D01*
X129158788Y-63173779D01*
X129068452Y-63308976D01*
X129068450Y-63308980D01*
X129006225Y-63459206D01*
X129006222Y-63459216D01*
X128974500Y-63618692D01*
X128974500Y-63618695D01*
X128974500Y-63781305D01*
X128974500Y-63781307D01*
X128974499Y-63781307D01*
X126669142Y-63781307D01*
X126731548Y-63687909D01*
X126754894Y-63631548D01*
X126782396Y-63565151D01*
X126782396Y-63565150D01*
X126793776Y-63537677D01*
X126815947Y-63426219D01*
X126825500Y-63378195D01*
X126825500Y-63215580D01*
X126793777Y-63056104D01*
X126793776Y-63056103D01*
X126793776Y-63056099D01*
X126785109Y-63035174D01*
X126731549Y-62905868D01*
X126731547Y-62905864D01*
X126641211Y-62770667D01*
X126641205Y-62770659D01*
X126569825Y-62699279D01*
X126536340Y-62637956D01*
X126541324Y-62568264D01*
X126569829Y-62523913D01*
X126580630Y-62513113D01*
X126670970Y-62377909D01*
X126733198Y-62227677D01*
X126752319Y-62131550D01*
X126764922Y-62068195D01*
X126764922Y-61905580D01*
X126733199Y-61746104D01*
X126733198Y-61746103D01*
X126733198Y-61746099D01*
X126727975Y-61733489D01*
X126670971Y-61595868D01*
X126670969Y-61595864D01*
X126580633Y-61460667D01*
X126580627Y-61460659D01*
X126480836Y-61360868D01*
X126447351Y-61299545D01*
X126452335Y-61229853D01*
X126487306Y-61180904D01*
X126486918Y-61180516D01*
X126489249Y-61178184D01*
X126489865Y-61177323D01*
X126491213Y-61176215D01*
X126491225Y-61176208D01*
X126606208Y-61061225D01*
X126660074Y-60980609D01*
X126713686Y-60935804D01*
X126763176Y-60925500D01*
X126881307Y-60925500D01*
X126988598Y-60904157D01*
X127040789Y-60893776D01*
X127191021Y-60831548D01*
X127191023Y-60831547D01*
X127274471Y-60775789D01*
X127326225Y-60741208D01*
X127441208Y-60626225D01*
X127531548Y-60491021D01*
X127593776Y-60340789D01*
X127604157Y-60288598D01*
X127625500Y-60181307D01*
X127625500Y-60018692D01*
X127593777Y-59859216D01*
X127593776Y-59859215D01*
X127593776Y-59859211D01*
X127593774Y-59859206D01*
X127531549Y-59708981D01*
X127525449Y-59699852D01*
X127478698Y-59629884D01*
X127457821Y-59563207D01*
X127476306Y-59495827D01*
X127487797Y-59481308D01*
X127487343Y-59480935D01*
X127491201Y-59476231D01*
X127491208Y-59476225D01*
X127581548Y-59341021D01*
X127643776Y-59190789D01*
X127675500Y-59031305D01*
X127675500Y-58868695D01*
X127675500Y-58868692D01*
X127643777Y-58709216D01*
X127643776Y-58709215D01*
X127643776Y-58709211D01*
X127581548Y-58558979D01*
X127560262Y-58527123D01*
X127539385Y-58460447D01*
X127557869Y-58393066D01*
X127560245Y-58389369D01*
X127631548Y-58282657D01*
X127693776Y-58132425D01*
X127711703Y-58042301D01*
X127725500Y-57972943D01*
X127725500Y-57810328D01*
X127693777Y-57650852D01*
X127693776Y-57650851D01*
X127693776Y-57650847D01*
X127666893Y-57585946D01*
X127631551Y-57500621D01*
X127631546Y-57500612D01*
X127623581Y-57488692D01*
X127607556Y-57464708D01*
X127586678Y-57398033D01*
X127605161Y-57330653D01*
X127607537Y-57326954D01*
X127631548Y-57291021D01*
X127693776Y-57140789D01*
X127725500Y-56981305D01*
X127725500Y-56818695D01*
X127725500Y-56818692D01*
X127693777Y-56659216D01*
X127693776Y-56659215D01*
X127693776Y-56659211D01*
X127670072Y-56601984D01*
X127631952Y-56509953D01*
X127624483Y-56440484D01*
X127631952Y-56415048D01*
X127637612Y-56401383D01*
X127693776Y-56265792D01*
X127718558Y-56141208D01*
X127725500Y-56106310D01*
X127725500Y-55943695D01*
X127693777Y-55784219D01*
X127693776Y-55784218D01*
X127693776Y-55784214D01*
X127631548Y-55633982D01*
X127631547Y-55633980D01*
X127631265Y-55633451D01*
X127631200Y-55633142D01*
X127629217Y-55628353D01*
X127630125Y-55627976D01*
X127617024Y-55565048D01*
X127629711Y-55521854D01*
X127629217Y-55521650D01*
X127631124Y-55517044D01*
X127631277Y-55516526D01*
X127631538Y-55516035D01*
X127631548Y-55516021D01*
X127693776Y-55365789D01*
X127714976Y-55259211D01*
X127725500Y-55206307D01*
X127725500Y-55174500D01*
X127745185Y-55107461D01*
X127797989Y-55061706D01*
X127849500Y-55050500D01*
X157156861Y-55050500D01*
X157223900Y-55070185D01*
X157269655Y-55122989D01*
X157279599Y-55192147D01*
X157278479Y-55198690D01*
X157274500Y-55218695D01*
X157274500Y-55381305D01*
X157274500Y-55381307D01*
X157274499Y-55381307D01*
X157306222Y-55540783D01*
X157306225Y-55540793D01*
X157368450Y-55691019D01*
X157368452Y-55691023D01*
X157458788Y-55826220D01*
X157458794Y-55826228D01*
X157573771Y-55941205D01*
X157573779Y-55941211D01*
X157708976Y-56031547D01*
X157708980Y-56031549D01*
X157859206Y-56093774D01*
X157859211Y-56093776D01*
X157859215Y-56093776D01*
X157859216Y-56093777D01*
X158018692Y-56125500D01*
X158018695Y-56125500D01*
X158181307Y-56125500D01*
X158288598Y-56104157D01*
X158340789Y-56093776D01*
X158491021Y-56031548D01*
X158498990Y-56026223D01*
X158581042Y-55971398D01*
X158647719Y-55950520D01*
X158649933Y-55950500D01*
X160841915Y-55950500D01*
X160908954Y-55970185D01*
X160945018Y-56005611D01*
X160958790Y-56026223D01*
X160958794Y-56026228D01*
X161073771Y-56141205D01*
X161073779Y-56141211D01*
X161208976Y-56231547D01*
X161208980Y-56231549D01*
X161359206Y-56293774D01*
X161359211Y-56293776D01*
X161359215Y-56293776D01*
X161359216Y-56293777D01*
X161518692Y-56325500D01*
X161518695Y-56325500D01*
X161681307Y-56325500D01*
X161788598Y-56304157D01*
X161840789Y-56293776D01*
X161991021Y-56231548D01*
X161991023Y-56231547D01*
X162058169Y-56186680D01*
X162126225Y-56141208D01*
X162241208Y-56026225D01*
X162272397Y-55979546D01*
X162326009Y-55934741D01*
X162395334Y-55926032D01*
X162458361Y-55956186D01*
X162495081Y-56015629D01*
X162499500Y-56048436D01*
X162499500Y-61292297D01*
X162479815Y-61359336D01*
X162427011Y-61405091D01*
X162357853Y-61415035D01*
X162351309Y-61413914D01*
X162278845Y-61399500D01*
X162278842Y-61399500D01*
X162121158Y-61399500D01*
X162121155Y-61399500D01*
X161966510Y-61430261D01*
X161966498Y-61430264D01*
X161820827Y-61490602D01*
X161820814Y-61490609D01*
X161689125Y-61578602D01*
X161622447Y-61599480D01*
X161620234Y-61599500D01*
X150721922Y-61599500D01*
X150721906Y-61599499D01*
X150714310Y-61599499D01*
X150556196Y-61599499D01*
X150448840Y-61628265D01*
X150403463Y-61640424D01*
X150403462Y-61640425D01*
X150353349Y-61669359D01*
X150353348Y-61669360D01*
X150309942Y-61694420D01*
X150266538Y-61719479D01*
X150266535Y-61719481D01*
X150154731Y-61831286D01*
X149878639Y-62107377D01*
X149860152Y-62117471D01*
X149844481Y-62131550D01*
X149830100Y-62133881D01*
X149817316Y-62140862D01*
X149796304Y-62139359D01*
X149775511Y-62142730D01*
X149762154Y-62136917D01*
X149747624Y-62135878D01*
X149730760Y-62123254D01*
X149711446Y-62114848D01*
X149694843Y-62096365D01*
X149691691Y-62094006D01*
X149687860Y-62088592D01*
X149674698Y-62068896D01*
X149653816Y-62002220D01*
X149672297Y-61934839D01*
X149674676Y-61931136D01*
X149709394Y-61879179D01*
X149769737Y-61733497D01*
X149800500Y-61578842D01*
X149800500Y-61421158D01*
X149800500Y-61421155D01*
X149800499Y-61421153D01*
X149785486Y-61345680D01*
X149769737Y-61266503D01*
X149736807Y-61187005D01*
X149729339Y-61117536D01*
X149748267Y-61070662D01*
X149809390Y-60979185D01*
X149809390Y-60979184D01*
X149809394Y-60979179D01*
X149869737Y-60833497D01*
X149900500Y-60678842D01*
X149900500Y-60521158D01*
X149900500Y-60521155D01*
X149900499Y-60521153D01*
X149880543Y-60420827D01*
X149869737Y-60366503D01*
X149837929Y-60289711D01*
X149809397Y-60220827D01*
X149809390Y-60220814D01*
X149721789Y-60089711D01*
X149721786Y-60089707D01*
X149610292Y-59978213D01*
X149610288Y-59978210D01*
X149479185Y-59890609D01*
X149479172Y-59890602D01*
X149333501Y-59830264D01*
X149333489Y-59830261D01*
X149178845Y-59799500D01*
X149178842Y-59799500D01*
X149021158Y-59799500D01*
X149021155Y-59799500D01*
X148866510Y-59830261D01*
X148866498Y-59830264D01*
X148722136Y-59890061D01*
X148674684Y-59899500D01*
X148620942Y-59899500D01*
X148468215Y-59940423D01*
X148468214Y-59940423D01*
X148468212Y-59940424D01*
X148468209Y-59940425D01*
X148418096Y-59969359D01*
X148418095Y-59969360D01*
X148374689Y-59994420D01*
X148331285Y-60019479D01*
X148331282Y-60019481D01*
X148219478Y-60131286D01*
X140847974Y-67502789D01*
X140807747Y-67529669D01*
X140697346Y-67575399D01*
X140697340Y-67575402D01*
X140562143Y-67665738D01*
X140562139Y-67665741D01*
X140447162Y-67780718D01*
X140447156Y-67780726D01*
X140356820Y-67915923D01*
X140356818Y-67915927D01*
X140294593Y-68066153D01*
X140294590Y-68066163D01*
X140262868Y-68225639D01*
X140262868Y-68225642D01*
X140262868Y-68388252D01*
X140262868Y-68388254D01*
X140262867Y-68388254D01*
X140294590Y-68547730D01*
X140294593Y-68547740D01*
X140356817Y-68697964D01*
X140417295Y-68788476D01*
X140438172Y-68855153D01*
X140428754Y-68904816D01*
X140406224Y-68959210D01*
X140406222Y-68959217D01*
X140374500Y-69118692D01*
X140374500Y-69118695D01*
X140374500Y-69281305D01*
X140374500Y-69281307D01*
X140374499Y-69281307D01*
X140406222Y-69440783D01*
X140406225Y-69440793D01*
X140468450Y-69591019D01*
X140468452Y-69591023D01*
X140558788Y-69726220D01*
X140558794Y-69726228D01*
X140673771Y-69841205D01*
X140673779Y-69841211D01*
X140808976Y-69931547D01*
X140808980Y-69931549D01*
X140933077Y-69982951D01*
X140959211Y-69993776D01*
X140959215Y-69993776D01*
X140959216Y-69993777D01*
X141118692Y-70025500D01*
X141118695Y-70025500D01*
X141281307Y-70025500D01*
X141388598Y-70004157D01*
X141440789Y-69993776D01*
X141591021Y-69931548D01*
X141607408Y-69920598D01*
X141674083Y-69899719D01*
X141741464Y-69918202D01*
X141788155Y-69970179D01*
X141799334Y-70039149D01*
X141779404Y-70092587D01*
X141768450Y-70108980D01*
X141706225Y-70259206D01*
X141706222Y-70259216D01*
X141674500Y-70418692D01*
X141674500Y-70418695D01*
X141674500Y-70581305D01*
X141674500Y-70581307D01*
X141674499Y-70581307D01*
X141706222Y-70740783D01*
X141706225Y-70740793D01*
X141768450Y-70891019D01*
X141768452Y-70891023D01*
X141858788Y-71026220D01*
X141858794Y-71026228D01*
X141973771Y-71141205D01*
X141973779Y-71141211D01*
X142108976Y-71231547D01*
X142108980Y-71231549D01*
X142253441Y-71291386D01*
X142259211Y-71293776D01*
X142259215Y-71293776D01*
X142259216Y-71293777D01*
X142418692Y-71325500D01*
X142418695Y-71325500D01*
X142581307Y-71325500D01*
X142688598Y-71304157D01*
X142740789Y-71293776D01*
X142863658Y-71242882D01*
X142891019Y-71231549D01*
X142891023Y-71231547D01*
X143031291Y-71137824D01*
X143032608Y-71139795D01*
X143087241Y-71116575D01*
X143156112Y-71128347D01*
X143170518Y-71136634D01*
X143186095Y-71147042D01*
X143186096Y-71147042D01*
X143186097Y-71147043D01*
X143287849Y-71189190D01*
X143336327Y-71209270D01*
X143336331Y-71209270D01*
X143336332Y-71209271D01*
X143495808Y-71240994D01*
X143495811Y-71240994D01*
X143658423Y-71240994D01*
X143765714Y-71219651D01*
X143817905Y-71209270D01*
X143968137Y-71147042D01*
X143968139Y-71147041D01*
X144077840Y-71073741D01*
X144103341Y-71056702D01*
X144218324Y-70941719D01*
X144299552Y-70820150D01*
X144314966Y-70801369D01*
X144332126Y-70784210D01*
X144332127Y-70784207D01*
X146002628Y-69113705D01*
X146063949Y-69080222D01*
X146133641Y-69085206D01*
X146159198Y-69098286D01*
X146208972Y-69131544D01*
X146208985Y-69131551D01*
X146359206Y-69193774D01*
X146359211Y-69193776D01*
X146359215Y-69193776D01*
X146359216Y-69193777D01*
X146518692Y-69225500D01*
X146518695Y-69225500D01*
X146681307Y-69225500D01*
X146788598Y-69204157D01*
X146840789Y-69193776D01*
X146957169Y-69145570D01*
X146991019Y-69131549D01*
X146991023Y-69131547D01*
X147104853Y-69055488D01*
X147126225Y-69041208D01*
X147241208Y-68926225D01*
X147304400Y-68831651D01*
X147331547Y-68791023D01*
X147331549Y-68791019D01*
X147372518Y-68692110D01*
X147393776Y-68640789D01*
X147414549Y-68536358D01*
X147425500Y-68481307D01*
X147425500Y-68475096D01*
X147445185Y-68408057D01*
X147461814Y-68387420D01*
X150859972Y-64989261D01*
X150921293Y-64955778D01*
X150923323Y-64955354D01*
X150993087Y-64941478D01*
X151143319Y-64879250D01*
X151143321Y-64879249D01*
X151212823Y-64832809D01*
X151278523Y-64788910D01*
X151393506Y-64673927D01*
X151469274Y-64560532D01*
X151483845Y-64538725D01*
X151483847Y-64538721D01*
X151528239Y-64431548D01*
X151546074Y-64388491D01*
X151562844Y-64304185D01*
X151577798Y-64229009D01*
X151577798Y-64066394D01*
X151546075Y-63906918D01*
X151546074Y-63906917D01*
X151546074Y-63906913D01*
X151528167Y-63863681D01*
X151483847Y-63756682D01*
X151483845Y-63756678D01*
X151393509Y-63621481D01*
X151393503Y-63621473D01*
X151278526Y-63506496D01*
X151278518Y-63506490D01*
X151143321Y-63416154D01*
X151143317Y-63416152D01*
X150993091Y-63353927D01*
X150993081Y-63353924D01*
X150833605Y-63322202D01*
X150833603Y-63322202D01*
X150670993Y-63322202D01*
X150664901Y-63322202D01*
X150664901Y-63320341D01*
X150604790Y-63308936D01*
X150554085Y-63260866D01*
X150537417Y-63193013D01*
X150560079Y-63126921D01*
X150573607Y-63110881D01*
X150847670Y-62836819D01*
X150908993Y-62803334D01*
X150935351Y-62800500D01*
X156975765Y-62800500D01*
X157042804Y-62820185D01*
X157088559Y-62872989D01*
X157098503Y-62942147D01*
X157078869Y-62993389D01*
X157068449Y-63008983D01*
X157006225Y-63159206D01*
X157006222Y-63159216D01*
X156985101Y-63265398D01*
X156952716Y-63327309D01*
X156951165Y-63328887D01*
X156093747Y-64186306D01*
X156032424Y-64219791D01*
X155962733Y-64214807D01*
X155918385Y-64186306D01*
X155910292Y-64178213D01*
X155910288Y-64178210D01*
X155779185Y-64090609D01*
X155779172Y-64090602D01*
X155633501Y-64030264D01*
X155633489Y-64030261D01*
X155478845Y-63999500D01*
X155478842Y-63999500D01*
X155321158Y-63999500D01*
X155321155Y-63999500D01*
X155166510Y-64030261D01*
X155166498Y-64030264D01*
X155020827Y-64090602D01*
X155020814Y-64090609D01*
X154889711Y-64178210D01*
X154889707Y-64178213D01*
X154778213Y-64289707D01*
X154778210Y-64289711D01*
X154690609Y-64420814D01*
X154690606Y-64420820D01*
X154660532Y-64493425D01*
X154616690Y-64547828D01*
X154593425Y-64560532D01*
X154520820Y-64590606D01*
X154520814Y-64590609D01*
X154389711Y-64678210D01*
X154389707Y-64678213D01*
X154278213Y-64789707D01*
X154278210Y-64789711D01*
X154190609Y-64920814D01*
X154190602Y-64920827D01*
X154130264Y-65066498D01*
X154130261Y-65066508D01*
X154116920Y-65133579D01*
X154084535Y-65195490D01*
X154082984Y-65197068D01*
X147066873Y-72213181D01*
X147039945Y-72227884D01*
X147014127Y-72244477D01*
X147007926Y-72245368D01*
X147005550Y-72246666D01*
X146979192Y-72249500D01*
X146849933Y-72249500D01*
X146782894Y-72229815D01*
X146781042Y-72228602D01*
X146691027Y-72168455D01*
X146691014Y-72168448D01*
X146540793Y-72106225D01*
X146540783Y-72106222D01*
X146381307Y-72074500D01*
X146381305Y-72074500D01*
X146218695Y-72074500D01*
X146218690Y-72074500D01*
X146138830Y-72090385D01*
X146069238Y-72084158D01*
X146014061Y-72041294D01*
X145990817Y-71975404D01*
X145993022Y-71944576D01*
X145993774Y-71940792D01*
X145993776Y-71940789D01*
X146018778Y-71815099D01*
X146025500Y-71781307D01*
X146025500Y-71618692D01*
X145993777Y-71459216D01*
X145993776Y-71459215D01*
X145993776Y-71459211D01*
X145989058Y-71447821D01*
X145931549Y-71308980D01*
X145931547Y-71308976D01*
X145841211Y-71173779D01*
X145841205Y-71173771D01*
X145726228Y-71058794D01*
X145726220Y-71058788D01*
X145591023Y-70968452D01*
X145591019Y-70968450D01*
X145440793Y-70906225D01*
X145440783Y-70906222D01*
X145281307Y-70874500D01*
X145281305Y-70874500D01*
X145118695Y-70874500D01*
X145118693Y-70874500D01*
X144959216Y-70906222D01*
X144959206Y-70906225D01*
X144808980Y-70968450D01*
X144808976Y-70968452D01*
X144673779Y-71058788D01*
X144673771Y-71058794D01*
X144558794Y-71173771D01*
X144558788Y-71173779D01*
X144468452Y-71308976D01*
X144468450Y-71308980D01*
X144406225Y-71459206D01*
X144406222Y-71459216D01*
X144385101Y-71565398D01*
X144352716Y-71627309D01*
X144351165Y-71628887D01*
X136501081Y-79478971D01*
X136439758Y-79512456D01*
X136370066Y-79507472D01*
X136344510Y-79494393D01*
X136255499Y-79434918D01*
X136255488Y-79434912D01*
X136118917Y-79378343D01*
X136118907Y-79378340D01*
X135973920Y-79349500D01*
X135973918Y-79349500D01*
X135826082Y-79349500D01*
X135826080Y-79349500D01*
X135681092Y-79378340D01*
X135681082Y-79378343D01*
X135544511Y-79434912D01*
X135544498Y-79434919D01*
X135421584Y-79517048D01*
X135421580Y-79517051D01*
X135317051Y-79621580D01*
X135317048Y-79621584D01*
X135234919Y-79744498D01*
X135234912Y-79744511D01*
X135178342Y-79881084D01*
X135178340Y-79881090D01*
X135163000Y-79958210D01*
X135130614Y-80020120D01*
X135129064Y-80021698D01*
X129131286Y-86019478D01*
X129019481Y-86131282D01*
X129019475Y-86131290D01*
X128980621Y-86198588D01*
X128980604Y-86198620D01*
X128979386Y-86200730D01*
X128940423Y-86268215D01*
X128936684Y-86282167D01*
X128930247Y-86294413D01*
X128918453Y-86306584D01*
X128908172Y-86324394D01*
X128858791Y-86373776D01*
X128768450Y-86508981D01*
X128706225Y-86659206D01*
X128706222Y-86659216D01*
X128674500Y-86818692D01*
X128674500Y-86818695D01*
X128674500Y-86981305D01*
X128674500Y-86981307D01*
X128674499Y-86981307D01*
X128706222Y-87140783D01*
X128706225Y-87140793D01*
X128768450Y-87291019D01*
X128768452Y-87291023D01*
X128858788Y-87426220D01*
X128858794Y-87426228D01*
X128973771Y-87541205D01*
X128973779Y-87541211D01*
X129108976Y-87631547D01*
X129108980Y-87631549D01*
X129234576Y-87683572D01*
X129259211Y-87693776D01*
X129259215Y-87693776D01*
X129259216Y-87693777D01*
X129418692Y-87725500D01*
X129418695Y-87725500D01*
X129581307Y-87725500D01*
X129688598Y-87704157D01*
X129740789Y-87693776D01*
X129886934Y-87633241D01*
X129891019Y-87631549D01*
X129891023Y-87631547D01*
X129958169Y-87586680D01*
X130026225Y-87541208D01*
X130141208Y-87426225D01*
X130186680Y-87358169D01*
X130231547Y-87291023D01*
X130231549Y-87291019D01*
X130258560Y-87225808D01*
X130293776Y-87140789D01*
X130325500Y-86981305D01*
X130325500Y-86818695D01*
X130325500Y-86818692D01*
X130293777Y-86659216D01*
X130293776Y-86659215D01*
X130293776Y-86659211D01*
X130293774Y-86659206D01*
X130292008Y-86653384D01*
X130294056Y-86652762D01*
X130287626Y-86592916D01*
X130318905Y-86530439D01*
X130321945Y-86527288D01*
X134137821Y-82711413D01*
X134199142Y-82677930D01*
X134268834Y-82682914D01*
X134324767Y-82724786D01*
X134349184Y-82790250D01*
X134349500Y-82799096D01*
X134349500Y-83050065D01*
X134329815Y-83117104D01*
X134328603Y-83118955D01*
X134268450Y-83208982D01*
X134206225Y-83359206D01*
X134206222Y-83359216D01*
X134174500Y-83518692D01*
X134174500Y-83518695D01*
X134174500Y-83681305D01*
X134174500Y-83681307D01*
X134174499Y-83681307D01*
X134206222Y-83840783D01*
X134206225Y-83840793D01*
X134268450Y-83991019D01*
X134268452Y-83991023D01*
X134358788Y-84126220D01*
X134358794Y-84126228D01*
X134473771Y-84241205D01*
X134473779Y-84241211D01*
X134608976Y-84331547D01*
X134608980Y-84331549D01*
X134759206Y-84393774D01*
X134759211Y-84393776D01*
X134759215Y-84393776D01*
X134759216Y-84393777D01*
X134918692Y-84425500D01*
X134918695Y-84425500D01*
X135081307Y-84425500D01*
X135193669Y-84403149D01*
X135240789Y-84393776D01*
X135391021Y-84331548D01*
X135391023Y-84331547D01*
X135475508Y-84275096D01*
X135526225Y-84241208D01*
X135562318Y-84205115D01*
X135623640Y-84171629D01*
X135693332Y-84176613D01*
X135737682Y-84205115D01*
X135773771Y-84241205D01*
X135773779Y-84241211D01*
X135908976Y-84331547D01*
X135908980Y-84331549D01*
X136059206Y-84393774D01*
X136059211Y-84393776D01*
X136059215Y-84393776D01*
X136059216Y-84393777D01*
X136218692Y-84425500D01*
X136218695Y-84425500D01*
X136381307Y-84425500D01*
X136493669Y-84403149D01*
X136540789Y-84393776D01*
X136691021Y-84331548D01*
X136691023Y-84331547D01*
X136775508Y-84275096D01*
X136826225Y-84241208D01*
X136941208Y-84126225D01*
X137031548Y-83991021D01*
X137041464Y-83967083D01*
X137093774Y-83840793D01*
X137093776Y-83840789D01*
X137114898Y-83734596D01*
X137147281Y-83672691D01*
X137148777Y-83671167D01*
X137652931Y-83167013D01*
X137714252Y-83133530D01*
X137716317Y-83133099D01*
X137783497Y-83119737D01*
X137929179Y-83059394D01*
X138060289Y-82971789D01*
X138171789Y-82860289D01*
X138259394Y-82729179D01*
X138319737Y-82583497D01*
X138350500Y-82428842D01*
X138350500Y-82271158D01*
X138350500Y-82271155D01*
X138329964Y-82167917D01*
X138336191Y-82098325D01*
X138363898Y-82056046D01*
X141378711Y-79041233D01*
X141440032Y-79007750D01*
X141509724Y-79012734D01*
X141565657Y-79054606D01*
X141569492Y-79060025D01*
X141646248Y-79174898D01*
X141646251Y-79174902D01*
X141761228Y-79289879D01*
X141761236Y-79289885D01*
X141896433Y-79380221D01*
X141896437Y-79380223D01*
X142046663Y-79442448D01*
X142046668Y-79442450D01*
X142046672Y-79442450D01*
X142046673Y-79442451D01*
X142206149Y-79474174D01*
X142206152Y-79474174D01*
X142368764Y-79474174D01*
X142476055Y-79452831D01*
X142528246Y-79442450D01*
X142678478Y-79380222D01*
X142678480Y-79380221D01*
X142798433Y-79300071D01*
X142813682Y-79289882D01*
X142907997Y-79195566D01*
X142926775Y-79180155D01*
X142965995Y-79153951D01*
X146498792Y-75621153D01*
X153099500Y-75621153D01*
X153099500Y-75778846D01*
X153130261Y-75933489D01*
X153130264Y-75933501D01*
X153190602Y-76079172D01*
X153190609Y-76079185D01*
X153278210Y-76210288D01*
X153278213Y-76210292D01*
X153389707Y-76321786D01*
X153389711Y-76321789D01*
X153520814Y-76409390D01*
X153520827Y-76409397D01*
X153665931Y-76469500D01*
X153666503Y-76469737D01*
X153796474Y-76495590D01*
X153821153Y-76500499D01*
X153821156Y-76500500D01*
X153821158Y-76500500D01*
X153978844Y-76500500D01*
X153978845Y-76500499D01*
X154133497Y-76469737D01*
X154272026Y-76412356D01*
X154341494Y-76404888D01*
X154403973Y-76436163D01*
X154407158Y-76439237D01*
X154489707Y-76521786D01*
X154489711Y-76521789D01*
X154620814Y-76609390D01*
X154620827Y-76609397D01*
X154766498Y-76669735D01*
X154766503Y-76669737D01*
X154921153Y-76700499D01*
X154921156Y-76700500D01*
X154921158Y-76700500D01*
X155078844Y-76700500D01*
X155078845Y-76700499D01*
X155233497Y-76669737D01*
X155379179Y-76609394D01*
X155510289Y-76521789D01*
X155621789Y-76410289D01*
X155709394Y-76279179D01*
X155727771Y-76234809D01*
X155754648Y-76194585D01*
X159268713Y-72680521D01*
X159268716Y-72680520D01*
X159380520Y-72568716D01*
X159387057Y-72557392D01*
X159397595Y-72546465D01*
X159402049Y-72543926D01*
X159405990Y-72539282D01*
X159405981Y-72539273D01*
X159406092Y-72539161D01*
X159408197Y-72536681D01*
X159410285Y-72534966D01*
X159410289Y-72534964D01*
X159521789Y-72423464D01*
X159609394Y-72292354D01*
X159669737Y-72146672D01*
X159700500Y-71992017D01*
X159700500Y-71834333D01*
X159700500Y-71834330D01*
X159700499Y-71834328D01*
X159696674Y-71815099D01*
X159669737Y-71679678D01*
X159657897Y-71651094D01*
X159609397Y-71534002D01*
X159609390Y-71533989D01*
X159521789Y-71402886D01*
X159521786Y-71402882D01*
X159413796Y-71294892D01*
X159401852Y-71273019D01*
X159386419Y-71253446D01*
X159385396Y-71242882D01*
X159380311Y-71233569D01*
X159382088Y-71208707D01*
X159379688Y-71183901D01*
X159384855Y-71170017D01*
X159385295Y-71163877D01*
X159391188Y-71150533D01*
X159392566Y-71147851D01*
X159459577Y-71031784D01*
X159467597Y-71001847D01*
X159473654Y-70990063D01*
X159485637Y-70977462D01*
X159496260Y-70959061D01*
X159521789Y-70933534D01*
X159609394Y-70802424D01*
X159669737Y-70656742D01*
X159700500Y-70502087D01*
X159700500Y-70344403D01*
X159700500Y-70344400D01*
X159700499Y-70344398D01*
X159683553Y-70259206D01*
X159669737Y-70189748D01*
X159669735Y-70189743D01*
X159609397Y-70044072D01*
X159609390Y-70044059D01*
X159521789Y-69912956D01*
X159521786Y-69912952D01*
X159410292Y-69801458D01*
X159410288Y-69801455D01*
X159279185Y-69713854D01*
X159279172Y-69713847D01*
X159133501Y-69653509D01*
X159133489Y-69653506D01*
X158978845Y-69622745D01*
X158978842Y-69622745D01*
X158821158Y-69622745D01*
X158821155Y-69622745D01*
X158666510Y-69653506D01*
X158666498Y-69653509D01*
X158520827Y-69713847D01*
X158520814Y-69713854D01*
X158389711Y-69801455D01*
X158389707Y-69801458D01*
X158278213Y-69912952D01*
X158278210Y-69912956D01*
X158190609Y-70044059D01*
X158190602Y-70044072D01*
X158130264Y-70189743D01*
X158130261Y-70189755D01*
X158099500Y-70344398D01*
X158099500Y-70502091D01*
X158127910Y-70644917D01*
X158121683Y-70714508D01*
X158093974Y-70756789D01*
X153987584Y-74863181D01*
X153926261Y-74896666D01*
X153899903Y-74899500D01*
X153821155Y-74899500D01*
X153666510Y-74930261D01*
X153666498Y-74930264D01*
X153520827Y-74990602D01*
X153520814Y-74990609D01*
X153389711Y-75078210D01*
X153389707Y-75078213D01*
X153278213Y-75189707D01*
X153278210Y-75189711D01*
X153190609Y-75320814D01*
X153190602Y-75320827D01*
X153130264Y-75466498D01*
X153130261Y-75466510D01*
X153099500Y-75621153D01*
X146498792Y-75621153D01*
X147686207Y-74433737D01*
X147747528Y-74400254D01*
X147817220Y-74405238D01*
X147873153Y-74447110D01*
X147888447Y-74473968D01*
X147890602Y-74479172D01*
X147890609Y-74479185D01*
X147978210Y-74610288D01*
X147978213Y-74610292D01*
X148089707Y-74721786D01*
X148089711Y-74721789D01*
X148220814Y-74809390D01*
X148220827Y-74809397D01*
X148350675Y-74863181D01*
X148366503Y-74869737D01*
X148516131Y-74899500D01*
X148521153Y-74900499D01*
X148521156Y-74900500D01*
X148521158Y-74900500D01*
X148678844Y-74900500D01*
X148678845Y-74900499D01*
X148833497Y-74869737D01*
X148979179Y-74809394D01*
X149110289Y-74721789D01*
X149221789Y-74610289D01*
X149309394Y-74479179D01*
X149311553Y-74473968D01*
X149340021Y-74405238D01*
X149369737Y-74333497D01*
X149400500Y-74178842D01*
X149400500Y-74021158D01*
X149400500Y-74021155D01*
X149399903Y-74015093D01*
X149402388Y-74014848D01*
X149407645Y-73956154D01*
X149435349Y-73913884D01*
X152914662Y-70434572D01*
X152975983Y-70401089D01*
X152978150Y-70400638D01*
X153036085Y-70389113D01*
X153133497Y-70369737D01*
X153246166Y-70323067D01*
X153279172Y-70309397D01*
X153279172Y-70309396D01*
X153279179Y-70309394D01*
X153410289Y-70221789D01*
X153521789Y-70110289D01*
X153609394Y-69979179D01*
X153669737Y-69833497D01*
X153700500Y-69678842D01*
X153700500Y-69521158D01*
X153700500Y-69521155D01*
X153700499Y-69521153D01*
X153687356Y-69455081D01*
X153669737Y-69366503D01*
X153669735Y-69366498D01*
X153609397Y-69220827D01*
X153609390Y-69220814D01*
X153521789Y-69089711D01*
X153521786Y-69089707D01*
X153410292Y-68978213D01*
X153410287Y-68978209D01*
X153374933Y-68954587D01*
X153330127Y-68900976D01*
X153321418Y-68831651D01*
X153351572Y-68768623D01*
X153356122Y-68763822D01*
X157871113Y-64248831D01*
X157932434Y-64215348D01*
X157934432Y-64214931D01*
X158040789Y-64193776D01*
X158191021Y-64131548D01*
X158191023Y-64131547D01*
X158316283Y-64047851D01*
X158326225Y-64041208D01*
X158441208Y-63926225D01*
X158531548Y-63791021D01*
X158558601Y-63725707D01*
X158602439Y-63671305D01*
X158625703Y-63658602D01*
X158691022Y-63631547D01*
X158826226Y-63541207D01*
X158941209Y-63426224D01*
X159010714Y-63322202D01*
X159031548Y-63291022D01*
X159031550Y-63291018D01*
X159072145Y-63193013D01*
X159093777Y-63140788D01*
X159110624Y-63056094D01*
X159125501Y-62981306D01*
X159125501Y-62924500D01*
X159145186Y-62857461D01*
X159197990Y-62811706D01*
X159249501Y-62800500D01*
X161620234Y-62800500D01*
X161687273Y-62820185D01*
X161689125Y-62821398D01*
X161820814Y-62909390D01*
X161820827Y-62909397D01*
X161902132Y-62943074D01*
X161966503Y-62969737D01*
X162085409Y-62993389D01*
X162121153Y-63000499D01*
X162121156Y-63000500D01*
X162121158Y-63000500D01*
X162278843Y-63000500D01*
X162294564Y-62997372D01*
X162351309Y-62986085D01*
X162420899Y-62992312D01*
X162476077Y-63035174D01*
X162499322Y-63101063D01*
X162499500Y-63107702D01*
X162499500Y-74068059D01*
X162479815Y-74135098D01*
X162427011Y-74180853D01*
X162357853Y-74190797D01*
X162294297Y-74161772D01*
X162287819Y-74155740D01*
X162210292Y-74078213D01*
X162210288Y-74078210D01*
X162079185Y-73990609D01*
X162079172Y-73990602D01*
X161933501Y-73930264D01*
X161933489Y-73930261D01*
X161778845Y-73899500D01*
X161778842Y-73899500D01*
X161621158Y-73899500D01*
X161621155Y-73899500D01*
X161466510Y-73930261D01*
X161466498Y-73930264D01*
X161320827Y-73990602D01*
X161320814Y-73990609D01*
X161189711Y-74078210D01*
X161189707Y-74078213D01*
X161078213Y-74189707D01*
X161078210Y-74189711D01*
X160990609Y-74320814D01*
X160990602Y-74320827D01*
X160930264Y-74466498D01*
X160930261Y-74466510D01*
X160899500Y-74621153D01*
X160899500Y-74778846D01*
X160930261Y-74933489D01*
X160930264Y-74933501D01*
X160990602Y-75079172D01*
X160990609Y-75079185D01*
X161078210Y-75210288D01*
X161078213Y-75210292D01*
X161189707Y-75321786D01*
X161189711Y-75321789D01*
X161320814Y-75409390D01*
X161320827Y-75409397D01*
X161458683Y-75466498D01*
X161466503Y-75469737D01*
X161621153Y-75500499D01*
X161621156Y-75500500D01*
X161621158Y-75500500D01*
X161778844Y-75500500D01*
X161778845Y-75500499D01*
X161933497Y-75469737D01*
X162079179Y-75409394D01*
X162210289Y-75321789D01*
X162230289Y-75301789D01*
X162287819Y-75244260D01*
X162349142Y-75210775D01*
X162418834Y-75215759D01*
X162474767Y-75257631D01*
X162499184Y-75323095D01*
X162499500Y-75331941D01*
X162499500Y-84692297D01*
X162479815Y-84759336D01*
X162427011Y-84805091D01*
X162357853Y-84815035D01*
X162351309Y-84813914D01*
X162278845Y-84799500D01*
X162278842Y-84799500D01*
X162121158Y-84799500D01*
X162121155Y-84799500D01*
X161966510Y-84830261D01*
X161966498Y-84830264D01*
X161926578Y-84846799D01*
X161857108Y-84854266D01*
X161794630Y-84822990D01*
X161758979Y-84762900D01*
X161757511Y-84708045D01*
X161778890Y-84600570D01*
X161778890Y-84442881D01*
X161778889Y-84442879D01*
X161771931Y-84407900D01*
X161748127Y-84288229D01*
X161728652Y-84241211D01*
X161687787Y-84142553D01*
X161687780Y-84142540D01*
X161596795Y-84006372D01*
X161597838Y-84005674D01*
X161573089Y-83947393D01*
X161574639Y-83908852D01*
X161600500Y-83778844D01*
X161600500Y-83621155D01*
X161600499Y-83621153D01*
X161591464Y-83575731D01*
X161569737Y-83466503D01*
X161544768Y-83406222D01*
X161509397Y-83320827D01*
X161509390Y-83320814D01*
X161421789Y-83189711D01*
X161421786Y-83189707D01*
X161310292Y-83078213D01*
X161310288Y-83078210D01*
X161179185Y-82990609D01*
X161179172Y-82990602D01*
X161033501Y-82930264D01*
X161033489Y-82930261D01*
X160878845Y-82899500D01*
X160878842Y-82899500D01*
X160721158Y-82899500D01*
X160721155Y-82899500D01*
X160566510Y-82930261D01*
X160566498Y-82930264D01*
X160420827Y-82990602D01*
X160420814Y-82990609D01*
X160289711Y-83078210D01*
X160289707Y-83078213D01*
X160178213Y-83189707D01*
X160178210Y-83189711D01*
X160090609Y-83320814D01*
X160090602Y-83320827D01*
X160030264Y-83466498D01*
X160030262Y-83466505D01*
X160026116Y-83487349D01*
X160017177Y-83504435D01*
X160012963Y-83523252D01*
X160001317Y-83534754D01*
X159993730Y-83549259D01*
X159976972Y-83558801D01*
X159963254Y-83572351D01*
X159947238Y-83575731D01*
X159933013Y-83583832D01*
X159913757Y-83582799D01*
X159894891Y-83586782D01*
X159879590Y-83580967D01*
X159863244Y-83580091D01*
X159847603Y-83568812D01*
X159829578Y-83561962D01*
X159819848Y-83548796D01*
X159806573Y-83539223D01*
X159799514Y-83521281D01*
X159788052Y-83505772D01*
X159783658Y-83480982D01*
X159780992Y-83474205D01*
X159780763Y-83471238D01*
X159780499Y-83467203D01*
X159780499Y-83332224D01*
X159770027Y-83279572D01*
X159768048Y-83276610D01*
X159766838Y-83258083D01*
X159768956Y-83248627D01*
X159768956Y-83225811D01*
X159770027Y-83220428D01*
X159778293Y-83178868D01*
X159810676Y-83116960D01*
X159840495Y-83094222D01*
X159842099Y-83093346D01*
X159957187Y-83007190D01*
X159957190Y-83007187D01*
X160043350Y-82892093D01*
X160043354Y-82892086D01*
X160093596Y-82757379D01*
X160093598Y-82757372D01*
X160099999Y-82697844D01*
X160100000Y-82697827D01*
X160100000Y-82650000D01*
X158924000Y-82650000D01*
X158915314Y-82647449D01*
X158906353Y-82648738D01*
X158882312Y-82637759D01*
X158856961Y-82630315D01*
X158851033Y-82623474D01*
X158842797Y-82619713D01*
X158828507Y-82597478D01*
X158811206Y-82577511D01*
X158808918Y-82566996D01*
X158805023Y-82560935D01*
X158800000Y-82526000D01*
X158800000Y-82474000D01*
X158819685Y-82406961D01*
X158872489Y-82361206D01*
X158924000Y-82350000D01*
X160100000Y-82350000D01*
X160100000Y-82302172D01*
X160099999Y-82302155D01*
X160093597Y-82242622D01*
X160093596Y-82242617D01*
X160076517Y-82196826D01*
X160075245Y-82179043D01*
X160069014Y-82162338D01*
X160072803Y-82144916D01*
X160071532Y-82127135D01*
X160080076Y-82111487D01*
X160083866Y-82094065D01*
X160105013Y-82065815D01*
X160134571Y-82036257D01*
X160195894Y-82002772D01*
X160265586Y-82007756D01*
X160269704Y-82009377D01*
X160303675Y-82023448D01*
X160303680Y-82023450D01*
X160391584Y-82040935D01*
X160429388Y-82055165D01*
X160437030Y-82059577D01*
X160589758Y-82100501D01*
X160589761Y-82100501D01*
X160747869Y-82100501D01*
X160747872Y-82100501D01*
X160900600Y-82059577D01*
X161037531Y-81980519D01*
X161106231Y-81911819D01*
X161167554Y-81878334D01*
X161193912Y-81875500D01*
X161200122Y-81875500D01*
X161307413Y-81854157D01*
X161359604Y-81843776D01*
X161509836Y-81781548D01*
X161509838Y-81781547D01*
X161582188Y-81733204D01*
X161645040Y-81691208D01*
X161760023Y-81576225D01*
X161850363Y-81441021D01*
X161912591Y-81290789D01*
X161922972Y-81238598D01*
X161944315Y-81131307D01*
X161944315Y-80968692D01*
X161912592Y-80809216D01*
X161912591Y-80809215D01*
X161912591Y-80809211D01*
X161868783Y-80703449D01*
X161850364Y-80658980D01*
X161850362Y-80658976D01*
X161760026Y-80523779D01*
X161760020Y-80523771D01*
X161645043Y-80408794D01*
X161645035Y-80408788D01*
X161509838Y-80318452D01*
X161509834Y-80318450D01*
X161359608Y-80256225D01*
X161359598Y-80256222D01*
X161200122Y-80224500D01*
X161200120Y-80224500D01*
X161037510Y-80224500D01*
X161037508Y-80224500D01*
X160878031Y-80256222D01*
X160878021Y-80256225D01*
X160727796Y-80318450D01*
X160691107Y-80342965D01*
X160630776Y-80383276D01*
X160564100Y-80404154D01*
X160561887Y-80404174D01*
X160463162Y-80404174D01*
X160303685Y-80435896D01*
X160303675Y-80435899D01*
X160153452Y-80498123D01*
X160122999Y-80518471D01*
X160056321Y-80539347D01*
X159988941Y-80520861D01*
X159978580Y-80513710D01*
X159824379Y-80395280D01*
X159809238Y-80374526D01*
X159791076Y-80356363D01*
X159786215Y-80342965D01*
X159783201Y-80338834D01*
X159782906Y-80333844D01*
X159778292Y-80321128D01*
X159770027Y-80279572D01*
X159770026Y-80279571D01*
X159768956Y-80274188D01*
X159768957Y-80225808D01*
X159778074Y-80179973D01*
X159780500Y-80167777D01*
X159780499Y-79832224D01*
X159770027Y-79779572D01*
X159770025Y-79779570D01*
X159770025Y-79779568D01*
X159730133Y-79719866D01*
X159710491Y-79706742D01*
X159665686Y-79653129D01*
X159656979Y-79583804D01*
X159687134Y-79520777D01*
X159746577Y-79484058D01*
X159746968Y-79483951D01*
X159795116Y-79471051D01*
X159910384Y-79404501D01*
X160004501Y-79310384D01*
X160071051Y-79195116D01*
X160105500Y-79066550D01*
X160105500Y-78933450D01*
X160071051Y-78804884D01*
X160004501Y-78689616D01*
X159910384Y-78595499D01*
X159795116Y-78528949D01*
X159666550Y-78494500D01*
X159533450Y-78494500D01*
X159404884Y-78528949D01*
X159404881Y-78528950D01*
X159289619Y-78595497D01*
X159289613Y-78595501D01*
X159195501Y-78689613D01*
X159195497Y-78689619D01*
X159128950Y-78804880D01*
X159128948Y-78804884D01*
X159121266Y-78833554D01*
X159089173Y-78889138D01*
X158637362Y-79340950D01*
X158637360Y-79340952D01*
X158627771Y-79350542D01*
X158627769Y-79350544D01*
X158575544Y-79402769D01*
X158538616Y-79466731D01*
X158530094Y-79498537D01*
X158525150Y-79516985D01*
X158525150Y-79516986D01*
X158519500Y-79538071D01*
X158519500Y-79545500D01*
X158499815Y-79612539D01*
X158447011Y-79658294D01*
X158395500Y-79669500D01*
X158124000Y-79669500D01*
X158056961Y-79649815D01*
X158011206Y-79597011D01*
X158000000Y-79545500D01*
X158000000Y-78911628D01*
X158019685Y-78844589D01*
X158024303Y-78838858D01*
X158030133Y-78830133D01*
X158070027Y-78770428D01*
X158080500Y-78717777D01*
X158080499Y-78021825D01*
X158100183Y-77954787D01*
X158152987Y-77909032D01*
X158180308Y-77900209D01*
X158270751Y-77882218D01*
X158333497Y-77869737D01*
X158479179Y-77809394D01*
X158610289Y-77721789D01*
X158721789Y-77610289D01*
X158809394Y-77479179D01*
X158869737Y-77333497D01*
X158900500Y-77178842D01*
X158900500Y-77021158D01*
X158900500Y-77021155D01*
X158900499Y-77021153D01*
X158888548Y-76961073D01*
X158869737Y-76866503D01*
X158837929Y-76789711D01*
X158809397Y-76720827D01*
X158809390Y-76720814D01*
X158721789Y-76589711D01*
X158721786Y-76589707D01*
X158610292Y-76478213D01*
X158610288Y-76478210D01*
X158479185Y-76390609D01*
X158479172Y-76390602D01*
X158333501Y-76330264D01*
X158333489Y-76330261D01*
X158178845Y-76299500D01*
X158178842Y-76299500D01*
X158021158Y-76299500D01*
X158021155Y-76299500D01*
X157866510Y-76330261D01*
X157866498Y-76330264D01*
X157720827Y-76390602D01*
X157720814Y-76390609D01*
X157589714Y-76478208D01*
X157589708Y-76478213D01*
X157565733Y-76502187D01*
X157504409Y-76535670D01*
X157439626Y-76531034D01*
X157439324Y-76532031D01*
X157434931Y-76530698D01*
X157434717Y-76530683D01*
X157434165Y-76530466D01*
X157433500Y-76530264D01*
X157433497Y-76530263D01*
X157433492Y-76530262D01*
X157433489Y-76530261D01*
X157278845Y-76499500D01*
X157278842Y-76499500D01*
X157121158Y-76499500D01*
X157121155Y-76499500D01*
X156966510Y-76530261D01*
X156966498Y-76530264D01*
X156820827Y-76590602D01*
X156820814Y-76590609D01*
X156689711Y-76678210D01*
X156689707Y-76678213D01*
X156578213Y-76789707D01*
X156578210Y-76789711D01*
X156490609Y-76920814D01*
X156490602Y-76920827D01*
X156430264Y-77066498D01*
X156430261Y-77066510D01*
X156399500Y-77221153D01*
X156399500Y-77378846D01*
X156430261Y-77533489D01*
X156430263Y-77533497D01*
X156436290Y-77548047D01*
X156443759Y-77617517D01*
X156412484Y-77679996D01*
X156352395Y-77715648D01*
X156321730Y-77719500D01*
X156082225Y-77719500D01*
X156029571Y-77729973D01*
X156029568Y-77729974D01*
X155969865Y-77769867D01*
X155929974Y-77829569D01*
X155929971Y-77829576D01*
X155919500Y-77882218D01*
X155919500Y-78717774D01*
X155929973Y-78770428D01*
X155929974Y-78770431D01*
X155976652Y-78840288D01*
X155973683Y-78842271D01*
X155997161Y-78885245D01*
X156000000Y-78911628D01*
X156000000Y-79226000D01*
X155980315Y-79293039D01*
X155927511Y-79338794D01*
X155876000Y-79350000D01*
X155350000Y-79350000D01*
X155350000Y-79876000D01*
X155347449Y-79884685D01*
X155348738Y-79893647D01*
X155337759Y-79917687D01*
X155330315Y-79943039D01*
X155323474Y-79948966D01*
X155319713Y-79957203D01*
X155297478Y-79971492D01*
X155277511Y-79988794D01*
X155266996Y-79991081D01*
X155260935Y-79994977D01*
X155226000Y-80000000D01*
X155200000Y-80000000D01*
X155200000Y-80026000D01*
X155180315Y-80093039D01*
X155127511Y-80138794D01*
X155076000Y-80150000D01*
X153900000Y-80150000D01*
X153866819Y-80183181D01*
X153805496Y-80216666D01*
X153779138Y-80219500D01*
X152103039Y-80219500D01*
X152036000Y-80199815D01*
X151995653Y-80157502D01*
X151980516Y-80131284D01*
X151868713Y-80019481D01*
X151731782Y-79940423D01*
X151579054Y-79899499D01*
X151420940Y-79899499D01*
X151306394Y-79930192D01*
X151268211Y-79940423D01*
X151131281Y-80019481D01*
X151131278Y-80019483D01*
X148112584Y-83038178D01*
X148091392Y-83049749D01*
X148072629Y-83064944D01*
X148058320Y-83067807D01*
X148051261Y-83071663D01*
X148038453Y-83073754D01*
X148031694Y-83074497D01*
X148018695Y-83074497D01*
X148002636Y-83077691D01*
X147997263Y-83078282D01*
X147967960Y-83073067D01*
X147938308Y-83070413D01*
X147933930Y-83067011D01*
X147928474Y-83066041D01*
X147906640Y-83045811D01*
X147883132Y-83027547D01*
X147881288Y-83022319D01*
X147877223Y-83018553D01*
X147869794Y-82989735D01*
X147859890Y-82961657D01*
X147861165Y-82956261D01*
X147859782Y-82950895D01*
X147869114Y-82922629D01*
X147875962Y-82893660D01*
X147880754Y-82887375D01*
X147881688Y-82884549D01*
X147884884Y-82881960D01*
X147896029Y-82867347D01*
X150874206Y-79889171D01*
X150876439Y-79885828D01*
X150910653Y-79851612D01*
X150926225Y-79841208D01*
X150965278Y-79802155D01*
X153900000Y-79802155D01*
X153900000Y-79850000D01*
X155050000Y-79850000D01*
X155050000Y-79350000D01*
X154352155Y-79350000D01*
X154292627Y-79356401D01*
X154292620Y-79356403D01*
X154157913Y-79406645D01*
X154157906Y-79406649D01*
X154042812Y-79492809D01*
X154042809Y-79492812D01*
X153956649Y-79607906D01*
X153956645Y-79607913D01*
X153906403Y-79742620D01*
X153906401Y-79742627D01*
X153900000Y-79802155D01*
X150965278Y-79802155D01*
X151041208Y-79726225D01*
X151131548Y-79591021D01*
X151134538Y-79583804D01*
X151162188Y-79517049D01*
X151193776Y-79440789D01*
X151211728Y-79350542D01*
X151225500Y-79281307D01*
X151225500Y-79118692D01*
X151193777Y-78959216D01*
X151193776Y-78959215D01*
X151193776Y-78959211D01*
X151192077Y-78955109D01*
X151131549Y-78808980D01*
X151131547Y-78808976D01*
X151041211Y-78673779D01*
X151041205Y-78673771D01*
X150926228Y-78558794D01*
X150926220Y-78558788D01*
X150791023Y-78468452D01*
X150791019Y-78468450D01*
X150640793Y-78406225D01*
X150640783Y-78406222D01*
X150481307Y-78374500D01*
X150481305Y-78374500D01*
X150318695Y-78374500D01*
X150318693Y-78374500D01*
X150159216Y-78406222D01*
X150159206Y-78406225D01*
X150008980Y-78468450D01*
X150008976Y-78468452D01*
X149868890Y-78562055D01*
X149802213Y-78582933D01*
X149734833Y-78564448D01*
X149731110Y-78562055D01*
X149591023Y-78468452D01*
X149591019Y-78468450D01*
X149440793Y-78406225D01*
X149440783Y-78406222D01*
X149281307Y-78374500D01*
X149281305Y-78374500D01*
X149118695Y-78374500D01*
X149118693Y-78374500D01*
X148959216Y-78406222D01*
X148959206Y-78406225D01*
X148808981Y-78468450D01*
X148778753Y-78488647D01*
X148771708Y-78493356D01*
X148768891Y-78495238D01*
X148702213Y-78516116D01*
X148634833Y-78497631D01*
X148631109Y-78495238D01*
X148628292Y-78493356D01*
X148591021Y-78468452D01*
X148591020Y-78468451D01*
X148591018Y-78468450D01*
X148440793Y-78406225D01*
X148440783Y-78406222D01*
X148281307Y-78374500D01*
X148281305Y-78374500D01*
X148118695Y-78374500D01*
X148118693Y-78374500D01*
X147959216Y-78406222D01*
X147959206Y-78406225D01*
X147808980Y-78468450D01*
X147808976Y-78468452D01*
X147673779Y-78558788D01*
X147669065Y-78562657D01*
X147667588Y-78560857D01*
X147615320Y-78589374D01*
X147545630Y-78584364D01*
X147520114Y-78571300D01*
X147441018Y-78518450D01*
X147290793Y-78456225D01*
X147290783Y-78456222D01*
X147131307Y-78424500D01*
X147131305Y-78424500D01*
X146968695Y-78424500D01*
X146968693Y-78424500D01*
X146809216Y-78456222D01*
X146809206Y-78456225D01*
X146658982Y-78518450D01*
X146579884Y-78571301D01*
X146513206Y-78592178D01*
X146445826Y-78573693D01*
X146431306Y-78562204D01*
X146430935Y-78562657D01*
X146426220Y-78558788D01*
X146291023Y-78468452D01*
X146291019Y-78468450D01*
X146140793Y-78406225D01*
X146140783Y-78406222D01*
X145981307Y-78374500D01*
X145981305Y-78374500D01*
X145818695Y-78374500D01*
X145818693Y-78374500D01*
X145659216Y-78406222D01*
X145659206Y-78406225D01*
X145508980Y-78468450D01*
X145508978Y-78468451D01*
X145448623Y-78508779D01*
X145381946Y-78529656D01*
X145314566Y-78511171D01*
X145292052Y-78493356D01*
X145240532Y-78441835D01*
X145240524Y-78441829D01*
X145105327Y-78351493D01*
X145105323Y-78351491D01*
X144955097Y-78289266D01*
X144955087Y-78289263D01*
X144795611Y-78257541D01*
X144795609Y-78257541D01*
X144632999Y-78257541D01*
X144632997Y-78257541D01*
X144473520Y-78289263D01*
X144473510Y-78289266D01*
X144323284Y-78351491D01*
X144323280Y-78351493D01*
X144188083Y-78441829D01*
X144188075Y-78441835D01*
X144073098Y-78556812D01*
X144073092Y-78556820D01*
X143982756Y-78692017D01*
X143982754Y-78692021D01*
X143920529Y-78842247D01*
X143920526Y-78842257D01*
X143909530Y-78897538D01*
X143877144Y-78959449D01*
X143875594Y-78961027D01*
X133425797Y-89410825D01*
X133425791Y-89410832D01*
X133423552Y-89414184D01*
X133389351Y-89448384D01*
X133373772Y-89458794D01*
X133373768Y-89458798D01*
X133258794Y-89573771D01*
X133258788Y-89573779D01*
X133168452Y-89708976D01*
X133168450Y-89708980D01*
X133106225Y-89859206D01*
X133106222Y-89859216D01*
X133074500Y-90018692D01*
X133074500Y-90018695D01*
X133074500Y-90181305D01*
X133074500Y-90181307D01*
X133074499Y-90181307D01*
X133106222Y-90340783D01*
X133106225Y-90340793D01*
X133168450Y-90491019D01*
X133168452Y-90491023D01*
X133258788Y-90626220D01*
X133258794Y-90626228D01*
X133373771Y-90741205D01*
X133373779Y-90741211D01*
X133508976Y-90831547D01*
X133508980Y-90831549D01*
X133623985Y-90879185D01*
X133659211Y-90893776D01*
X133659215Y-90893776D01*
X133659216Y-90893777D01*
X133818692Y-90925500D01*
X133818695Y-90925500D01*
X133981307Y-90925500D01*
X134097600Y-90902367D01*
X134140789Y-90893776D01*
X134291021Y-90831548D01*
X134370116Y-90778698D01*
X134436791Y-90757821D01*
X134504171Y-90776305D01*
X134526686Y-90794120D01*
X134573771Y-90841205D01*
X134573779Y-90841211D01*
X134708976Y-90931547D01*
X134708980Y-90931549D01*
X134859206Y-90993774D01*
X134859211Y-90993776D01*
X134859215Y-90993776D01*
X134859216Y-90993777D01*
X135018692Y-91025500D01*
X135018695Y-91025500D01*
X135181307Y-91025500D01*
X135288598Y-91004157D01*
X135340789Y-90993776D01*
X135491021Y-90931548D01*
X135581110Y-90871352D01*
X135647787Y-90850475D01*
X135715167Y-90868960D01*
X135718875Y-90871342D01*
X135808979Y-90931548D01*
X135808980Y-90931548D01*
X135808981Y-90931549D01*
X135959206Y-90993774D01*
X135959211Y-90993776D01*
X135959215Y-90993776D01*
X135959216Y-90993777D01*
X136118692Y-91025500D01*
X136118695Y-91025500D01*
X136281307Y-91025500D01*
X136388598Y-91004157D01*
X136440789Y-90993776D01*
X136591021Y-90931548D01*
X136681110Y-90871352D01*
X136747787Y-90850475D01*
X136815167Y-90868960D01*
X136818875Y-90871342D01*
X136908979Y-90931548D01*
X136908980Y-90931548D01*
X136908981Y-90931549D01*
X137059206Y-90993774D01*
X137059211Y-90993776D01*
X137059215Y-90993776D01*
X137059216Y-90993777D01*
X137218692Y-91025500D01*
X137218695Y-91025500D01*
X137381307Y-91025500D01*
X137488598Y-91004157D01*
X137540789Y-90993776D01*
X137691021Y-90931548D01*
X137731109Y-90904761D01*
X137797785Y-90883883D01*
X137865166Y-90902367D01*
X137868871Y-90904748D01*
X137908979Y-90931548D01*
X137908981Y-90931549D01*
X137908983Y-90931550D01*
X138059206Y-90993774D01*
X138059211Y-90993776D01*
X138059215Y-90993776D01*
X138059216Y-90993777D01*
X138218692Y-91025500D01*
X138218695Y-91025500D01*
X138381307Y-91025500D01*
X138488598Y-91004157D01*
X138540789Y-90993776D01*
X138640943Y-90952290D01*
X138691019Y-90931549D01*
X138691023Y-90931547D01*
X138769408Y-90879172D01*
X138826225Y-90841208D01*
X138862318Y-90805115D01*
X138923640Y-90771629D01*
X138993332Y-90776613D01*
X139037682Y-90805115D01*
X139073771Y-90841205D01*
X139073779Y-90841211D01*
X139208976Y-90931547D01*
X139208980Y-90931549D01*
X139359206Y-90993774D01*
X139359211Y-90993776D01*
X139359215Y-90993776D01*
X139359216Y-90993777D01*
X139518692Y-91025500D01*
X139518695Y-91025500D01*
X139681307Y-91025500D01*
X139788598Y-91004157D01*
X139840789Y-90993776D01*
X139940943Y-90952290D01*
X139991019Y-90931549D01*
X139991023Y-90931547D01*
X140069408Y-90879172D01*
X140126225Y-90841208D01*
X140241208Y-90726225D01*
X140331548Y-90591021D01*
X140393776Y-90440789D01*
X140404114Y-90388813D01*
X140436498Y-90326905D01*
X140437994Y-90325381D01*
X147067348Y-83696028D01*
X147128670Y-83662544D01*
X147198362Y-83667528D01*
X147254295Y-83709400D01*
X147278712Y-83774864D01*
X147276646Y-83807896D01*
X147274500Y-83818684D01*
X147274500Y-83818692D01*
X147274500Y-83981302D01*
X147274500Y-83981304D01*
X147274499Y-83981304D01*
X147306222Y-84140780D01*
X147306225Y-84140790D01*
X147368450Y-84291014D01*
X147368734Y-84291546D01*
X147368798Y-84291856D01*
X147370783Y-84296647D01*
X147369874Y-84297023D01*
X147382975Y-84359949D01*
X147370293Y-84403149D01*
X147370783Y-84403352D01*
X147368898Y-84407900D01*
X147368742Y-84408435D01*
X147368455Y-84408971D01*
X147306224Y-84559210D01*
X147306222Y-84559216D01*
X147274500Y-84718692D01*
X147274500Y-84718695D01*
X147274500Y-84881305D01*
X147274500Y-84881307D01*
X147274499Y-84881307D01*
X147306222Y-85040783D01*
X147306225Y-85040793D01*
X147368454Y-85191027D01*
X147368736Y-85191555D01*
X147368800Y-85191862D01*
X147370783Y-85196650D01*
X147369874Y-85197026D01*
X147382973Y-85259958D01*
X147370291Y-85303146D01*
X147370783Y-85303350D01*
X147368890Y-85307919D01*
X147368736Y-85308445D01*
X147368454Y-85308972D01*
X147306225Y-85459206D01*
X147306222Y-85459216D01*
X147274500Y-85618692D01*
X147274500Y-85618695D01*
X147274500Y-85781305D01*
X147274500Y-85781307D01*
X147274499Y-85781307D01*
X147306222Y-85940783D01*
X147306225Y-85940793D01*
X147368449Y-86091017D01*
X147428647Y-86181110D01*
X147449524Y-86247788D01*
X147431039Y-86315168D01*
X147428647Y-86318890D01*
X147368449Y-86408982D01*
X147306225Y-86559206D01*
X147306222Y-86559216D01*
X147274500Y-86718692D01*
X147274500Y-86718695D01*
X147274500Y-86881305D01*
X147274500Y-86881307D01*
X147274499Y-86881307D01*
X147306222Y-87040783D01*
X147306225Y-87040793D01*
X147368454Y-87191027D01*
X147368736Y-87191555D01*
X147368800Y-87191862D01*
X147370783Y-87196650D01*
X147369874Y-87197026D01*
X147382973Y-87259958D01*
X147370291Y-87303146D01*
X147370783Y-87303350D01*
X147368890Y-87307919D01*
X147368736Y-87308445D01*
X147368454Y-87308972D01*
X147306225Y-87459206D01*
X147306222Y-87459216D01*
X147274500Y-87618692D01*
X147274500Y-87618695D01*
X147274500Y-87781305D01*
X147274500Y-87781307D01*
X147274499Y-87781307D01*
X147306222Y-87940783D01*
X147306225Y-87940793D01*
X147368454Y-88091027D01*
X147368736Y-88091555D01*
X147368800Y-88091862D01*
X147370783Y-88096650D01*
X147369874Y-88097026D01*
X147382973Y-88159958D01*
X147370291Y-88203146D01*
X147370783Y-88203350D01*
X147368890Y-88207919D01*
X147368736Y-88208445D01*
X147368454Y-88208972D01*
X147306225Y-88359206D01*
X147306222Y-88359216D01*
X147274500Y-88518692D01*
X147274500Y-88518695D01*
X147274500Y-88681305D01*
X147274500Y-88681307D01*
X147274499Y-88681307D01*
X147306222Y-88840783D01*
X147306225Y-88840793D01*
X147368449Y-88991017D01*
X147423523Y-89073441D01*
X147444400Y-89140118D01*
X147434981Y-89189782D01*
X147421725Y-89221789D01*
X147406223Y-89259214D01*
X147406222Y-89259217D01*
X147374500Y-89418692D01*
X147374500Y-89418695D01*
X147374500Y-89581305D01*
X147374500Y-89581307D01*
X147374499Y-89581307D01*
X147406222Y-89740783D01*
X147406225Y-89740793D01*
X147468450Y-89891019D01*
X147468452Y-89891023D01*
X147558791Y-90026225D01*
X147562208Y-90030389D01*
X147589519Y-90094700D01*
X147577725Y-90163567D01*
X147554033Y-90196731D01*
X140937597Y-96813167D01*
X140876274Y-96846652D01*
X140806582Y-96841668D01*
X140781026Y-96828589D01*
X140691017Y-96768447D01*
X140540793Y-96706223D01*
X140540783Y-96706220D01*
X140381307Y-96674498D01*
X140381305Y-96674498D01*
X140218695Y-96674498D01*
X140218693Y-96674498D01*
X140059216Y-96706220D01*
X140059206Y-96706223D01*
X139908980Y-96768448D01*
X139908976Y-96768450D01*
X139773779Y-96858786D01*
X139773771Y-96858792D01*
X139658794Y-96973769D01*
X139658788Y-96973777D01*
X139568452Y-97108974D01*
X139568450Y-97108978D01*
X139506225Y-97259204D01*
X139506222Y-97259214D01*
X139474500Y-97418690D01*
X139474500Y-97418693D01*
X139474500Y-97581303D01*
X139474500Y-97581305D01*
X139474499Y-97581305D01*
X139506222Y-97740781D01*
X139506225Y-97740791D01*
X139568450Y-97891017D01*
X139568452Y-97891021D01*
X139658788Y-98026218D01*
X139658794Y-98026226D01*
X139773771Y-98141203D01*
X139773779Y-98141209D01*
X139908976Y-98231545D01*
X139908980Y-98231547D01*
X139979939Y-98260939D01*
X140034343Y-98304780D01*
X140056408Y-98371074D01*
X140039129Y-98438773D01*
X139987992Y-98486384D01*
X139932487Y-98499500D01*
X115004428Y-98499500D01*
X114995582Y-98499184D01*
X114973622Y-98497613D01*
X114795442Y-98484869D01*
X114777931Y-98482351D01*
X114586212Y-98440646D01*
X114569236Y-98435662D01*
X114385390Y-98367090D01*
X114369298Y-98359740D01*
X114197095Y-98265711D01*
X114182210Y-98256146D01*
X114149348Y-98231546D01*
X114025132Y-98138558D01*
X114011762Y-98126972D01*
X113873027Y-97988237D01*
X113861441Y-97974867D01*
X113743849Y-97817784D01*
X113734288Y-97802904D01*
X113640259Y-97630701D01*
X113632909Y-97614609D01*
X113572091Y-97451551D01*
X113564334Y-97430755D01*
X113559355Y-97413797D01*
X113517647Y-97222063D01*
X113515130Y-97204556D01*
X113509527Y-97126220D01*
X113500816Y-97004418D01*
X113500500Y-96995572D01*
X113500500Y-84281307D01*
X120974499Y-84281307D01*
X121006222Y-84440783D01*
X121006225Y-84440793D01*
X121068450Y-84591019D01*
X121068452Y-84591023D01*
X121158788Y-84726220D01*
X121158794Y-84726228D01*
X121273771Y-84841205D01*
X121273779Y-84841211D01*
X121408976Y-84931547D01*
X121408980Y-84931549D01*
X121559206Y-84993774D01*
X121559211Y-84993776D01*
X121559215Y-84993776D01*
X121559216Y-84993777D01*
X121718692Y-85025500D01*
X121718695Y-85025500D01*
X121881307Y-85025500D01*
X121988598Y-85004157D01*
X122040789Y-84993776D01*
X122191021Y-84931548D01*
X122191023Y-84931547D01*
X122272182Y-84877318D01*
X122326225Y-84841208D01*
X122362318Y-84805115D01*
X122423640Y-84771629D01*
X122493332Y-84776613D01*
X122537682Y-84805115D01*
X122573771Y-84841205D01*
X122573779Y-84841211D01*
X122708976Y-84931547D01*
X122708980Y-84931549D01*
X122859206Y-84993774D01*
X122859211Y-84993776D01*
X122859215Y-84993776D01*
X122859216Y-84993777D01*
X123018692Y-85025500D01*
X123018695Y-85025500D01*
X123181307Y-85025500D01*
X123288598Y-85004157D01*
X123340789Y-84993776D01*
X123491021Y-84931548D01*
X123491023Y-84931547D01*
X123572182Y-84877318D01*
X123626225Y-84841208D01*
X123741208Y-84726225D01*
X123831548Y-84591021D01*
X123893776Y-84440789D01*
X123904157Y-84388598D01*
X123925500Y-84281307D01*
X123925500Y-84275096D01*
X123945185Y-84208057D01*
X123961814Y-84187420D01*
X131501322Y-76647911D01*
X131562643Y-76614428D01*
X131632335Y-76619412D01*
X131636458Y-76621035D01*
X131638286Y-76621792D01*
X131638291Y-76621794D01*
X131638295Y-76621794D01*
X131638296Y-76621795D01*
X131797772Y-76653518D01*
X131797775Y-76653518D01*
X131960387Y-76653518D01*
X132067678Y-76632175D01*
X132119869Y-76621794D01*
X132270101Y-76559566D01*
X132270103Y-76559565D01*
X132358501Y-76500499D01*
X132405305Y-76469226D01*
X132520288Y-76354243D01*
X132600089Y-76234812D01*
X132610627Y-76219041D01*
X132610629Y-76219037D01*
X132635407Y-76159216D01*
X132672856Y-76068807D01*
X132699771Y-75933501D01*
X132704580Y-75909325D01*
X132704580Y-75746710D01*
X132672857Y-75587234D01*
X132672856Y-75587233D01*
X132672856Y-75587229D01*
X132636932Y-75500500D01*
X132610629Y-75436998D01*
X132610627Y-75436994D01*
X132520291Y-75301797D01*
X132520285Y-75301789D01*
X132405308Y-75186812D01*
X132405300Y-75186806D01*
X132270103Y-75096470D01*
X132124459Y-75036143D01*
X132070056Y-74992302D01*
X132050294Y-74945768D01*
X132048879Y-74938653D01*
X132048876Y-74938644D01*
X131986651Y-74788418D01*
X131986649Y-74788414D01*
X131896313Y-74653217D01*
X131896307Y-74653209D01*
X131861598Y-74618500D01*
X131828113Y-74557177D01*
X131833097Y-74487485D01*
X131834702Y-74483404D01*
X131893776Y-74340789D01*
X131914898Y-74234596D01*
X131947281Y-74172691D01*
X131948777Y-74171167D01*
X144665095Y-61454849D01*
X144683879Y-61439434D01*
X144710289Y-61421789D01*
X144821789Y-61310289D01*
X144909394Y-61179179D01*
X144969737Y-61033497D01*
X145000500Y-60878842D01*
X145000500Y-60721158D01*
X145000500Y-60721155D01*
X145000499Y-60721153D01*
X144998472Y-60710962D01*
X144969737Y-60566503D01*
X144950955Y-60521158D01*
X144909397Y-60420827D01*
X144909390Y-60420814D01*
X144821789Y-60289711D01*
X144821786Y-60289707D01*
X144710292Y-60178213D01*
X144710288Y-60178210D01*
X144579185Y-60090609D01*
X144579172Y-60090602D01*
X144433501Y-60030264D01*
X144433489Y-60030261D01*
X144278845Y-59999500D01*
X144278842Y-59999500D01*
X144121158Y-59999500D01*
X144119809Y-59999500D01*
X144052770Y-59979815D01*
X144007015Y-59927011D01*
X143997071Y-59857853D01*
X144026096Y-59794297D01*
X144032128Y-59787819D01*
X144505273Y-59314673D01*
X144505273Y-59314672D01*
X144505278Y-59314668D01*
X144576467Y-59208125D01*
X144625502Y-59089742D01*
X144650501Y-58964068D01*
X144650501Y-58835930D01*
X144650501Y-58074362D01*
X144670186Y-58007323D01*
X144686817Y-57986683D01*
X144699465Y-57974036D01*
X144798014Y-57826548D01*
X144828872Y-57752046D01*
X144872712Y-57697645D01*
X144939006Y-57675579D01*
X144943433Y-57675500D01*
X149929469Y-57675500D01*
X149996508Y-57695185D01*
X150032571Y-57730609D01*
X150062335Y-57775154D01*
X150062338Y-57775158D01*
X150187761Y-57900581D01*
X150187765Y-57900584D01*
X150335246Y-57999129D01*
X150335259Y-57999136D01*
X150439471Y-58042301D01*
X150499134Y-58067014D01*
X150499136Y-58067014D01*
X150499141Y-58067016D01*
X150673104Y-58101619D01*
X150673107Y-58101620D01*
X150673109Y-58101620D01*
X150850493Y-58101620D01*
X150850494Y-58101619D01*
X150908482Y-58090084D01*
X151024458Y-58067016D01*
X151024461Y-58067014D01*
X151024466Y-58067014D01*
X151188347Y-57999133D01*
X151335835Y-57900584D01*
X151335834Y-57900584D01*
X151340424Y-57897518D01*
X151407101Y-57876640D01*
X151409315Y-57876620D01*
X153069957Y-57876620D01*
X153099397Y-57885264D01*
X153129384Y-57891788D01*
X153134399Y-57895542D01*
X153136996Y-57896305D01*
X153157638Y-57912939D01*
X153250681Y-58005982D01*
X153284166Y-58067305D01*
X153287000Y-58093663D01*
X153287000Y-58101195D01*
X153321603Y-58275158D01*
X153321606Y-58275167D01*
X153389483Y-58439040D01*
X153389490Y-58439053D01*
X153488035Y-58586534D01*
X153488038Y-58586538D01*
X153613461Y-58711961D01*
X153613465Y-58711964D01*
X153760946Y-58810509D01*
X153760959Y-58810516D01*
X153883863Y-58861423D01*
X153924834Y-58878394D01*
X153924836Y-58878394D01*
X153924841Y-58878396D01*
X154098804Y-58912999D01*
X154098807Y-58913000D01*
X154098809Y-58913000D01*
X154276193Y-58913000D01*
X154276194Y-58912999D01*
X154334182Y-58901464D01*
X154450158Y-58878396D01*
X154450161Y-58878394D01*
X154450166Y-58878394D01*
X154614047Y-58810513D01*
X154761535Y-58711964D01*
X154886964Y-58586535D01*
X154985513Y-58439047D01*
X155053394Y-58275166D01*
X155088000Y-58101191D01*
X155088000Y-57923809D01*
X155088000Y-57923806D01*
X155087999Y-57923804D01*
X155053396Y-57749841D01*
X155053393Y-57749832D01*
X154985516Y-57585959D01*
X154985509Y-57585946D01*
X154886964Y-57438465D01*
X154886961Y-57438461D01*
X154761538Y-57313038D01*
X154761534Y-57313035D01*
X154614053Y-57214490D01*
X154614040Y-57214483D01*
X154450167Y-57146606D01*
X154450159Y-57146604D01*
X154301984Y-57117130D01*
X154240073Y-57084745D01*
X154238495Y-57083194D01*
X153831729Y-56676427D01*
X153831725Y-56676424D01*
X153721095Y-56602503D01*
X153721085Y-56602498D01*
X153598156Y-56551579D01*
X153598148Y-56551577D01*
X153467655Y-56525620D01*
X153467651Y-56525620D01*
X151409315Y-56525620D01*
X151342276Y-56505935D01*
X151340424Y-56504722D01*
X151188353Y-56403110D01*
X151188340Y-56403103D01*
X151024467Y-56335226D01*
X151024458Y-56335223D01*
X150850494Y-56300620D01*
X150850491Y-56300620D01*
X150673109Y-56300620D01*
X150673107Y-56300620D01*
X150599503Y-56315261D01*
X150565036Y-56322117D01*
X150540846Y-56324500D01*
X144333466Y-56324500D01*
X144202973Y-56350457D01*
X144202965Y-56350459D01*
X144080036Y-56401378D01*
X144080026Y-56401383D01*
X143964331Y-56478689D01*
X143962976Y-56476661D01*
X143916866Y-56496214D01*
X143917284Y-56498312D01*
X143737342Y-56534104D01*
X143737333Y-56534107D01*
X143573460Y-56601984D01*
X143573447Y-56601991D01*
X143425966Y-56700536D01*
X143425962Y-56700539D01*
X143300539Y-56825962D01*
X143300536Y-56825966D01*
X143201991Y-56973447D01*
X143201984Y-56973460D01*
X143134107Y-57137333D01*
X143134104Y-57137342D01*
X143099501Y-57311305D01*
X143099501Y-57488696D01*
X143134104Y-57662659D01*
X143134107Y-57662668D01*
X143201984Y-57826541D01*
X143201991Y-57826554D01*
X143300535Y-57974034D01*
X143300536Y-57974035D01*
X143300537Y-57974036D01*
X143313181Y-57986680D01*
X143346666Y-58048000D01*
X143349501Y-58074362D01*
X143349501Y-58579190D01*
X143329816Y-58646229D01*
X143313182Y-58666871D01*
X137806185Y-64173867D01*
X137744862Y-64207352D01*
X137742696Y-64207803D01*
X137636514Y-64228924D01*
X137636504Y-64228927D01*
X137486278Y-64291152D01*
X137486274Y-64291154D01*
X137351077Y-64381490D01*
X137351069Y-64381496D01*
X137236092Y-64496473D01*
X137236086Y-64496481D01*
X137145750Y-64631678D01*
X137145748Y-64631682D01*
X137083523Y-64781908D01*
X137083520Y-64781918D01*
X137062399Y-64888100D01*
X137030014Y-64950011D01*
X137028463Y-64951589D01*
X134101589Y-67878463D01*
X134040266Y-67911948D01*
X134038100Y-67912399D01*
X133931918Y-67933520D01*
X133931908Y-67933523D01*
X133781682Y-67995748D01*
X133781678Y-67995750D01*
X133646481Y-68086086D01*
X133646473Y-68086092D01*
X133531496Y-68201069D01*
X133531490Y-68201077D01*
X133441154Y-68336274D01*
X133441152Y-68336278D01*
X133378927Y-68486504D01*
X133378924Y-68486514D01*
X133357803Y-68592696D01*
X133325418Y-68654607D01*
X133323867Y-68656185D01*
X130994725Y-70985328D01*
X130994719Y-70985336D01*
X130935649Y-71073740D01*
X130935650Y-71073741D01*
X130923534Y-71091874D01*
X130874499Y-71210255D01*
X130874497Y-71210261D01*
X130849500Y-71335928D01*
X130849500Y-71850065D01*
X130829815Y-71917104D01*
X130828603Y-71918955D01*
X130768450Y-72008982D01*
X130706225Y-72159206D01*
X130706222Y-72159216D01*
X130674500Y-72318692D01*
X130674500Y-72318695D01*
X130674500Y-72481305D01*
X130674500Y-72481307D01*
X130674499Y-72481307D01*
X130706222Y-72640783D01*
X130706225Y-72640793D01*
X130768450Y-72791019D01*
X130768452Y-72791023D01*
X130858788Y-72926220D01*
X130858794Y-72926228D01*
X130973771Y-73041205D01*
X130973775Y-73041208D01*
X131004220Y-73061551D01*
X131049025Y-73115163D01*
X131057732Y-73184488D01*
X131027578Y-73247515D01*
X130968135Y-73284235D01*
X130959521Y-73286270D01*
X130859216Y-73306222D01*
X130859206Y-73306225D01*
X130708980Y-73368450D01*
X130708976Y-73368452D01*
X130573779Y-73458788D01*
X130573771Y-73458794D01*
X130458794Y-73573771D01*
X130458788Y-73573779D01*
X130368452Y-73708976D01*
X130368450Y-73708980D01*
X130306225Y-73859206D01*
X130306222Y-73859216D01*
X130274500Y-74018692D01*
X130274500Y-74018695D01*
X130274500Y-74181305D01*
X130274500Y-74181307D01*
X130274499Y-74181307D01*
X130306222Y-74340783D01*
X130306225Y-74340793D01*
X130368450Y-74491019D01*
X130368452Y-74491022D01*
X130422925Y-74572547D01*
X130443803Y-74639224D01*
X130425318Y-74706604D01*
X130407504Y-74729118D01*
X121798240Y-83338382D01*
X121736917Y-83371867D01*
X121722714Y-83374104D01*
X121718691Y-83374500D01*
X121559216Y-83406222D01*
X121559206Y-83406225D01*
X121408980Y-83468450D01*
X121408976Y-83468452D01*
X121273779Y-83558788D01*
X121273771Y-83558794D01*
X121158794Y-83673771D01*
X121158788Y-83673779D01*
X121068452Y-83808976D01*
X121068450Y-83808980D01*
X121006225Y-83959206D01*
X121006222Y-83959216D01*
X120974500Y-84118692D01*
X120974500Y-84118695D01*
X120974500Y-84281305D01*
X120974500Y-84281307D01*
X120974499Y-84281307D01*
X113500500Y-84281307D01*
X113500500Y-51004427D01*
X113500816Y-50995581D01*
X113502266Y-50975302D01*
X113515130Y-50795436D01*
X113517646Y-50777938D01*
X113559356Y-50586199D01*
X113564333Y-50569248D01*
X113632911Y-50385385D01*
X113640259Y-50369298D01*
X113725187Y-50213763D01*
X113734291Y-50197089D01*
X113743845Y-50182221D01*
X113861448Y-50025123D01*
X113873020Y-50011769D01*
X114011769Y-49873020D01*
X114025123Y-49861448D01*
X114182221Y-49743845D01*
X114197089Y-49734291D01*
X114369298Y-49640258D01*
X114385385Y-49632911D01*
X114569248Y-49564333D01*
X114586199Y-49559356D01*
X114777938Y-49517646D01*
X114795436Y-49515130D01*
X114995582Y-49500816D01*
X115004428Y-49500500D01*
X115065892Y-49500500D01*
X117207352Y-49500500D01*
X117274391Y-49520185D01*
G37*
G04 #@! TD.AperFunction*
G04 #@! TA.AperFunction,Conductor*
G36*
X160177716Y-84829596D02*
G01*
X160193363Y-84830155D01*
X160209786Y-84841557D01*
X160228515Y-84848542D01*
X160238664Y-84861606D01*
X160250757Y-84870002D01*
X160265960Y-84895623D01*
X160266126Y-84895535D01*
X160268105Y-84899237D01*
X160268768Y-84900355D01*
X160268994Y-84900902D01*
X160268999Y-84900911D01*
X160356600Y-85032014D01*
X160356603Y-85032018D01*
X160468097Y-85143512D01*
X160468101Y-85143515D01*
X160599204Y-85231116D01*
X160599217Y-85231123D01*
X160704971Y-85274927D01*
X160744893Y-85291463D01*
X160899543Y-85322225D01*
X160899546Y-85322226D01*
X160899548Y-85322226D01*
X161057234Y-85322226D01*
X161057235Y-85322225D01*
X161211887Y-85291463D01*
X161251808Y-85274926D01*
X161321278Y-85267458D01*
X161383757Y-85298733D01*
X161419409Y-85358822D01*
X161420878Y-85413679D01*
X161399500Y-85521153D01*
X161399500Y-85678846D01*
X161430261Y-85833489D01*
X161430264Y-85833501D01*
X161490602Y-85979172D01*
X161490609Y-85979185D01*
X161578210Y-86110288D01*
X161578213Y-86110292D01*
X161689707Y-86221786D01*
X161689711Y-86221789D01*
X161820814Y-86309390D01*
X161820827Y-86309397D01*
X161918853Y-86350000D01*
X161966503Y-86369737D01*
X162121153Y-86400499D01*
X162121156Y-86400500D01*
X162121158Y-86400500D01*
X162278843Y-86400500D01*
X162294564Y-86397372D01*
X162351309Y-86386085D01*
X162420899Y-86392312D01*
X162476077Y-86435174D01*
X162499322Y-86501063D01*
X162499500Y-86507702D01*
X162499500Y-96995572D01*
X162499184Y-97004418D01*
X162499184Y-97004419D01*
X162484869Y-97204557D01*
X162482351Y-97222068D01*
X162440646Y-97413787D01*
X162435662Y-97430763D01*
X162367090Y-97614609D01*
X162359740Y-97630701D01*
X162265711Y-97802904D01*
X162256146Y-97817789D01*
X162138558Y-97974867D01*
X162126972Y-97988237D01*
X161988237Y-98126972D01*
X161974867Y-98138558D01*
X161817789Y-98256146D01*
X161802904Y-98265711D01*
X161630701Y-98359740D01*
X161614609Y-98367090D01*
X161430763Y-98435662D01*
X161413787Y-98440646D01*
X161222068Y-98482351D01*
X161204557Y-98484869D01*
X161023779Y-98497799D01*
X161004417Y-98499184D01*
X160995572Y-98499500D01*
X140667513Y-98499500D01*
X140600474Y-98479815D01*
X140554719Y-98427011D01*
X140544775Y-98357853D01*
X140573800Y-98294297D01*
X140620061Y-98260939D01*
X140691019Y-98231547D01*
X140691023Y-98231545D01*
X140758169Y-98186678D01*
X140826225Y-98141206D01*
X140826228Y-98141203D01*
X140830615Y-98136817D01*
X140857542Y-98122113D01*
X140883361Y-98105521D01*
X140889561Y-98104629D01*
X140891938Y-98103332D01*
X140918296Y-98100498D01*
X141013333Y-98100498D01*
X141013349Y-98100499D01*
X141020945Y-98100499D01*
X141179056Y-98100499D01*
X141179059Y-98100499D01*
X141331787Y-98059575D01*
X141389554Y-98026223D01*
X141468718Y-97980518D01*
X141580522Y-97868714D01*
X141580522Y-97868712D01*
X141590726Y-97858509D01*
X141590730Y-97858504D01*
X143549348Y-95899886D01*
X151927973Y-95899886D01*
X151959696Y-96059362D01*
X151959699Y-96059372D01*
X152021924Y-96209598D01*
X152021926Y-96209602D01*
X152112262Y-96344799D01*
X152112268Y-96344807D01*
X152227246Y-96459785D01*
X152227249Y-96459787D01*
X152319390Y-96521353D01*
X152364196Y-96574965D01*
X152374500Y-96624456D01*
X152374500Y-96681305D01*
X152374500Y-96681307D01*
X152374499Y-96681307D01*
X152406222Y-96840783D01*
X152406225Y-96840793D01*
X152468450Y-96991019D01*
X152468452Y-96991023D01*
X152558788Y-97126220D01*
X152558794Y-97126228D01*
X152673771Y-97241205D01*
X152673779Y-97241211D01*
X152808976Y-97331547D01*
X152808980Y-97331549D01*
X152959206Y-97393774D01*
X152959211Y-97393776D01*
X152959215Y-97393776D01*
X152959216Y-97393777D01*
X153118692Y-97425500D01*
X153118695Y-97425500D01*
X153281307Y-97425500D01*
X153388598Y-97404157D01*
X153440789Y-97393776D01*
X153591021Y-97331548D01*
X153591023Y-97331547D01*
X153699292Y-97259204D01*
X153726225Y-97241208D01*
X153841208Y-97126225D01*
X153922596Y-97004419D01*
X153931547Y-96991023D01*
X153931549Y-96991019D01*
X153955122Y-96934108D01*
X153993776Y-96840789D01*
X154008166Y-96768447D01*
X154025500Y-96681307D01*
X154025500Y-96518692D01*
X153993777Y-96359216D01*
X153993776Y-96359215D01*
X153993776Y-96359211D01*
X153987810Y-96344807D01*
X153931549Y-96208980D01*
X153931547Y-96208976D01*
X153841211Y-96073779D01*
X153841205Y-96073771D01*
X153726228Y-95958794D01*
X153726224Y-95958791D01*
X153634083Y-95897224D01*
X153589278Y-95843612D01*
X153578974Y-95794122D01*
X153578974Y-95737271D01*
X153547251Y-95577795D01*
X153547250Y-95577794D01*
X153547250Y-95577790D01*
X153547248Y-95577785D01*
X153485023Y-95427559D01*
X153485021Y-95427555D01*
X153394685Y-95292358D01*
X153394679Y-95292350D01*
X153279702Y-95177373D01*
X153279694Y-95177367D01*
X153144497Y-95087031D01*
X153144493Y-95087029D01*
X152994267Y-95024804D01*
X152994257Y-95024801D01*
X152834781Y-94993079D01*
X152834779Y-94993079D01*
X152672169Y-94993079D01*
X152672167Y-94993079D01*
X152512690Y-95024801D01*
X152512680Y-95024804D01*
X152362454Y-95087029D01*
X152362450Y-95087031D01*
X152227253Y-95177367D01*
X152227245Y-95177373D01*
X152112268Y-95292350D01*
X152112262Y-95292358D01*
X152021926Y-95427555D01*
X152021924Y-95427559D01*
X151959699Y-95577785D01*
X151959696Y-95577795D01*
X151927974Y-95737271D01*
X151927974Y-95737274D01*
X151927974Y-95899884D01*
X151927974Y-95899886D01*
X151927973Y-95899886D01*
X143549348Y-95899886D01*
X150988771Y-88460463D01*
X151050094Y-88426978D01*
X151119786Y-88431962D01*
X151164133Y-88460463D01*
X151218211Y-88514541D01*
X151218215Y-88514544D01*
X151346891Y-88600523D01*
X151391696Y-88654135D01*
X151399617Y-88679433D01*
X151430261Y-88833491D01*
X151430264Y-88833501D01*
X151490602Y-88979172D01*
X151490609Y-88979185D01*
X151578210Y-89110288D01*
X151578213Y-89110292D01*
X151689708Y-89221787D01*
X151689711Y-89221789D01*
X151734743Y-89251879D01*
X151736027Y-89253414D01*
X151737920Y-89254073D01*
X151758333Y-89280105D01*
X151779547Y-89305489D01*
X151780187Y-89307975D01*
X151781034Y-89309055D01*
X151782695Y-89317706D01*
X151789307Y-89343366D01*
X151789852Y-89349159D01*
X151789852Y-89469194D01*
X151811278Y-89576910D01*
X151811875Y-89583253D01*
X151806379Y-89611553D01*
X151803810Y-89640268D01*
X151799801Y-89645428D01*
X151798556Y-89651841D01*
X151778632Y-89672678D01*
X151760946Y-89695445D01*
X151754785Y-89697618D01*
X151750270Y-89702341D01*
X151722241Y-89709098D01*
X151695057Y-89718689D01*
X151685347Y-89717994D01*
X151682347Y-89718718D01*
X151678949Y-89717536D01*
X151664229Y-89716484D01*
X151578845Y-89699500D01*
X151578842Y-89699500D01*
X151421158Y-89699500D01*
X151421155Y-89699500D01*
X151266510Y-89730261D01*
X151266498Y-89730264D01*
X151120827Y-89790602D01*
X151120814Y-89790609D01*
X150989711Y-89878210D01*
X150989707Y-89878213D01*
X150878213Y-89989707D01*
X150878210Y-89989711D01*
X150790609Y-90120814D01*
X150790602Y-90120827D01*
X150730264Y-90266498D01*
X150730261Y-90266510D01*
X150699500Y-90421153D01*
X150699500Y-90578846D01*
X150730261Y-90733489D01*
X150730264Y-90733501D01*
X150790602Y-90879172D01*
X150790609Y-90879185D01*
X150878210Y-91010288D01*
X150878213Y-91010292D01*
X150989707Y-91121786D01*
X150989711Y-91121789D01*
X151120814Y-91209390D01*
X151120827Y-91209397D01*
X151266498Y-91269735D01*
X151266503Y-91269737D01*
X151419574Y-91300185D01*
X151421153Y-91300499D01*
X151421156Y-91300500D01*
X151421158Y-91300500D01*
X151578844Y-91300500D01*
X151578845Y-91300499D01*
X151733497Y-91269737D01*
X151808963Y-91238478D01*
X151877864Y-91209939D01*
X151925316Y-91200500D01*
X153280214Y-91200500D01*
X153347253Y-91220185D01*
X153393008Y-91272989D01*
X153402952Y-91342147D01*
X153387602Y-91386499D01*
X153340423Y-91468215D01*
X153340423Y-91468216D01*
X153299500Y-91620943D01*
X153299500Y-92679056D01*
X153340423Y-92831783D01*
X153340426Y-92831790D01*
X153419475Y-92968709D01*
X153419479Y-92968714D01*
X153419480Y-92968716D01*
X153531284Y-93080520D01*
X153531286Y-93080521D01*
X153531290Y-93080524D01*
X153651164Y-93149732D01*
X153668216Y-93159577D01*
X153820943Y-93200500D01*
X153820945Y-93200500D01*
X153979055Y-93200500D01*
X153979057Y-93200500D01*
X154131784Y-93159577D01*
X154268716Y-93080520D01*
X154380520Y-92968716D01*
X154459577Y-92831784D01*
X154500500Y-92679057D01*
X154500500Y-92454499D01*
X154520185Y-92387460D01*
X154572989Y-92341705D01*
X154624500Y-92330499D01*
X155876000Y-92330499D01*
X155943039Y-92350184D01*
X155988794Y-92402988D01*
X156000000Y-92454499D01*
X156000000Y-93088371D01*
X155980315Y-93155410D01*
X155975698Y-93161140D01*
X155929972Y-93229572D01*
X155929971Y-93229576D01*
X155919500Y-93282218D01*
X155919500Y-94117774D01*
X155929973Y-94170428D01*
X155929974Y-94170431D01*
X155969867Y-94230134D01*
X156029569Y-94270025D01*
X156029572Y-94270027D01*
X156029575Y-94270027D01*
X156029576Y-94270028D01*
X156055897Y-94275263D01*
X156082223Y-94280500D01*
X157917776Y-94280499D01*
X157970428Y-94270027D01*
X158030133Y-94230133D01*
X158070027Y-94170428D01*
X158080500Y-94117777D01*
X158080499Y-93282224D01*
X158070027Y-93229572D01*
X158070025Y-93229570D01*
X158070025Y-93229567D01*
X158023349Y-93159714D01*
X158026312Y-93157733D01*
X158002828Y-93114704D01*
X158000000Y-93088371D01*
X158000000Y-92454499D01*
X158019685Y-92387460D01*
X158072489Y-92341705D01*
X158124000Y-92330499D01*
X159617775Y-92330499D01*
X159617776Y-92330499D01*
X159670428Y-92320027D01*
X159730133Y-92280133D01*
X159770027Y-92220428D01*
X159778293Y-92178868D01*
X159810676Y-92116961D01*
X159840495Y-92094222D01*
X159842099Y-92093346D01*
X159957187Y-92007190D01*
X159957190Y-92007187D01*
X160043350Y-91892093D01*
X160043354Y-91892086D01*
X160093596Y-91757379D01*
X160093598Y-91757372D01*
X160099999Y-91697844D01*
X160100000Y-91697827D01*
X160100000Y-91650000D01*
X158924000Y-91650000D01*
X158915314Y-91647449D01*
X158906353Y-91648738D01*
X158882312Y-91637759D01*
X158856961Y-91630315D01*
X158851033Y-91623474D01*
X158842797Y-91619713D01*
X158828507Y-91597478D01*
X158811206Y-91577511D01*
X158808918Y-91566996D01*
X158805023Y-91560935D01*
X158800000Y-91526000D01*
X158800000Y-91474000D01*
X158819685Y-91406961D01*
X158872489Y-91361206D01*
X158924000Y-91350000D01*
X160100000Y-91350000D01*
X160133181Y-91316819D01*
X160194504Y-91283334D01*
X160220862Y-91280500D01*
X160221958Y-91280500D01*
X160288997Y-91300185D01*
X160329343Y-91342497D01*
X160344481Y-91368716D01*
X160456284Y-91480519D01*
X160593215Y-91559577D01*
X160650723Y-91574985D01*
X160666077Y-91580198D01*
X160759211Y-91618776D01*
X160759215Y-91618776D01*
X160759216Y-91618777D01*
X160918692Y-91650500D01*
X160918695Y-91650500D01*
X161081307Y-91650500D01*
X161217171Y-91623474D01*
X161240789Y-91618776D01*
X161341433Y-91577088D01*
X161391019Y-91556549D01*
X161391023Y-91556547D01*
X161514563Y-91474000D01*
X161526225Y-91466208D01*
X161641208Y-91351225D01*
X161728766Y-91220185D01*
X161731547Y-91216023D01*
X161731549Y-91216019D01*
X161793774Y-91065793D01*
X161793776Y-91065789D01*
X161808101Y-90993774D01*
X161825500Y-90906307D01*
X161825500Y-90743692D01*
X161793777Y-90584216D01*
X161793776Y-90584215D01*
X161793776Y-90584211D01*
X161791552Y-90578842D01*
X161731549Y-90433980D01*
X161731547Y-90433976D01*
X161641211Y-90298779D01*
X161641205Y-90298771D01*
X161526228Y-90183794D01*
X161526220Y-90183788D01*
X161391023Y-90093452D01*
X161391019Y-90093450D01*
X161240793Y-90031225D01*
X161240783Y-90031222D01*
X161081307Y-89999500D01*
X161081305Y-89999500D01*
X161045134Y-89999500D01*
X160978095Y-89979815D01*
X160932340Y-89927011D01*
X160922396Y-89857853D01*
X160930573Y-89828047D01*
X160969737Y-89733497D01*
X161000500Y-89578842D01*
X161000500Y-89421158D01*
X161000500Y-89421155D01*
X161000499Y-89421153D01*
X160979922Y-89317706D01*
X160969737Y-89266503D01*
X160964588Y-89254073D01*
X160909397Y-89120827D01*
X160909390Y-89120814D01*
X160821789Y-88989711D01*
X160817924Y-88985001D01*
X160819533Y-88983680D01*
X160790587Y-88930670D01*
X160795571Y-88860978D01*
X160824072Y-88816630D01*
X160825049Y-88815652D01*
X160825053Y-88815650D01*
X160936553Y-88704150D01*
X161024158Y-88573040D01*
X161084501Y-88427358D01*
X161115264Y-88272703D01*
X161115264Y-88115019D01*
X161115264Y-88115016D01*
X161115263Y-88115014D01*
X161084502Y-87960371D01*
X161084501Y-87960364D01*
X161084499Y-87960359D01*
X161024161Y-87814688D01*
X161024154Y-87814675D01*
X160936553Y-87683572D01*
X160936550Y-87683568D01*
X160825056Y-87572074D01*
X160825052Y-87572071D01*
X160693949Y-87484470D01*
X160693936Y-87484463D01*
X160548265Y-87424125D01*
X160548253Y-87424122D01*
X160393609Y-87393361D01*
X160393606Y-87393361D01*
X160235922Y-87393361D01*
X160235919Y-87393361D01*
X160081274Y-87424122D01*
X160081262Y-87424125D01*
X159951951Y-87477687D01*
X159926590Y-87480413D01*
X159901979Y-87487100D01*
X159892435Y-87484085D01*
X159882481Y-87485156D01*
X159859672Y-87473738D01*
X159835354Y-87466058D01*
X159828953Y-87458361D01*
X159820002Y-87453880D01*
X159806988Y-87431946D01*
X159790681Y-87412335D01*
X159788179Y-87400243D01*
X159784351Y-87393791D01*
X159781428Y-87378275D01*
X159780499Y-87370727D01*
X159780499Y-87332224D01*
X159770027Y-87279572D01*
X159769109Y-87278198D01*
X159767503Y-87265149D01*
X159768956Y-87256320D01*
X159768956Y-87225811D01*
X159770027Y-87220428D01*
X159778293Y-87178868D01*
X159810676Y-87116960D01*
X159840495Y-87094222D01*
X159842099Y-87093346D01*
X159957187Y-87007190D01*
X159957190Y-87007187D01*
X160043350Y-86892093D01*
X160043354Y-86892086D01*
X160093596Y-86757379D01*
X160093598Y-86757372D01*
X160099999Y-86697844D01*
X160100000Y-86697827D01*
X160100000Y-86650000D01*
X158924000Y-86650000D01*
X158915314Y-86647449D01*
X158906353Y-86648738D01*
X158882312Y-86637759D01*
X158856961Y-86630315D01*
X158851033Y-86623474D01*
X158842797Y-86619713D01*
X158828507Y-86597478D01*
X158811206Y-86577511D01*
X158808918Y-86566996D01*
X158805023Y-86560935D01*
X158800000Y-86526000D01*
X158800000Y-86474000D01*
X158819685Y-86406961D01*
X158872489Y-86361206D01*
X158924000Y-86350000D01*
X160100000Y-86350000D01*
X160100000Y-86302172D01*
X160099999Y-86302155D01*
X160093598Y-86242627D01*
X160093596Y-86242620D01*
X160043354Y-86107913D01*
X160043350Y-86107906D01*
X159957190Y-85992812D01*
X159957187Y-85992809D01*
X159842093Y-85906649D01*
X159840481Y-85905769D01*
X159839665Y-85904953D01*
X159838546Y-85904689D01*
X159836130Y-85902185D01*
X159834989Y-85901331D01*
X159835127Y-85901146D01*
X159815044Y-85880331D01*
X159791076Y-85856363D01*
X159790568Y-85854965D01*
X159790032Y-85854409D01*
X159778292Y-85821128D01*
X159770027Y-85779572D01*
X159770026Y-85779571D01*
X159768956Y-85774188D01*
X159768957Y-85725808D01*
X159778210Y-85679288D01*
X159780500Y-85667777D01*
X159780499Y-85332224D01*
X159770027Y-85279572D01*
X159770026Y-85279571D01*
X159768956Y-85274189D01*
X159768956Y-85265852D01*
X159767068Y-85261054D01*
X159768956Y-85225811D01*
X159770027Y-85220428D01*
X159778293Y-85178868D01*
X159810676Y-85116960D01*
X159840495Y-85094222D01*
X159842099Y-85093346D01*
X159957187Y-85007190D01*
X159957190Y-85007187D01*
X160043351Y-84892092D01*
X160045374Y-84888388D01*
X160048359Y-84885401D01*
X160048669Y-84884989D01*
X160048728Y-84885033D01*
X160056442Y-84877318D01*
X160063450Y-84863318D01*
X160080644Y-84853115D01*
X160094778Y-84838981D01*
X160110074Y-84835653D01*
X160123538Y-84827664D01*
X160143517Y-84828376D01*
X160163050Y-84824127D01*
X160177716Y-84829596D01*
G37*
G04 #@! TD.AperFunction*
G04 #@! TA.AperFunction,Conductor*
G36*
X153819334Y-85056615D02*
G01*
X153875267Y-85098487D01*
X153899684Y-85163951D01*
X153900000Y-85172797D01*
X153900000Y-85197844D01*
X153906401Y-85257372D01*
X153906403Y-85257379D01*
X153956645Y-85392086D01*
X153956649Y-85392093D01*
X154042809Y-85507187D01*
X154042812Y-85507190D01*
X154157905Y-85593349D01*
X154159514Y-85594228D01*
X154160329Y-85595043D01*
X154161450Y-85595308D01*
X154163866Y-85597811D01*
X154165011Y-85598669D01*
X154164872Y-85598854D01*
X154184963Y-85619676D01*
X154208921Y-85643632D01*
X154209428Y-85645029D01*
X154209966Y-85645587D01*
X154221707Y-85678871D01*
X154231043Y-85725807D01*
X154231043Y-85774189D01*
X154219500Y-85832219D01*
X154219500Y-86167773D01*
X154219501Y-86167776D01*
X154229973Y-86220428D01*
X154229974Y-86220429D01*
X154231044Y-86225808D01*
X154231043Y-86274189D01*
X154219500Y-86332219D01*
X154219500Y-86667773D01*
X154219501Y-86667776D01*
X154229973Y-86720428D01*
X154229974Y-86720429D01*
X154231044Y-86725808D01*
X154231043Y-86774189D01*
X154219500Y-86832219D01*
X154219500Y-87167773D01*
X154219501Y-87167776D01*
X154229973Y-87220428D01*
X154229974Y-87220429D01*
X154231044Y-87225808D01*
X154231043Y-87234146D01*
X154232933Y-87238948D01*
X154231043Y-87274192D01*
X154221705Y-87321132D01*
X154189318Y-87383042D01*
X154159531Y-87405762D01*
X154157916Y-87406643D01*
X154042810Y-87492811D01*
X153969980Y-87590100D01*
X153955707Y-87600783D01*
X153945024Y-87615055D01*
X153928319Y-87621285D01*
X153914046Y-87631970D01*
X153896263Y-87633241D01*
X153879560Y-87639472D01*
X153862138Y-87635682D01*
X153844355Y-87636954D01*
X153828707Y-87628409D01*
X153811287Y-87624620D01*
X153783033Y-87603469D01*
X153710674Y-87531110D01*
X153710672Y-87531107D01*
X153591801Y-87412236D01*
X153591800Y-87412235D01*
X153500593Y-87359577D01*
X153500592Y-87359576D01*
X153454874Y-87333180D01*
X153454873Y-87333179D01*
X153409913Y-87321132D01*
X153302141Y-87292254D01*
X153144027Y-87292254D01*
X153136431Y-87292254D01*
X153136415Y-87292255D01*
X152456341Y-87292255D01*
X152389302Y-87272570D01*
X152343547Y-87219766D01*
X152333603Y-87150608D01*
X152362628Y-87087052D01*
X152368660Y-87080574D01*
X152863387Y-86585847D01*
X153358276Y-86090958D01*
X153358281Y-86090954D01*
X153368484Y-86080750D01*
X153368486Y-86080750D01*
X153480290Y-85968946D01*
X153518834Y-85902185D01*
X153559152Y-85832353D01*
X153559226Y-85832224D01*
X153559347Y-85832015D01*
X153600270Y-85679288D01*
X153600270Y-85521173D01*
X153600270Y-85224527D01*
X153608914Y-85195086D01*
X153615438Y-85165100D01*
X153619192Y-85160084D01*
X153619955Y-85157488D01*
X153636589Y-85136846D01*
X153688319Y-85085116D01*
X153749642Y-85051631D01*
X153819334Y-85056615D01*
G37*
G04 #@! TD.AperFunction*
G04 #@! TA.AperFunction,Conductor*
G36*
X136502104Y-81420353D02*
G01*
X136558038Y-81462224D01*
X136561873Y-81467644D01*
X136603791Y-81530380D01*
X136718772Y-81645361D01*
X136718775Y-81645363D01*
X136850241Y-81733205D01*
X136895046Y-81786816D01*
X136903753Y-81856141D01*
X136884453Y-81905196D01*
X136840611Y-81970812D01*
X136840602Y-81970828D01*
X136780264Y-82116498D01*
X136780261Y-82116508D01*
X136766920Y-82183579D01*
X136734535Y-82245490D01*
X136732984Y-82247068D01*
X136228887Y-82751165D01*
X136167564Y-82784650D01*
X136165398Y-82785101D01*
X136059216Y-82806222D01*
X136059206Y-82806225D01*
X135908982Y-82868449D01*
X135843390Y-82912277D01*
X135776713Y-82933154D01*
X135709333Y-82914669D01*
X135662643Y-82862690D01*
X135650500Y-82809174D01*
X135650500Y-82220807D01*
X135670185Y-82153768D01*
X135686815Y-82133130D01*
X136371092Y-81448852D01*
X136432413Y-81415369D01*
X136502104Y-81420353D01*
G37*
G04 #@! TD.AperFunction*
G04 #@! TA.AperFunction,Conductor*
G36*
X115855771Y-76088320D02*
G01*
X115883153Y-76092883D01*
X115888829Y-76098027D01*
X115895547Y-76100000D01*
X117076000Y-76100000D01*
X117084685Y-76102550D01*
X117093647Y-76101262D01*
X117117687Y-76112240D01*
X117143039Y-76119685D01*
X117148966Y-76126525D01*
X117157203Y-76130287D01*
X117171492Y-76152521D01*
X117188794Y-76172489D01*
X117191081Y-76183003D01*
X117194977Y-76189065D01*
X117200000Y-76224000D01*
X117200000Y-76276000D01*
X117180315Y-76343039D01*
X117127511Y-76388794D01*
X117076000Y-76400000D01*
X115900000Y-76400000D01*
X115895724Y-76404275D01*
X115894168Y-76409170D01*
X115855092Y-76467091D01*
X115790905Y-76494691D01*
X115776000Y-76495590D01*
X115541979Y-76495590D01*
X115474940Y-76475905D01*
X115429185Y-76423101D01*
X115419241Y-76353943D01*
X115448266Y-76290387D01*
X115454298Y-76283909D01*
X115511395Y-76226812D01*
X115569491Y-76168716D01*
X115584628Y-76142497D01*
X115635194Y-76094284D01*
X115692014Y-76080500D01*
X115829138Y-76080500D01*
X115855771Y-76088320D01*
G37*
G04 #@! TD.AperFunction*
G04 #@! TA.AperFunction,Conductor*
G36*
X120887822Y-69083049D02*
G01*
X120896783Y-69081761D01*
X120920824Y-69092739D01*
X120945549Y-69100000D01*
X122113906Y-69100000D01*
X122116520Y-69098762D01*
X122144171Y-69083663D01*
X122147858Y-69083926D01*
X122151197Y-69082346D01*
X122182432Y-69086398D01*
X122213863Y-69088646D01*
X122216821Y-69090860D01*
X122220486Y-69091336D01*
X122245516Y-69112340D01*
X122269797Y-69130516D01*
X122271753Y-69134357D01*
X122271910Y-69134489D01*
X122271936Y-69134469D01*
X122272046Y-69134603D01*
X122273629Y-69135932D01*
X122275794Y-69139171D01*
X122275795Y-69139172D01*
X122275798Y-69139176D01*
X122360826Y-69224204D01*
X122373088Y-69232397D01*
X122417893Y-69286009D01*
X122426601Y-69355334D01*
X122396447Y-69418362D01*
X122337005Y-69455081D01*
X122304198Y-69459500D01*
X122210862Y-69459500D01*
X122186298Y-69452287D01*
X122160908Y-69448993D01*
X122153329Y-69442606D01*
X122143823Y-69439815D01*
X122123181Y-69423181D01*
X122100000Y-69400000D01*
X120940222Y-69400000D01*
X120930651Y-69408294D01*
X120914323Y-69411845D01*
X120905496Y-69416666D01*
X120895463Y-69415948D01*
X120879138Y-69419500D01*
X120774000Y-69419500D01*
X120706961Y-69399815D01*
X120661206Y-69347011D01*
X120650000Y-69295500D01*
X120650000Y-69204499D01*
X120669685Y-69137460D01*
X120722489Y-69091705D01*
X120774000Y-69080499D01*
X120879137Y-69080499D01*
X120887822Y-69083049D01*
G37*
G04 #@! TD.AperFunction*
G04 #@! TA.AperFunction,Conductor*
G36*
X161004418Y-49500816D02*
G01*
X161204561Y-49515130D01*
X161222063Y-49517647D01*
X161413797Y-49559355D01*
X161430755Y-49564334D01*
X161614609Y-49632909D01*
X161630701Y-49640259D01*
X161802904Y-49734288D01*
X161817784Y-49743849D01*
X161938349Y-49834104D01*
X161974867Y-49861441D01*
X161988237Y-49873027D01*
X162126972Y-50011762D01*
X162138558Y-50025132D01*
X162256146Y-50182210D01*
X162265711Y-50197095D01*
X162359740Y-50369298D01*
X162367090Y-50385390D01*
X162435662Y-50569236D01*
X162440646Y-50586212D01*
X162482351Y-50777931D01*
X162484869Y-50795442D01*
X162499184Y-50995580D01*
X162499500Y-51004427D01*
X162499500Y-53210229D01*
X162479815Y-53277268D01*
X162427011Y-53323023D01*
X162357853Y-53332967D01*
X162351309Y-53331846D01*
X162188695Y-53299500D01*
X162188691Y-53299500D01*
X162011309Y-53299500D01*
X162011306Y-53299500D01*
X161837341Y-53334103D01*
X161837332Y-53334106D01*
X161673459Y-53401983D01*
X161673446Y-53401990D01*
X161525965Y-53500535D01*
X161525961Y-53500538D01*
X161400535Y-53625964D01*
X161354815Y-53694391D01*
X161301203Y-53739196D01*
X161251713Y-53749500D01*
X154776162Y-53749500D01*
X154709123Y-53729815D01*
X154663368Y-53677011D01*
X154653424Y-53607853D01*
X154665677Y-53569205D01*
X154671482Y-53557810D01*
X154691557Y-53518412D01*
X154757246Y-53316243D01*
X154790500Y-53106287D01*
X154790500Y-52893713D01*
X154757246Y-52683757D01*
X154691557Y-52481588D01*
X154627461Y-52355793D01*
X154614566Y-52287126D01*
X154640842Y-52222385D01*
X154697949Y-52182128D01*
X154737947Y-52175500D01*
X157093475Y-52175500D01*
X157160514Y-52195185D01*
X157196574Y-52230607D01*
X157200536Y-52236535D01*
X157200538Y-52236537D01*
X157200542Y-52236542D01*
X157325961Y-52361961D01*
X157325965Y-52361964D01*
X157473446Y-52460509D01*
X157473459Y-52460516D01*
X157568784Y-52500000D01*
X157637334Y-52528394D01*
X157637336Y-52528394D01*
X157637341Y-52528396D01*
X157811304Y-52562999D01*
X157811307Y-52563000D01*
X157811309Y-52563000D01*
X157988693Y-52563000D01*
X157988694Y-52562999D01*
X158046682Y-52551464D01*
X158162658Y-52528396D01*
X158162661Y-52528394D01*
X158162666Y-52528394D01*
X158326547Y-52460513D01*
X158474035Y-52361964D01*
X158599464Y-52236535D01*
X158698013Y-52089047D01*
X158698161Y-52088691D01*
X158747369Y-51969890D01*
X158765894Y-51925166D01*
X158768651Y-51911309D01*
X158800499Y-51751195D01*
X158800500Y-51751193D01*
X158800500Y-51573806D01*
X158800499Y-51573804D01*
X158765896Y-51399841D01*
X158765893Y-51399832D01*
X158698016Y-51235959D01*
X158698009Y-51235946D01*
X158599464Y-51088465D01*
X158599461Y-51088461D01*
X158474038Y-50963038D01*
X158474034Y-50963035D01*
X158326553Y-50864490D01*
X158326540Y-50864483D01*
X158162667Y-50796606D01*
X158162658Y-50796603D01*
X157988694Y-50762000D01*
X157988691Y-50762000D01*
X157811309Y-50762000D01*
X157811306Y-50762000D01*
X157637341Y-50796603D01*
X157637332Y-50796606D01*
X157592779Y-50815061D01*
X157545327Y-50824500D01*
X156924500Y-50824500D01*
X156857461Y-50804815D01*
X156811706Y-50752011D01*
X156800500Y-50700500D01*
X156800500Y-50611306D01*
X156800499Y-50611304D01*
X156765896Y-50437341D01*
X156765893Y-50437332D01*
X156698016Y-50273459D01*
X156698009Y-50273446D01*
X156599464Y-50125965D01*
X156599461Y-50125961D01*
X156474038Y-50000538D01*
X156474034Y-50000535D01*
X156326553Y-49901990D01*
X156326540Y-49901983D01*
X156162667Y-49834106D01*
X156162659Y-49834104D01*
X156011773Y-49804090D01*
X155949862Y-49771705D01*
X155921404Y-49729925D01*
X155904219Y-49688437D01*
X155898013Y-49673453D01*
X155898012Y-49673451D01*
X155897391Y-49671952D01*
X155889922Y-49602483D01*
X155921197Y-49540004D01*
X155981286Y-49504352D01*
X156011952Y-49500500D01*
X160934108Y-49500500D01*
X160995572Y-49500500D01*
X161004418Y-49500816D01*
G37*
G04 #@! TD.AperFunction*
M02*
