G04 #@! TF.GenerationSoftware,KiCad,Pcbnew,9.0.6-9.0.6~ubuntu24.04.1*
G04 #@! TF.CreationDate,2025-12-22T13:13:51-05:00*
G04 #@! TF.ProjectId,breakout-sky-qfn,62726561-6b6f-4757-942d-736b792d7166,3.2*
G04 #@! TF.SameCoordinates,PX6bc3e40PY5e69ec0*
G04 #@! TF.FileFunction,AssemblyDrawing,Top*
%FSLAX46Y46*%
G04 Gerber Fmt 4.6, Leading zero omitted, Abs format (unit mm)*
G04 Created by KiCad (PCBNEW 9.0.6-9.0.6~ubuntu24.04.1) date 2025-12-22 13:13:51*
%MOMM*%
%LPD*%
G01*
G04 APERTURE LIST*
%ADD10C,0.040000*%
%ADD11C,0.060000*%
%ADD12C,0.080000*%
%ADD13C,0.150000*%
%ADD14C,0.105000*%
%ADD15C,0.100000*%
G04 APERTURE END LIST*
D10*
X159789285Y-50552265D02*
X159777381Y-50564170D01*
X159777381Y-50564170D02*
X159741666Y-50576074D01*
X159741666Y-50576074D02*
X159717857Y-50576074D01*
X159717857Y-50576074D02*
X159682143Y-50564170D01*
X159682143Y-50564170D02*
X159658333Y-50540360D01*
X159658333Y-50540360D02*
X159646428Y-50516550D01*
X159646428Y-50516550D02*
X159634524Y-50468931D01*
X159634524Y-50468931D02*
X159634524Y-50433217D01*
X159634524Y-50433217D02*
X159646428Y-50385598D01*
X159646428Y-50385598D02*
X159658333Y-50361789D01*
X159658333Y-50361789D02*
X159682143Y-50337979D01*
X159682143Y-50337979D02*
X159717857Y-50326074D01*
X159717857Y-50326074D02*
X159741666Y-50326074D01*
X159741666Y-50326074D02*
X159777381Y-50337979D01*
X159777381Y-50337979D02*
X159789285Y-50349884D01*
X159884524Y-50349884D02*
X159896428Y-50337979D01*
X159896428Y-50337979D02*
X159920238Y-50326074D01*
X159920238Y-50326074D02*
X159979762Y-50326074D01*
X159979762Y-50326074D02*
X160003571Y-50337979D01*
X160003571Y-50337979D02*
X160015476Y-50349884D01*
X160015476Y-50349884D02*
X160027381Y-50373693D01*
X160027381Y-50373693D02*
X160027381Y-50397503D01*
X160027381Y-50397503D02*
X160015476Y-50433217D01*
X160015476Y-50433217D02*
X159872619Y-50576074D01*
X159872619Y-50576074D02*
X160027381Y-50576074D01*
X160122619Y-50349884D02*
X160134523Y-50337979D01*
X160134523Y-50337979D02*
X160158333Y-50326074D01*
X160158333Y-50326074D02*
X160217857Y-50326074D01*
X160217857Y-50326074D02*
X160241666Y-50337979D01*
X160241666Y-50337979D02*
X160253571Y-50349884D01*
X160253571Y-50349884D02*
X160265476Y-50373693D01*
X160265476Y-50373693D02*
X160265476Y-50397503D01*
X160265476Y-50397503D02*
X160253571Y-50433217D01*
X160253571Y-50433217D02*
X160110714Y-50576074D01*
X160110714Y-50576074D02*
X160265476Y-50576074D01*
D11*
X153443832Y-58582142D02*
X153462880Y-58601190D01*
X153462880Y-58601190D02*
X153481927Y-58658332D01*
X153481927Y-58658332D02*
X153481927Y-58696428D01*
X153481927Y-58696428D02*
X153462880Y-58753571D01*
X153462880Y-58753571D02*
X153424784Y-58791666D01*
X153424784Y-58791666D02*
X153386689Y-58810713D01*
X153386689Y-58810713D02*
X153310499Y-58829761D01*
X153310499Y-58829761D02*
X153253356Y-58829761D01*
X153253356Y-58829761D02*
X153177165Y-58810713D01*
X153177165Y-58810713D02*
X153139070Y-58791666D01*
X153139070Y-58791666D02*
X153100975Y-58753571D01*
X153100975Y-58753571D02*
X153081927Y-58696428D01*
X153081927Y-58696428D02*
X153081927Y-58658332D01*
X153081927Y-58658332D02*
X153100975Y-58601190D01*
X153100975Y-58601190D02*
X153120022Y-58582142D01*
X153481927Y-58201190D02*
X153481927Y-58429761D01*
X153481927Y-58315475D02*
X153081927Y-58315475D01*
X153081927Y-58315475D02*
X153139070Y-58353571D01*
X153139070Y-58353571D02*
X153177165Y-58391666D01*
X153177165Y-58391666D02*
X153196213Y-58429761D01*
X153120022Y-58048809D02*
X153100975Y-58029761D01*
X153100975Y-58029761D02*
X153081927Y-57991666D01*
X153081927Y-57991666D02*
X153081927Y-57896428D01*
X153081927Y-57896428D02*
X153100975Y-57858333D01*
X153100975Y-57858333D02*
X153120022Y-57839285D01*
X153120022Y-57839285D02*
X153158118Y-57820238D01*
X153158118Y-57820238D02*
X153196213Y-57820238D01*
X153196213Y-57820238D02*
X153253356Y-57839285D01*
X153253356Y-57839285D02*
X153481927Y-58067857D01*
X153481927Y-58067857D02*
X153481927Y-57820238D01*
X159692857Y-51806332D02*
X159673809Y-51825380D01*
X159673809Y-51825380D02*
X159616667Y-51844427D01*
X159616667Y-51844427D02*
X159578571Y-51844427D01*
X159578571Y-51844427D02*
X159521428Y-51825380D01*
X159521428Y-51825380D02*
X159483333Y-51787284D01*
X159483333Y-51787284D02*
X159464286Y-51749189D01*
X159464286Y-51749189D02*
X159445238Y-51672999D01*
X159445238Y-51672999D02*
X159445238Y-51615856D01*
X159445238Y-51615856D02*
X159464286Y-51539665D01*
X159464286Y-51539665D02*
X159483333Y-51501570D01*
X159483333Y-51501570D02*
X159521428Y-51463475D01*
X159521428Y-51463475D02*
X159578571Y-51444427D01*
X159578571Y-51444427D02*
X159616667Y-51444427D01*
X159616667Y-51444427D02*
X159673809Y-51463475D01*
X159673809Y-51463475D02*
X159692857Y-51482522D01*
X160073809Y-51844427D02*
X159845238Y-51844427D01*
X159959524Y-51844427D02*
X159959524Y-51444427D01*
X159959524Y-51444427D02*
X159921428Y-51501570D01*
X159921428Y-51501570D02*
X159883333Y-51539665D01*
X159883333Y-51539665D02*
X159845238Y-51558713D01*
X160264285Y-51844427D02*
X160340476Y-51844427D01*
X160340476Y-51844427D02*
X160378571Y-51825380D01*
X160378571Y-51825380D02*
X160397619Y-51806332D01*
X160397619Y-51806332D02*
X160435714Y-51749189D01*
X160435714Y-51749189D02*
X160454761Y-51672999D01*
X160454761Y-51672999D02*
X160454761Y-51520618D01*
X160454761Y-51520618D02*
X160435714Y-51482522D01*
X160435714Y-51482522D02*
X160416666Y-51463475D01*
X160416666Y-51463475D02*
X160378571Y-51444427D01*
X160378571Y-51444427D02*
X160302380Y-51444427D01*
X160302380Y-51444427D02*
X160264285Y-51463475D01*
X160264285Y-51463475D02*
X160245238Y-51482522D01*
X160245238Y-51482522D02*
X160226190Y-51520618D01*
X160226190Y-51520618D02*
X160226190Y-51615856D01*
X160226190Y-51615856D02*
X160245238Y-51653951D01*
X160245238Y-51653951D02*
X160264285Y-51672999D01*
X160264285Y-51672999D02*
X160302380Y-51692046D01*
X160302380Y-51692046D02*
X160378571Y-51692046D01*
X160378571Y-51692046D02*
X160416666Y-51672999D01*
X160416666Y-51672999D02*
X160435714Y-51653951D01*
X160435714Y-51653951D02*
X160454761Y-51615856D01*
D12*
X115464286Y-50465244D02*
X115297619Y-50465244D01*
X115297619Y-50727149D02*
X115297619Y-50227149D01*
X115297619Y-50227149D02*
X115535714Y-50227149D01*
X115726190Y-50727149D02*
X115726190Y-50227149D01*
X115964285Y-50727149D02*
X115964285Y-50227149D01*
X115964285Y-50227149D02*
X116083333Y-50227149D01*
X116083333Y-50227149D02*
X116154761Y-50250959D01*
X116154761Y-50250959D02*
X116202380Y-50298578D01*
X116202380Y-50298578D02*
X116226190Y-50346197D01*
X116226190Y-50346197D02*
X116249999Y-50441435D01*
X116249999Y-50441435D02*
X116249999Y-50512863D01*
X116249999Y-50512863D02*
X116226190Y-50608101D01*
X116226190Y-50608101D02*
X116202380Y-50655720D01*
X116202380Y-50655720D02*
X116154761Y-50703340D01*
X116154761Y-50703340D02*
X116083333Y-50727149D01*
X116083333Y-50727149D02*
X115964285Y-50727149D01*
X116416666Y-50227149D02*
X116726190Y-50227149D01*
X116726190Y-50227149D02*
X116559523Y-50417625D01*
X116559523Y-50417625D02*
X116630952Y-50417625D01*
X116630952Y-50417625D02*
X116678571Y-50441435D01*
X116678571Y-50441435D02*
X116702380Y-50465244D01*
X116702380Y-50465244D02*
X116726190Y-50512863D01*
X116726190Y-50512863D02*
X116726190Y-50631911D01*
X116726190Y-50631911D02*
X116702380Y-50679530D01*
X116702380Y-50679530D02*
X116678571Y-50703340D01*
X116678571Y-50703340D02*
X116630952Y-50727149D01*
X116630952Y-50727149D02*
X116488095Y-50727149D01*
X116488095Y-50727149D02*
X116440476Y-50703340D01*
X116440476Y-50703340D02*
X116416666Y-50679530D01*
X115177619Y-50477149D02*
X116846190Y-50477149D01*
D10*
X146149831Y-72077115D02*
X146149831Y-72093951D01*
X146149831Y-72093951D02*
X146132995Y-72127623D01*
X146132995Y-72127623D02*
X146116159Y-72144459D01*
X146116159Y-72144459D02*
X146082488Y-72161294D01*
X146082488Y-72161294D02*
X146048816Y-72161294D01*
X146048816Y-72161294D02*
X146023562Y-72152877D01*
X146023562Y-72152877D02*
X145981472Y-72127623D01*
X145981472Y-72127623D02*
X145956219Y-72102369D01*
X145956219Y-72102369D02*
X145930965Y-72060279D01*
X145930965Y-72060279D02*
X145922547Y-72035025D01*
X145922547Y-72035025D02*
X145922547Y-72001354D01*
X145922547Y-72001354D02*
X145939383Y-71967682D01*
X145939383Y-71967682D02*
X145956219Y-71950846D01*
X145956219Y-71950846D02*
X145989890Y-71934010D01*
X145989890Y-71934010D02*
X146006726Y-71934010D01*
X146335026Y-71925592D02*
X146234010Y-72026607D01*
X146284518Y-71976100D02*
X146107741Y-71799323D01*
X146107741Y-71799323D02*
X146116159Y-71841413D01*
X146116159Y-71841413D02*
X146116159Y-71875085D01*
X146116159Y-71875085D02*
X146107741Y-71900338D01*
X146309772Y-71597293D02*
X146276100Y-71630965D01*
X146276100Y-71630965D02*
X146267682Y-71656218D01*
X146267682Y-71656218D02*
X146267682Y-71673054D01*
X146267682Y-71673054D02*
X146276100Y-71715144D01*
X146276100Y-71715144D02*
X146301354Y-71757234D01*
X146301354Y-71757234D02*
X146368697Y-71824577D01*
X146368697Y-71824577D02*
X146393951Y-71832995D01*
X146393951Y-71832995D02*
X146410787Y-71832995D01*
X146410787Y-71832995D02*
X146436041Y-71824577D01*
X146436041Y-71824577D02*
X146469713Y-71790905D01*
X146469713Y-71790905D02*
X146478131Y-71765652D01*
X146478131Y-71765652D02*
X146478131Y-71748816D01*
X146478131Y-71748816D02*
X146469713Y-71723562D01*
X146469713Y-71723562D02*
X146427623Y-71681472D01*
X146427623Y-71681472D02*
X146402369Y-71673054D01*
X146402369Y-71673054D02*
X146385533Y-71673054D01*
X146385533Y-71673054D02*
X146360279Y-71681472D01*
X146360279Y-71681472D02*
X146326608Y-71715144D01*
X146326608Y-71715144D02*
X146318190Y-71740398D01*
X146318190Y-71740398D02*
X146318190Y-71757234D01*
X146318190Y-71757234D02*
X146326608Y-71782487D01*
D13*
X139136666Y-52454819D02*
X139136666Y-53169104D01*
X139136666Y-53169104D02*
X139089047Y-53311961D01*
X139089047Y-53311961D02*
X138993809Y-53407200D01*
X138993809Y-53407200D02*
X138850952Y-53454819D01*
X138850952Y-53454819D02*
X138755714Y-53454819D01*
X139565238Y-52550057D02*
X139612857Y-52502438D01*
X139612857Y-52502438D02*
X139708095Y-52454819D01*
X139708095Y-52454819D02*
X139946190Y-52454819D01*
X139946190Y-52454819D02*
X140041428Y-52502438D01*
X140041428Y-52502438D02*
X140089047Y-52550057D01*
X140089047Y-52550057D02*
X140136666Y-52645295D01*
X140136666Y-52645295D02*
X140136666Y-52740533D01*
X140136666Y-52740533D02*
X140089047Y-52883390D01*
X140089047Y-52883390D02*
X139517619Y-53454819D01*
X139517619Y-53454819D02*
X140136666Y-53454819D01*
X138536423Y-52954819D02*
X140361666Y-52954819D01*
D10*
X150818200Y-65867142D02*
X150694391Y-65953809D01*
X150818200Y-66015714D02*
X150558200Y-66015714D01*
X150558200Y-66015714D02*
X150558200Y-65916666D01*
X150558200Y-65916666D02*
X150570581Y-65891904D01*
X150570581Y-65891904D02*
X150582962Y-65879523D01*
X150582962Y-65879523D02*
X150607724Y-65867142D01*
X150607724Y-65867142D02*
X150644867Y-65867142D01*
X150644867Y-65867142D02*
X150669629Y-65879523D01*
X150669629Y-65879523D02*
X150682010Y-65891904D01*
X150682010Y-65891904D02*
X150694391Y-65916666D01*
X150694391Y-65916666D02*
X150694391Y-66015714D01*
X150818200Y-65619523D02*
X150818200Y-65768095D01*
X150818200Y-65693809D02*
X150558200Y-65693809D01*
X150558200Y-65693809D02*
X150595343Y-65718571D01*
X150595343Y-65718571D02*
X150620105Y-65743333D01*
X150620105Y-65743333D02*
X150632486Y-65768095D01*
X150558200Y-65458571D02*
X150558200Y-65433809D01*
X150558200Y-65433809D02*
X150570581Y-65409047D01*
X150570581Y-65409047D02*
X150582962Y-65396666D01*
X150582962Y-65396666D02*
X150607724Y-65384285D01*
X150607724Y-65384285D02*
X150657248Y-65371904D01*
X150657248Y-65371904D02*
X150719153Y-65371904D01*
X150719153Y-65371904D02*
X150768677Y-65384285D01*
X150768677Y-65384285D02*
X150793439Y-65396666D01*
X150793439Y-65396666D02*
X150805820Y-65409047D01*
X150805820Y-65409047D02*
X150818200Y-65433809D01*
X150818200Y-65433809D02*
X150818200Y-65458571D01*
X150818200Y-65458571D02*
X150805820Y-65483333D01*
X150805820Y-65483333D02*
X150793439Y-65495714D01*
X150793439Y-65495714D02*
X150768677Y-65508095D01*
X150768677Y-65508095D02*
X150719153Y-65520476D01*
X150719153Y-65520476D02*
X150657248Y-65520476D01*
X150657248Y-65520476D02*
X150607724Y-65508095D01*
X150607724Y-65508095D02*
X150582962Y-65495714D01*
X150582962Y-65495714D02*
X150570581Y-65483333D01*
X150570581Y-65483333D02*
X150558200Y-65458571D01*
D12*
X160964286Y-95465244D02*
X160797619Y-95465244D01*
X160797619Y-95727149D02*
X160797619Y-95227149D01*
X160797619Y-95227149D02*
X161035714Y-95227149D01*
X161226190Y-95727149D02*
X161226190Y-95227149D01*
X161464285Y-95727149D02*
X161464285Y-95227149D01*
X161464285Y-95227149D02*
X161583333Y-95227149D01*
X161583333Y-95227149D02*
X161654761Y-95250959D01*
X161654761Y-95250959D02*
X161702380Y-95298578D01*
X161702380Y-95298578D02*
X161726190Y-95346197D01*
X161726190Y-95346197D02*
X161749999Y-95441435D01*
X161749999Y-95441435D02*
X161749999Y-95512863D01*
X161749999Y-95512863D02*
X161726190Y-95608101D01*
X161726190Y-95608101D02*
X161702380Y-95655720D01*
X161702380Y-95655720D02*
X161654761Y-95703340D01*
X161654761Y-95703340D02*
X161583333Y-95727149D01*
X161583333Y-95727149D02*
X161464285Y-95727149D01*
X161940476Y-95274768D02*
X161964285Y-95250959D01*
X161964285Y-95250959D02*
X162011904Y-95227149D01*
X162011904Y-95227149D02*
X162130952Y-95227149D01*
X162130952Y-95227149D02*
X162178571Y-95250959D01*
X162178571Y-95250959D02*
X162202380Y-95274768D01*
X162202380Y-95274768D02*
X162226190Y-95322387D01*
X162226190Y-95322387D02*
X162226190Y-95370006D01*
X162226190Y-95370006D02*
X162202380Y-95441435D01*
X162202380Y-95441435D02*
X161916666Y-95727149D01*
X161916666Y-95727149D02*
X162226190Y-95727149D01*
X160677619Y-95477149D02*
X162346190Y-95477149D01*
X113964286Y-95465244D02*
X113797619Y-95465244D01*
X113797619Y-95727149D02*
X113797619Y-95227149D01*
X113797619Y-95227149D02*
X114035714Y-95227149D01*
X114226190Y-95727149D02*
X114226190Y-95227149D01*
X114464285Y-95727149D02*
X114464285Y-95227149D01*
X114464285Y-95227149D02*
X114583333Y-95227149D01*
X114583333Y-95227149D02*
X114654761Y-95250959D01*
X114654761Y-95250959D02*
X114702380Y-95298578D01*
X114702380Y-95298578D02*
X114726190Y-95346197D01*
X114726190Y-95346197D02*
X114749999Y-95441435D01*
X114749999Y-95441435D02*
X114749999Y-95512863D01*
X114749999Y-95512863D02*
X114726190Y-95608101D01*
X114726190Y-95608101D02*
X114702380Y-95655720D01*
X114702380Y-95655720D02*
X114654761Y-95703340D01*
X114654761Y-95703340D02*
X114583333Y-95727149D01*
X114583333Y-95727149D02*
X114464285Y-95727149D01*
X115226190Y-95727149D02*
X114940476Y-95727149D01*
X115083333Y-95727149D02*
X115083333Y-95227149D01*
X115083333Y-95227149D02*
X115035714Y-95298578D01*
X115035714Y-95298578D02*
X114988095Y-95346197D01*
X114988095Y-95346197D02*
X114940476Y-95370006D01*
X113677619Y-95477149D02*
X115343145Y-95477149D01*
D10*
X138622884Y-82449831D02*
X138606048Y-82449831D01*
X138606048Y-82449831D02*
X138572376Y-82432995D01*
X138572376Y-82432995D02*
X138555540Y-82416159D01*
X138555540Y-82416159D02*
X138538705Y-82382488D01*
X138538705Y-82382488D02*
X138538705Y-82348816D01*
X138538705Y-82348816D02*
X138547122Y-82323562D01*
X138547122Y-82323562D02*
X138572376Y-82281472D01*
X138572376Y-82281472D02*
X138597630Y-82256219D01*
X138597630Y-82256219D02*
X138639720Y-82230965D01*
X138639720Y-82230965D02*
X138664974Y-82222547D01*
X138664974Y-82222547D02*
X138698645Y-82222547D01*
X138698645Y-82222547D02*
X138732317Y-82239383D01*
X138732317Y-82239383D02*
X138749153Y-82256219D01*
X138749153Y-82256219D02*
X138765989Y-82289890D01*
X138765989Y-82289890D02*
X138765989Y-82306726D01*
X138774407Y-82635026D02*
X138673392Y-82534010D01*
X138723899Y-82584518D02*
X138900676Y-82407741D01*
X138900676Y-82407741D02*
X138858586Y-82416159D01*
X138858586Y-82416159D02*
X138824914Y-82416159D01*
X138824914Y-82416159D02*
X138799661Y-82407741D01*
X139010109Y-82517174D02*
X139127960Y-82635026D01*
X139127960Y-82635026D02*
X138875422Y-82736041D01*
D11*
X151843832Y-58582142D02*
X151862880Y-58601190D01*
X151862880Y-58601190D02*
X151881927Y-58658332D01*
X151881927Y-58658332D02*
X151881927Y-58696428D01*
X151881927Y-58696428D02*
X151862880Y-58753571D01*
X151862880Y-58753571D02*
X151824784Y-58791666D01*
X151824784Y-58791666D02*
X151786689Y-58810713D01*
X151786689Y-58810713D02*
X151710499Y-58829761D01*
X151710499Y-58829761D02*
X151653356Y-58829761D01*
X151653356Y-58829761D02*
X151577165Y-58810713D01*
X151577165Y-58810713D02*
X151539070Y-58791666D01*
X151539070Y-58791666D02*
X151500975Y-58753571D01*
X151500975Y-58753571D02*
X151481927Y-58696428D01*
X151481927Y-58696428D02*
X151481927Y-58658332D01*
X151481927Y-58658332D02*
X151500975Y-58601190D01*
X151500975Y-58601190D02*
X151520022Y-58582142D01*
X151881927Y-58201190D02*
X151881927Y-58429761D01*
X151881927Y-58315475D02*
X151481927Y-58315475D01*
X151481927Y-58315475D02*
X151539070Y-58353571D01*
X151539070Y-58353571D02*
X151577165Y-58391666D01*
X151577165Y-58391666D02*
X151596213Y-58429761D01*
X151615260Y-57858333D02*
X151881927Y-57858333D01*
X151462880Y-57953571D02*
X151748594Y-58048809D01*
X151748594Y-58048809D02*
X151748594Y-57801190D01*
D13*
X119538095Y-83754819D02*
X120109523Y-83754819D01*
X119823809Y-84754819D02*
X119823809Y-83754819D01*
X120442857Y-84754819D02*
X120442857Y-83754819D01*
X120442857Y-83754819D02*
X120823809Y-83754819D01*
X120823809Y-83754819D02*
X120919047Y-83802438D01*
X120919047Y-83802438D02*
X120966666Y-83850057D01*
X120966666Y-83850057D02*
X121014285Y-83945295D01*
X121014285Y-83945295D02*
X121014285Y-84088152D01*
X121014285Y-84088152D02*
X120966666Y-84183390D01*
X120966666Y-84183390D02*
X120919047Y-84231009D01*
X120919047Y-84231009D02*
X120823809Y-84278628D01*
X120823809Y-84278628D02*
X120442857Y-84278628D01*
X121395238Y-83850057D02*
X121442857Y-83802438D01*
X121442857Y-83802438D02*
X121538095Y-83754819D01*
X121538095Y-83754819D02*
X121776190Y-83754819D01*
X121776190Y-83754819D02*
X121871428Y-83802438D01*
X121871428Y-83802438D02*
X121919047Y-83850057D01*
X121919047Y-83850057D02*
X121966666Y-83945295D01*
X121966666Y-83945295D02*
X121966666Y-84040533D01*
X121966666Y-84040533D02*
X121919047Y-84183390D01*
X121919047Y-84183390D02*
X121347619Y-84754819D01*
X121347619Y-84754819D02*
X121966666Y-84754819D01*
D11*
X137651154Y-84054564D02*
X137624217Y-84054564D01*
X137624217Y-84054564D02*
X137570342Y-84027627D01*
X137570342Y-84027627D02*
X137543405Y-84000689D01*
X137543405Y-84000689D02*
X137516467Y-83946814D01*
X137516467Y-83946814D02*
X137516467Y-83892940D01*
X137516467Y-83892940D02*
X137529936Y-83852534D01*
X137529936Y-83852534D02*
X137570342Y-83785190D01*
X137570342Y-83785190D02*
X137610748Y-83744784D01*
X137610748Y-83744784D02*
X137678092Y-83704378D01*
X137678092Y-83704378D02*
X137718498Y-83690909D01*
X137718498Y-83690909D02*
X137772373Y-83690909D01*
X137772373Y-83690909D02*
X137826247Y-83717847D01*
X137826247Y-83717847D02*
X137853185Y-83744784D01*
X137853185Y-83744784D02*
X137880122Y-83798659D01*
X137880122Y-83798659D02*
X137880122Y-83825596D01*
X137987872Y-83933346D02*
X138014809Y-83933346D01*
X138014809Y-83933346D02*
X138055215Y-83946814D01*
X138055215Y-83946814D02*
X138122559Y-84014158D01*
X138122559Y-84014158D02*
X138136028Y-84054564D01*
X138136028Y-84054564D02*
X138136028Y-84081501D01*
X138136028Y-84081501D02*
X138122559Y-84121908D01*
X138122559Y-84121908D02*
X138095621Y-84148845D01*
X138095621Y-84148845D02*
X138041747Y-84175782D01*
X138041747Y-84175782D02*
X137718498Y-84175782D01*
X137718498Y-84175782D02*
X137893591Y-84350875D01*
D10*
X145252939Y-69814221D02*
X145104110Y-69787957D01*
X145147883Y-69919277D02*
X144964036Y-69735429D01*
X144964036Y-69735429D02*
X145034073Y-69665392D01*
X145034073Y-69665392D02*
X145060337Y-69656637D01*
X145060337Y-69656637D02*
X145077846Y-69656637D01*
X145077846Y-69656637D02*
X145104110Y-69665392D01*
X145104110Y-69665392D02*
X145130374Y-69691656D01*
X145130374Y-69691656D02*
X145139129Y-69717920D01*
X145139129Y-69717920D02*
X145139129Y-69735429D01*
X145139129Y-69735429D02*
X145130374Y-69761693D01*
X145130374Y-69761693D02*
X145060337Y-69831730D01*
X145226675Y-69472790D02*
X145191657Y-69507808D01*
X145191657Y-69507808D02*
X145182902Y-69534072D01*
X145182902Y-69534072D02*
X145182902Y-69551581D01*
X145182902Y-69551581D02*
X145191657Y-69595355D01*
X145191657Y-69595355D02*
X145217921Y-69639128D01*
X145217921Y-69639128D02*
X145287958Y-69709165D01*
X145287958Y-69709165D02*
X145314222Y-69717920D01*
X145314222Y-69717920D02*
X145331731Y-69717920D01*
X145331731Y-69717920D02*
X145357995Y-69709165D01*
X145357995Y-69709165D02*
X145393014Y-69674147D01*
X145393014Y-69674147D02*
X145401768Y-69647883D01*
X145401768Y-69647883D02*
X145401768Y-69630373D01*
X145401768Y-69630373D02*
X145393014Y-69604109D01*
X145393014Y-69604109D02*
X145349240Y-69560336D01*
X145349240Y-69560336D02*
X145322977Y-69551581D01*
X145322977Y-69551581D02*
X145305467Y-69551581D01*
X145305467Y-69551581D02*
X145279203Y-69560336D01*
X145279203Y-69560336D02*
X145244185Y-69595355D01*
X145244185Y-69595355D02*
X145235430Y-69621619D01*
X145235430Y-69621619D02*
X145235430Y-69639128D01*
X145235430Y-69639128D02*
X145244185Y-69665392D01*
X145013533Y-69869779D02*
X145378535Y-69504778D01*
X149518200Y-64043332D02*
X149394391Y-64129999D01*
X149518200Y-64191904D02*
X149258200Y-64191904D01*
X149258200Y-64191904D02*
X149258200Y-64092856D01*
X149258200Y-64092856D02*
X149270581Y-64068094D01*
X149270581Y-64068094D02*
X149282962Y-64055713D01*
X149282962Y-64055713D02*
X149307724Y-64043332D01*
X149307724Y-64043332D02*
X149344867Y-64043332D01*
X149344867Y-64043332D02*
X149369629Y-64055713D01*
X149369629Y-64055713D02*
X149382010Y-64068094D01*
X149382010Y-64068094D02*
X149394391Y-64092856D01*
X149394391Y-64092856D02*
X149394391Y-64191904D01*
X149258200Y-63808094D02*
X149258200Y-63931904D01*
X149258200Y-63931904D02*
X149382010Y-63944285D01*
X149382010Y-63944285D02*
X149369629Y-63931904D01*
X149369629Y-63931904D02*
X149357248Y-63907142D01*
X149357248Y-63907142D02*
X149357248Y-63845237D01*
X149357248Y-63845237D02*
X149369629Y-63820475D01*
X149369629Y-63820475D02*
X149382010Y-63808094D01*
X149382010Y-63808094D02*
X149406772Y-63795713D01*
X149406772Y-63795713D02*
X149468677Y-63795713D01*
X149468677Y-63795713D02*
X149493439Y-63808094D01*
X149493439Y-63808094D02*
X149505820Y-63820475D01*
X149505820Y-63820475D02*
X149518200Y-63845237D01*
X149518200Y-63845237D02*
X149518200Y-63907142D01*
X149518200Y-63907142D02*
X149505820Y-63931904D01*
X149505820Y-63931904D02*
X149493439Y-63944285D01*
X145249831Y-71177115D02*
X145249831Y-71193951D01*
X145249831Y-71193951D02*
X145232995Y-71227623D01*
X145232995Y-71227623D02*
X145216159Y-71244459D01*
X145216159Y-71244459D02*
X145182488Y-71261294D01*
X145182488Y-71261294D02*
X145148816Y-71261294D01*
X145148816Y-71261294D02*
X145123562Y-71252877D01*
X145123562Y-71252877D02*
X145081472Y-71227623D01*
X145081472Y-71227623D02*
X145056219Y-71202369D01*
X145056219Y-71202369D02*
X145030965Y-71160279D01*
X145030965Y-71160279D02*
X145022547Y-71135025D01*
X145022547Y-71135025D02*
X145022547Y-71101354D01*
X145022547Y-71101354D02*
X145039383Y-71067682D01*
X145039383Y-71067682D02*
X145056219Y-71050846D01*
X145056219Y-71050846D02*
X145089890Y-71034010D01*
X145089890Y-71034010D02*
X145106726Y-71034010D01*
X145174070Y-70966667D02*
X145174070Y-70949831D01*
X145174070Y-70949831D02*
X145182488Y-70924577D01*
X145182488Y-70924577D02*
X145224577Y-70882487D01*
X145224577Y-70882487D02*
X145249831Y-70874069D01*
X145249831Y-70874069D02*
X145266667Y-70874069D01*
X145266667Y-70874069D02*
X145291921Y-70882487D01*
X145291921Y-70882487D02*
X145308757Y-70899323D01*
X145308757Y-70899323D02*
X145325593Y-70932995D01*
X145325593Y-70932995D02*
X145325593Y-71135025D01*
X145325593Y-71135025D02*
X145435026Y-71025592D01*
X145367682Y-70739383D02*
X145384518Y-70722547D01*
X145384518Y-70722547D02*
X145409772Y-70714129D01*
X145409772Y-70714129D02*
X145426608Y-70714129D01*
X145426608Y-70714129D02*
X145451861Y-70722547D01*
X145451861Y-70722547D02*
X145493951Y-70747800D01*
X145493951Y-70747800D02*
X145536041Y-70789890D01*
X145536041Y-70789890D02*
X145561295Y-70831980D01*
X145561295Y-70831980D02*
X145569713Y-70857234D01*
X145569713Y-70857234D02*
X145569713Y-70874070D01*
X145569713Y-70874070D02*
X145561295Y-70899323D01*
X145561295Y-70899323D02*
X145544459Y-70916159D01*
X145544459Y-70916159D02*
X145519205Y-70924577D01*
X145519205Y-70924577D02*
X145502369Y-70924577D01*
X145502369Y-70924577D02*
X145477115Y-70916159D01*
X145477115Y-70916159D02*
X145435026Y-70890905D01*
X145435026Y-70890905D02*
X145392936Y-70848816D01*
X145392936Y-70848816D02*
X145367682Y-70806726D01*
X145367682Y-70806726D02*
X145359264Y-70781472D01*
X145359264Y-70781472D02*
X145359264Y-70764636D01*
X145359264Y-70764636D02*
X145367682Y-70739383D01*
D13*
X137052381Y-56904819D02*
X137147619Y-56904819D01*
X137147619Y-56904819D02*
X137242857Y-56952438D01*
X137242857Y-56952438D02*
X137290476Y-57000057D01*
X137290476Y-57000057D02*
X137338095Y-57095295D01*
X137338095Y-57095295D02*
X137385714Y-57285771D01*
X137385714Y-57285771D02*
X137385714Y-57523866D01*
X137385714Y-57523866D02*
X137338095Y-57714342D01*
X137338095Y-57714342D02*
X137290476Y-57809580D01*
X137290476Y-57809580D02*
X137242857Y-57857200D01*
X137242857Y-57857200D02*
X137147619Y-57904819D01*
X137147619Y-57904819D02*
X137052381Y-57904819D01*
X137052381Y-57904819D02*
X136957143Y-57857200D01*
X136957143Y-57857200D02*
X136909524Y-57809580D01*
X136909524Y-57809580D02*
X136861905Y-57714342D01*
X136861905Y-57714342D02*
X136814286Y-57523866D01*
X136814286Y-57523866D02*
X136814286Y-57285771D01*
X136814286Y-57285771D02*
X136861905Y-57095295D01*
X136861905Y-57095295D02*
X136909524Y-57000057D01*
X136909524Y-57000057D02*
X136957143Y-56952438D01*
X136957143Y-56952438D02*
X137052381Y-56904819D01*
D12*
X136778571Y-56027149D02*
X136611905Y-55789054D01*
X136492857Y-56027149D02*
X136492857Y-55527149D01*
X136492857Y-55527149D02*
X136683333Y-55527149D01*
X136683333Y-55527149D02*
X136730952Y-55550959D01*
X136730952Y-55550959D02*
X136754762Y-55574768D01*
X136754762Y-55574768D02*
X136778571Y-55622387D01*
X136778571Y-55622387D02*
X136778571Y-55693816D01*
X136778571Y-55693816D02*
X136754762Y-55741435D01*
X136754762Y-55741435D02*
X136730952Y-55765244D01*
X136730952Y-55765244D02*
X136683333Y-55789054D01*
X136683333Y-55789054D02*
X136492857Y-55789054D01*
X137254762Y-56027149D02*
X136969048Y-56027149D01*
X137111905Y-56027149D02*
X137111905Y-55527149D01*
X137111905Y-55527149D02*
X137064286Y-55598578D01*
X137064286Y-55598578D02*
X137016667Y-55646197D01*
X137016667Y-55646197D02*
X136969048Y-55670006D01*
X137683333Y-55693816D02*
X137683333Y-56027149D01*
X137564285Y-55503340D02*
X137445238Y-55860482D01*
X137445238Y-55860482D02*
X137754761Y-55860482D01*
D11*
X157631927Y-54229166D02*
X157441451Y-54362499D01*
X157631927Y-54457737D02*
X157231927Y-54457737D01*
X157231927Y-54457737D02*
X157231927Y-54305356D01*
X157231927Y-54305356D02*
X157250975Y-54267261D01*
X157250975Y-54267261D02*
X157270022Y-54248214D01*
X157270022Y-54248214D02*
X157308118Y-54229166D01*
X157308118Y-54229166D02*
X157365260Y-54229166D01*
X157365260Y-54229166D02*
X157403356Y-54248214D01*
X157403356Y-54248214D02*
X157422403Y-54267261D01*
X157422403Y-54267261D02*
X157441451Y-54305356D01*
X157441451Y-54305356D02*
X157441451Y-54457737D01*
X157403356Y-54000595D02*
X157384308Y-54038690D01*
X157384308Y-54038690D02*
X157365260Y-54057737D01*
X157365260Y-54057737D02*
X157327165Y-54076785D01*
X157327165Y-54076785D02*
X157308118Y-54076785D01*
X157308118Y-54076785D02*
X157270022Y-54057737D01*
X157270022Y-54057737D02*
X157250975Y-54038690D01*
X157250975Y-54038690D02*
X157231927Y-54000595D01*
X157231927Y-54000595D02*
X157231927Y-53924404D01*
X157231927Y-53924404D02*
X157250975Y-53886309D01*
X157250975Y-53886309D02*
X157270022Y-53867261D01*
X157270022Y-53867261D02*
X157308118Y-53848214D01*
X157308118Y-53848214D02*
X157327165Y-53848214D01*
X157327165Y-53848214D02*
X157365260Y-53867261D01*
X157365260Y-53867261D02*
X157384308Y-53886309D01*
X157384308Y-53886309D02*
X157403356Y-53924404D01*
X157403356Y-53924404D02*
X157403356Y-54000595D01*
X157403356Y-54000595D02*
X157422403Y-54038690D01*
X157422403Y-54038690D02*
X157441451Y-54057737D01*
X157441451Y-54057737D02*
X157479546Y-54076785D01*
X157479546Y-54076785D02*
X157555737Y-54076785D01*
X157555737Y-54076785D02*
X157593832Y-54057737D01*
X157593832Y-54057737D02*
X157612880Y-54038690D01*
X157612880Y-54038690D02*
X157631927Y-54000595D01*
X157631927Y-54000595D02*
X157631927Y-53924404D01*
X157631927Y-53924404D02*
X157612880Y-53886309D01*
X157612880Y-53886309D02*
X157593832Y-53867261D01*
X157593832Y-53867261D02*
X157555737Y-53848214D01*
X157555737Y-53848214D02*
X157479546Y-53848214D01*
X157479546Y-53848214D02*
X157441451Y-53867261D01*
X157441451Y-53867261D02*
X157422403Y-53886309D01*
X157422403Y-53886309D02*
X157403356Y-53924404D01*
D12*
X159716666Y-57742030D02*
X159692857Y-57765840D01*
X159692857Y-57765840D02*
X159621428Y-57789649D01*
X159621428Y-57789649D02*
X159573809Y-57789649D01*
X159573809Y-57789649D02*
X159502381Y-57765840D01*
X159502381Y-57765840D02*
X159454762Y-57718220D01*
X159454762Y-57718220D02*
X159430952Y-57670601D01*
X159430952Y-57670601D02*
X159407143Y-57575363D01*
X159407143Y-57575363D02*
X159407143Y-57503935D01*
X159407143Y-57503935D02*
X159430952Y-57408697D01*
X159430952Y-57408697D02*
X159454762Y-57361078D01*
X159454762Y-57361078D02*
X159502381Y-57313459D01*
X159502381Y-57313459D02*
X159573809Y-57289649D01*
X159573809Y-57289649D02*
X159621428Y-57289649D01*
X159621428Y-57289649D02*
X159692857Y-57313459D01*
X159692857Y-57313459D02*
X159716666Y-57337268D01*
X159883333Y-57289649D02*
X160216666Y-57289649D01*
X160216666Y-57289649D02*
X160002381Y-57789649D01*
D11*
X145243832Y-58557142D02*
X145262880Y-58576190D01*
X145262880Y-58576190D02*
X145281927Y-58633332D01*
X145281927Y-58633332D02*
X145281927Y-58671428D01*
X145281927Y-58671428D02*
X145262880Y-58728571D01*
X145262880Y-58728571D02*
X145224784Y-58766666D01*
X145224784Y-58766666D02*
X145186689Y-58785713D01*
X145186689Y-58785713D02*
X145110499Y-58804761D01*
X145110499Y-58804761D02*
X145053356Y-58804761D01*
X145053356Y-58804761D02*
X144977165Y-58785713D01*
X144977165Y-58785713D02*
X144939070Y-58766666D01*
X144939070Y-58766666D02*
X144900975Y-58728571D01*
X144900975Y-58728571D02*
X144881927Y-58671428D01*
X144881927Y-58671428D02*
X144881927Y-58633332D01*
X144881927Y-58633332D02*
X144900975Y-58576190D01*
X144900975Y-58576190D02*
X144920022Y-58557142D01*
X145281927Y-58176190D02*
X145281927Y-58404761D01*
X145281927Y-58290475D02*
X144881927Y-58290475D01*
X144881927Y-58290475D02*
X144939070Y-58328571D01*
X144939070Y-58328571D02*
X144977165Y-58366666D01*
X144977165Y-58366666D02*
X144996213Y-58404761D01*
X144881927Y-57928571D02*
X144881927Y-57890476D01*
X144881927Y-57890476D02*
X144900975Y-57852380D01*
X144900975Y-57852380D02*
X144920022Y-57833333D01*
X144920022Y-57833333D02*
X144958118Y-57814285D01*
X144958118Y-57814285D02*
X145034308Y-57795238D01*
X145034308Y-57795238D02*
X145129546Y-57795238D01*
X145129546Y-57795238D02*
X145205737Y-57814285D01*
X145205737Y-57814285D02*
X145243832Y-57833333D01*
X145243832Y-57833333D02*
X145262880Y-57852380D01*
X145262880Y-57852380D02*
X145281927Y-57890476D01*
X145281927Y-57890476D02*
X145281927Y-57928571D01*
X145281927Y-57928571D02*
X145262880Y-57966666D01*
X145262880Y-57966666D02*
X145243832Y-57985714D01*
X145243832Y-57985714D02*
X145205737Y-58004761D01*
X145205737Y-58004761D02*
X145129546Y-58023809D01*
X145129546Y-58023809D02*
X145034308Y-58023809D01*
X145034308Y-58023809D02*
X144958118Y-58004761D01*
X144958118Y-58004761D02*
X144920022Y-57985714D01*
X144920022Y-57985714D02*
X144900975Y-57966666D01*
X144900975Y-57966666D02*
X144881927Y-57928571D01*
D13*
X125638095Y-54554819D02*
X126209523Y-54554819D01*
X125923809Y-55554819D02*
X125923809Y-54554819D01*
X126542857Y-55554819D02*
X126542857Y-54554819D01*
X126542857Y-54554819D02*
X126923809Y-54554819D01*
X126923809Y-54554819D02*
X127019047Y-54602438D01*
X127019047Y-54602438D02*
X127066666Y-54650057D01*
X127066666Y-54650057D02*
X127114285Y-54745295D01*
X127114285Y-54745295D02*
X127114285Y-54888152D01*
X127114285Y-54888152D02*
X127066666Y-54983390D01*
X127066666Y-54983390D02*
X127019047Y-55031009D01*
X127019047Y-55031009D02*
X126923809Y-55078628D01*
X126923809Y-55078628D02*
X126542857Y-55078628D01*
X127971428Y-54888152D02*
X127971428Y-55554819D01*
X127733333Y-54507200D02*
X127495238Y-55221485D01*
X127495238Y-55221485D02*
X128114285Y-55221485D01*
D10*
X148439285Y-94289765D02*
X148427381Y-94301670D01*
X148427381Y-94301670D02*
X148391666Y-94313574D01*
X148391666Y-94313574D02*
X148367857Y-94313574D01*
X148367857Y-94313574D02*
X148332143Y-94301670D01*
X148332143Y-94301670D02*
X148308333Y-94277860D01*
X148308333Y-94277860D02*
X148296428Y-94254050D01*
X148296428Y-94254050D02*
X148284524Y-94206431D01*
X148284524Y-94206431D02*
X148284524Y-94170717D01*
X148284524Y-94170717D02*
X148296428Y-94123098D01*
X148296428Y-94123098D02*
X148308333Y-94099289D01*
X148308333Y-94099289D02*
X148332143Y-94075479D01*
X148332143Y-94075479D02*
X148367857Y-94063574D01*
X148367857Y-94063574D02*
X148391666Y-94063574D01*
X148391666Y-94063574D02*
X148427381Y-94075479D01*
X148427381Y-94075479D02*
X148439285Y-94087384D01*
X148534524Y-94087384D02*
X148546428Y-94075479D01*
X148546428Y-94075479D02*
X148570238Y-94063574D01*
X148570238Y-94063574D02*
X148629762Y-94063574D01*
X148629762Y-94063574D02*
X148653571Y-94075479D01*
X148653571Y-94075479D02*
X148665476Y-94087384D01*
X148665476Y-94087384D02*
X148677381Y-94111193D01*
X148677381Y-94111193D02*
X148677381Y-94135003D01*
X148677381Y-94135003D02*
X148665476Y-94170717D01*
X148665476Y-94170717D02*
X148522619Y-94313574D01*
X148522619Y-94313574D02*
X148677381Y-94313574D01*
X148903571Y-94063574D02*
X148784523Y-94063574D01*
X148784523Y-94063574D02*
X148772619Y-94182622D01*
X148772619Y-94182622D02*
X148784523Y-94170717D01*
X148784523Y-94170717D02*
X148808333Y-94158812D01*
X148808333Y-94158812D02*
X148867857Y-94158812D01*
X148867857Y-94158812D02*
X148891666Y-94170717D01*
X148891666Y-94170717D02*
X148903571Y-94182622D01*
X148903571Y-94182622D02*
X148915476Y-94206431D01*
X148915476Y-94206431D02*
X148915476Y-94265955D01*
X148915476Y-94265955D02*
X148903571Y-94289765D01*
X148903571Y-94289765D02*
X148891666Y-94301670D01*
X148891666Y-94301670D02*
X148867857Y-94313574D01*
X148867857Y-94313574D02*
X148808333Y-94313574D01*
X148808333Y-94313574D02*
X148784523Y-94301670D01*
X148784523Y-94301670D02*
X148772619Y-94289765D01*
X118989765Y-51360714D02*
X119001670Y-51372618D01*
X119001670Y-51372618D02*
X119013574Y-51408333D01*
X119013574Y-51408333D02*
X119013574Y-51432142D01*
X119013574Y-51432142D02*
X119001670Y-51467856D01*
X119001670Y-51467856D02*
X118977860Y-51491666D01*
X118977860Y-51491666D02*
X118954050Y-51503571D01*
X118954050Y-51503571D02*
X118906431Y-51515475D01*
X118906431Y-51515475D02*
X118870717Y-51515475D01*
X118870717Y-51515475D02*
X118823098Y-51503571D01*
X118823098Y-51503571D02*
X118799289Y-51491666D01*
X118799289Y-51491666D02*
X118775479Y-51467856D01*
X118775479Y-51467856D02*
X118763574Y-51432142D01*
X118763574Y-51432142D02*
X118763574Y-51408333D01*
X118763574Y-51408333D02*
X118775479Y-51372618D01*
X118775479Y-51372618D02*
X118787384Y-51360714D01*
X118787384Y-51265475D02*
X118775479Y-51253571D01*
X118775479Y-51253571D02*
X118763574Y-51229761D01*
X118763574Y-51229761D02*
X118763574Y-51170237D01*
X118763574Y-51170237D02*
X118775479Y-51146428D01*
X118775479Y-51146428D02*
X118787384Y-51134523D01*
X118787384Y-51134523D02*
X118811193Y-51122618D01*
X118811193Y-51122618D02*
X118835003Y-51122618D01*
X118835003Y-51122618D02*
X118870717Y-51134523D01*
X118870717Y-51134523D02*
X119013574Y-51277380D01*
X119013574Y-51277380D02*
X119013574Y-51122618D01*
X119013574Y-50884523D02*
X119013574Y-51027380D01*
X119013574Y-50955952D02*
X118763574Y-50955952D01*
X118763574Y-50955952D02*
X118799289Y-50979761D01*
X118799289Y-50979761D02*
X118823098Y-51003571D01*
X118823098Y-51003571D02*
X118835003Y-51027380D01*
D13*
X115238095Y-60104819D02*
X115809523Y-60104819D01*
X115523809Y-61104819D02*
X115523809Y-60104819D01*
X116142857Y-61104819D02*
X116142857Y-60104819D01*
X116142857Y-60104819D02*
X116523809Y-60104819D01*
X116523809Y-60104819D02*
X116619047Y-60152438D01*
X116619047Y-60152438D02*
X116666666Y-60200057D01*
X116666666Y-60200057D02*
X116714285Y-60295295D01*
X116714285Y-60295295D02*
X116714285Y-60438152D01*
X116714285Y-60438152D02*
X116666666Y-60533390D01*
X116666666Y-60533390D02*
X116619047Y-60581009D01*
X116619047Y-60581009D02*
X116523809Y-60628628D01*
X116523809Y-60628628D02*
X116142857Y-60628628D01*
X117047619Y-60104819D02*
X117666666Y-60104819D01*
X117666666Y-60104819D02*
X117333333Y-60485771D01*
X117333333Y-60485771D02*
X117476190Y-60485771D01*
X117476190Y-60485771D02*
X117571428Y-60533390D01*
X117571428Y-60533390D02*
X117619047Y-60581009D01*
X117619047Y-60581009D02*
X117666666Y-60676247D01*
X117666666Y-60676247D02*
X117666666Y-60914342D01*
X117666666Y-60914342D02*
X117619047Y-61009580D01*
X117619047Y-61009580D02*
X117571428Y-61057200D01*
X117571428Y-61057200D02*
X117476190Y-61104819D01*
X117476190Y-61104819D02*
X117190476Y-61104819D01*
X117190476Y-61104819D02*
X117095238Y-61057200D01*
X117095238Y-61057200D02*
X117047619Y-61009580D01*
D11*
X120742857Y-51243832D02*
X120723809Y-51262880D01*
X120723809Y-51262880D02*
X120666667Y-51281927D01*
X120666667Y-51281927D02*
X120628571Y-51281927D01*
X120628571Y-51281927D02*
X120571428Y-51262880D01*
X120571428Y-51262880D02*
X120533333Y-51224784D01*
X120533333Y-51224784D02*
X120514286Y-51186689D01*
X120514286Y-51186689D02*
X120495238Y-51110499D01*
X120495238Y-51110499D02*
X120495238Y-51053356D01*
X120495238Y-51053356D02*
X120514286Y-50977165D01*
X120514286Y-50977165D02*
X120533333Y-50939070D01*
X120533333Y-50939070D02*
X120571428Y-50900975D01*
X120571428Y-50900975D02*
X120628571Y-50881927D01*
X120628571Y-50881927D02*
X120666667Y-50881927D01*
X120666667Y-50881927D02*
X120723809Y-50900975D01*
X120723809Y-50900975D02*
X120742857Y-50920022D01*
X121123809Y-51281927D02*
X120895238Y-51281927D01*
X121009524Y-51281927D02*
X121009524Y-50881927D01*
X121009524Y-50881927D02*
X120971428Y-50939070D01*
X120971428Y-50939070D02*
X120933333Y-50977165D01*
X120933333Y-50977165D02*
X120895238Y-50996213D01*
X121352380Y-51053356D02*
X121314285Y-51034308D01*
X121314285Y-51034308D02*
X121295238Y-51015260D01*
X121295238Y-51015260D02*
X121276190Y-50977165D01*
X121276190Y-50977165D02*
X121276190Y-50958118D01*
X121276190Y-50958118D02*
X121295238Y-50920022D01*
X121295238Y-50920022D02*
X121314285Y-50900975D01*
X121314285Y-50900975D02*
X121352380Y-50881927D01*
X121352380Y-50881927D02*
X121428571Y-50881927D01*
X121428571Y-50881927D02*
X121466666Y-50900975D01*
X121466666Y-50900975D02*
X121485714Y-50920022D01*
X121485714Y-50920022D02*
X121504761Y-50958118D01*
X121504761Y-50958118D02*
X121504761Y-50977165D01*
X121504761Y-50977165D02*
X121485714Y-51015260D01*
X121485714Y-51015260D02*
X121466666Y-51034308D01*
X121466666Y-51034308D02*
X121428571Y-51053356D01*
X121428571Y-51053356D02*
X121352380Y-51053356D01*
X121352380Y-51053356D02*
X121314285Y-51072403D01*
X121314285Y-51072403D02*
X121295238Y-51091451D01*
X121295238Y-51091451D02*
X121276190Y-51129546D01*
X121276190Y-51129546D02*
X121276190Y-51205737D01*
X121276190Y-51205737D02*
X121295238Y-51243832D01*
X121295238Y-51243832D02*
X121314285Y-51262880D01*
X121314285Y-51262880D02*
X121352380Y-51281927D01*
X121352380Y-51281927D02*
X121428571Y-51281927D01*
X121428571Y-51281927D02*
X121466666Y-51262880D01*
X121466666Y-51262880D02*
X121485714Y-51243832D01*
X121485714Y-51243832D02*
X121504761Y-51205737D01*
X121504761Y-51205737D02*
X121504761Y-51129546D01*
X121504761Y-51129546D02*
X121485714Y-51091451D01*
X121485714Y-51091451D02*
X121466666Y-51072403D01*
X121466666Y-51072403D02*
X121428571Y-51053356D01*
X159781927Y-54804761D02*
X160105737Y-54804761D01*
X160105737Y-54804761D02*
X160143832Y-54785714D01*
X160143832Y-54785714D02*
X160162880Y-54766666D01*
X160162880Y-54766666D02*
X160181927Y-54728571D01*
X160181927Y-54728571D02*
X160181927Y-54652380D01*
X160181927Y-54652380D02*
X160162880Y-54614285D01*
X160162880Y-54614285D02*
X160143832Y-54595238D01*
X160143832Y-54595238D02*
X160105737Y-54576190D01*
X160105737Y-54576190D02*
X159781927Y-54576190D01*
X159820022Y-54404761D02*
X159800975Y-54385713D01*
X159800975Y-54385713D02*
X159781927Y-54347618D01*
X159781927Y-54347618D02*
X159781927Y-54252380D01*
X159781927Y-54252380D02*
X159800975Y-54214285D01*
X159800975Y-54214285D02*
X159820022Y-54195237D01*
X159820022Y-54195237D02*
X159858118Y-54176190D01*
X159858118Y-54176190D02*
X159896213Y-54176190D01*
X159896213Y-54176190D02*
X159953356Y-54195237D01*
X159953356Y-54195237D02*
X160181927Y-54423809D01*
X160181927Y-54423809D02*
X160181927Y-54176190D01*
X159981927Y-54894761D02*
X159981927Y-54086190D01*
X136551154Y-85454564D02*
X136524217Y-85454564D01*
X136524217Y-85454564D02*
X136470342Y-85427627D01*
X136470342Y-85427627D02*
X136443405Y-85400689D01*
X136443405Y-85400689D02*
X136416467Y-85346814D01*
X136416467Y-85346814D02*
X136416467Y-85292940D01*
X136416467Y-85292940D02*
X136429936Y-85252534D01*
X136429936Y-85252534D02*
X136470342Y-85185190D01*
X136470342Y-85185190D02*
X136510748Y-85144784D01*
X136510748Y-85144784D02*
X136578092Y-85104378D01*
X136578092Y-85104378D02*
X136618498Y-85090909D01*
X136618498Y-85090909D02*
X136672373Y-85090909D01*
X136672373Y-85090909D02*
X136726247Y-85117847D01*
X136726247Y-85117847D02*
X136753185Y-85144784D01*
X136753185Y-85144784D02*
X136780122Y-85198659D01*
X136780122Y-85198659D02*
X136780122Y-85225596D01*
X137062965Y-85454564D02*
X136928278Y-85319877D01*
X136928278Y-85319877D02*
X136780122Y-85441095D01*
X136780122Y-85441095D02*
X136807060Y-85441095D01*
X136807060Y-85441095D02*
X136847466Y-85454564D01*
X136847466Y-85454564D02*
X136914809Y-85521908D01*
X136914809Y-85521908D02*
X136928278Y-85562314D01*
X136928278Y-85562314D02*
X136928278Y-85589251D01*
X136928278Y-85589251D02*
X136914809Y-85629657D01*
X136914809Y-85629657D02*
X136847466Y-85697001D01*
X136847466Y-85697001D02*
X136807060Y-85710469D01*
X136807060Y-85710469D02*
X136780122Y-85710469D01*
X136780122Y-85710469D02*
X136739716Y-85697001D01*
X136739716Y-85697001D02*
X136672373Y-85629657D01*
X136672373Y-85629657D02*
X136658904Y-85589251D01*
X136658904Y-85589251D02*
X136658904Y-85562314D01*
X141243832Y-58291666D02*
X141262880Y-58310714D01*
X141262880Y-58310714D02*
X141281927Y-58367856D01*
X141281927Y-58367856D02*
X141281927Y-58405952D01*
X141281927Y-58405952D02*
X141262880Y-58463095D01*
X141262880Y-58463095D02*
X141224784Y-58501190D01*
X141224784Y-58501190D02*
X141186689Y-58520237D01*
X141186689Y-58520237D02*
X141110499Y-58539285D01*
X141110499Y-58539285D02*
X141053356Y-58539285D01*
X141053356Y-58539285D02*
X140977165Y-58520237D01*
X140977165Y-58520237D02*
X140939070Y-58501190D01*
X140939070Y-58501190D02*
X140900975Y-58463095D01*
X140900975Y-58463095D02*
X140881927Y-58405952D01*
X140881927Y-58405952D02*
X140881927Y-58367856D01*
X140881927Y-58367856D02*
X140900975Y-58310714D01*
X140900975Y-58310714D02*
X140920022Y-58291666D01*
X141281927Y-57910714D02*
X141281927Y-58139285D01*
X141281927Y-58024999D02*
X140881927Y-58024999D01*
X140881927Y-58024999D02*
X140939070Y-58063095D01*
X140939070Y-58063095D02*
X140977165Y-58101190D01*
X140977165Y-58101190D02*
X140996213Y-58139285D01*
X118581927Y-53766666D02*
X118391451Y-53899999D01*
X118581927Y-53995237D02*
X118181927Y-53995237D01*
X118181927Y-53995237D02*
X118181927Y-53842856D01*
X118181927Y-53842856D02*
X118200975Y-53804761D01*
X118200975Y-53804761D02*
X118220022Y-53785714D01*
X118220022Y-53785714D02*
X118258118Y-53766666D01*
X118258118Y-53766666D02*
X118315260Y-53766666D01*
X118315260Y-53766666D02*
X118353356Y-53785714D01*
X118353356Y-53785714D02*
X118372403Y-53804761D01*
X118372403Y-53804761D02*
X118391451Y-53842856D01*
X118391451Y-53842856D02*
X118391451Y-53995237D01*
X118181927Y-53633333D02*
X118181927Y-53366666D01*
X118181927Y-53366666D02*
X118581927Y-53538095D01*
X118381925Y-54085237D02*
X118381925Y-53276668D01*
D10*
X140534011Y-67192935D02*
X140534011Y-67209771D01*
X140534011Y-67209771D02*
X140517175Y-67243443D01*
X140517175Y-67243443D02*
X140500339Y-67260279D01*
X140500339Y-67260279D02*
X140466667Y-67277115D01*
X140466667Y-67277115D02*
X140432996Y-67277115D01*
X140432996Y-67277115D02*
X140407742Y-67268697D01*
X140407742Y-67268697D02*
X140365652Y-67243443D01*
X140365652Y-67243443D02*
X140340398Y-67218189D01*
X140340398Y-67218189D02*
X140315144Y-67176100D01*
X140315144Y-67176100D02*
X140306726Y-67150846D01*
X140306726Y-67150846D02*
X140306726Y-67117174D01*
X140306726Y-67117174D02*
X140323562Y-67083502D01*
X140323562Y-67083502D02*
X140340398Y-67066666D01*
X140340398Y-67066666D02*
X140374070Y-67049831D01*
X140374070Y-67049831D02*
X140390906Y-67049831D01*
X140635026Y-67125592D02*
X140668698Y-67091920D01*
X140668698Y-67091920D02*
X140677116Y-67066666D01*
X140677116Y-67066666D02*
X140677116Y-67049831D01*
X140677116Y-67049831D02*
X140668698Y-67007741D01*
X140668698Y-67007741D02*
X140643444Y-66965651D01*
X140643444Y-66965651D02*
X140576100Y-66898308D01*
X140576100Y-66898308D02*
X140550847Y-66889890D01*
X140550847Y-66889890D02*
X140534011Y-66889890D01*
X140534011Y-66889890D02*
X140508757Y-66898308D01*
X140508757Y-66898308D02*
X140475085Y-66931979D01*
X140475085Y-66931979D02*
X140466667Y-66957233D01*
X140466667Y-66957233D02*
X140466667Y-66974069D01*
X140466667Y-66974069D02*
X140475085Y-66999323D01*
X140475085Y-66999323D02*
X140517175Y-67041413D01*
X140517175Y-67041413D02*
X140542429Y-67049831D01*
X140542429Y-67049831D02*
X140559265Y-67049831D01*
X140559265Y-67049831D02*
X140584518Y-67041413D01*
X140584518Y-67041413D02*
X140618190Y-67007741D01*
X140618190Y-67007741D02*
X140626608Y-66982487D01*
X140626608Y-66982487D02*
X140626608Y-66965651D01*
X140626608Y-66965651D02*
X140618190Y-66940397D01*
D11*
X137151154Y-63654564D02*
X137124217Y-63654564D01*
X137124217Y-63654564D02*
X137070342Y-63627627D01*
X137070342Y-63627627D02*
X137043405Y-63600689D01*
X137043405Y-63600689D02*
X137016467Y-63546814D01*
X137016467Y-63546814D02*
X137016467Y-63492940D01*
X137016467Y-63492940D02*
X137029936Y-63452534D01*
X137029936Y-63452534D02*
X137070342Y-63385190D01*
X137070342Y-63385190D02*
X137110748Y-63344784D01*
X137110748Y-63344784D02*
X137178092Y-63304378D01*
X137178092Y-63304378D02*
X137218498Y-63290909D01*
X137218498Y-63290909D02*
X137272373Y-63290909D01*
X137272373Y-63290909D02*
X137326247Y-63317847D01*
X137326247Y-63317847D02*
X137353185Y-63344784D01*
X137353185Y-63344784D02*
X137380122Y-63398659D01*
X137380122Y-63398659D02*
X137380122Y-63425596D01*
X137447466Y-63681501D02*
X137433997Y-63641095D01*
X137433997Y-63641095D02*
X137433997Y-63614158D01*
X137433997Y-63614158D02*
X137447466Y-63573752D01*
X137447466Y-63573752D02*
X137460934Y-63560283D01*
X137460934Y-63560283D02*
X137501341Y-63546814D01*
X137501341Y-63546814D02*
X137528278Y-63546814D01*
X137528278Y-63546814D02*
X137568684Y-63560283D01*
X137568684Y-63560283D02*
X137622559Y-63614158D01*
X137622559Y-63614158D02*
X137636028Y-63654564D01*
X137636028Y-63654564D02*
X137636028Y-63681501D01*
X137636028Y-63681501D02*
X137622559Y-63721908D01*
X137622559Y-63721908D02*
X137609090Y-63735376D01*
X137609090Y-63735376D02*
X137568684Y-63748845D01*
X137568684Y-63748845D02*
X137541747Y-63748845D01*
X137541747Y-63748845D02*
X137501341Y-63735376D01*
X137501341Y-63735376D02*
X137447466Y-63681501D01*
X137447466Y-63681501D02*
X137407060Y-63668033D01*
X137407060Y-63668033D02*
X137380122Y-63668033D01*
X137380122Y-63668033D02*
X137339716Y-63681501D01*
X137339716Y-63681501D02*
X137285841Y-63735376D01*
X137285841Y-63735376D02*
X137272373Y-63775782D01*
X137272373Y-63775782D02*
X137272373Y-63802720D01*
X137272373Y-63802720D02*
X137285841Y-63843126D01*
X137285841Y-63843126D02*
X137339716Y-63897001D01*
X137339716Y-63897001D02*
X137380122Y-63910469D01*
X137380122Y-63910469D02*
X137407060Y-63910469D01*
X137407060Y-63910469D02*
X137447466Y-63897001D01*
X137447466Y-63897001D02*
X137501341Y-63843126D01*
X137501341Y-63843126D02*
X137514809Y-63802720D01*
X137514809Y-63802720D02*
X137514809Y-63775782D01*
X137514809Y-63775782D02*
X137501341Y-63735376D01*
X139443832Y-58291666D02*
X139462880Y-58310714D01*
X139462880Y-58310714D02*
X139481927Y-58367856D01*
X139481927Y-58367856D02*
X139481927Y-58405952D01*
X139481927Y-58405952D02*
X139462880Y-58463095D01*
X139462880Y-58463095D02*
X139424784Y-58501190D01*
X139424784Y-58501190D02*
X139386689Y-58520237D01*
X139386689Y-58520237D02*
X139310499Y-58539285D01*
X139310499Y-58539285D02*
X139253356Y-58539285D01*
X139253356Y-58539285D02*
X139177165Y-58520237D01*
X139177165Y-58520237D02*
X139139070Y-58501190D01*
X139139070Y-58501190D02*
X139100975Y-58463095D01*
X139100975Y-58463095D02*
X139081927Y-58405952D01*
X139081927Y-58405952D02*
X139081927Y-58367856D01*
X139081927Y-58367856D02*
X139100975Y-58310714D01*
X139100975Y-58310714D02*
X139120022Y-58291666D01*
X139081927Y-58158333D02*
X139081927Y-57910714D01*
X139081927Y-57910714D02*
X139234308Y-58044047D01*
X139234308Y-58044047D02*
X139234308Y-57986904D01*
X139234308Y-57986904D02*
X139253356Y-57948809D01*
X139253356Y-57948809D02*
X139272403Y-57929761D01*
X139272403Y-57929761D02*
X139310499Y-57910714D01*
X139310499Y-57910714D02*
X139405737Y-57910714D01*
X139405737Y-57910714D02*
X139443832Y-57929761D01*
X139443832Y-57929761D02*
X139462880Y-57948809D01*
X139462880Y-57948809D02*
X139481927Y-57986904D01*
X139481927Y-57986904D02*
X139481927Y-58101190D01*
X139481927Y-58101190D02*
X139462880Y-58139285D01*
X139462880Y-58139285D02*
X139443832Y-58158333D01*
D13*
X152452381Y-56904819D02*
X152547619Y-56904819D01*
X152547619Y-56904819D02*
X152642857Y-56952438D01*
X152642857Y-56952438D02*
X152690476Y-57000057D01*
X152690476Y-57000057D02*
X152738095Y-57095295D01*
X152738095Y-57095295D02*
X152785714Y-57285771D01*
X152785714Y-57285771D02*
X152785714Y-57523866D01*
X152785714Y-57523866D02*
X152738095Y-57714342D01*
X152738095Y-57714342D02*
X152690476Y-57809580D01*
X152690476Y-57809580D02*
X152642857Y-57857200D01*
X152642857Y-57857200D02*
X152547619Y-57904819D01*
X152547619Y-57904819D02*
X152452381Y-57904819D01*
X152452381Y-57904819D02*
X152357143Y-57857200D01*
X152357143Y-57857200D02*
X152309524Y-57809580D01*
X152309524Y-57809580D02*
X152261905Y-57714342D01*
X152261905Y-57714342D02*
X152214286Y-57523866D01*
X152214286Y-57523866D02*
X152214286Y-57285771D01*
X152214286Y-57285771D02*
X152261905Y-57095295D01*
X152261905Y-57095295D02*
X152309524Y-57000057D01*
X152309524Y-57000057D02*
X152357143Y-56952438D01*
X152357143Y-56952438D02*
X152452381Y-56904819D01*
D12*
X152178571Y-56027149D02*
X152011905Y-55789054D01*
X151892857Y-56027149D02*
X151892857Y-55527149D01*
X151892857Y-55527149D02*
X152083333Y-55527149D01*
X152083333Y-55527149D02*
X152130952Y-55550959D01*
X152130952Y-55550959D02*
X152154762Y-55574768D01*
X152154762Y-55574768D02*
X152178571Y-55622387D01*
X152178571Y-55622387D02*
X152178571Y-55693816D01*
X152178571Y-55693816D02*
X152154762Y-55741435D01*
X152154762Y-55741435D02*
X152130952Y-55765244D01*
X152130952Y-55765244D02*
X152083333Y-55789054D01*
X152083333Y-55789054D02*
X151892857Y-55789054D01*
X152654762Y-56027149D02*
X152369048Y-56027149D01*
X152511905Y-56027149D02*
X152511905Y-55527149D01*
X152511905Y-55527149D02*
X152464286Y-55598578D01*
X152464286Y-55598578D02*
X152416667Y-55646197D01*
X152416667Y-55646197D02*
X152369048Y-55670006D01*
X153107142Y-55527149D02*
X152869047Y-55527149D01*
X152869047Y-55527149D02*
X152845238Y-55765244D01*
X152845238Y-55765244D02*
X152869047Y-55741435D01*
X152869047Y-55741435D02*
X152916666Y-55717625D01*
X152916666Y-55717625D02*
X153035714Y-55717625D01*
X153035714Y-55717625D02*
X153083333Y-55741435D01*
X153083333Y-55741435D02*
X153107142Y-55765244D01*
X153107142Y-55765244D02*
X153130952Y-55812863D01*
X153130952Y-55812863D02*
X153130952Y-55931911D01*
X153130952Y-55931911D02*
X153107142Y-55979530D01*
X153107142Y-55979530D02*
X153083333Y-56003340D01*
X153083333Y-56003340D02*
X153035714Y-56027149D01*
X153035714Y-56027149D02*
X152916666Y-56027149D01*
X152916666Y-56027149D02*
X152869047Y-56003340D01*
X152869047Y-56003340D02*
X152845238Y-55979530D01*
D10*
X130022884Y-74249831D02*
X130006048Y-74249831D01*
X130006048Y-74249831D02*
X129972376Y-74232995D01*
X129972376Y-74232995D02*
X129955540Y-74216159D01*
X129955540Y-74216159D02*
X129938705Y-74182488D01*
X129938705Y-74182488D02*
X129938705Y-74148816D01*
X129938705Y-74148816D02*
X129947122Y-74123562D01*
X129947122Y-74123562D02*
X129972376Y-74081472D01*
X129972376Y-74081472D02*
X129997630Y-74056219D01*
X129997630Y-74056219D02*
X130039720Y-74030965D01*
X130039720Y-74030965D02*
X130064974Y-74022547D01*
X130064974Y-74022547D02*
X130098645Y-74022547D01*
X130098645Y-74022547D02*
X130132317Y-74039383D01*
X130132317Y-74039383D02*
X130149153Y-74056219D01*
X130149153Y-74056219D02*
X130165989Y-74089890D01*
X130165989Y-74089890D02*
X130165989Y-74106726D01*
X130233332Y-74174070D02*
X130250168Y-74174070D01*
X130250168Y-74174070D02*
X130275422Y-74182488D01*
X130275422Y-74182488D02*
X130317512Y-74224577D01*
X130317512Y-74224577D02*
X130325930Y-74249831D01*
X130325930Y-74249831D02*
X130325930Y-74266667D01*
X130325930Y-74266667D02*
X130317512Y-74291921D01*
X130317512Y-74291921D02*
X130300676Y-74308757D01*
X130300676Y-74308757D02*
X130267004Y-74325593D01*
X130267004Y-74325593D02*
X130064974Y-74325593D01*
X130064974Y-74325593D02*
X130174407Y-74435026D01*
X130410109Y-74317174D02*
X130519542Y-74426608D01*
X130519542Y-74426608D02*
X130393273Y-74435026D01*
X130393273Y-74435026D02*
X130418527Y-74460279D01*
X130418527Y-74460279D02*
X130426945Y-74485533D01*
X130426945Y-74485533D02*
X130426945Y-74502369D01*
X130426945Y-74502369D02*
X130418527Y-74527623D01*
X130418527Y-74527623D02*
X130376437Y-74569713D01*
X130376437Y-74569713D02*
X130351183Y-74578131D01*
X130351183Y-74578131D02*
X130334347Y-74578131D01*
X130334347Y-74578131D02*
X130309094Y-74569713D01*
X130309094Y-74569713D02*
X130258586Y-74519205D01*
X130258586Y-74519205D02*
X130250168Y-74493951D01*
X130250168Y-74493951D02*
X130250168Y-74477115D01*
D11*
X159581927Y-60229166D02*
X159391451Y-60362499D01*
X159581927Y-60457737D02*
X159181927Y-60457737D01*
X159181927Y-60457737D02*
X159181927Y-60305356D01*
X159181927Y-60305356D02*
X159200975Y-60267261D01*
X159200975Y-60267261D02*
X159220022Y-60248214D01*
X159220022Y-60248214D02*
X159258118Y-60229166D01*
X159258118Y-60229166D02*
X159315260Y-60229166D01*
X159315260Y-60229166D02*
X159353356Y-60248214D01*
X159353356Y-60248214D02*
X159372403Y-60267261D01*
X159372403Y-60267261D02*
X159391451Y-60305356D01*
X159391451Y-60305356D02*
X159391451Y-60457737D01*
X159181927Y-60095833D02*
X159181927Y-59848214D01*
X159181927Y-59848214D02*
X159334308Y-59981547D01*
X159334308Y-59981547D02*
X159334308Y-59924404D01*
X159334308Y-59924404D02*
X159353356Y-59886309D01*
X159353356Y-59886309D02*
X159372403Y-59867261D01*
X159372403Y-59867261D02*
X159410499Y-59848214D01*
X159410499Y-59848214D02*
X159505737Y-59848214D01*
X159505737Y-59848214D02*
X159543832Y-59867261D01*
X159543832Y-59867261D02*
X159562880Y-59886309D01*
X159562880Y-59886309D02*
X159581927Y-59924404D01*
X159581927Y-59924404D02*
X159581927Y-60038690D01*
X159581927Y-60038690D02*
X159562880Y-60076785D01*
X159562880Y-60076785D02*
X159543832Y-60095833D01*
X159381927Y-60547737D02*
X159381927Y-59758214D01*
D10*
X154118200Y-95767142D02*
X153994391Y-95853809D01*
X154118200Y-95915714D02*
X153858200Y-95915714D01*
X153858200Y-95915714D02*
X153858200Y-95816666D01*
X153858200Y-95816666D02*
X153870581Y-95791904D01*
X153870581Y-95791904D02*
X153882962Y-95779523D01*
X153882962Y-95779523D02*
X153907724Y-95767142D01*
X153907724Y-95767142D02*
X153944867Y-95767142D01*
X153944867Y-95767142D02*
X153969629Y-95779523D01*
X153969629Y-95779523D02*
X153982010Y-95791904D01*
X153982010Y-95791904D02*
X153994391Y-95816666D01*
X153994391Y-95816666D02*
X153994391Y-95915714D01*
X154118200Y-95519523D02*
X154118200Y-95668095D01*
X154118200Y-95593809D02*
X153858200Y-95593809D01*
X153858200Y-95593809D02*
X153895343Y-95618571D01*
X153895343Y-95618571D02*
X153920105Y-95643333D01*
X153920105Y-95643333D02*
X153932486Y-95668095D01*
X154118200Y-95271904D02*
X154118200Y-95420476D01*
X154118200Y-95346190D02*
X153858200Y-95346190D01*
X153858200Y-95346190D02*
X153895343Y-95370952D01*
X153895343Y-95370952D02*
X153920105Y-95395714D01*
X153920105Y-95395714D02*
X153932486Y-95420476D01*
X153988200Y-95975714D02*
X153988200Y-95213426D01*
X148118200Y-65843332D02*
X147994391Y-65929999D01*
X148118200Y-65991904D02*
X147858200Y-65991904D01*
X147858200Y-65991904D02*
X147858200Y-65892856D01*
X147858200Y-65892856D02*
X147870581Y-65868094D01*
X147870581Y-65868094D02*
X147882962Y-65855713D01*
X147882962Y-65855713D02*
X147907724Y-65843332D01*
X147907724Y-65843332D02*
X147944867Y-65843332D01*
X147944867Y-65843332D02*
X147969629Y-65855713D01*
X147969629Y-65855713D02*
X147982010Y-65868094D01*
X147982010Y-65868094D02*
X147994391Y-65892856D01*
X147994391Y-65892856D02*
X147994391Y-65991904D01*
X148118200Y-65719523D02*
X148118200Y-65669999D01*
X148118200Y-65669999D02*
X148105820Y-65645237D01*
X148105820Y-65645237D02*
X148093439Y-65632856D01*
X148093439Y-65632856D02*
X148056296Y-65608094D01*
X148056296Y-65608094D02*
X148006772Y-65595713D01*
X148006772Y-65595713D02*
X147907724Y-65595713D01*
X147907724Y-65595713D02*
X147882962Y-65608094D01*
X147882962Y-65608094D02*
X147870581Y-65620475D01*
X147870581Y-65620475D02*
X147858200Y-65645237D01*
X147858200Y-65645237D02*
X147858200Y-65694761D01*
X147858200Y-65694761D02*
X147870581Y-65719523D01*
X147870581Y-65719523D02*
X147882962Y-65731904D01*
X147882962Y-65731904D02*
X147907724Y-65744285D01*
X147907724Y-65744285D02*
X147969629Y-65744285D01*
X147969629Y-65744285D02*
X147994391Y-65731904D01*
X147994391Y-65731904D02*
X148006772Y-65719523D01*
X148006772Y-65719523D02*
X148019153Y-65694761D01*
X148019153Y-65694761D02*
X148019153Y-65645237D01*
X148019153Y-65645237D02*
X148006772Y-65620475D01*
X148006772Y-65620475D02*
X147994391Y-65608094D01*
X147994391Y-65608094D02*
X147969629Y-65595713D01*
X152818200Y-94967142D02*
X152694391Y-95053809D01*
X152818200Y-95115714D02*
X152558200Y-95115714D01*
X152558200Y-95115714D02*
X152558200Y-95016666D01*
X152558200Y-95016666D02*
X152570581Y-94991904D01*
X152570581Y-94991904D02*
X152582962Y-94979523D01*
X152582962Y-94979523D02*
X152607724Y-94967142D01*
X152607724Y-94967142D02*
X152644867Y-94967142D01*
X152644867Y-94967142D02*
X152669629Y-94979523D01*
X152669629Y-94979523D02*
X152682010Y-94991904D01*
X152682010Y-94991904D02*
X152694391Y-95016666D01*
X152694391Y-95016666D02*
X152694391Y-95115714D01*
X152818200Y-94719523D02*
X152818200Y-94868095D01*
X152818200Y-94793809D02*
X152558200Y-94793809D01*
X152558200Y-94793809D02*
X152595343Y-94818571D01*
X152595343Y-94818571D02*
X152620105Y-94843333D01*
X152620105Y-94843333D02*
X152632486Y-94868095D01*
X152582962Y-94620476D02*
X152570581Y-94608095D01*
X152570581Y-94608095D02*
X152558200Y-94583333D01*
X152558200Y-94583333D02*
X152558200Y-94521428D01*
X152558200Y-94521428D02*
X152570581Y-94496666D01*
X152570581Y-94496666D02*
X152582962Y-94484285D01*
X152582962Y-94484285D02*
X152607724Y-94471904D01*
X152607724Y-94471904D02*
X152632486Y-94471904D01*
X152632486Y-94471904D02*
X152669629Y-94484285D01*
X152669629Y-94484285D02*
X152818200Y-94632857D01*
X152818200Y-94632857D02*
X152818200Y-94471904D01*
X152688200Y-95175714D02*
X152688200Y-94411904D01*
D11*
X147043832Y-58366666D02*
X147062880Y-58385714D01*
X147062880Y-58385714D02*
X147081927Y-58442856D01*
X147081927Y-58442856D02*
X147081927Y-58480952D01*
X147081927Y-58480952D02*
X147062880Y-58538095D01*
X147062880Y-58538095D02*
X147024784Y-58576190D01*
X147024784Y-58576190D02*
X146986689Y-58595237D01*
X146986689Y-58595237D02*
X146910499Y-58614285D01*
X146910499Y-58614285D02*
X146853356Y-58614285D01*
X146853356Y-58614285D02*
X146777165Y-58595237D01*
X146777165Y-58595237D02*
X146739070Y-58576190D01*
X146739070Y-58576190D02*
X146700975Y-58538095D01*
X146700975Y-58538095D02*
X146681927Y-58480952D01*
X146681927Y-58480952D02*
X146681927Y-58442856D01*
X146681927Y-58442856D02*
X146700975Y-58385714D01*
X146700975Y-58385714D02*
X146720022Y-58366666D01*
X146815260Y-58023809D02*
X147081927Y-58023809D01*
X146662880Y-58119047D02*
X146948594Y-58214285D01*
X146948594Y-58214285D02*
X146948594Y-57966666D01*
D10*
X142622884Y-78449831D02*
X142606048Y-78449831D01*
X142606048Y-78449831D02*
X142572376Y-78432995D01*
X142572376Y-78432995D02*
X142555540Y-78416159D01*
X142555540Y-78416159D02*
X142538705Y-78382488D01*
X142538705Y-78382488D02*
X142538705Y-78348816D01*
X142538705Y-78348816D02*
X142547122Y-78323562D01*
X142547122Y-78323562D02*
X142572376Y-78281472D01*
X142572376Y-78281472D02*
X142597630Y-78256219D01*
X142597630Y-78256219D02*
X142639720Y-78230965D01*
X142639720Y-78230965D02*
X142664974Y-78222547D01*
X142664974Y-78222547D02*
X142698645Y-78222547D01*
X142698645Y-78222547D02*
X142732317Y-78239383D01*
X142732317Y-78239383D02*
X142749153Y-78256219D01*
X142749153Y-78256219D02*
X142765989Y-78289890D01*
X142765989Y-78289890D02*
X142765989Y-78306726D01*
X142774407Y-78635026D02*
X142673392Y-78534010D01*
X142723899Y-78584518D02*
X142900676Y-78407741D01*
X142900676Y-78407741D02*
X142858586Y-78416159D01*
X142858586Y-78416159D02*
X142824914Y-78416159D01*
X142824914Y-78416159D02*
X142799661Y-78407741D01*
X143111124Y-78618190D02*
X143026945Y-78534010D01*
X143026945Y-78534010D02*
X142934347Y-78609772D01*
X142934347Y-78609772D02*
X142951183Y-78609772D01*
X142951183Y-78609772D02*
X142976437Y-78618190D01*
X142976437Y-78618190D02*
X143018527Y-78660279D01*
X143018527Y-78660279D02*
X143026945Y-78685533D01*
X143026945Y-78685533D02*
X143026945Y-78702369D01*
X143026945Y-78702369D02*
X143018527Y-78727623D01*
X143018527Y-78727623D02*
X142976437Y-78769713D01*
X142976437Y-78769713D02*
X142951183Y-78778131D01*
X142951183Y-78778131D02*
X142934347Y-78778131D01*
X142934347Y-78778131D02*
X142909094Y-78769713D01*
X142909094Y-78769713D02*
X142867004Y-78727623D01*
X142867004Y-78727623D02*
X142858586Y-78702369D01*
X142858586Y-78702369D02*
X142858586Y-78685533D01*
D13*
X137846753Y-73075750D02*
X137274333Y-73648170D01*
X137274333Y-73648170D02*
X137240661Y-73749185D01*
X137240661Y-73749185D02*
X137240661Y-73816529D01*
X137240661Y-73816529D02*
X137274333Y-73917544D01*
X137274333Y-73917544D02*
X137409020Y-74052231D01*
X137409020Y-74052231D02*
X137510035Y-74085903D01*
X137510035Y-74085903D02*
X137577379Y-74085903D01*
X137577379Y-74085903D02*
X137678394Y-74052231D01*
X137678394Y-74052231D02*
X138250814Y-73479811D01*
X138654875Y-74355277D02*
X138183470Y-74826681D01*
X138755890Y-73917544D02*
X138082455Y-74254262D01*
X138082455Y-74254262D02*
X138520188Y-74691994D01*
D12*
X121016666Y-57279530D02*
X120992857Y-57303340D01*
X120992857Y-57303340D02*
X120921428Y-57327149D01*
X120921428Y-57327149D02*
X120873809Y-57327149D01*
X120873809Y-57327149D02*
X120802381Y-57303340D01*
X120802381Y-57303340D02*
X120754762Y-57255720D01*
X120754762Y-57255720D02*
X120730952Y-57208101D01*
X120730952Y-57208101D02*
X120707143Y-57112863D01*
X120707143Y-57112863D02*
X120707143Y-57041435D01*
X120707143Y-57041435D02*
X120730952Y-56946197D01*
X120730952Y-56946197D02*
X120754762Y-56898578D01*
X120754762Y-56898578D02*
X120802381Y-56850959D01*
X120802381Y-56850959D02*
X120873809Y-56827149D01*
X120873809Y-56827149D02*
X120921428Y-56827149D01*
X120921428Y-56827149D02*
X120992857Y-56850959D01*
X120992857Y-56850959D02*
X121016666Y-56874768D01*
X121445238Y-56827149D02*
X121350000Y-56827149D01*
X121350000Y-56827149D02*
X121302381Y-56850959D01*
X121302381Y-56850959D02*
X121278571Y-56874768D01*
X121278571Y-56874768D02*
X121230952Y-56946197D01*
X121230952Y-56946197D02*
X121207143Y-57041435D01*
X121207143Y-57041435D02*
X121207143Y-57231911D01*
X121207143Y-57231911D02*
X121230952Y-57279530D01*
X121230952Y-57279530D02*
X121254762Y-57303340D01*
X121254762Y-57303340D02*
X121302381Y-57327149D01*
X121302381Y-57327149D02*
X121397619Y-57327149D01*
X121397619Y-57327149D02*
X121445238Y-57303340D01*
X121445238Y-57303340D02*
X121469047Y-57279530D01*
X121469047Y-57279530D02*
X121492857Y-57231911D01*
X121492857Y-57231911D02*
X121492857Y-57112863D01*
X121492857Y-57112863D02*
X121469047Y-57065244D01*
X121469047Y-57065244D02*
X121445238Y-57041435D01*
X121445238Y-57041435D02*
X121397619Y-57017625D01*
X121397619Y-57017625D02*
X121302381Y-57017625D01*
X121302381Y-57017625D02*
X121254762Y-57041435D01*
X121254762Y-57041435D02*
X121230952Y-57065244D01*
X121230952Y-57065244D02*
X121207143Y-57112863D01*
D14*
X148704166Y-95655873D02*
X148704166Y-96222540D01*
X148704166Y-96222540D02*
X148737500Y-96289206D01*
X148737500Y-96289206D02*
X148770833Y-96322540D01*
X148770833Y-96322540D02*
X148837500Y-96355873D01*
X148837500Y-96355873D02*
X148970833Y-96355873D01*
X148970833Y-96355873D02*
X149037500Y-96322540D01*
X149037500Y-96322540D02*
X149070833Y-96289206D01*
X149070833Y-96289206D02*
X149104166Y-96222540D01*
X149104166Y-96222540D02*
X149104166Y-95655873D01*
X149370833Y-95655873D02*
X149804166Y-95655873D01*
X149804166Y-95655873D02*
X149570833Y-95922540D01*
X149570833Y-95922540D02*
X149670833Y-95922540D01*
X149670833Y-95922540D02*
X149737499Y-95955873D01*
X149737499Y-95955873D02*
X149770833Y-95989206D01*
X149770833Y-95989206D02*
X149804166Y-96055873D01*
X149804166Y-96055873D02*
X149804166Y-96222540D01*
X149804166Y-96222540D02*
X149770833Y-96289206D01*
X149770833Y-96289206D02*
X149737499Y-96322540D01*
X149737499Y-96322540D02*
X149670833Y-96355873D01*
X149670833Y-96355873D02*
X149470833Y-96355873D01*
X149470833Y-96355873D02*
X149404166Y-96322540D01*
X149404166Y-96322540D02*
X149370833Y-96289206D01*
X148546666Y-96005873D02*
X149961666Y-96005873D01*
D10*
X136149831Y-81777115D02*
X136149831Y-81793951D01*
X136149831Y-81793951D02*
X136132995Y-81827623D01*
X136132995Y-81827623D02*
X136116159Y-81844459D01*
X136116159Y-81844459D02*
X136082488Y-81861294D01*
X136082488Y-81861294D02*
X136048816Y-81861294D01*
X136048816Y-81861294D02*
X136023562Y-81852877D01*
X136023562Y-81852877D02*
X135981472Y-81827623D01*
X135981472Y-81827623D02*
X135956219Y-81802369D01*
X135956219Y-81802369D02*
X135930965Y-81760279D01*
X135930965Y-81760279D02*
X135922547Y-81735025D01*
X135922547Y-81735025D02*
X135922547Y-81701354D01*
X135922547Y-81701354D02*
X135939383Y-81667682D01*
X135939383Y-81667682D02*
X135956219Y-81650846D01*
X135956219Y-81650846D02*
X135989890Y-81634010D01*
X135989890Y-81634010D02*
X136006726Y-81634010D01*
X136074070Y-81566667D02*
X136074070Y-81549831D01*
X136074070Y-81549831D02*
X136082488Y-81524577D01*
X136082488Y-81524577D02*
X136124577Y-81482487D01*
X136124577Y-81482487D02*
X136149831Y-81474069D01*
X136149831Y-81474069D02*
X136166667Y-81474069D01*
X136166667Y-81474069D02*
X136191921Y-81482487D01*
X136191921Y-81482487D02*
X136208757Y-81499323D01*
X136208757Y-81499323D02*
X136225593Y-81532995D01*
X136225593Y-81532995D02*
X136225593Y-81735025D01*
X136225593Y-81735025D02*
X136335026Y-81625592D01*
X136368697Y-81356218D02*
X136486548Y-81474070D01*
X136259264Y-81330965D02*
X136343444Y-81499323D01*
X136343444Y-81499323D02*
X136452877Y-81389890D01*
D11*
X120781927Y-54304761D02*
X121105737Y-54304761D01*
X121105737Y-54304761D02*
X121143832Y-54285714D01*
X121143832Y-54285714D02*
X121162880Y-54266666D01*
X121162880Y-54266666D02*
X121181927Y-54228571D01*
X121181927Y-54228571D02*
X121181927Y-54152380D01*
X121181927Y-54152380D02*
X121162880Y-54114285D01*
X121162880Y-54114285D02*
X121143832Y-54095238D01*
X121143832Y-54095238D02*
X121105737Y-54076190D01*
X121105737Y-54076190D02*
X120781927Y-54076190D01*
X121181927Y-53676190D02*
X121181927Y-53904761D01*
X121181927Y-53790475D02*
X120781927Y-53790475D01*
X120781927Y-53790475D02*
X120839070Y-53828571D01*
X120839070Y-53828571D02*
X120877165Y-53866666D01*
X120877165Y-53866666D02*
X120896213Y-53904761D01*
X161081927Y-60229166D02*
X160891451Y-60362499D01*
X161081927Y-60457737D02*
X160681927Y-60457737D01*
X160681927Y-60457737D02*
X160681927Y-60305356D01*
X160681927Y-60305356D02*
X160700975Y-60267261D01*
X160700975Y-60267261D02*
X160720022Y-60248214D01*
X160720022Y-60248214D02*
X160758118Y-60229166D01*
X160758118Y-60229166D02*
X160815260Y-60229166D01*
X160815260Y-60229166D02*
X160853356Y-60248214D01*
X160853356Y-60248214D02*
X160872403Y-60267261D01*
X160872403Y-60267261D02*
X160891451Y-60305356D01*
X160891451Y-60305356D02*
X160891451Y-60457737D01*
X160815260Y-59886309D02*
X161081927Y-59886309D01*
X160662880Y-59981547D02*
X160948594Y-60076785D01*
X160948594Y-60076785D02*
X160948594Y-59829166D01*
X116281927Y-56866666D02*
X116091451Y-56999999D01*
X116281927Y-57095237D02*
X115881927Y-57095237D01*
X115881927Y-57095237D02*
X115881927Y-56942856D01*
X115881927Y-56942856D02*
X115900975Y-56904761D01*
X115900975Y-56904761D02*
X115920022Y-56885714D01*
X115920022Y-56885714D02*
X115958118Y-56866666D01*
X115958118Y-56866666D02*
X116015260Y-56866666D01*
X116015260Y-56866666D02*
X116053356Y-56885714D01*
X116053356Y-56885714D02*
X116072403Y-56904761D01*
X116072403Y-56904761D02*
X116091451Y-56942856D01*
X116091451Y-56942856D02*
X116091451Y-57095237D01*
X115920022Y-56714285D02*
X115900975Y-56695237D01*
X115900975Y-56695237D02*
X115881927Y-56657142D01*
X115881927Y-56657142D02*
X115881927Y-56561904D01*
X115881927Y-56561904D02*
X115900975Y-56523809D01*
X115900975Y-56523809D02*
X115920022Y-56504761D01*
X115920022Y-56504761D02*
X115958118Y-56485714D01*
X115958118Y-56485714D02*
X115996213Y-56485714D01*
X115996213Y-56485714D02*
X116053356Y-56504761D01*
X116053356Y-56504761D02*
X116281927Y-56733333D01*
X116281927Y-56733333D02*
X116281927Y-56485714D01*
D13*
X123138095Y-83854819D02*
X123709523Y-83854819D01*
X123423809Y-84854819D02*
X123423809Y-83854819D01*
X124042857Y-84854819D02*
X124042857Y-83854819D01*
X124042857Y-83854819D02*
X124423809Y-83854819D01*
X124423809Y-83854819D02*
X124519047Y-83902438D01*
X124519047Y-83902438D02*
X124566666Y-83950057D01*
X124566666Y-83950057D02*
X124614285Y-84045295D01*
X124614285Y-84045295D02*
X124614285Y-84188152D01*
X124614285Y-84188152D02*
X124566666Y-84283390D01*
X124566666Y-84283390D02*
X124519047Y-84331009D01*
X124519047Y-84331009D02*
X124423809Y-84378628D01*
X124423809Y-84378628D02*
X124042857Y-84378628D01*
X125566666Y-84854819D02*
X124995238Y-84854819D01*
X125280952Y-84854819D02*
X125280952Y-83854819D01*
X125280952Y-83854819D02*
X125185714Y-83997676D01*
X125185714Y-83997676D02*
X125090476Y-84092914D01*
X125090476Y-84092914D02*
X124995238Y-84140533D01*
D10*
X130522884Y-71549831D02*
X130506048Y-71549831D01*
X130506048Y-71549831D02*
X130472376Y-71532995D01*
X130472376Y-71532995D02*
X130455540Y-71516159D01*
X130455540Y-71516159D02*
X130438705Y-71482488D01*
X130438705Y-71482488D02*
X130438705Y-71448816D01*
X130438705Y-71448816D02*
X130447122Y-71423562D01*
X130447122Y-71423562D02*
X130472376Y-71381472D01*
X130472376Y-71381472D02*
X130497630Y-71356219D01*
X130497630Y-71356219D02*
X130539720Y-71330965D01*
X130539720Y-71330965D02*
X130564974Y-71322547D01*
X130564974Y-71322547D02*
X130598645Y-71322547D01*
X130598645Y-71322547D02*
X130632317Y-71339383D01*
X130632317Y-71339383D02*
X130649153Y-71356219D01*
X130649153Y-71356219D02*
X130665989Y-71389890D01*
X130665989Y-71389890D02*
X130665989Y-71406726D01*
X130674407Y-71735026D02*
X130573392Y-71634010D01*
X130623899Y-71684518D02*
X130800676Y-71507741D01*
X130800676Y-71507741D02*
X130758586Y-71516159D01*
X130758586Y-71516159D02*
X130724914Y-71516159D01*
X130724914Y-71516159D02*
X130699661Y-71507741D01*
X130842765Y-71903384D02*
X130741750Y-71802369D01*
X130792258Y-71852877D02*
X130969034Y-71676100D01*
X130969034Y-71676100D02*
X130926945Y-71684518D01*
X130926945Y-71684518D02*
X130893273Y-71684518D01*
X130893273Y-71684518D02*
X130868019Y-71676100D01*
D13*
X144677381Y-56904819D02*
X144772619Y-56904819D01*
X144772619Y-56904819D02*
X144867857Y-56952438D01*
X144867857Y-56952438D02*
X144915476Y-57000057D01*
X144915476Y-57000057D02*
X144963095Y-57095295D01*
X144963095Y-57095295D02*
X145010714Y-57285771D01*
X145010714Y-57285771D02*
X145010714Y-57523866D01*
X145010714Y-57523866D02*
X144963095Y-57714342D01*
X144963095Y-57714342D02*
X144915476Y-57809580D01*
X144915476Y-57809580D02*
X144867857Y-57857200D01*
X144867857Y-57857200D02*
X144772619Y-57904819D01*
X144772619Y-57904819D02*
X144677381Y-57904819D01*
X144677381Y-57904819D02*
X144582143Y-57857200D01*
X144582143Y-57857200D02*
X144534524Y-57809580D01*
X144534524Y-57809580D02*
X144486905Y-57714342D01*
X144486905Y-57714342D02*
X144439286Y-57523866D01*
X144439286Y-57523866D02*
X144439286Y-57285771D01*
X144439286Y-57285771D02*
X144486905Y-57095295D01*
X144486905Y-57095295D02*
X144534524Y-57000057D01*
X144534524Y-57000057D02*
X144582143Y-56952438D01*
X144582143Y-56952438D02*
X144677381Y-56904819D01*
D12*
X144403571Y-56027149D02*
X144236905Y-55789054D01*
X144117857Y-56027149D02*
X144117857Y-55527149D01*
X144117857Y-55527149D02*
X144308333Y-55527149D01*
X144308333Y-55527149D02*
X144355952Y-55550959D01*
X144355952Y-55550959D02*
X144379762Y-55574768D01*
X144379762Y-55574768D02*
X144403571Y-55622387D01*
X144403571Y-55622387D02*
X144403571Y-55693816D01*
X144403571Y-55693816D02*
X144379762Y-55741435D01*
X144379762Y-55741435D02*
X144355952Y-55765244D01*
X144355952Y-55765244D02*
X144308333Y-55789054D01*
X144308333Y-55789054D02*
X144117857Y-55789054D01*
X144879762Y-56027149D02*
X144594048Y-56027149D01*
X144736905Y-56027149D02*
X144736905Y-55527149D01*
X144736905Y-55527149D02*
X144689286Y-55598578D01*
X144689286Y-55598578D02*
X144641667Y-55646197D01*
X144641667Y-55646197D02*
X144594048Y-55670006D01*
X145046428Y-55527149D02*
X145355952Y-55527149D01*
X145355952Y-55527149D02*
X145189285Y-55717625D01*
X145189285Y-55717625D02*
X145260714Y-55717625D01*
X145260714Y-55717625D02*
X145308333Y-55741435D01*
X145308333Y-55741435D02*
X145332142Y-55765244D01*
X145332142Y-55765244D02*
X145355952Y-55812863D01*
X145355952Y-55812863D02*
X145355952Y-55931911D01*
X145355952Y-55931911D02*
X145332142Y-55979530D01*
X145332142Y-55979530D02*
X145308333Y-56003340D01*
X145308333Y-56003340D02*
X145260714Y-56027149D01*
X145260714Y-56027149D02*
X145117857Y-56027149D01*
X145117857Y-56027149D02*
X145070238Y-56003340D01*
X145070238Y-56003340D02*
X145046428Y-55979530D01*
D10*
X133322884Y-68749831D02*
X133306048Y-68749831D01*
X133306048Y-68749831D02*
X133272376Y-68732995D01*
X133272376Y-68732995D02*
X133255540Y-68716159D01*
X133255540Y-68716159D02*
X133238705Y-68682488D01*
X133238705Y-68682488D02*
X133238705Y-68648816D01*
X133238705Y-68648816D02*
X133247122Y-68623562D01*
X133247122Y-68623562D02*
X133272376Y-68581472D01*
X133272376Y-68581472D02*
X133297630Y-68556219D01*
X133297630Y-68556219D02*
X133339720Y-68530965D01*
X133339720Y-68530965D02*
X133364974Y-68522547D01*
X133364974Y-68522547D02*
X133398645Y-68522547D01*
X133398645Y-68522547D02*
X133432317Y-68539383D01*
X133432317Y-68539383D02*
X133449153Y-68556219D01*
X133449153Y-68556219D02*
X133465989Y-68589890D01*
X133465989Y-68589890D02*
X133465989Y-68606726D01*
X133474407Y-68935026D02*
X133373392Y-68834010D01*
X133423899Y-68884518D02*
X133600676Y-68707741D01*
X133600676Y-68707741D02*
X133558586Y-68716159D01*
X133558586Y-68716159D02*
X133524914Y-68716159D01*
X133524914Y-68716159D02*
X133499661Y-68707741D01*
X133710109Y-68817174D02*
X133819542Y-68926608D01*
X133819542Y-68926608D02*
X133693273Y-68935026D01*
X133693273Y-68935026D02*
X133718527Y-68960279D01*
X133718527Y-68960279D02*
X133726945Y-68985533D01*
X133726945Y-68985533D02*
X133726945Y-69002369D01*
X133726945Y-69002369D02*
X133718527Y-69027623D01*
X133718527Y-69027623D02*
X133676437Y-69069713D01*
X133676437Y-69069713D02*
X133651183Y-69078131D01*
X133651183Y-69078131D02*
X133634347Y-69078131D01*
X133634347Y-69078131D02*
X133609094Y-69069713D01*
X133609094Y-69069713D02*
X133558586Y-69019205D01*
X133558586Y-69019205D02*
X133550168Y-68993951D01*
X133550168Y-68993951D02*
X133550168Y-68977115D01*
D11*
X117791927Y-56841666D02*
X117601451Y-56974999D01*
X117791927Y-57070237D02*
X117391927Y-57070237D01*
X117391927Y-57070237D02*
X117391927Y-56917856D01*
X117391927Y-56917856D02*
X117410975Y-56879761D01*
X117410975Y-56879761D02*
X117430022Y-56860714D01*
X117430022Y-56860714D02*
X117468118Y-56841666D01*
X117468118Y-56841666D02*
X117525260Y-56841666D01*
X117525260Y-56841666D02*
X117563356Y-56860714D01*
X117563356Y-56860714D02*
X117582403Y-56879761D01*
X117582403Y-56879761D02*
X117601451Y-56917856D01*
X117601451Y-56917856D02*
X117601451Y-57070237D01*
X117791927Y-56460714D02*
X117791927Y-56689285D01*
X117791927Y-56574999D02*
X117391927Y-56574999D01*
X117391927Y-56574999D02*
X117449070Y-56613095D01*
X117449070Y-56613095D02*
X117487165Y-56651190D01*
X117487165Y-56651190D02*
X117506213Y-56689285D01*
X117591927Y-57160237D02*
X117591927Y-56372998D01*
D15*
X159450000Y-50212500D02*
X160450000Y-50212500D01*
X159450000Y-50712500D02*
X159450000Y-50212500D01*
X160450000Y-50212500D02*
X160450000Y-50712500D01*
X160450000Y-50712500D02*
X159450000Y-50712500D01*
X152900000Y-57525000D02*
X153700000Y-57525000D01*
X152900000Y-59125000D02*
X152900000Y-57525000D01*
X153700000Y-57525000D02*
X153700000Y-59125000D01*
X153700000Y-59125000D02*
X152900000Y-59125000D01*
X159150000Y-51262500D02*
X160750000Y-51262500D01*
X159150000Y-52062500D02*
X159150000Y-51262500D01*
X160750000Y-51262500D02*
X160750000Y-52062500D01*
X160750000Y-52062500D02*
X159150000Y-52062500D01*
X117000000Y-50500000D02*
G75*
G02*
X115000000Y-50500000I-1000000J0D01*
G01*
X115000000Y-50500000D02*
G75*
G02*
X117000000Y-50500000I1000000J0D01*
G01*
X117000000Y-50500000D02*
G75*
G02*
X115000000Y-50500000I-1000000J0D01*
G01*
X115000000Y-50500000D02*
G75*
G02*
X117000000Y-50500000I1000000J0D01*
G01*
X145669670Y-72076777D02*
X146376777Y-71369670D01*
X146023223Y-72430330D02*
X145669670Y-72076777D01*
X146376777Y-71369670D02*
X146730330Y-71723223D01*
X146730330Y-71723223D02*
X146023223Y-72430330D01*
X154765160Y-54260222D02*
X124185161Y-51620222D01*
X124174840Y-51739778D02*
G75*
G02*
X124185162Y-51620222I5161J59778D01*
G01*
X124174840Y-51739778D02*
X154754839Y-54379778D01*
X154754838Y-54379778D02*
G75*
G03*
X154765160Y-54260222I5161J59778D01*
G01*
X124185161Y-54379778D02*
X154765160Y-51739778D01*
X154754838Y-51620222D02*
G75*
G02*
X154765160Y-51739778I5161J-59778D01*
G01*
X154754839Y-51620222D02*
X124174840Y-54260222D01*
X124174840Y-54260222D02*
G75*
G03*
X124185162Y-54379778I5161J-59778D01*
G01*
X124230000Y-51780000D02*
X154710000Y-51780000D01*
X154710000Y-51680000D02*
G75*
G02*
X154710000Y-51780000I0J-50000D01*
G01*
X154710000Y-51680000D02*
X124230000Y-51680000D01*
X124230000Y-51680000D02*
G75*
G03*
X124230000Y-51780000I0J-50000D01*
G01*
X124280000Y-53635000D02*
X124280000Y-51730000D01*
X124180000Y-51730000D02*
G75*
G02*
X124280000Y-51730000I50000J0D01*
G01*
X124180000Y-51730000D02*
X124180000Y-53635000D01*
X124180000Y-53635000D02*
G75*
G03*
X124280000Y-53635000I50000J0D01*
G01*
X124900355Y-54234645D02*
X124265355Y-53599645D01*
X124194645Y-53670355D02*
G75*
G02*
X124265355Y-53599645I35355J35355D01*
G01*
X124194645Y-53670355D02*
X124829645Y-54305355D01*
X124829645Y-54305355D02*
G75*
G03*
X124900355Y-54234645I35355J35355D01*
G01*
X154660000Y-51730000D02*
X154660000Y-54270000D01*
X154760000Y-54270000D02*
G75*
G02*
X154660000Y-54270000I-50000J0D01*
G01*
X154760000Y-54270000D02*
X154760000Y-51730000D01*
X154760000Y-51730000D02*
G75*
G03*
X154660000Y-51730000I-50000J0D01*
G01*
X154710000Y-54220000D02*
X124865000Y-54220000D01*
X124865000Y-54320000D02*
G75*
G02*
X124865000Y-54220000I0J50000D01*
G01*
X124865000Y-54320000D02*
X154710000Y-54320000D01*
X154710000Y-54320000D02*
G75*
G03*
X154710000Y-54220000I0J50000D01*
G01*
X150430000Y-65175000D02*
X150970000Y-65175000D01*
X150430000Y-66225000D02*
X150430000Y-65175000D01*
X150970000Y-65175000D02*
X150970000Y-66225000D01*
X150970000Y-66225000D02*
X150430000Y-66225000D01*
X162500000Y-95500000D02*
G75*
G02*
X160500000Y-95500000I-1000000J0D01*
G01*
X160500000Y-95500000D02*
G75*
G02*
X162500000Y-95500000I1000000J0D01*
G01*
X162500000Y-95500000D02*
G75*
G02*
X160500000Y-95500000I-1000000J0D01*
G01*
X160500000Y-95500000D02*
G75*
G02*
X162500000Y-95500000I1000000J0D01*
G01*
X115500000Y-95500000D02*
G75*
G02*
X113500000Y-95500000I-1000000J0D01*
G01*
X113500000Y-95500000D02*
G75*
G02*
X115500000Y-95500000I1000000J0D01*
G01*
X115500000Y-95500000D02*
G75*
G02*
X113500000Y-95500000I-1000000J0D01*
G01*
X113500000Y-95500000D02*
G75*
G02*
X115500000Y-95500000I1000000J0D01*
G01*
X138269670Y-82323223D02*
X138623223Y-81969670D01*
X138623223Y-81969670D02*
X139330330Y-82676777D01*
X138976777Y-83030330D02*
X138269670Y-82323223D01*
X139330330Y-82676777D02*
X138976777Y-83030330D01*
X151300000Y-57525000D02*
X152100000Y-57525000D01*
X151300000Y-59125000D02*
X151300000Y-57525000D01*
X152100000Y-57525000D02*
X152100000Y-59125000D01*
X152100000Y-59125000D02*
X151300000Y-59125000D01*
X136951472Y-83717157D02*
X137517157Y-83151472D01*
X137517157Y-83151472D02*
X138648528Y-84282843D01*
X138082843Y-84848528D02*
X136951472Y-83717157D01*
X138648528Y-84282843D02*
X138082843Y-84848528D01*
X145322608Y-69050699D02*
X144961985Y-70316420D01*
X145077392Y-70349301D02*
G75*
G02*
X144961984Y-70316419I-57704J16441D01*
G01*
X145077392Y-70349301D02*
X145438015Y-69083580D01*
X145438016Y-69083581D02*
G75*
G03*
X145322608Y-69050699I-57704J16441D01*
G01*
X145816420Y-69461985D02*
X144550699Y-69822608D01*
X144583581Y-69938016D02*
G75*
G02*
X144550699Y-69822608I-16441J57704D01*
G01*
X144583580Y-69938015D02*
X145849301Y-69577392D01*
X145849301Y-69577392D02*
G75*
G03*
X145816419Y-69461984I-16441J57704D01*
G01*
X144673205Y-69915667D02*
X145415667Y-69173205D01*
X145344957Y-69102495D02*
G75*
G02*
X145415667Y-69173205I35355J-35355D01*
G01*
X145344957Y-69102495D02*
X144602495Y-69844957D01*
X144602495Y-69844957D02*
G75*
G03*
X144673205Y-69915667I35355J-35355D01*
G01*
X145055043Y-70226794D02*
X144673206Y-69844957D01*
X144602495Y-69915667D02*
G75*
G02*
X144673205Y-69844957I35355J35355D01*
G01*
X144602495Y-69915668D02*
X144984332Y-70297505D01*
X144984333Y-70297505D02*
G75*
G03*
X145055043Y-70226795I35355J35355D01*
G01*
X145344957Y-69173206D02*
X145726794Y-69555043D01*
X145797505Y-69484333D02*
G75*
G02*
X145726795Y-69555043I-35355J-35355D01*
G01*
X145797505Y-69484332D02*
X145415668Y-69102495D01*
X145415667Y-69102495D02*
G75*
G03*
X145344957Y-69173205I-35355J-35355D01*
G01*
X145726795Y-69484333D02*
X144984333Y-70226795D01*
X145055043Y-70297505D02*
G75*
G02*
X144984333Y-70226795I-35355J35355D01*
G01*
X145055043Y-70297505D02*
X145797505Y-69555043D01*
X145797505Y-69555043D02*
G75*
G03*
X145726795Y-69484333I-35355J35355D01*
G01*
X149130000Y-63475000D02*
X149670000Y-63475000D01*
X149130000Y-64525000D02*
X149130000Y-63475000D01*
X149670000Y-63475000D02*
X149670000Y-64525000D01*
X149670000Y-64525000D02*
X149130000Y-64525000D01*
X144769670Y-71176777D02*
X145476777Y-70469670D01*
X145123223Y-71530330D02*
X144769670Y-71176777D01*
X145476777Y-70469670D02*
X145830330Y-70823223D01*
X145830330Y-70823223D02*
X145123223Y-71530330D01*
X136100000Y-55175000D02*
X138100000Y-55175000D01*
X136100000Y-56425000D02*
X136100000Y-55175000D01*
X138100000Y-55175000D02*
X138100000Y-56425000D01*
X138100000Y-56425000D02*
X136100000Y-56425000D01*
X157037500Y-53362500D02*
X157862500Y-53362500D01*
X157037500Y-54962500D02*
X157037500Y-53362500D01*
X157862500Y-53362500D02*
X157862500Y-54962500D01*
X157862500Y-54962500D02*
X157037500Y-54962500D01*
X158800000Y-56937500D02*
X160800000Y-56937500D01*
X158800000Y-58187500D02*
X158800000Y-56937500D01*
X160800000Y-56937500D02*
X160800000Y-58187500D01*
X160800000Y-58187500D02*
X158800000Y-58187500D01*
X144700000Y-57500000D02*
X145500000Y-57500000D01*
X144700000Y-59100000D02*
X144700000Y-57500000D01*
X145500000Y-57500000D02*
X145500000Y-59100000D01*
X145500000Y-59100000D02*
X144700000Y-59100000D01*
X148100000Y-93950000D02*
X149100000Y-93950000D01*
X148100000Y-94450000D02*
X148100000Y-93950000D01*
X149100000Y-93950000D02*
X149100000Y-94450000D01*
X149100000Y-94450000D02*
X148100000Y-94450000D01*
X118650000Y-50700000D02*
X119150000Y-50700000D01*
X118650000Y-51700000D02*
X118650000Y-50700000D01*
X119150000Y-50700000D02*
X119150000Y-51700000D01*
X119150000Y-51700000D02*
X118650000Y-51700000D01*
X120200000Y-50700000D02*
X121800000Y-50700000D01*
X120200000Y-51500000D02*
X120200000Y-50700000D01*
X121800000Y-50700000D02*
X121800000Y-51500000D01*
X121800000Y-51500000D02*
X120200000Y-51500000D01*
X161529581Y-55297799D02*
X158529581Y-53597799D01*
X158470419Y-53702201D02*
G75*
G02*
X158529581Y-53597799I29581J52201D01*
G01*
X158470419Y-53702201D02*
X161470419Y-55402201D01*
X161470419Y-55402201D02*
G75*
G03*
X161529581Y-55297799I29581J52201D01*
G01*
X158529581Y-55402201D02*
X161529581Y-53702201D01*
X161470419Y-53597799D02*
G75*
G02*
X161529581Y-53702201I29581J-52201D01*
G01*
X161470419Y-53597799D02*
X158470419Y-55297799D01*
X158470419Y-55297799D02*
G75*
G03*
X158529581Y-55402201I29581J-52201D01*
G01*
X158950000Y-55350000D02*
X161450000Y-55350000D01*
X161450000Y-55250000D02*
G75*
G02*
X161450000Y-55350000I0J-50000D01*
G01*
X161450000Y-55250000D02*
X158950000Y-55250000D01*
X158950000Y-55250000D02*
G75*
G03*
X158950000Y-55350000I0J-50000D01*
G01*
X161500000Y-55300000D02*
X161500000Y-53700000D01*
X161400000Y-53700000D02*
G75*
G02*
X161500000Y-53700000I50000J0D01*
G01*
X161400000Y-53700000D02*
X161400000Y-55300000D01*
X161400000Y-55300000D02*
G75*
G03*
X161500000Y-55300000I50000J0D01*
G01*
X161450000Y-53650000D02*
X158550000Y-53650000D01*
X158550000Y-53750000D02*
G75*
G02*
X158550000Y-53650000I0J50000D01*
G01*
X158550000Y-53750000D02*
X161450000Y-53750000D01*
X161450000Y-53750000D02*
G75*
G03*
X161450000Y-53650000I0J50000D01*
G01*
X158500000Y-53700000D02*
X158500000Y-54900000D01*
X158600000Y-54900000D02*
G75*
G02*
X158500000Y-54900000I-50000J0D01*
G01*
X158600000Y-54900000D02*
X158600000Y-53700000D01*
X158600000Y-53700000D02*
G75*
G03*
X158500000Y-53700000I-50000J0D01*
G01*
X158514645Y-54935356D02*
X158914644Y-55335355D01*
X158985354Y-55264644D02*
G75*
G02*
X158914644Y-55335354I-35355J-35355D01*
G01*
X158985355Y-55264644D02*
X158585356Y-54864645D01*
X158585356Y-54864646D02*
G75*
G03*
X158514646Y-54935356I-35355J-35355D01*
G01*
X135851472Y-85117157D02*
X136417157Y-84551472D01*
X136417157Y-84551472D02*
X137548528Y-85682843D01*
X136982843Y-86248528D02*
X135851472Y-85117157D01*
X137548528Y-85682843D02*
X136982843Y-86248528D01*
X140700000Y-57425000D02*
X141500000Y-57425000D01*
X140700000Y-59025000D02*
X140700000Y-57425000D01*
X141500000Y-57425000D02*
X141500000Y-59025000D01*
X141500000Y-59025000D02*
X140700000Y-59025000D01*
X118915203Y-54521323D02*
X117990203Y-52821323D01*
X117884797Y-52878677D02*
G75*
G02*
X117990203Y-52821323I52703J28677D01*
G01*
X117884797Y-52878677D02*
X118809797Y-54578677D01*
X118809797Y-54578677D02*
G75*
G03*
X118915203Y-54521323I52703J28677D01*
G01*
X117990203Y-54578677D02*
X118915203Y-52878677D01*
X118809797Y-52821323D02*
G75*
G02*
X118915203Y-52878677I52703J-28677D01*
G01*
X118809797Y-52821323D02*
X117884797Y-54521323D01*
X117884797Y-54521323D02*
G75*
G03*
X117990203Y-54578677I52703J-28677D01*
G01*
X117987500Y-52950000D02*
X118812500Y-52950000D01*
X118812500Y-52850000D02*
G75*
G02*
X118812500Y-52950000I0J-50000D01*
G01*
X118812500Y-52850000D02*
X117987500Y-52850000D01*
X117987500Y-52850000D02*
G75*
G03*
X117987500Y-52950000I0J-50000D01*
G01*
X118037500Y-54500000D02*
X118037500Y-52900000D01*
X117937500Y-52900000D02*
G75*
G02*
X118037500Y-52900000I50000J0D01*
G01*
X117937500Y-52900000D02*
X117937500Y-54500000D01*
X117937500Y-54500000D02*
G75*
G03*
X118037500Y-54500000I50000J0D01*
G01*
X118762500Y-52900000D02*
X118762500Y-54500000D01*
X118862500Y-54500000D02*
G75*
G02*
X118762500Y-54500000I-50000J0D01*
G01*
X118862500Y-54500000D02*
X118862500Y-52900000D01*
X118862500Y-52900000D02*
G75*
G03*
X118762500Y-52900000I-50000J0D01*
G01*
X118812500Y-54450000D02*
X117987500Y-54450000D01*
X117987500Y-54550000D02*
G75*
G02*
X117987500Y-54450000I0J50000D01*
G01*
X117987500Y-54550000D02*
X118812500Y-54550000D01*
X118812500Y-54550000D02*
G75*
G03*
X118812500Y-54450000I0J50000D01*
G01*
X139969670Y-67276777D02*
X140676777Y-66569670D01*
X140323223Y-67630330D02*
X139969670Y-67276777D01*
X140676777Y-66569670D02*
X141030330Y-66923223D01*
X141030330Y-66923223D02*
X140323223Y-67630330D01*
X136451472Y-63317157D02*
X137017157Y-62751472D01*
X137017157Y-62751472D02*
X138148528Y-63882843D01*
X137582843Y-64448528D02*
X136451472Y-63317157D01*
X138148528Y-63882843D02*
X137582843Y-64448528D01*
X138900000Y-57425000D02*
X139700000Y-57425000D01*
X138900000Y-59025000D02*
X138900000Y-57425000D01*
X139700000Y-57425000D02*
X139700000Y-59025000D01*
X139700000Y-59025000D02*
X138900000Y-59025000D01*
X151500000Y-55175000D02*
X153500000Y-55175000D01*
X151500000Y-56425000D02*
X151500000Y-55175000D01*
X153500000Y-55175000D02*
X153500000Y-56425000D01*
X153500000Y-56425000D02*
X151500000Y-56425000D01*
X129669670Y-74123223D02*
X130023223Y-73769670D01*
X130023223Y-73769670D02*
X130730330Y-74476777D01*
X130376777Y-74830330D02*
X129669670Y-74123223D01*
X130730330Y-74476777D02*
X130376777Y-74830330D01*
X159915203Y-60983823D02*
X158990203Y-59283823D01*
X158884797Y-59341177D02*
G75*
G02*
X158990203Y-59283823I52703J28677D01*
G01*
X158884797Y-59341177D02*
X159809797Y-61041177D01*
X159809797Y-61041177D02*
G75*
G03*
X159915203Y-60983823I52703J28677D01*
G01*
X158990203Y-61041177D02*
X159915203Y-59341177D01*
X159809797Y-59283823D02*
G75*
G02*
X159915203Y-59341177I52703J-28677D01*
G01*
X159809797Y-59283823D02*
X158884797Y-60983823D01*
X158884797Y-60983823D02*
G75*
G03*
X158990203Y-61041177I52703J-28677D01*
G01*
X158987500Y-59412500D02*
X159812500Y-59412500D01*
X159812500Y-59312500D02*
G75*
G02*
X159812500Y-59412500I0J-50000D01*
G01*
X159812500Y-59312500D02*
X158987500Y-59312500D01*
X158987500Y-59312500D02*
G75*
G03*
X158987500Y-59412500I0J-50000D01*
G01*
X159037500Y-60962500D02*
X159037500Y-59362500D01*
X158937500Y-59362500D02*
G75*
G02*
X159037500Y-59362500I50000J0D01*
G01*
X158937500Y-59362500D02*
X158937500Y-60962500D01*
X158937500Y-60962500D02*
G75*
G03*
X159037500Y-60962500I50000J0D01*
G01*
X159762500Y-59362500D02*
X159762500Y-60962500D01*
X159862500Y-60962500D02*
G75*
G02*
X159762500Y-60962500I-50000J0D01*
G01*
X159862500Y-60962500D02*
X159862500Y-59362500D01*
X159862500Y-59362500D02*
G75*
G03*
X159762500Y-59362500I-50000J0D01*
G01*
X159812500Y-60912500D02*
X158987500Y-60912500D01*
X158987500Y-61012500D02*
G75*
G02*
X158987500Y-60912500I0J50000D01*
G01*
X158987500Y-61012500D02*
X159812500Y-61012500D01*
X159812500Y-61012500D02*
G75*
G03*
X159812500Y-60912500I0J50000D01*
G01*
X153627572Y-95054178D02*
X154267572Y-96204177D01*
X154372428Y-96145823D02*
G75*
G02*
X154267572Y-96204177I-52428J-29177D01*
G01*
X154372428Y-96145822D02*
X153732428Y-94995823D01*
X153732428Y-94995823D02*
G75*
G03*
X153627572Y-95054177I-52428J-29177D01*
G01*
X154267572Y-94995823D02*
X153627572Y-96145822D01*
X153732428Y-96204177D02*
G75*
G02*
X153627572Y-96145823I-52428J29177D01*
G01*
X153732428Y-96204177D02*
X154372428Y-95054178D01*
X154372428Y-95054177D02*
G75*
G03*
X154267572Y-94995823I-52428J29177D01*
G01*
X153730000Y-95125000D02*
X154270000Y-95125000D01*
X154270000Y-95025000D02*
G75*
G02*
X154270000Y-95125000I0J-50000D01*
G01*
X154270000Y-95025000D02*
X153730000Y-95025000D01*
X153730000Y-95025000D02*
G75*
G03*
X153730000Y-95125000I0J-50000D01*
G01*
X153780000Y-96125000D02*
X153780000Y-95075000D01*
X153680000Y-95075000D02*
G75*
G02*
X153780000Y-95075000I50000J0D01*
G01*
X153680000Y-95075000D02*
X153680000Y-96125000D01*
X153680000Y-96125000D02*
G75*
G03*
X153780000Y-96125000I50000J0D01*
G01*
X154220000Y-95075000D02*
X154220000Y-96125000D01*
X154320000Y-96125000D02*
G75*
G02*
X154220000Y-96125000I-50000J0D01*
G01*
X154320000Y-96125000D02*
X154320000Y-95075000D01*
X154320000Y-95075000D02*
G75*
G03*
X154220000Y-95075000I-50000J0D01*
G01*
X154270000Y-96075000D02*
X153730000Y-96075000D01*
X153730000Y-96175000D02*
G75*
G02*
X153730000Y-96075000I0J50000D01*
G01*
X153730000Y-96175000D02*
X154270000Y-96175000D01*
X154270000Y-96175000D02*
G75*
G03*
X154270000Y-96075000I0J50000D01*
G01*
X147730000Y-65275000D02*
X148270000Y-65275000D01*
X147730000Y-66325000D02*
X147730000Y-65275000D01*
X148270000Y-65275000D02*
X148270000Y-66325000D01*
X148270000Y-66325000D02*
X147730000Y-66325000D01*
X152327572Y-94254178D02*
X152967572Y-95404177D01*
X153072428Y-95345823D02*
G75*
G02*
X152967572Y-95404177I-52428J-29177D01*
G01*
X153072428Y-95345822D02*
X152432428Y-94195823D01*
X152432428Y-94195823D02*
G75*
G03*
X152327572Y-94254177I-52428J-29177D01*
G01*
X152967572Y-94195823D02*
X152327572Y-95345822D01*
X152432428Y-95404177D02*
G75*
G02*
X152327572Y-95345823I-52428J29177D01*
G01*
X152432428Y-95404177D02*
X153072428Y-94254178D01*
X153072428Y-94254177D02*
G75*
G03*
X152967572Y-94195823I-52428J29177D01*
G01*
X152430000Y-94325000D02*
X152970000Y-94325000D01*
X152970000Y-94225000D02*
G75*
G02*
X152970000Y-94325000I0J-50000D01*
G01*
X152970000Y-94225000D02*
X152430000Y-94225000D01*
X152430000Y-94225000D02*
G75*
G03*
X152430000Y-94325000I0J-50000D01*
G01*
X152480000Y-95325000D02*
X152480000Y-94275000D01*
X152380000Y-94275000D02*
G75*
G02*
X152480000Y-94275000I50000J0D01*
G01*
X152380000Y-94275000D02*
X152380000Y-95325000D01*
X152380000Y-95325000D02*
G75*
G03*
X152480000Y-95325000I50000J0D01*
G01*
X152920000Y-94275000D02*
X152920000Y-95325000D01*
X153020000Y-95325000D02*
G75*
G02*
X152920000Y-95325000I-50000J0D01*
G01*
X153020000Y-95325000D02*
X153020000Y-94275000D01*
X153020000Y-94275000D02*
G75*
G03*
X152920000Y-94275000I-50000J0D01*
G01*
X152970000Y-95275000D02*
X152430000Y-95275000D01*
X152430000Y-95375000D02*
G75*
G02*
X152430000Y-95275000I0J50000D01*
G01*
X152430000Y-95375000D02*
X152970000Y-95375000D01*
X152970000Y-95375000D02*
G75*
G03*
X152970000Y-95275000I0J50000D01*
G01*
X146500000Y-57500000D02*
X147300000Y-57500000D01*
X146500000Y-59100000D02*
X146500000Y-57500000D01*
X147300000Y-57500000D02*
X147300000Y-59100000D01*
X147300000Y-59100000D02*
X146500000Y-59100000D01*
X142269670Y-78323223D02*
X142623223Y-77969670D01*
X142623223Y-77969670D02*
X143330330Y-78676777D01*
X142976777Y-79030330D02*
X142269670Y-78323223D01*
X143330330Y-78676777D02*
X142976777Y-79030330D01*
X144363961Y-74000000D02*
X138707107Y-79656854D01*
X137292893Y-79656854D01*
X131636039Y-74000000D01*
X138000000Y-67636039D01*
X144363961Y-74000000D01*
X120100000Y-56475000D02*
X122100000Y-56475000D01*
X120100000Y-57725000D02*
X120100000Y-56475000D01*
X122100000Y-56475000D02*
X122100000Y-57725000D01*
X122100000Y-57725000D02*
X120100000Y-57725000D01*
X147721151Y-97137175D02*
X150821150Y-95037175D01*
X150753849Y-94937825D02*
G75*
G02*
X150821151Y-95037175I33651J-49675D01*
G01*
X150753849Y-94937825D02*
X147653850Y-97037825D01*
X147653849Y-97037825D02*
G75*
G03*
X147721151Y-97137175I33651J-49675D01*
G01*
X147653850Y-95037175D02*
X150753849Y-97137175D01*
X150821151Y-97037825D02*
G75*
G02*
X150753849Y-97137175I-33651J-49675D01*
G01*
X150821150Y-97037825D02*
X147721151Y-94937825D01*
X147721151Y-94937825D02*
G75*
G03*
X147653849Y-95037175I-33651J-49675D01*
G01*
X147772856Y-95572855D02*
X148272855Y-95072856D01*
X148202145Y-95002145D02*
G75*
G02*
X148272855Y-95072855I35355J-35355D01*
G01*
X148202144Y-95002145D02*
X147702145Y-95502144D01*
X147702145Y-95502145D02*
G75*
G03*
X147772855Y-95572855I35355J-35355D01*
G01*
X147787500Y-97037500D02*
X147787500Y-95537500D01*
X147687500Y-95537500D02*
G75*
G02*
X147787500Y-95537500I50000J0D01*
G01*
X147687500Y-95537500D02*
X147687500Y-97037500D01*
X147687500Y-97037500D02*
G75*
G03*
X147787500Y-97037500I50000J0D01*
G01*
X148237500Y-95087500D02*
X150737500Y-95087500D01*
X150737500Y-94987500D02*
G75*
G02*
X150737500Y-95087500I0J-50000D01*
G01*
X150737500Y-94987500D02*
X148237500Y-94987500D01*
X148237500Y-94987500D02*
G75*
G03*
X148237500Y-95087500I0J-50000D01*
G01*
X150687500Y-95037500D02*
X150687500Y-97037500D01*
X150787500Y-97037500D02*
G75*
G02*
X150687500Y-97037500I-50000J0D01*
G01*
X150787500Y-97037500D02*
X150787500Y-95037500D01*
X150787500Y-95037500D02*
G75*
G03*
X150687500Y-95037500I-50000J0D01*
G01*
X150737500Y-96987500D02*
X147737500Y-96987500D01*
X147737500Y-97087500D02*
G75*
G02*
X147737500Y-96987500I0J50000D01*
G01*
X147737500Y-97087500D02*
X150737500Y-97087500D01*
X150737500Y-97087500D02*
G75*
G03*
X150737500Y-96987500I0J50000D01*
G01*
X135669670Y-81776777D02*
X136376777Y-81069670D01*
X136023223Y-82130330D02*
X135669670Y-81776777D01*
X136376777Y-81069670D02*
X136730330Y-81423223D01*
X136730330Y-81423223D02*
X136023223Y-82130330D01*
X122450000Y-54800000D02*
X119950000Y-54800000D01*
X119550000Y-54400000D01*
X119550000Y-53200000D01*
X122450000Y-53200000D01*
X122450000Y-54800000D01*
X160487500Y-59362500D02*
X161312500Y-59362500D01*
X160487500Y-60962500D02*
X160487500Y-59362500D01*
X161312500Y-59362500D02*
X161312500Y-60962500D01*
X161312500Y-60962500D02*
X160487500Y-60962500D01*
X115687500Y-56000000D02*
X116512500Y-56000000D01*
X115687500Y-57600000D02*
X115687500Y-56000000D01*
X116512500Y-56000000D02*
X116512500Y-57600000D01*
X116512500Y-57600000D02*
X115687500Y-57600000D01*
X130169670Y-71423223D02*
X130523223Y-71069670D01*
X130523223Y-71069670D02*
X131230330Y-71776777D01*
X130876777Y-72130330D02*
X130169670Y-71423223D01*
X131230330Y-71776777D02*
X130876777Y-72130330D01*
X143725000Y-55175000D02*
X145725000Y-55175000D01*
X143725000Y-56425000D02*
X143725000Y-55175000D01*
X145725000Y-55175000D02*
X145725000Y-56425000D01*
X145725000Y-56425000D02*
X143725000Y-56425000D01*
X132969670Y-68623223D02*
X133323223Y-68269670D01*
X133323223Y-68269670D02*
X134030330Y-68976777D01*
X133676777Y-69330330D02*
X132969670Y-68623223D01*
X134030330Y-68976777D02*
X133676777Y-69330330D01*
X117094797Y-55953677D02*
X118019797Y-57653677D01*
X118125203Y-57596323D02*
G75*
G02*
X118019797Y-57653677I-52703J-28677D01*
G01*
X118125203Y-57596323D02*
X117200203Y-55896323D01*
X117200203Y-55896323D02*
G75*
G03*
X117094797Y-55953677I-52703J-28677D01*
G01*
X118019797Y-55896323D02*
X117094797Y-57596323D01*
X117200203Y-57653677D02*
G75*
G02*
X117094797Y-57596323I-52703J28677D01*
G01*
X117200203Y-57653677D02*
X118125203Y-55953677D01*
X118125203Y-55953677D02*
G75*
G03*
X118019797Y-55896323I-52703J28677D01*
G01*
X117197500Y-56025000D02*
X118022500Y-56025000D01*
X118022500Y-55925000D02*
G75*
G02*
X118022500Y-56025000I0J-50000D01*
G01*
X118022500Y-55925000D02*
X117197500Y-55925000D01*
X117197500Y-55925000D02*
G75*
G03*
X117197500Y-56025000I0J-50000D01*
G01*
X117247500Y-57575000D02*
X117247500Y-55975000D01*
X117147500Y-55975000D02*
G75*
G02*
X117247500Y-55975000I50000J0D01*
G01*
X117147500Y-55975000D02*
X117147500Y-57575000D01*
X117147500Y-57575000D02*
G75*
G03*
X117247500Y-57575000I50000J0D01*
G01*
X117972500Y-55975000D02*
X117972500Y-57575000D01*
X118072500Y-57575000D02*
G75*
G02*
X117972500Y-57575000I-50000J0D01*
G01*
X118072500Y-57575000D02*
X118072500Y-55975000D01*
X118072500Y-55975000D02*
G75*
G03*
X117972500Y-55975000I-50000J0D01*
G01*
X118022500Y-57525000D02*
X117197500Y-57525000D01*
X117197500Y-57625000D02*
G75*
G02*
X117197500Y-57525000I0J50000D01*
G01*
X117197500Y-57625000D02*
X118022500Y-57625000D01*
X118022500Y-57625000D02*
G75*
G03*
X118022500Y-57525000I0J50000D01*
G01*
X114702494Y-49203750D02*
X117294998Y-51796249D01*
X114702494Y-51796249D02*
X117294998Y-49203750D01*
X123685000Y-51185000D02*
X155255000Y-54815000D01*
X123685000Y-54815000D02*
X155255000Y-51185000D01*
X160202494Y-94203750D02*
X162794998Y-96796249D01*
X160202494Y-96796249D02*
X162794998Y-94203750D01*
X113202494Y-94203750D02*
X115794998Y-96796249D01*
X113202494Y-96796249D02*
X115794998Y-94203750D01*
X144167123Y-68667123D02*
X146232877Y-70732877D01*
X144167123Y-70732877D02*
X146232877Y-68667123D01*
X158255000Y-52405000D02*
X161745000Y-56595000D01*
X158255000Y-56595000D02*
X161745000Y-52405000D01*
X117625000Y-52175000D02*
X119175000Y-55225000D01*
X117625000Y-55225000D02*
X119175000Y-52175000D01*
X158625000Y-58637500D02*
X160175000Y-61687500D01*
X158625000Y-61687500D02*
X160175000Y-58637500D01*
X153485000Y-94625000D02*
X154515000Y-96575000D01*
X153485000Y-96575000D02*
X154515000Y-94625000D01*
X152185000Y-93825000D02*
X153215000Y-95775000D01*
X152185000Y-95775000D02*
X153215000Y-93825000D01*
X147092500Y-94692500D02*
X151382500Y-97382500D01*
X147092500Y-97382500D02*
X151382500Y-94692500D01*
X116835000Y-55250000D02*
X118385000Y-58300000D01*
X116835000Y-58300000D02*
X118385000Y-55250000D01*
M02*
