G04 #@! TF.GenerationSoftware,KiCad,Pcbnew,9.0.6-9.0.6~ubuntu24.04.1*
G04 #@! TF.CreationDate,2025-12-22T13:13:51-05:00*
G04 #@! TF.ProjectId,breakout-sky-qfn,62726561-6b6f-4757-942d-736b792d7166,3.2*
G04 #@! TF.SameCoordinates,PX6bc3e40PY5e69ec0*
G04 #@! TF.FileFunction,Soldermask,Top*
G04 #@! TF.FilePolarity,Negative*
%FSLAX46Y46*%
G04 Gerber Fmt 4.6, Leading zero omitted, Abs format (unit mm)*
G04 Created by KiCad (PCBNEW 9.0.6-9.0.6~ubuntu24.04.1) date 2025-12-22 13:13:51*
%MOMM*%
%LPD*%
G01*
G04 APERTURE LIST*
G04 Aperture macros list*
%AMRoundRect*
0 Rectangle with rounded corners*
0 $1 Rounding radius*
0 $2 $3 $4 $5 $6 $7 $8 $9 X,Y pos of 4 corners*
0 Add a 4 corners polygon primitive as box body*
4,1,4,$2,$3,$4,$5,$6,$7,$8,$9,$2,$3,0*
0 Add four circle primitives for the rounded corners*
1,1,$1+$1,$2,$3*
1,1,$1+$1,$4,$5*
1,1,$1+$1,$6,$7*
1,1,$1+$1,$8,$9*
0 Add four rect primitives between the rounded corners*
20,1,$1+$1,$2,$3,$4,$5,0*
20,1,$1+$1,$4,$5,$6,$7,0*
20,1,$1+$1,$6,$7,$8,$9,0*
20,1,$1+$1,$8,$9,$2,$3,0*%
%AMRotRect*
0 Rectangle, with rotation*
0 The origin of the aperture is its center*
0 $1 length*
0 $2 width*
0 $3 Rotation angle, in degrees counterclockwise*
0 Add horizontal line*
21,1,$1,$2,0,0,$3*%
G04 Aperture macros list end*
%ADD10RoundRect,0.140000X-0.140000X-0.170000X0.140000X-0.170000X0.140000X0.170000X-0.140000X0.170000X0*%
%ADD11RoundRect,0.225000X-0.250000X0.225000X-0.250000X-0.225000X0.250000X-0.225000X0.250000X0.225000X0*%
%ADD12RoundRect,0.225000X-0.225000X-0.250000X0.225000X-0.250000X0.225000X0.250000X-0.225000X0.250000X0*%
%ADD13C,2.000000*%
%ADD14RoundRect,0.140000X0.021213X-0.219203X0.219203X-0.021213X-0.021213X0.219203X-0.219203X0.021213X0*%
%ADD15R,1.700000X1.700000*%
%ADD16C,1.700000*%
%ADD17RoundRect,0.135000X-0.185000X0.135000X-0.185000X-0.135000X0.185000X-0.135000X0.185000X0.135000X0*%
%ADD18RoundRect,0.140000X0.219203X0.021213X0.021213X0.219203X-0.219203X-0.021213X-0.021213X-0.219203X0*%
%ADD19C,1.000000*%
%ADD20RoundRect,0.225000X-0.335876X-0.017678X-0.017678X-0.335876X0.335876X0.017678X0.017678X0.335876X0*%
%ADD21RoundRect,0.135000X-0.035355X0.226274X-0.226274X0.035355X0.035355X-0.226274X0.226274X-0.035355X0*%
%ADD22RoundRect,0.135000X0.185000X-0.135000X0.185000X0.135000X-0.185000X0.135000X-0.185000X-0.135000X0*%
%ADD23RoundRect,0.140000X-0.021213X0.219203X-0.219203X0.021213X0.021213X-0.219203X0.219203X-0.021213X0*%
%ADD24RoundRect,0.250000X-0.262500X-0.450000X0.262500X-0.450000X0.262500X0.450000X-0.262500X0.450000X0*%
%ADD25RoundRect,0.200000X0.275000X-0.200000X0.275000X0.200000X-0.275000X0.200000X-0.275000X-0.200000X0*%
%ADD26RoundRect,0.250000X-0.250000X-0.475000X0.250000X-0.475000X0.250000X0.475000X-0.250000X0.475000X0*%
%ADD27RoundRect,0.140000X0.170000X-0.140000X0.170000X0.140000X-0.170000X0.140000X-0.170000X-0.140000X0*%
%ADD28RoundRect,0.150000X0.150000X-0.512500X0.150000X0.512500X-0.150000X0.512500X-0.150000X-0.512500X0*%
%ADD29RoundRect,0.225000X0.335876X0.017678X0.017678X0.335876X-0.335876X-0.017678X-0.017678X-0.335876X0*%
%ADD30RoundRect,0.140000X-0.219203X-0.021213X-0.021213X-0.219203X0.219203X0.021213X0.021213X0.219203X0*%
%ADD31RoundRect,0.062500X0.300520X-0.212132X-0.212132X0.300520X-0.300520X0.212132X0.212132X-0.300520X0*%
%ADD32RoundRect,0.062500X0.300520X0.212132X0.212132X0.300520X-0.300520X-0.212132X-0.212132X-0.300520X0*%
%ADD33RotRect,7.650000X7.650000X135.000000*%
%ADD34R,0.710000X0.580000*%
%ADD35R,0.750000X0.300000*%
%ADD36R,1.750000X1.450000*%
%ADD37RoundRect,0.200000X-0.275000X0.200000X-0.275000X-0.200000X0.275000X-0.200000X0.275000X0.200000X0*%
G04 APERTURE END LIST*
D10*
X159470000Y-50462500D03*
X160430000Y-50462500D03*
D11*
X153300000Y-57550000D03*
X153300000Y-59100000D03*
D12*
X159175000Y-51662500D03*
X160725000Y-51662500D03*
D13*
X116000000Y-50500000D03*
D14*
X145860589Y-72239411D03*
X146539411Y-71560589D03*
D15*
X125500000Y-53000000D03*
D16*
X128040000Y-53000000D03*
X130580000Y-53000000D03*
X133120000Y-53000000D03*
X135660000Y-53000000D03*
X138200000Y-53000000D03*
X140740000Y-53000000D03*
X143280000Y-53000000D03*
X145820000Y-53000000D03*
X148360000Y-53000000D03*
X150900000Y-53000000D03*
X153440000Y-53000000D03*
D17*
X150700000Y-65190000D03*
X150700000Y-66210000D03*
D13*
X161500000Y-95500000D03*
X114500000Y-95500000D03*
D18*
X139139411Y-82839411D03*
X138460589Y-82160589D03*
D11*
X151700000Y-57550000D03*
X151700000Y-59100000D03*
D19*
X121400000Y-84300000D03*
D20*
X137251992Y-83451992D03*
X138348008Y-84548008D03*
D21*
X145560624Y-69339376D03*
X144839376Y-70060624D03*
D22*
X149400000Y-64510000D03*
X149400000Y-63490000D03*
D23*
X145639411Y-70660589D03*
X144960589Y-71339411D03*
D24*
X136187500Y-55800000D03*
X138012500Y-55800000D03*
D25*
X157450000Y-54987500D03*
X157450000Y-53337500D03*
D26*
X158850000Y-57562500D03*
X160750000Y-57562500D03*
D11*
X145100000Y-57525000D03*
X145100000Y-59075000D03*
D19*
X126900000Y-55000000D03*
D10*
X148120000Y-94200000D03*
X149080000Y-94200000D03*
D27*
X118900000Y-51680000D03*
X118900000Y-50720000D03*
D19*
X116500000Y-62100000D03*
D12*
X120225000Y-51100000D03*
X121775000Y-51100000D03*
D28*
X159050000Y-55637500D03*
X160000000Y-55637500D03*
X160950000Y-55637500D03*
X160950000Y-53362500D03*
X159050000Y-53362500D03*
D20*
X136151992Y-84851992D03*
X137248008Y-85948008D03*
D11*
X141100000Y-57450000D03*
X141100000Y-59000000D03*
D25*
X118400000Y-54525000D03*
X118400000Y-52875000D03*
D23*
X140839411Y-66760589D03*
X140160589Y-67439411D03*
D29*
X137848008Y-64148008D03*
X136751992Y-63051992D03*
D11*
X139300000Y-57450000D03*
X139300000Y-59000000D03*
D24*
X151587500Y-55800000D03*
X153412500Y-55800000D03*
D18*
X130539411Y-74639411D03*
X129860589Y-73960589D03*
D25*
X159400000Y-60987500D03*
X159400000Y-59337500D03*
D17*
X154000000Y-95090000D03*
X154000000Y-96110000D03*
X148000000Y-65290000D03*
X148000000Y-66310000D03*
X152700000Y-94290000D03*
X152700000Y-95310000D03*
D11*
X146900000Y-57525000D03*
X146900000Y-59075000D03*
D30*
X142460589Y-78160589D03*
X143139411Y-78839411D03*
D31*
X138494975Y-79798276D03*
X138848528Y-79444722D03*
X139202082Y-79091169D03*
X139555635Y-78737615D03*
X139909188Y-78384062D03*
X140262742Y-78030509D03*
X140616295Y-77676955D03*
X140969848Y-77323402D03*
X141323402Y-76969848D03*
X141676955Y-76616295D03*
X142030509Y-76262742D03*
X142384062Y-75909188D03*
X142737615Y-75555635D03*
X143091169Y-75202082D03*
X143444722Y-74848528D03*
X143798276Y-74494975D03*
D32*
X143798276Y-73505025D03*
X143444722Y-73151472D03*
X143091169Y-72797918D03*
X142737615Y-72444365D03*
X142384062Y-72090812D03*
X142030509Y-71737258D03*
X141676955Y-71383705D03*
X141323402Y-71030152D03*
X140969848Y-70676598D03*
X140616295Y-70323045D03*
X140262742Y-69969491D03*
X139909188Y-69615938D03*
X139555635Y-69262385D03*
X139202082Y-68908831D03*
X138848528Y-68555278D03*
X138494975Y-68201724D03*
D31*
X137505025Y-68201724D03*
X137151472Y-68555278D03*
X136797918Y-68908831D03*
X136444365Y-69262385D03*
X136090812Y-69615938D03*
X135737258Y-69969491D03*
X135383705Y-70323045D03*
X135030152Y-70676598D03*
X134676598Y-71030152D03*
X134323045Y-71383705D03*
X133969491Y-71737258D03*
X133615938Y-72090812D03*
X133262385Y-72444365D03*
X132908831Y-72797918D03*
X132555278Y-73151472D03*
X132201724Y-73505025D03*
D32*
X132201724Y-74494975D03*
X132555278Y-74848528D03*
X132908831Y-75202082D03*
X133262385Y-75555635D03*
X133615938Y-75909188D03*
X133969491Y-76262742D03*
X134323045Y-76616295D03*
X134676598Y-76969848D03*
X135030152Y-77323402D03*
X135383705Y-77676955D03*
X135737258Y-78030509D03*
X136090812Y-78384062D03*
X136444365Y-78737615D03*
X136797918Y-79091169D03*
X137151472Y-79444722D03*
X137505025Y-79798276D03*
D33*
X138000000Y-74000000D03*
D26*
X120150000Y-57100000D03*
X122050000Y-57100000D03*
D34*
X148800000Y-95675000D03*
X148800000Y-96400000D03*
X149675000Y-95675000D03*
X149675000Y-96400000D03*
D35*
X147787500Y-95287500D03*
X147787500Y-95787500D03*
X147787500Y-96287500D03*
X147787500Y-96787500D03*
X150687500Y-96787500D03*
X150687500Y-96287500D03*
X150687500Y-95787500D03*
X150687500Y-95287500D03*
D36*
X149237500Y-96037500D03*
D14*
X135860589Y-81939411D03*
X136539411Y-81260589D03*
D28*
X120050000Y-55137500D03*
X121000000Y-55137500D03*
X121950000Y-55137500D03*
X121950000Y-52862500D03*
X120050000Y-52862500D03*
D25*
X160900000Y-60987500D03*
X160900000Y-59337500D03*
D37*
X116100000Y-55975000D03*
X116100000Y-57625000D03*
D19*
X123600000Y-84300000D03*
D30*
X130360589Y-71260589D03*
X131039411Y-71939411D03*
D24*
X143812500Y-55800000D03*
X145637500Y-55800000D03*
D30*
X133160589Y-68460589D03*
X133839411Y-69139411D03*
D37*
X117610000Y-55950000D03*
X117610000Y-57600000D03*
M02*
