G04 #@! TF.GenerationSoftware,KiCad,Pcbnew,9.0.6-9.0.6~ubuntu24.04.1*
G04 #@! TF.CreationDate,2025-12-10T18:40:26-05:00*
G04 #@! TF.ProjectId,ttdbv3-fpga-ICE40UP5k,74746462-7633-42d6-9670-67612d494345,2.0*
G04 #@! TF.SameCoordinates,PX2160ec0PY4d3f640*
G04 #@! TF.FileFunction,AssemblyDrawing,Top*
%FSLAX45Y45*%
G04 Gerber Fmt 4.5, Leading zero omitted, Abs format (unit mm)*
G04 Created by KiCad (PCBNEW 9.0.6-9.0.6~ubuntu24.04.1) date 2025-12-10 18:40:26*
%MOMM*%
%LPD*%
G01*
G04 APERTURE LIST*
%ADD10C,0.150000*%
%ADD11C,0.060000*%
%ADD12C,0.040000*%
%ADD13C,0.075000*%
%ADD14C,0.125000*%
%ADD15C,0.100000*%
%ADD16C,0.127000*%
%ADD17C,0.200000*%
G04 APERTURE END LIST*
D10*
X2407575Y1584675D02*
X2464817Y1527433D01*
X2464817Y1527433D02*
X2474919Y1524066D01*
X2474919Y1524066D02*
X2481653Y1524066D01*
X2481653Y1524066D02*
X2491754Y1527433D01*
X2491754Y1527433D02*
X2505223Y1540902D01*
X2505223Y1540902D02*
X2508590Y1551004D01*
X2508590Y1551004D02*
X2508590Y1557738D01*
X2508590Y1557738D02*
X2505223Y1567839D01*
X2505223Y1567839D02*
X2447981Y1625081D01*
X2589403Y1625081D02*
X2548996Y1584675D01*
X2569199Y1604878D02*
X2498489Y1675589D01*
X2498489Y1675589D02*
X2501856Y1658753D01*
X2501856Y1658753D02*
X2501856Y1645284D01*
X2501856Y1645284D02*
X2498489Y1635183D01*
D11*
X2045456Y1065116D02*
X2045456Y1062422D01*
X2045456Y1062422D02*
X2042763Y1057034D01*
X2042763Y1057034D02*
X2040069Y1054341D01*
X2040069Y1054341D02*
X2034681Y1051647D01*
X2034681Y1051647D02*
X2029294Y1051647D01*
X2029294Y1051647D02*
X2025253Y1052994D01*
X2025253Y1052994D02*
X2018519Y1057034D01*
X2018519Y1057034D02*
X2014478Y1061075D01*
X2014478Y1061075D02*
X2010438Y1067809D01*
X2010438Y1067809D02*
X2009091Y1071850D01*
X2009091Y1071850D02*
X2009091Y1077237D01*
X2009091Y1077237D02*
X2011785Y1082625D01*
X2011785Y1082625D02*
X2014478Y1085319D01*
X2014478Y1085319D02*
X2019866Y1088012D01*
X2019866Y1088012D02*
X2022560Y1088012D01*
X2053538Y1105522D02*
X2072394Y1086666D01*
X2036028Y1109562D02*
X2049497Y1082625D01*
X2049497Y1082625D02*
X2067006Y1100134D01*
X1294383Y824286D02*
X1296288Y822381D01*
X1296288Y822381D02*
X1298193Y816667D01*
X1298193Y816667D02*
X1298193Y812857D01*
X1298193Y812857D02*
X1296288Y807143D01*
X1296288Y807143D02*
X1292478Y803333D01*
X1292478Y803333D02*
X1288669Y801429D01*
X1288669Y801429D02*
X1281050Y799524D01*
X1281050Y799524D02*
X1275336Y799524D01*
X1275336Y799524D02*
X1267717Y801429D01*
X1267717Y801429D02*
X1263907Y803333D01*
X1263907Y803333D02*
X1260098Y807143D01*
X1260098Y807143D02*
X1258193Y812857D01*
X1258193Y812857D02*
X1258193Y816667D01*
X1258193Y816667D02*
X1260098Y822381D01*
X1260098Y822381D02*
X1262002Y824286D01*
X1298193Y862381D02*
X1298193Y839524D01*
X1298193Y850952D02*
X1258193Y850952D01*
X1258193Y850952D02*
X1263907Y847143D01*
X1263907Y847143D02*
X1267717Y843333D01*
X1267717Y843333D02*
X1269621Y839524D01*
X1258193Y875714D02*
X1258193Y900476D01*
X1258193Y900476D02*
X1273431Y887143D01*
X1273431Y887143D02*
X1273431Y892857D01*
X1273431Y892857D02*
X1275336Y896667D01*
X1275336Y896667D02*
X1277240Y898571D01*
X1277240Y898571D02*
X1281050Y900476D01*
X1281050Y900476D02*
X1290574Y900476D01*
X1290574Y900476D02*
X1294383Y898571D01*
X1294383Y898571D02*
X1296288Y896667D01*
X1296288Y896667D02*
X1298193Y892857D01*
X1298193Y892857D02*
X1298193Y881429D01*
X1298193Y881429D02*
X1296288Y877619D01*
X1296288Y877619D02*
X1294383Y875714D01*
X4794286Y1755617D02*
X4792381Y1753712D01*
X4792381Y1753712D02*
X4786667Y1751807D01*
X4786667Y1751807D02*
X4782857Y1751807D01*
X4782857Y1751807D02*
X4777143Y1753712D01*
X4777143Y1753712D02*
X4773333Y1757522D01*
X4773333Y1757522D02*
X4771429Y1761331D01*
X4771429Y1761331D02*
X4769524Y1768950D01*
X4769524Y1768950D02*
X4769524Y1774664D01*
X4769524Y1774664D02*
X4771429Y1782283D01*
X4771429Y1782283D02*
X4773333Y1786093D01*
X4773333Y1786093D02*
X4777143Y1789902D01*
X4777143Y1789902D02*
X4782857Y1791807D01*
X4782857Y1791807D02*
X4786667Y1791807D01*
X4786667Y1791807D02*
X4792381Y1789902D01*
X4792381Y1789902D02*
X4794286Y1787998D01*
X4832381Y1751807D02*
X4809524Y1751807D01*
X4820952Y1751807D02*
X4820952Y1791807D01*
X4820952Y1791807D02*
X4817143Y1786093D01*
X4817143Y1786093D02*
X4813333Y1782283D01*
X4813333Y1782283D02*
X4809524Y1780379D01*
X4851429Y1751807D02*
X4859048Y1751807D01*
X4859048Y1751807D02*
X4862857Y1753712D01*
X4862857Y1753712D02*
X4864762Y1755617D01*
X4864762Y1755617D02*
X4868571Y1761331D01*
X4868571Y1761331D02*
X4870476Y1768950D01*
X4870476Y1768950D02*
X4870476Y1784188D01*
X4870476Y1784188D02*
X4868571Y1787998D01*
X4868571Y1787998D02*
X4866667Y1789902D01*
X4866667Y1789902D02*
X4862857Y1791807D01*
X4862857Y1791807D02*
X4855238Y1791807D01*
X4855238Y1791807D02*
X4851429Y1789902D01*
X4851429Y1789902D02*
X4849524Y1787998D01*
X4849524Y1787998D02*
X4847619Y1784188D01*
X4847619Y1784188D02*
X4847619Y1774664D01*
X4847619Y1774664D02*
X4849524Y1770855D01*
X4849524Y1770855D02*
X4851429Y1768950D01*
X4851429Y1768950D02*
X4855238Y1767045D01*
X4855238Y1767045D02*
X4862857Y1767045D01*
X4862857Y1767045D02*
X4866667Y1768950D01*
X4866667Y1768950D02*
X4868571Y1770855D01*
X4868571Y1770855D02*
X4870476Y1774664D01*
D12*
X2931820Y1095667D02*
X2919439Y1087000D01*
X2931820Y1080810D02*
X2905820Y1080810D01*
X2905820Y1080810D02*
X2905820Y1090714D01*
X2905820Y1090714D02*
X2907058Y1093191D01*
X2907058Y1093191D02*
X2908296Y1094429D01*
X2908296Y1094429D02*
X2910772Y1095667D01*
X2910772Y1095667D02*
X2914487Y1095667D01*
X2914487Y1095667D02*
X2916963Y1094429D01*
X2916963Y1094429D02*
X2918201Y1093191D01*
X2918201Y1093191D02*
X2919439Y1090714D01*
X2919439Y1090714D02*
X2919439Y1080810D01*
X2916963Y1110524D02*
X2915725Y1108048D01*
X2915725Y1108048D02*
X2914487Y1106810D01*
X2914487Y1106810D02*
X2912010Y1105572D01*
X2912010Y1105572D02*
X2910772Y1105572D01*
X2910772Y1105572D02*
X2908296Y1106810D01*
X2908296Y1106810D02*
X2907058Y1108048D01*
X2907058Y1108048D02*
X2905820Y1110524D01*
X2905820Y1110524D02*
X2905820Y1115476D01*
X2905820Y1115476D02*
X2907058Y1117953D01*
X2907058Y1117953D02*
X2908296Y1119191D01*
X2908296Y1119191D02*
X2910772Y1120429D01*
X2910772Y1120429D02*
X2912010Y1120429D01*
X2912010Y1120429D02*
X2914487Y1119191D01*
X2914487Y1119191D02*
X2915725Y1117953D01*
X2915725Y1117953D02*
X2916963Y1115476D01*
X2916963Y1115476D02*
X2916963Y1110524D01*
X2916963Y1110524D02*
X2918201Y1108048D01*
X2918201Y1108048D02*
X2919439Y1106810D01*
X2919439Y1106810D02*
X2921915Y1105572D01*
X2921915Y1105572D02*
X2926868Y1105572D01*
X2926868Y1105572D02*
X2929344Y1106810D01*
X2929344Y1106810D02*
X2930582Y1108048D01*
X2930582Y1108048D02*
X2931820Y1110524D01*
X2931820Y1110524D02*
X2931820Y1115476D01*
X2931820Y1115476D02*
X2930582Y1117953D01*
X2930582Y1117953D02*
X2929344Y1119191D01*
X2929344Y1119191D02*
X2926868Y1120429D01*
X2926868Y1120429D02*
X2921915Y1120429D01*
X2921915Y1120429D02*
X2919439Y1119191D01*
X2919439Y1119191D02*
X2918201Y1117953D01*
X2918201Y1117953D02*
X2916963Y1115476D01*
X3211820Y2815667D02*
X3199439Y2807000D01*
X3211820Y2800810D02*
X3185820Y2800810D01*
X3185820Y2800810D02*
X3185820Y2810714D01*
X3185820Y2810714D02*
X3187058Y2813191D01*
X3187058Y2813191D02*
X3188296Y2814429D01*
X3188296Y2814429D02*
X3190772Y2815667D01*
X3190772Y2815667D02*
X3194487Y2815667D01*
X3194487Y2815667D02*
X3196963Y2814429D01*
X3196963Y2814429D02*
X3198201Y2813191D01*
X3198201Y2813191D02*
X3199439Y2810714D01*
X3199439Y2810714D02*
X3199439Y2800810D01*
X3185820Y2824333D02*
X3185820Y2840429D01*
X3185820Y2840429D02*
X3195725Y2831762D01*
X3195725Y2831762D02*
X3195725Y2835476D01*
X3195725Y2835476D02*
X3196963Y2837952D01*
X3196963Y2837952D02*
X3198201Y2839191D01*
X3198201Y2839191D02*
X3200677Y2840429D01*
X3200677Y2840429D02*
X3206868Y2840429D01*
X3206868Y2840429D02*
X3209344Y2839191D01*
X3209344Y2839191D02*
X3210582Y2837952D01*
X3210582Y2837952D02*
X3211820Y2835476D01*
X3211820Y2835476D02*
X3211820Y2828048D01*
X3211820Y2828048D02*
X3210582Y2825571D01*
X3210582Y2825571D02*
X3209344Y2824333D01*
X4816667Y1348180D02*
X4808000Y1360561D01*
X4801810Y1348180D02*
X4801810Y1374180D01*
X4801810Y1374180D02*
X4811714Y1374180D01*
X4811714Y1374180D02*
X4814191Y1372942D01*
X4814191Y1372942D02*
X4815429Y1371704D01*
X4815429Y1371704D02*
X4816667Y1369228D01*
X4816667Y1369228D02*
X4816667Y1365513D01*
X4816667Y1365513D02*
X4815429Y1363037D01*
X4815429Y1363037D02*
X4814191Y1361799D01*
X4814191Y1361799D02*
X4811714Y1360561D01*
X4811714Y1360561D02*
X4801810Y1360561D01*
X4841429Y1348180D02*
X4826571Y1348180D01*
X4834000Y1348180D02*
X4834000Y1374180D01*
X4834000Y1374180D02*
X4831524Y1370466D01*
X4831524Y1370466D02*
X4829048Y1367990D01*
X4829048Y1367990D02*
X4826571Y1366751D01*
X2731820Y935667D02*
X2719439Y927000D01*
X2731820Y920810D02*
X2705820Y920810D01*
X2705820Y920810D02*
X2705820Y930714D01*
X2705820Y930714D02*
X2707058Y933191D01*
X2707058Y933191D02*
X2708296Y934429D01*
X2708296Y934429D02*
X2710772Y935667D01*
X2710772Y935667D02*
X2714487Y935667D01*
X2714487Y935667D02*
X2716963Y934429D01*
X2716963Y934429D02*
X2718201Y933191D01*
X2718201Y933191D02*
X2719439Y930714D01*
X2719439Y930714D02*
X2719439Y920810D01*
X2731820Y948048D02*
X2731820Y953000D01*
X2731820Y953000D02*
X2730582Y955476D01*
X2730582Y955476D02*
X2729344Y956714D01*
X2729344Y956714D02*
X2725630Y959191D01*
X2725630Y959191D02*
X2720677Y960429D01*
X2720677Y960429D02*
X2710772Y960429D01*
X2710772Y960429D02*
X2708296Y959191D01*
X2708296Y959191D02*
X2707058Y957952D01*
X2707058Y957952D02*
X2705820Y955476D01*
X2705820Y955476D02*
X2705820Y950524D01*
X2705820Y950524D02*
X2707058Y948048D01*
X2707058Y948048D02*
X2708296Y946810D01*
X2708296Y946810D02*
X2710772Y945571D01*
X2710772Y945571D02*
X2716963Y945571D01*
X2716963Y945571D02*
X2719439Y946810D01*
X2719439Y946810D02*
X2720677Y948048D01*
X2720677Y948048D02*
X2721915Y950524D01*
X2721915Y950524D02*
X2721915Y955476D01*
X2721915Y955476D02*
X2720677Y957952D01*
X2720677Y957952D02*
X2719439Y959191D01*
X2719439Y959191D02*
X2716963Y960429D01*
X3183401Y1740706D02*
X3183401Y1739023D01*
X3183401Y1739023D02*
X3181717Y1735656D01*
X3181717Y1735656D02*
X3180034Y1733972D01*
X3180034Y1733972D02*
X3176667Y1732288D01*
X3176667Y1732288D02*
X3173300Y1732288D01*
X3173300Y1732288D02*
X3170774Y1733130D01*
X3170774Y1733130D02*
X3166565Y1735656D01*
X3166565Y1735656D02*
X3164040Y1738181D01*
X3164040Y1738181D02*
X3161514Y1742390D01*
X3161514Y1742390D02*
X3160673Y1744915D01*
X3160673Y1744915D02*
X3160673Y1748283D01*
X3160673Y1748283D02*
X3162356Y1751650D01*
X3162356Y1751650D02*
X3164040Y1753333D01*
X3164040Y1753333D02*
X3167407Y1755017D01*
X3167407Y1755017D02*
X3169091Y1755017D01*
X3183401Y1772695D02*
X3174983Y1764277D01*
X3174983Y1764277D02*
X3182559Y1755017D01*
X3182559Y1755017D02*
X3182559Y1756700D01*
X3182559Y1756700D02*
X3183401Y1759226D01*
X3183401Y1759226D02*
X3187610Y1763435D01*
X3187610Y1763435D02*
X3190135Y1764277D01*
X3190135Y1764277D02*
X3191819Y1764277D01*
X3191819Y1764277D02*
X3194344Y1763435D01*
X3194344Y1763435D02*
X3198553Y1759226D01*
X3198553Y1759226D02*
X3199395Y1756700D01*
X3199395Y1756700D02*
X3199395Y1755017D01*
X3199395Y1755017D02*
X3198553Y1752492D01*
X3198553Y1752492D02*
X3194344Y1748283D01*
X3194344Y1748283D02*
X3191819Y1747441D01*
X3191819Y1747441D02*
X3190135Y1747441D01*
X1408976Y833929D02*
X1410167Y832738D01*
X1410167Y832738D02*
X1411357Y829167D01*
X1411357Y829167D02*
X1411357Y826786D01*
X1411357Y826786D02*
X1410167Y823214D01*
X1410167Y823214D02*
X1407786Y820833D01*
X1407786Y820833D02*
X1405405Y819643D01*
X1405405Y819643D02*
X1400643Y818452D01*
X1400643Y818452D02*
X1397072Y818452D01*
X1397072Y818452D02*
X1392310Y819643D01*
X1392310Y819643D02*
X1389929Y820833D01*
X1389929Y820833D02*
X1387548Y823214D01*
X1387548Y823214D02*
X1386357Y826786D01*
X1386357Y826786D02*
X1386357Y829167D01*
X1386357Y829167D02*
X1387548Y832738D01*
X1387548Y832738D02*
X1388738Y833929D01*
X1411357Y857738D02*
X1411357Y843452D01*
X1411357Y850595D02*
X1386357Y850595D01*
X1386357Y850595D02*
X1389929Y848214D01*
X1389929Y848214D02*
X1392310Y845833D01*
X1392310Y845833D02*
X1393500Y843452D01*
X1394691Y879167D02*
X1411357Y879167D01*
X1385167Y873214D02*
X1403024Y867262D01*
X1403024Y867262D02*
X1403024Y882738D01*
D11*
X1083333Y1465617D02*
X1081429Y1463712D01*
X1081429Y1463712D02*
X1075714Y1461807D01*
X1075714Y1461807D02*
X1071905Y1461807D01*
X1071905Y1461807D02*
X1066190Y1463712D01*
X1066190Y1463712D02*
X1062381Y1467522D01*
X1062381Y1467522D02*
X1060476Y1471331D01*
X1060476Y1471331D02*
X1058571Y1478950D01*
X1058571Y1478950D02*
X1058571Y1484664D01*
X1058571Y1484664D02*
X1060476Y1492283D01*
X1060476Y1492283D02*
X1062381Y1496093D01*
X1062381Y1496093D02*
X1066190Y1499902D01*
X1066190Y1499902D02*
X1071905Y1501807D01*
X1071905Y1501807D02*
X1075714Y1501807D01*
X1075714Y1501807D02*
X1081429Y1499902D01*
X1081429Y1499902D02*
X1083333Y1497998D01*
X1102381Y1461807D02*
X1110000Y1461807D01*
X1110000Y1461807D02*
X1113810Y1463712D01*
X1113810Y1463712D02*
X1115714Y1465617D01*
X1115714Y1465617D02*
X1119524Y1471331D01*
X1119524Y1471331D02*
X1121429Y1478950D01*
X1121429Y1478950D02*
X1121429Y1494188D01*
X1121429Y1494188D02*
X1119524Y1497998D01*
X1119524Y1497998D02*
X1117619Y1499902D01*
X1117619Y1499902D02*
X1113810Y1501807D01*
X1113810Y1501807D02*
X1106190Y1501807D01*
X1106190Y1501807D02*
X1102381Y1499902D01*
X1102381Y1499902D02*
X1100476Y1497998D01*
X1100476Y1497998D02*
X1098571Y1494188D01*
X1098571Y1494188D02*
X1098571Y1484664D01*
X1098571Y1484664D02*
X1100476Y1480855D01*
X1100476Y1480855D02*
X1102381Y1478950D01*
X1102381Y1478950D02*
X1106190Y1477045D01*
X1106190Y1477045D02*
X1113810Y1477045D01*
X1113810Y1477045D02*
X1117619Y1478950D01*
X1117619Y1478950D02*
X1119524Y1480855D01*
X1119524Y1480855D02*
X1121429Y1484664D01*
D10*
X965482Y1196191D02*
X865482Y1196191D01*
X865482Y1196191D02*
X865482Y1220000D01*
X865482Y1220000D02*
X870244Y1234286D01*
X870244Y1234286D02*
X879768Y1243810D01*
X879768Y1243810D02*
X889291Y1248572D01*
X889291Y1248572D02*
X908339Y1253333D01*
X908339Y1253333D02*
X922625Y1253333D01*
X922625Y1253333D02*
X941672Y1248572D01*
X941672Y1248572D02*
X951196Y1243810D01*
X951196Y1243810D02*
X960720Y1234286D01*
X960720Y1234286D02*
X965482Y1220000D01*
X965482Y1220000D02*
X965482Y1196191D01*
X875006Y1291429D02*
X870244Y1296191D01*
X870244Y1296191D02*
X865482Y1305714D01*
X865482Y1305714D02*
X865482Y1329524D01*
X865482Y1329524D02*
X870244Y1339048D01*
X870244Y1339048D02*
X875006Y1343810D01*
X875006Y1343810D02*
X884529Y1348572D01*
X884529Y1348572D02*
X894053Y1348572D01*
X894053Y1348572D02*
X908339Y1343810D01*
X908339Y1343810D02*
X965482Y1286667D01*
X965482Y1286667D02*
X965482Y1348572D01*
D12*
X3955667Y1168180D02*
X3947000Y1180561D01*
X3940809Y1168180D02*
X3940809Y1194180D01*
X3940809Y1194180D02*
X3950714Y1194180D01*
X3950714Y1194180D02*
X3953190Y1192942D01*
X3953190Y1192942D02*
X3954429Y1191704D01*
X3954429Y1191704D02*
X3955667Y1189228D01*
X3955667Y1189228D02*
X3955667Y1185513D01*
X3955667Y1185513D02*
X3954429Y1183037D01*
X3954429Y1183037D02*
X3953190Y1181799D01*
X3953190Y1181799D02*
X3950714Y1180561D01*
X3950714Y1180561D02*
X3940809Y1180561D01*
X3977952Y1185513D02*
X3977952Y1168180D01*
X3971762Y1195418D02*
X3965571Y1176847D01*
X3965571Y1176847D02*
X3981667Y1176847D01*
D10*
X3525982Y626667D02*
X3597410Y626667D01*
X3597410Y626667D02*
X3611696Y621905D01*
X3611696Y621905D02*
X3621220Y612381D01*
X3621220Y612381D02*
X3625982Y598095D01*
X3625982Y598095D02*
X3625982Y588572D01*
X3525982Y664762D02*
X3525982Y726667D01*
X3525982Y726667D02*
X3564077Y693333D01*
X3564077Y693333D02*
X3564077Y707619D01*
X3564077Y707619D02*
X3568839Y717143D01*
X3568839Y717143D02*
X3573601Y721905D01*
X3573601Y721905D02*
X3583125Y726667D01*
X3583125Y726667D02*
X3606934Y726667D01*
X3606934Y726667D02*
X3616458Y721905D01*
X3616458Y721905D02*
X3621220Y717143D01*
X3621220Y717143D02*
X3625982Y707619D01*
X3625982Y707619D02*
X3625982Y679048D01*
X3625982Y679048D02*
X3621220Y669524D01*
X3621220Y669524D02*
X3616458Y664762D01*
X3575982Y566642D02*
X3575982Y749167D01*
D11*
X986786Y175617D02*
X984881Y173712D01*
X984881Y173712D02*
X979167Y171807D01*
X979167Y171807D02*
X975357Y171807D01*
X975357Y171807D02*
X969643Y173712D01*
X969643Y173712D02*
X965833Y177522D01*
X965833Y177522D02*
X963929Y181331D01*
X963929Y181331D02*
X962024Y188950D01*
X962024Y188950D02*
X962024Y194664D01*
X962024Y194664D02*
X963929Y202283D01*
X963929Y202283D02*
X965833Y206093D01*
X965833Y206093D02*
X969643Y209902D01*
X969643Y209902D02*
X975357Y211807D01*
X975357Y211807D02*
X979167Y211807D01*
X979167Y211807D02*
X984881Y209902D01*
X984881Y209902D02*
X986786Y207998D01*
X1024881Y171807D02*
X1002024Y171807D01*
X1013452Y171807D02*
X1013452Y211807D01*
X1013452Y211807D02*
X1009643Y206093D01*
X1009643Y206093D02*
X1005833Y202283D01*
X1005833Y202283D02*
X1002024Y200379D01*
X1062976Y171807D02*
X1040119Y171807D01*
X1051548Y171807D02*
X1051548Y211807D01*
X1051548Y211807D02*
X1047738Y206093D01*
X1047738Y206093D02*
X1043928Y202283D01*
X1043928Y202283D02*
X1040119Y200379D01*
D12*
X4825667Y1548180D02*
X4817000Y1560561D01*
X4810810Y1548180D02*
X4810810Y1574180D01*
X4810810Y1574180D02*
X4820714Y1574180D01*
X4820714Y1574180D02*
X4823191Y1572942D01*
X4823191Y1572942D02*
X4824429Y1571704D01*
X4824429Y1571704D02*
X4825667Y1569228D01*
X4825667Y1569228D02*
X4825667Y1565513D01*
X4825667Y1565513D02*
X4824429Y1563037D01*
X4824429Y1563037D02*
X4823191Y1561799D01*
X4823191Y1561799D02*
X4820714Y1560561D01*
X4820714Y1560561D02*
X4810810Y1560561D01*
X4847952Y1574180D02*
X4843000Y1574180D01*
X4843000Y1574180D02*
X4840524Y1572942D01*
X4840524Y1572942D02*
X4839286Y1571704D01*
X4839286Y1571704D02*
X4836810Y1567989D01*
X4836810Y1567989D02*
X4835571Y1563037D01*
X4835571Y1563037D02*
X4835571Y1553132D01*
X4835571Y1553132D02*
X4836810Y1550656D01*
X4836810Y1550656D02*
X4838048Y1549418D01*
X4838048Y1549418D02*
X4840524Y1548180D01*
X4840524Y1548180D02*
X4845476Y1548180D01*
X4845476Y1548180D02*
X4847952Y1549418D01*
X4847952Y1549418D02*
X4849191Y1550656D01*
X4849191Y1550656D02*
X4850429Y1553132D01*
X4850429Y1553132D02*
X4850429Y1559323D01*
X4850429Y1559323D02*
X4849191Y1561799D01*
X4849191Y1561799D02*
X4847952Y1563037D01*
X4847952Y1563037D02*
X4845476Y1564275D01*
X4845476Y1564275D02*
X4840524Y1564275D01*
X4840524Y1564275D02*
X4838048Y1563037D01*
X4838048Y1563037D02*
X4836810Y1561799D01*
X4836810Y1561799D02*
X4835571Y1559323D01*
D13*
X1732741Y367024D02*
X1782741Y400357D01*
X1732741Y400357D02*
X1782741Y367024D01*
X1782741Y445595D02*
X1782741Y417024D01*
X1782741Y431310D02*
X1732741Y431310D01*
X1732741Y431310D02*
X1739884Y426548D01*
X1739884Y426548D02*
X1744646Y421786D01*
X1744646Y421786D02*
X1747027Y417024D01*
X1757776Y355845D02*
X1757776Y456560D01*
D11*
X3315456Y1695115D02*
X3315456Y1692422D01*
X3315456Y1692422D02*
X3312763Y1687034D01*
X3312763Y1687034D02*
X3310069Y1684341D01*
X3310069Y1684341D02*
X3304681Y1681647D01*
X3304681Y1681647D02*
X3299294Y1681647D01*
X3299294Y1681647D02*
X3295253Y1682994D01*
X3295253Y1682994D02*
X3288519Y1687034D01*
X3288519Y1687034D02*
X3284478Y1691075D01*
X3284478Y1691075D02*
X3280438Y1697809D01*
X3280438Y1697809D02*
X3279091Y1701850D01*
X3279091Y1701850D02*
X3279091Y1707237D01*
X3279091Y1707237D02*
X3281785Y1712625D01*
X3281785Y1712625D02*
X3284478Y1715319D01*
X3284478Y1715319D02*
X3289866Y1718012D01*
X3289866Y1718012D02*
X3292560Y1718012D01*
X3314109Y1744950D02*
X3308722Y1739562D01*
X3308722Y1739562D02*
X3307375Y1735522D01*
X3307375Y1735522D02*
X3307375Y1732828D01*
X3307375Y1732828D02*
X3308722Y1726093D01*
X3308722Y1726093D02*
X3312763Y1719359D01*
X3312763Y1719359D02*
X3323538Y1708584D01*
X3323538Y1708584D02*
X3327578Y1707237D01*
X3327578Y1707237D02*
X3330272Y1707237D01*
X3330272Y1707237D02*
X3334313Y1708584D01*
X3334313Y1708584D02*
X3339700Y1713972D01*
X3339700Y1713972D02*
X3341047Y1718012D01*
X3341047Y1718012D02*
X3341047Y1720706D01*
X3341047Y1720706D02*
X3339700Y1724747D01*
X3339700Y1724747D02*
X3332966Y1731481D01*
X3332966Y1731481D02*
X3328925Y1732828D01*
X3328925Y1732828D02*
X3326231Y1732828D01*
X3326231Y1732828D02*
X3322191Y1731481D01*
X3322191Y1731481D02*
X3316803Y1726093D01*
X3316803Y1726093D02*
X3315456Y1722053D01*
X3315456Y1722053D02*
X3315456Y1719359D01*
X3315456Y1719359D02*
X3316803Y1715319D01*
D12*
X273214Y101738D02*
X264881Y101738D01*
X264881Y88643D02*
X264881Y113643D01*
X264881Y113643D02*
X276786Y113643D01*
X286310Y88643D02*
X286310Y113643D01*
X298214Y88643D02*
X298214Y113643D01*
X298214Y113643D02*
X304167Y113643D01*
X304167Y113643D02*
X307738Y112452D01*
X307738Y112452D02*
X310119Y110071D01*
X310119Y110071D02*
X311310Y107690D01*
X311310Y107690D02*
X312500Y102928D01*
X312500Y102928D02*
X312500Y99357D01*
X312500Y99357D02*
X311310Y94595D01*
X311310Y94595D02*
X310119Y92214D01*
X310119Y92214D02*
X307738Y89833D01*
X307738Y89833D02*
X304167Y88643D01*
X304167Y88643D02*
X298214Y88643D01*
X336310Y88643D02*
X322024Y88643D01*
X329167Y88643D02*
X329167Y113643D01*
X329167Y113643D02*
X326786Y110071D01*
X326786Y110071D02*
X324405Y107690D01*
X324405Y107690D02*
X322024Y106500D01*
D11*
X1815115Y2104544D02*
X1812422Y2104544D01*
X1812422Y2104544D02*
X1807034Y2107237D01*
X1807034Y2107237D02*
X1804340Y2109931D01*
X1804340Y2109931D02*
X1801647Y2115319D01*
X1801647Y2115319D02*
X1801647Y2120706D01*
X1801647Y2120706D02*
X1802994Y2124747D01*
X1802994Y2124747D02*
X1807034Y2131481D01*
X1807034Y2131481D02*
X1811075Y2135522D01*
X1811075Y2135522D02*
X1817809Y2139562D01*
X1817809Y2139562D02*
X1821850Y2140909D01*
X1821850Y2140909D02*
X1827237Y2140909D01*
X1827237Y2140909D02*
X1832625Y2138215D01*
X1832625Y2138215D02*
X1835318Y2135522D01*
X1835318Y2135522D02*
X1838012Y2130134D01*
X1838012Y2130134D02*
X1838012Y2127440D01*
X1848787Y2116665D02*
X1851481Y2116665D01*
X1851481Y2116665D02*
X1855521Y2115319D01*
X1855521Y2115319D02*
X1862256Y2108584D01*
X1862256Y2108584D02*
X1863603Y2104544D01*
X1863603Y2104544D02*
X1863603Y2101850D01*
X1863603Y2101850D02*
X1862256Y2097809D01*
X1862256Y2097809D02*
X1859562Y2095115D01*
X1859562Y2095115D02*
X1854175Y2092422D01*
X1854175Y2092422D02*
X1821850Y2092422D01*
X1821850Y2092422D02*
X1839359Y2074912D01*
D12*
X1511820Y833286D02*
X1499439Y824619D01*
X1511820Y818429D02*
X1485820Y818429D01*
X1485820Y818429D02*
X1485820Y828333D01*
X1485820Y828333D02*
X1487058Y830810D01*
X1487058Y830810D02*
X1488296Y832048D01*
X1488296Y832048D02*
X1490772Y833286D01*
X1490772Y833286D02*
X1494487Y833286D01*
X1494487Y833286D02*
X1496963Y832048D01*
X1496963Y832048D02*
X1498201Y830810D01*
X1498201Y830810D02*
X1499439Y828333D01*
X1499439Y828333D02*
X1499439Y818429D01*
X1511820Y858048D02*
X1511820Y843190D01*
X1511820Y850619D02*
X1485820Y850619D01*
X1485820Y850619D02*
X1489534Y848143D01*
X1489534Y848143D02*
X1492010Y845667D01*
X1492010Y845667D02*
X1493249Y843190D01*
X1488296Y867952D02*
X1487058Y869190D01*
X1487058Y869190D02*
X1485820Y871667D01*
X1485820Y871667D02*
X1485820Y877857D01*
X1485820Y877857D02*
X1487058Y880333D01*
X1487058Y880333D02*
X1488296Y881571D01*
X1488296Y881571D02*
X1490772Y882810D01*
X1490772Y882810D02*
X1493249Y882810D01*
X1493249Y882810D02*
X1496963Y881571D01*
X1496963Y881571D02*
X1511820Y866714D01*
X1511820Y866714D02*
X1511820Y882810D01*
X1914983Y1202289D02*
X1914983Y1200605D01*
X1914983Y1200605D02*
X1913299Y1197238D01*
X1913299Y1197238D02*
X1911616Y1195554D01*
X1911616Y1195554D02*
X1908249Y1193871D01*
X1908249Y1193871D02*
X1904882Y1193871D01*
X1904882Y1193871D02*
X1902356Y1194712D01*
X1902356Y1194712D02*
X1898147Y1197238D01*
X1898147Y1197238D02*
X1895622Y1199763D01*
X1895622Y1199763D02*
X1893096Y1203972D01*
X1893096Y1203972D02*
X1892255Y1206498D01*
X1892255Y1206498D02*
X1892255Y1209865D01*
X1892255Y1209865D02*
X1893938Y1213232D01*
X1893938Y1213232D02*
X1895622Y1214915D01*
X1895622Y1214915D02*
X1898989Y1216599D01*
X1898989Y1216599D02*
X1900673Y1216599D01*
X1933503Y1217441D02*
X1923401Y1207339D01*
X1928452Y1212390D02*
X1910774Y1230068D01*
X1910774Y1230068D02*
X1911616Y1225859D01*
X1911616Y1225859D02*
X1911616Y1222492D01*
X1911616Y1222492D02*
X1910774Y1219966D01*
X1933503Y1237644D02*
X1930977Y1236802D01*
X1930977Y1236802D02*
X1929294Y1236802D01*
X1929294Y1236802D02*
X1926768Y1237644D01*
X1926768Y1237644D02*
X1925926Y1238486D01*
X1925926Y1238486D02*
X1925085Y1241011D01*
X1925085Y1241011D02*
X1925085Y1242695D01*
X1925085Y1242695D02*
X1925926Y1245220D01*
X1925926Y1245220D02*
X1929294Y1248587D01*
X1929294Y1248587D02*
X1931819Y1249429D01*
X1931819Y1249429D02*
X1933503Y1249429D01*
X1933503Y1249429D02*
X1936028Y1248587D01*
X1936028Y1248587D02*
X1936870Y1247745D01*
X1936870Y1247745D02*
X1937711Y1245220D01*
X1937711Y1245220D02*
X1937711Y1243536D01*
X1937711Y1243536D02*
X1936870Y1241011D01*
X1936870Y1241011D02*
X1933503Y1237644D01*
X1933503Y1237644D02*
X1932661Y1235118D01*
X1932661Y1235118D02*
X1932661Y1233435D01*
X1932661Y1233435D02*
X1933503Y1230910D01*
X1933503Y1230910D02*
X1936870Y1227542D01*
X1936870Y1227542D02*
X1939395Y1226701D01*
X1939395Y1226701D02*
X1941079Y1226701D01*
X1941079Y1226701D02*
X1943604Y1227542D01*
X1943604Y1227542D02*
X1946971Y1230910D01*
X1946971Y1230910D02*
X1947813Y1233435D01*
X1947813Y1233435D02*
X1947813Y1235118D01*
X1947813Y1235118D02*
X1946971Y1237644D01*
X1946971Y1237644D02*
X1943604Y1241011D01*
X1943604Y1241011D02*
X1941079Y1241853D01*
X1941079Y1241853D02*
X1939395Y1241853D01*
X1939395Y1241853D02*
X1936870Y1241011D01*
X4723214Y4701738D02*
X4714881Y4701738D01*
X4714881Y4688643D02*
X4714881Y4713643D01*
X4714881Y4713643D02*
X4726786Y4713643D01*
X4736310Y4688643D02*
X4736310Y4713643D01*
X4748214Y4688643D02*
X4748214Y4713643D01*
X4748214Y4713643D02*
X4754167Y4713643D01*
X4754167Y4713643D02*
X4757738Y4712452D01*
X4757738Y4712452D02*
X4760119Y4710071D01*
X4760119Y4710071D02*
X4761310Y4707690D01*
X4761310Y4707690D02*
X4762500Y4702928D01*
X4762500Y4702928D02*
X4762500Y4699357D01*
X4762500Y4699357D02*
X4761310Y4694595D01*
X4761310Y4694595D02*
X4760119Y4692214D01*
X4760119Y4692214D02*
X4757738Y4689833D01*
X4757738Y4689833D02*
X4754167Y4688643D01*
X4754167Y4688643D02*
X4748214Y4688643D01*
X4772024Y4711262D02*
X4773214Y4712452D01*
X4773214Y4712452D02*
X4775595Y4713643D01*
X4775595Y4713643D02*
X4781548Y4713643D01*
X4781548Y4713643D02*
X4783929Y4712452D01*
X4783929Y4712452D02*
X4785119Y4711262D01*
X4785119Y4711262D02*
X4786310Y4708881D01*
X4786310Y4708881D02*
X4786310Y4706500D01*
X4786310Y4706500D02*
X4785119Y4702928D01*
X4785119Y4702928D02*
X4770833Y4688643D01*
X4770833Y4688643D02*
X4786310Y4688643D01*
X4623214Y101738D02*
X4614881Y101738D01*
X4614881Y88643D02*
X4614881Y113643D01*
X4614881Y113643D02*
X4626786Y113643D01*
X4636310Y88643D02*
X4636310Y113643D01*
X4648214Y88643D02*
X4648214Y113643D01*
X4648214Y113643D02*
X4654167Y113643D01*
X4654167Y113643D02*
X4657738Y112452D01*
X4657738Y112452D02*
X4660119Y110071D01*
X4660119Y110071D02*
X4661310Y107690D01*
X4661310Y107690D02*
X4662500Y102928D01*
X4662500Y102928D02*
X4662500Y99357D01*
X4662500Y99357D02*
X4661310Y94595D01*
X4661310Y94595D02*
X4660119Y92214D01*
X4660119Y92214D02*
X4657738Y89833D01*
X4657738Y89833D02*
X4654167Y88643D01*
X4654167Y88643D02*
X4648214Y88643D01*
X4670833Y113643D02*
X4686310Y113643D01*
X4686310Y113643D02*
X4677976Y104119D01*
X4677976Y104119D02*
X4681548Y104119D01*
X4681548Y104119D02*
X4683929Y102928D01*
X4683929Y102928D02*
X4685119Y101738D01*
X4685119Y101738D02*
X4686310Y99357D01*
X4686310Y99357D02*
X4686310Y93404D01*
X4686310Y93404D02*
X4685119Y91023D01*
X4685119Y91023D02*
X4683929Y89833D01*
X4683929Y89833D02*
X4681548Y88643D01*
X4681548Y88643D02*
X4674405Y88643D01*
X4674405Y88643D02*
X4672024Y89833D01*
X4672024Y89833D02*
X4670833Y91023D01*
D11*
X3404383Y2514286D02*
X3406288Y2512381D01*
X3406288Y2512381D02*
X3408193Y2506667D01*
X3408193Y2506667D02*
X3408193Y2502857D01*
X3408193Y2502857D02*
X3406288Y2497143D01*
X3406288Y2497143D02*
X3402478Y2493333D01*
X3402478Y2493333D02*
X3398669Y2491429D01*
X3398669Y2491429D02*
X3391050Y2489524D01*
X3391050Y2489524D02*
X3385336Y2489524D01*
X3385336Y2489524D02*
X3377716Y2491429D01*
X3377716Y2491429D02*
X3373907Y2493333D01*
X3373907Y2493333D02*
X3370097Y2497143D01*
X3370097Y2497143D02*
X3368193Y2502857D01*
X3368193Y2502857D02*
X3368193Y2506667D01*
X3368193Y2506667D02*
X3370097Y2512381D01*
X3370097Y2512381D02*
X3372002Y2514286D01*
X3408193Y2552381D02*
X3408193Y2529524D01*
X3408193Y2540953D02*
X3368193Y2540953D01*
X3368193Y2540953D02*
X3373907Y2537143D01*
X3373907Y2537143D02*
X3377716Y2533333D01*
X3377716Y2533333D02*
X3379621Y2529524D01*
X3368193Y2588572D02*
X3368193Y2569524D01*
X3368193Y2569524D02*
X3387240Y2567619D01*
X3387240Y2567619D02*
X3385336Y2569524D01*
X3385336Y2569524D02*
X3383431Y2573333D01*
X3383431Y2573333D02*
X3383431Y2582857D01*
X3383431Y2582857D02*
X3385336Y2586667D01*
X3385336Y2586667D02*
X3387240Y2588572D01*
X3387240Y2588572D02*
X3391050Y2590476D01*
X3391050Y2590476D02*
X3400574Y2590476D01*
X3400574Y2590476D02*
X3404383Y2588572D01*
X3404383Y2588572D02*
X3406288Y2586667D01*
X3406288Y2586667D02*
X3408193Y2582857D01*
X3408193Y2582857D02*
X3408193Y2573333D01*
X3408193Y2573333D02*
X3406288Y2569524D01*
X3406288Y2569524D02*
X3404383Y2567619D01*
D12*
X3985667Y738180D02*
X3977000Y750561D01*
X3970809Y738180D02*
X3970809Y764180D01*
X3970809Y764180D02*
X3980714Y764180D01*
X3980714Y764180D02*
X3983190Y762942D01*
X3983190Y762942D02*
X3984429Y761704D01*
X3984429Y761704D02*
X3985667Y759228D01*
X3985667Y759228D02*
X3985667Y755513D01*
X3985667Y755513D02*
X3984429Y753037D01*
X3984429Y753037D02*
X3983190Y751799D01*
X3983190Y751799D02*
X3980714Y750561D01*
X3980714Y750561D02*
X3970809Y750561D01*
X3995571Y761704D02*
X3996809Y762942D01*
X3996809Y762942D02*
X3999286Y764180D01*
X3999286Y764180D02*
X4005476Y764180D01*
X4005476Y764180D02*
X4007952Y762942D01*
X4007952Y762942D02*
X4009190Y761704D01*
X4009190Y761704D02*
X4010429Y759228D01*
X4010429Y759228D02*
X4010429Y756751D01*
X4010429Y756751D02*
X4009190Y753037D01*
X4009190Y753037D02*
X3994333Y738180D01*
X3994333Y738180D02*
X4010429Y738180D01*
X3964809Y751180D02*
X4016429Y751180D01*
X1613286Y608180D02*
X1604619Y620561D01*
X1598428Y608180D02*
X1598428Y634180D01*
X1598428Y634180D02*
X1608333Y634180D01*
X1608333Y634180D02*
X1610809Y632942D01*
X1610809Y632942D02*
X1612048Y631704D01*
X1612048Y631704D02*
X1613286Y629228D01*
X1613286Y629228D02*
X1613286Y625513D01*
X1613286Y625513D02*
X1612048Y623037D01*
X1612048Y623037D02*
X1610809Y621799D01*
X1610809Y621799D02*
X1608333Y620561D01*
X1608333Y620561D02*
X1598428Y620561D01*
X1638048Y608180D02*
X1623190Y608180D01*
X1630619Y608180D02*
X1630619Y634180D01*
X1630619Y634180D02*
X1628143Y630466D01*
X1628143Y630466D02*
X1625667Y627990D01*
X1625667Y627990D02*
X1623190Y626751D01*
X1662809Y608180D02*
X1647952Y608180D01*
X1655381Y608180D02*
X1655381Y634180D01*
X1655381Y634180D02*
X1652905Y630466D01*
X1652905Y630466D02*
X1650428Y627990D01*
X1650428Y627990D02*
X1647952Y626751D01*
X1578976Y325833D02*
X1580167Y324643D01*
X1580167Y324643D02*
X1581357Y321072D01*
X1581357Y321072D02*
X1581357Y318691D01*
X1581357Y318691D02*
X1580167Y315119D01*
X1580167Y315119D02*
X1577786Y312738D01*
X1577786Y312738D02*
X1575405Y311548D01*
X1575405Y311548D02*
X1570643Y310357D01*
X1570643Y310357D02*
X1567072Y310357D01*
X1567072Y310357D02*
X1562310Y311548D01*
X1562310Y311548D02*
X1559929Y312738D01*
X1559929Y312738D02*
X1557548Y315119D01*
X1557548Y315119D02*
X1556357Y318691D01*
X1556357Y318691D02*
X1556357Y321072D01*
X1556357Y321072D02*
X1557548Y324643D01*
X1557548Y324643D02*
X1558738Y325833D01*
X1556357Y334167D02*
X1556357Y350833D01*
X1556357Y350833D02*
X1581357Y340119D01*
D10*
X1493809Y1104518D02*
X1550952Y1104518D01*
X1522381Y1004518D02*
X1522381Y1104518D01*
X1584286Y1004518D02*
X1584286Y1104518D01*
X1584286Y1104518D02*
X1622381Y1104518D01*
X1622381Y1104518D02*
X1631905Y1099756D01*
X1631905Y1099756D02*
X1636667Y1094994D01*
X1636667Y1094994D02*
X1641428Y1085471D01*
X1641428Y1085471D02*
X1641428Y1071185D01*
X1641428Y1071185D02*
X1636667Y1061661D01*
X1636667Y1061661D02*
X1631905Y1056899D01*
X1631905Y1056899D02*
X1622381Y1052137D01*
X1622381Y1052137D02*
X1584286Y1052137D01*
X1727143Y1104518D02*
X1708095Y1104518D01*
X1708095Y1104518D02*
X1698571Y1099756D01*
X1698571Y1099756D02*
X1693809Y1094994D01*
X1693809Y1094994D02*
X1684286Y1080709D01*
X1684286Y1080709D02*
X1679524Y1061661D01*
X1679524Y1061661D02*
X1679524Y1023566D01*
X1679524Y1023566D02*
X1684286Y1014042D01*
X1684286Y1014042D02*
X1689048Y1009280D01*
X1689048Y1009280D02*
X1698571Y1004518D01*
X1698571Y1004518D02*
X1717619Y1004518D01*
X1717619Y1004518D02*
X1727143Y1009280D01*
X1727143Y1009280D02*
X1731905Y1014042D01*
X1731905Y1014042D02*
X1736667Y1023566D01*
X1736667Y1023566D02*
X1736667Y1047375D01*
X1736667Y1047375D02*
X1731905Y1056899D01*
X1731905Y1056899D02*
X1727143Y1061661D01*
X1727143Y1061661D02*
X1717619Y1066423D01*
X1717619Y1066423D02*
X1698571Y1066423D01*
X1698571Y1066423D02*
X1689048Y1061661D01*
X1689048Y1061661D02*
X1684286Y1056899D01*
X1684286Y1056899D02*
X1679524Y1047375D01*
D12*
X3588976Y2483929D02*
X3590167Y2482738D01*
X3590167Y2482738D02*
X3591357Y2479167D01*
X3591357Y2479167D02*
X3591357Y2476786D01*
X3591357Y2476786D02*
X3590167Y2473214D01*
X3590167Y2473214D02*
X3587786Y2470833D01*
X3587786Y2470833D02*
X3585405Y2469643D01*
X3585405Y2469643D02*
X3580643Y2468453D01*
X3580643Y2468453D02*
X3577072Y2468453D01*
X3577072Y2468453D02*
X3572310Y2469643D01*
X3572310Y2469643D02*
X3569929Y2470833D01*
X3569929Y2470833D02*
X3567548Y2473214D01*
X3567548Y2473214D02*
X3566357Y2476786D01*
X3566357Y2476786D02*
X3566357Y2479167D01*
X3566357Y2479167D02*
X3567548Y2482738D01*
X3567548Y2482738D02*
X3568738Y2483929D01*
X3591357Y2507738D02*
X3591357Y2493453D01*
X3591357Y2500595D02*
X3566357Y2500595D01*
X3566357Y2500595D02*
X3569929Y2498214D01*
X3569929Y2498214D02*
X3572310Y2495833D01*
X3572310Y2495833D02*
X3573500Y2493453D01*
X3566357Y2529167D02*
X3566357Y2524405D01*
X3566357Y2524405D02*
X3567548Y2522024D01*
X3567548Y2522024D02*
X3568738Y2520833D01*
X3568738Y2520833D02*
X3572310Y2518452D01*
X3572310Y2518452D02*
X3577072Y2517262D01*
X3577072Y2517262D02*
X3586595Y2517262D01*
X3586595Y2517262D02*
X3588976Y2518452D01*
X3588976Y2518452D02*
X3590167Y2519643D01*
X3590167Y2519643D02*
X3591357Y2522024D01*
X3591357Y2522024D02*
X3591357Y2526786D01*
X3591357Y2526786D02*
X3590167Y2529167D01*
X3590167Y2529167D02*
X3588976Y2530357D01*
X3588976Y2530357D02*
X3586595Y2531548D01*
X3586595Y2531548D02*
X3580643Y2531548D01*
X3580643Y2531548D02*
X3578262Y2530357D01*
X3578262Y2530357D02*
X3577072Y2529167D01*
X3577072Y2529167D02*
X3575881Y2526786D01*
X3575881Y2526786D02*
X3575881Y2522024D01*
X3575881Y2522024D02*
X3577072Y2519643D01*
X3577072Y2519643D02*
X3578262Y2518452D01*
X3578262Y2518452D02*
X3580643Y2517262D01*
D11*
X3134383Y844286D02*
X3136288Y842381D01*
X3136288Y842381D02*
X3138193Y836667D01*
X3138193Y836667D02*
X3138193Y832857D01*
X3138193Y832857D02*
X3136288Y827143D01*
X3136288Y827143D02*
X3132478Y823333D01*
X3132478Y823333D02*
X3128669Y821429D01*
X3128669Y821429D02*
X3121050Y819524D01*
X3121050Y819524D02*
X3115336Y819524D01*
X3115336Y819524D02*
X3107716Y821429D01*
X3107716Y821429D02*
X3103907Y823333D01*
X3103907Y823333D02*
X3100097Y827143D01*
X3100097Y827143D02*
X3098193Y832857D01*
X3098193Y832857D02*
X3098193Y836667D01*
X3098193Y836667D02*
X3100097Y842381D01*
X3100097Y842381D02*
X3102002Y844286D01*
X3138193Y882381D02*
X3138193Y859524D01*
X3138193Y870952D02*
X3098193Y870952D01*
X3098193Y870952D02*
X3103907Y867143D01*
X3103907Y867143D02*
X3107716Y863333D01*
X3107716Y863333D02*
X3109621Y859524D01*
X3102002Y897619D02*
X3100097Y899524D01*
X3100097Y899524D02*
X3098193Y903333D01*
X3098193Y903333D02*
X3098193Y912857D01*
X3098193Y912857D02*
X3100097Y916667D01*
X3100097Y916667D02*
X3102002Y918571D01*
X3102002Y918571D02*
X3105812Y920476D01*
X3105812Y920476D02*
X3109621Y920476D01*
X3109621Y920476D02*
X3115336Y918571D01*
X3115336Y918571D02*
X3138193Y895714D01*
X3138193Y895714D02*
X3138193Y920476D01*
D12*
X4825667Y1078180D02*
X4817000Y1090561D01*
X4810810Y1078180D02*
X4810810Y1104180D01*
X4810810Y1104180D02*
X4820714Y1104180D01*
X4820714Y1104180D02*
X4823191Y1102942D01*
X4823191Y1102942D02*
X4824429Y1101704D01*
X4824429Y1101704D02*
X4825667Y1099228D01*
X4825667Y1099228D02*
X4825667Y1095513D01*
X4825667Y1095513D02*
X4824429Y1093037D01*
X4824429Y1093037D02*
X4823191Y1091799D01*
X4823191Y1091799D02*
X4820714Y1090561D01*
X4820714Y1090561D02*
X4810810Y1090561D01*
X4849191Y1104180D02*
X4836810Y1104180D01*
X4836810Y1104180D02*
X4835571Y1091799D01*
X4835571Y1091799D02*
X4836810Y1093037D01*
X4836810Y1093037D02*
X4839286Y1094275D01*
X4839286Y1094275D02*
X4845476Y1094275D01*
X4845476Y1094275D02*
X4847952Y1093037D01*
X4847952Y1093037D02*
X4849191Y1091799D01*
X4849191Y1091799D02*
X4850429Y1089323D01*
X4850429Y1089323D02*
X4850429Y1083132D01*
X4850429Y1083132D02*
X4849191Y1080656D01*
X4849191Y1080656D02*
X4847952Y1079418D01*
X4847952Y1079418D02*
X4845476Y1078180D01*
X4845476Y1078180D02*
X4839286Y1078180D01*
X4839286Y1078180D02*
X4836810Y1079418D01*
X4836810Y1079418D02*
X4835571Y1080656D01*
D11*
X3228193Y2540476D02*
X3188193Y2540476D01*
X3188193Y2540476D02*
X3188193Y2550000D01*
X3188193Y2550000D02*
X3190097Y2555714D01*
X3190097Y2555714D02*
X3193907Y2559524D01*
X3193907Y2559524D02*
X3197716Y2561429D01*
X3197716Y2561429D02*
X3205336Y2563333D01*
X3205336Y2563333D02*
X3211050Y2563333D01*
X3211050Y2563333D02*
X3218669Y2561429D01*
X3218669Y2561429D02*
X3222478Y2559524D01*
X3222478Y2559524D02*
X3226288Y2555714D01*
X3226288Y2555714D02*
X3228193Y2550000D01*
X3228193Y2550000D02*
X3228193Y2540476D01*
X3228193Y2601429D02*
X3228193Y2578572D01*
X3228193Y2590000D02*
X3188193Y2590000D01*
X3188193Y2590000D02*
X3193907Y2586191D01*
X3193907Y2586191D02*
X3197716Y2582381D01*
X3197716Y2582381D02*
X3199621Y2578572D01*
D12*
X4843929Y1891023D02*
X4842738Y1889833D01*
X4842738Y1889833D02*
X4839167Y1888643D01*
X4839167Y1888643D02*
X4836786Y1888643D01*
X4836786Y1888643D02*
X4833214Y1889833D01*
X4833214Y1889833D02*
X4830833Y1892214D01*
X4830833Y1892214D02*
X4829643Y1894595D01*
X4829643Y1894595D02*
X4828452Y1899357D01*
X4828452Y1899357D02*
X4828452Y1902928D01*
X4828452Y1902928D02*
X4829643Y1907690D01*
X4829643Y1907690D02*
X4830833Y1910071D01*
X4830833Y1910071D02*
X4833214Y1912452D01*
X4833214Y1912452D02*
X4836786Y1913643D01*
X4836786Y1913643D02*
X4839167Y1913643D01*
X4839167Y1913643D02*
X4842738Y1912452D01*
X4842738Y1912452D02*
X4843929Y1911262D01*
X4853452Y1911262D02*
X4854643Y1912452D01*
X4854643Y1912452D02*
X4857024Y1913643D01*
X4857024Y1913643D02*
X4862976Y1913643D01*
X4862976Y1913643D02*
X4865357Y1912452D01*
X4865357Y1912452D02*
X4866548Y1911262D01*
X4866548Y1911262D02*
X4867738Y1908881D01*
X4867738Y1908881D02*
X4867738Y1906500D01*
X4867738Y1906500D02*
X4866548Y1902928D01*
X4866548Y1902928D02*
X4852262Y1888643D01*
X4852262Y1888643D02*
X4867738Y1888643D01*
X4883214Y1913643D02*
X4885595Y1913643D01*
X4885595Y1913643D02*
X4887976Y1912452D01*
X4887976Y1912452D02*
X4889167Y1911262D01*
X4889167Y1911262D02*
X4890357Y1908881D01*
X4890357Y1908881D02*
X4891548Y1904119D01*
X4891548Y1904119D02*
X4891548Y1898166D01*
X4891548Y1898166D02*
X4890357Y1893404D01*
X4890357Y1893404D02*
X4889167Y1891023D01*
X4889167Y1891023D02*
X4887976Y1889833D01*
X4887976Y1889833D02*
X4885595Y1888643D01*
X4885595Y1888643D02*
X4883214Y1888643D01*
X4883214Y1888643D02*
X4880833Y1889833D01*
X4880833Y1889833D02*
X4879643Y1891023D01*
X4879643Y1891023D02*
X4878452Y1893404D01*
X4878452Y1893404D02*
X4877262Y1898166D01*
X4877262Y1898166D02*
X4877262Y1904119D01*
X4877262Y1904119D02*
X4878452Y1908881D01*
X4878452Y1908881D02*
X4879643Y1911262D01*
X4879643Y1911262D02*
X4880833Y1912452D01*
X4880833Y1912452D02*
X4883214Y1913643D01*
X1245833Y1061024D02*
X1244643Y1059833D01*
X1244643Y1059833D02*
X1241071Y1058643D01*
X1241071Y1058643D02*
X1238691Y1058643D01*
X1238691Y1058643D02*
X1235119Y1059833D01*
X1235119Y1059833D02*
X1232738Y1062214D01*
X1232738Y1062214D02*
X1231548Y1064595D01*
X1231548Y1064595D02*
X1230357Y1069357D01*
X1230357Y1069357D02*
X1230357Y1072928D01*
X1230357Y1072928D02*
X1231548Y1077690D01*
X1231548Y1077690D02*
X1232738Y1080071D01*
X1232738Y1080071D02*
X1235119Y1082452D01*
X1235119Y1082452D02*
X1238691Y1083643D01*
X1238691Y1083643D02*
X1241071Y1083643D01*
X1241071Y1083643D02*
X1244643Y1082452D01*
X1244643Y1082452D02*
X1245833Y1081262D01*
X1260119Y1072928D02*
X1257738Y1074119D01*
X1257738Y1074119D02*
X1256548Y1075309D01*
X1256548Y1075309D02*
X1255357Y1077690D01*
X1255357Y1077690D02*
X1255357Y1078881D01*
X1255357Y1078881D02*
X1256548Y1081262D01*
X1256548Y1081262D02*
X1257738Y1082452D01*
X1257738Y1082452D02*
X1260119Y1083643D01*
X1260119Y1083643D02*
X1264881Y1083643D01*
X1264881Y1083643D02*
X1267262Y1082452D01*
X1267262Y1082452D02*
X1268452Y1081262D01*
X1268452Y1081262D02*
X1269643Y1078881D01*
X1269643Y1078881D02*
X1269643Y1077690D01*
X1269643Y1077690D02*
X1268452Y1075309D01*
X1268452Y1075309D02*
X1267262Y1074119D01*
X1267262Y1074119D02*
X1264881Y1072928D01*
X1264881Y1072928D02*
X1260119Y1072928D01*
X1260119Y1072928D02*
X1257738Y1071738D01*
X1257738Y1071738D02*
X1256548Y1070547D01*
X1256548Y1070547D02*
X1255357Y1068166D01*
X1255357Y1068166D02*
X1255357Y1063405D01*
X1255357Y1063405D02*
X1256548Y1061024D01*
X1256548Y1061024D02*
X1257738Y1059833D01*
X1257738Y1059833D02*
X1260119Y1058643D01*
X1260119Y1058643D02*
X1264881Y1058643D01*
X1264881Y1058643D02*
X1267262Y1059833D01*
X1267262Y1059833D02*
X1268452Y1061024D01*
X1268452Y1061024D02*
X1269643Y1063405D01*
X1269643Y1063405D02*
X1269643Y1068166D01*
X1269643Y1068166D02*
X1268452Y1070547D01*
X1268452Y1070547D02*
X1267262Y1071738D01*
X1267262Y1071738D02*
X1264881Y1072928D01*
X2831820Y1033286D02*
X2819439Y1024619D01*
X2831820Y1018429D02*
X2805820Y1018429D01*
X2805820Y1018429D02*
X2805820Y1028333D01*
X2805820Y1028333D02*
X2807058Y1030810D01*
X2807058Y1030810D02*
X2808296Y1032048D01*
X2808296Y1032048D02*
X2810772Y1033286D01*
X2810772Y1033286D02*
X2814487Y1033286D01*
X2814487Y1033286D02*
X2816963Y1032048D01*
X2816963Y1032048D02*
X2818201Y1030810D01*
X2818201Y1030810D02*
X2819439Y1028333D01*
X2819439Y1028333D02*
X2819439Y1018429D01*
X2831820Y1058048D02*
X2831820Y1043190D01*
X2831820Y1050619D02*
X2805820Y1050619D01*
X2805820Y1050619D02*
X2809534Y1048143D01*
X2809534Y1048143D02*
X2812010Y1045667D01*
X2812010Y1045667D02*
X2813249Y1043190D01*
X2805820Y1074143D02*
X2805820Y1076619D01*
X2805820Y1076619D02*
X2807058Y1079095D01*
X2807058Y1079095D02*
X2808296Y1080333D01*
X2808296Y1080333D02*
X2810772Y1081572D01*
X2810772Y1081572D02*
X2815725Y1082810D01*
X2815725Y1082810D02*
X2821915Y1082810D01*
X2821915Y1082810D02*
X2826868Y1081572D01*
X2826868Y1081572D02*
X2829344Y1080333D01*
X2829344Y1080333D02*
X2830582Y1079095D01*
X2830582Y1079095D02*
X2831820Y1076619D01*
X2831820Y1076619D02*
X2831820Y1074143D01*
X2831820Y1074143D02*
X2830582Y1071667D01*
X2830582Y1071667D02*
X2829344Y1070429D01*
X2829344Y1070429D02*
X2826868Y1069191D01*
X2826868Y1069191D02*
X2821915Y1067952D01*
X2821915Y1067952D02*
X2815725Y1067952D01*
X2815725Y1067952D02*
X2810772Y1069191D01*
X2810772Y1069191D02*
X2808296Y1070429D01*
X2808296Y1070429D02*
X2807058Y1071667D01*
X2807058Y1071667D02*
X2805820Y1074143D01*
D10*
X1733809Y754518D02*
X1790952Y754518D01*
X1762381Y654518D02*
X1762381Y754518D01*
X1824286Y654518D02*
X1824286Y754518D01*
X1824286Y754518D02*
X1862381Y754518D01*
X1862381Y754518D02*
X1871905Y749756D01*
X1871905Y749756D02*
X1876667Y744994D01*
X1876667Y744994D02*
X1881428Y735470D01*
X1881428Y735470D02*
X1881428Y721185D01*
X1881428Y721185D02*
X1876667Y711661D01*
X1876667Y711661D02*
X1871905Y706899D01*
X1871905Y706899D02*
X1862381Y702137D01*
X1862381Y702137D02*
X1824286Y702137D01*
X1971905Y754518D02*
X1924286Y754518D01*
X1924286Y754518D02*
X1919524Y706899D01*
X1919524Y706899D02*
X1924286Y711661D01*
X1924286Y711661D02*
X1933809Y716423D01*
X1933809Y716423D02*
X1957619Y716423D01*
X1957619Y716423D02*
X1967143Y711661D01*
X1967143Y711661D02*
X1971905Y706899D01*
X1971905Y706899D02*
X1976667Y697375D01*
X1976667Y697375D02*
X1976667Y673566D01*
X1976667Y673566D02*
X1971905Y664042D01*
X1971905Y664042D02*
X1967143Y659280D01*
X1967143Y659280D02*
X1957619Y654518D01*
X1957619Y654518D02*
X1933809Y654518D01*
X1933809Y654518D02*
X1924286Y659280D01*
X1924286Y659280D02*
X1919524Y664042D01*
D14*
X1322481Y1273095D02*
X1272481Y1273095D01*
X1272481Y1273095D02*
X1272481Y1285000D01*
X1272481Y1285000D02*
X1274862Y1292143D01*
X1274862Y1292143D02*
X1279624Y1296905D01*
X1279624Y1296905D02*
X1284386Y1299286D01*
X1284386Y1299286D02*
X1293910Y1301667D01*
X1293910Y1301667D02*
X1301052Y1301667D01*
X1301052Y1301667D02*
X1310576Y1299286D01*
X1310576Y1299286D02*
X1315338Y1296905D01*
X1315338Y1296905D02*
X1320100Y1292143D01*
X1320100Y1292143D02*
X1322481Y1285000D01*
X1322481Y1285000D02*
X1322481Y1273095D01*
X1289148Y1344524D02*
X1322481Y1344524D01*
X1270100Y1332619D02*
X1305814Y1320714D01*
X1305814Y1320714D02*
X1305814Y1351667D01*
X1296298Y1254345D02*
X1296298Y1369941D01*
D11*
X988193Y439524D02*
X1020574Y439524D01*
X1020574Y439524D02*
X1024383Y441429D01*
X1024383Y441429D02*
X1026288Y443333D01*
X1026288Y443333D02*
X1028193Y447143D01*
X1028193Y447143D02*
X1028193Y454762D01*
X1028193Y454762D02*
X1026288Y458571D01*
X1026288Y458571D02*
X1024383Y460476D01*
X1024383Y460476D02*
X1020574Y462381D01*
X1020574Y462381D02*
X988193Y462381D01*
X992002Y479524D02*
X990097Y481429D01*
X990097Y481429D02*
X988193Y485238D01*
X988193Y485238D02*
X988193Y494762D01*
X988193Y494762D02*
X990097Y498571D01*
X990097Y498571D02*
X992002Y500476D01*
X992002Y500476D02*
X995812Y502381D01*
X995812Y502381D02*
X999621Y502381D01*
X999621Y502381D02*
X1005336Y500476D01*
X1005336Y500476D02*
X1028193Y477619D01*
X1028193Y477619D02*
X1028193Y502381D01*
D12*
X1662288Y1885017D02*
X1660605Y1885017D01*
X1660605Y1885017D02*
X1657238Y1886700D01*
X1657238Y1886700D02*
X1655554Y1888384D01*
X1655554Y1888384D02*
X1653870Y1891751D01*
X1653870Y1891751D02*
X1653870Y1895118D01*
X1653870Y1895118D02*
X1654712Y1897644D01*
X1654712Y1897644D02*
X1657238Y1901853D01*
X1657238Y1901853D02*
X1659763Y1904378D01*
X1659763Y1904378D02*
X1663972Y1906903D01*
X1663972Y1906903D02*
X1666497Y1907745D01*
X1666497Y1907745D02*
X1669864Y1907745D01*
X1669864Y1907745D02*
X1673232Y1906062D01*
X1673232Y1906062D02*
X1674915Y1904378D01*
X1674915Y1904378D02*
X1676599Y1901011D01*
X1676599Y1901011D02*
X1676599Y1899327D01*
X1677441Y1866497D02*
X1667339Y1876599D01*
X1672390Y1871548D02*
X1690068Y1889226D01*
X1690068Y1889226D02*
X1685859Y1888384D01*
X1685859Y1888384D02*
X1682491Y1888384D01*
X1682491Y1888384D02*
X1679966Y1889226D01*
X1701011Y1878283D02*
X1712796Y1866497D01*
X1712796Y1866497D02*
X1687542Y1856396D01*
X2173401Y1030706D02*
X2173401Y1029023D01*
X2173401Y1029023D02*
X2171718Y1025656D01*
X2171718Y1025656D02*
X2170034Y1023972D01*
X2170034Y1023972D02*
X2166667Y1022288D01*
X2166667Y1022288D02*
X2163300Y1022288D01*
X2163300Y1022288D02*
X2160774Y1023130D01*
X2160774Y1023130D02*
X2156565Y1025656D01*
X2156565Y1025656D02*
X2154040Y1028181D01*
X2154040Y1028181D02*
X2151514Y1032390D01*
X2151514Y1032390D02*
X2150673Y1034915D01*
X2150673Y1034915D02*
X2150673Y1038283D01*
X2150673Y1038283D02*
X2152356Y1041650D01*
X2152356Y1041650D02*
X2154040Y1043333D01*
X2154040Y1043333D02*
X2157407Y1045017D01*
X2157407Y1045017D02*
X2159091Y1045017D01*
X2163300Y1052593D02*
X2174243Y1063536D01*
X2174243Y1063536D02*
X2175085Y1050910D01*
X2175085Y1050910D02*
X2177610Y1053435D01*
X2177610Y1053435D02*
X2180135Y1054277D01*
X2180135Y1054277D02*
X2181819Y1054277D01*
X2181819Y1054277D02*
X2184344Y1053435D01*
X2184344Y1053435D02*
X2188553Y1049226D01*
X2188553Y1049226D02*
X2189395Y1046700D01*
X2189395Y1046700D02*
X2189395Y1045017D01*
X2189395Y1045017D02*
X2188553Y1042492D01*
X2188553Y1042492D02*
X2183503Y1037441D01*
X2183503Y1037441D02*
X2180977Y1036599D01*
X2180977Y1036599D02*
X2179294Y1036599D01*
D10*
X2904154Y798123D02*
X2904154Y858123D01*
X2904154Y858123D02*
X2918440Y858123D01*
X2918440Y858123D02*
X2927011Y855266D01*
X2927011Y855266D02*
X2932725Y849551D01*
X2932725Y849551D02*
X2935583Y843837D01*
X2935583Y843837D02*
X2938440Y832409D01*
X2938440Y832409D02*
X2938440Y823837D01*
X2938440Y823837D02*
X2935583Y812409D01*
X2935583Y812409D02*
X2932725Y806694D01*
X2932725Y806694D02*
X2927011Y800980D01*
X2927011Y800980D02*
X2918440Y798123D01*
X2918440Y798123D02*
X2904154Y798123D01*
X2958440Y858123D02*
X2995583Y858123D01*
X2995583Y858123D02*
X2975583Y835266D01*
X2975583Y835266D02*
X2984154Y835266D01*
X2984154Y835266D02*
X2989868Y832409D01*
X2989868Y832409D02*
X2992725Y829551D01*
X2992725Y829551D02*
X2995583Y823837D01*
X2995583Y823837D02*
X2995583Y809551D01*
X2995583Y809551D02*
X2992725Y803837D01*
X2992725Y803837D02*
X2989868Y800980D01*
X2989868Y800980D02*
X2984154Y798123D01*
X2984154Y798123D02*
X2967011Y798123D01*
X2967011Y798123D02*
X2961297Y800980D01*
X2961297Y800980D02*
X2958440Y803837D01*
D12*
X1770706Y1986599D02*
X1769023Y1986599D01*
X1769023Y1986599D02*
X1765656Y1988282D01*
X1765656Y1988282D02*
X1763972Y1989966D01*
X1763972Y1989966D02*
X1762288Y1993333D01*
X1762288Y1993333D02*
X1762288Y1996700D01*
X1762288Y1996700D02*
X1763130Y1999226D01*
X1763130Y1999226D02*
X1765656Y2003435D01*
X1765656Y2003435D02*
X1768181Y2005960D01*
X1768181Y2005960D02*
X1772390Y2008486D01*
X1772390Y2008486D02*
X1774915Y2009327D01*
X1774915Y2009327D02*
X1778282Y2009327D01*
X1778282Y2009327D02*
X1781650Y2007644D01*
X1781650Y2007644D02*
X1783333Y2005960D01*
X1783333Y2005960D02*
X1785017Y2002593D01*
X1785017Y2002593D02*
X1785017Y2000909D01*
X1785859Y1968079D02*
X1775757Y1978181D01*
X1780808Y1973130D02*
X1798485Y1990808D01*
X1798485Y1990808D02*
X1794277Y1989966D01*
X1794277Y1989966D02*
X1790909Y1989966D01*
X1790909Y1989966D02*
X1788384Y1990808D01*
D11*
X1024286Y745617D02*
X1022381Y743712D01*
X1022381Y743712D02*
X1016667Y741807D01*
X1016667Y741807D02*
X1012857Y741807D01*
X1012857Y741807D02*
X1007143Y743712D01*
X1007143Y743712D02*
X1003333Y747522D01*
X1003333Y747522D02*
X1001429Y751331D01*
X1001429Y751331D02*
X999524Y758950D01*
X999524Y758950D02*
X999524Y764664D01*
X999524Y764664D02*
X1001429Y772283D01*
X1001429Y772283D02*
X1003333Y776093D01*
X1003333Y776093D02*
X1007143Y779902D01*
X1007143Y779902D02*
X1012857Y781807D01*
X1012857Y781807D02*
X1016667Y781807D01*
X1016667Y781807D02*
X1022381Y779902D01*
X1022381Y779902D02*
X1024286Y777998D01*
X1062381Y741807D02*
X1039524Y741807D01*
X1050952Y741807D02*
X1050952Y781807D01*
X1050952Y781807D02*
X1047143Y776093D01*
X1047143Y776093D02*
X1043333Y772283D01*
X1043333Y772283D02*
X1039524Y770379D01*
X1087143Y781807D02*
X1090952Y781807D01*
X1090952Y781807D02*
X1094762Y779902D01*
X1094762Y779902D02*
X1096667Y777998D01*
X1096667Y777998D02*
X1098571Y774188D01*
X1098571Y774188D02*
X1100476Y766569D01*
X1100476Y766569D02*
X1100476Y757045D01*
X1100476Y757045D02*
X1098571Y749426D01*
X1098571Y749426D02*
X1096667Y745617D01*
X1096667Y745617D02*
X1094762Y743712D01*
X1094762Y743712D02*
X1090952Y741807D01*
X1090952Y741807D02*
X1087143Y741807D01*
X1087143Y741807D02*
X1083333Y743712D01*
X1083333Y743712D02*
X1081429Y745617D01*
X1081429Y745617D02*
X1079524Y749426D01*
X1079524Y749426D02*
X1077619Y757045D01*
X1077619Y757045D02*
X1077619Y766569D01*
X1077619Y766569D02*
X1079524Y774188D01*
X1079524Y774188D02*
X1081429Y777998D01*
X1081429Y777998D02*
X1083333Y779902D01*
X1083333Y779902D02*
X1087143Y781807D01*
D15*
G04 #@! TO.C,U1*
X2924264Y1670711D02*
X2924264Y1529289D01*
X2500000Y1105025D01*
X2005025Y1600000D01*
X2500000Y2094975D01*
X2924264Y1670711D01*
G04 #@! TO.C,C4*
X1955147Y1051716D02*
X2068284Y1164853D01*
X2011716Y995147D02*
X1955147Y1051716D01*
X2068284Y1164853D02*
X2124853Y1108284D01*
X2124853Y1108284D02*
X2011716Y995147D01*
G04 #@! TO.C,C13*
X1240000Y930000D02*
X1320000Y930000D01*
X1240000Y770000D02*
X1240000Y930000D01*
X1320000Y930000D02*
X1320000Y770000D01*
X1320000Y770000D02*
X1240000Y770000D01*
G04 #@! TO.C,C19*
X4740000Y1810000D02*
X4900000Y1810000D01*
X4740000Y1730000D02*
X4740000Y1810000D01*
X4900000Y1810000D02*
X4900000Y1730000D01*
X4900000Y1730000D02*
X4740000Y1730000D01*
G04 #@! TO.C,R8*
X2893000Y1152500D02*
X2947000Y1152500D01*
X2893000Y1047500D02*
X2893000Y1152500D01*
X2947000Y1152500D02*
X2947000Y1047500D01*
X2947000Y1047500D02*
X2893000Y1047500D01*
G04 #@! TO.C,R3*
X3173000Y2872500D02*
X3227000Y2872500D01*
X3173000Y2767500D02*
X3173000Y2872500D01*
X3227000Y2872500D02*
X3227000Y2767500D01*
X3227000Y2767500D02*
X3173000Y2767500D01*
G04 #@! TO.C,R1*
X4768500Y1387000D02*
X4873500Y1387000D01*
X4768500Y1333000D02*
X4768500Y1387000D01*
X4873500Y1387000D02*
X4873500Y1333000D01*
X4873500Y1333000D02*
X4768500Y1333000D01*
G04 #@! TO.C,R9*
X2693000Y992500D02*
X2747000Y992500D01*
X2693000Y887500D02*
X2693000Y992500D01*
X2747000Y992500D02*
X2747000Y887500D01*
X2747000Y887500D02*
X2693000Y887500D01*
G04 #@! TO.C,C5*
X3126967Y1732322D02*
X3197678Y1803033D01*
X3162322Y1696967D02*
X3126967Y1732322D01*
X3197678Y1803033D02*
X3233033Y1767678D01*
X3233033Y1767678D02*
X3162322Y1696967D01*
G04 #@! TO.C,C14*
X1375000Y900000D02*
X1425000Y900000D01*
X1375000Y800000D02*
X1375000Y900000D01*
X1425000Y900000D02*
X1425000Y800000D01*
X1425000Y800000D02*
X1375000Y800000D01*
G04 #@! TO.C,C9*
X1010000Y1520000D02*
X1170000Y1520000D01*
X1010000Y1440000D02*
X1010000Y1520000D01*
X1170000Y1520000D02*
X1170000Y1440000D01*
X1170000Y1440000D02*
X1010000Y1440000D01*
G04 #@! TO.C,D2*
X995000Y1345000D02*
X1085000Y1345000D01*
X995000Y1215000D02*
X995000Y1345000D01*
X1020000Y1300000D02*
X1060000Y1300000D01*
X1020000Y1270000D02*
X1060000Y1270000D01*
X1040000Y1300000D02*
X1020000Y1270000D01*
X1040000Y1300000D02*
X1040000Y1315000D01*
X1040000Y1270000D02*
X1040000Y1255000D01*
X1060000Y1270000D02*
X1040000Y1300000D01*
X1085000Y1345000D02*
X1085000Y1215000D01*
X1085000Y1215000D02*
X995000Y1215000D01*
G04 #@! TO.C,R4*
X3907500Y1207000D02*
X4012500Y1207000D01*
X3907500Y1153000D02*
X3907500Y1207000D01*
X4012500Y1207000D02*
X4012500Y1153000D01*
X4012500Y1153000D02*
X3907500Y1153000D01*
X3326500Y1036000D02*
X3834500Y1036000D01*
X3834500Y1046000D02*
G75*
G02*
X3834500Y1036000I0J-5000D01*
G01*
X3834500Y1046000D02*
X3326500Y1046000D01*
X3326500Y1046000D02*
G75*
G03*
X3326500Y1036000I0J-5000D01*
G01*
X3331500Y279000D02*
X3331500Y1041000D01*
X3321500Y1041000D02*
G75*
G02*
X3331500Y1041000I5000J0D01*
G01*
X3321500Y1041000D02*
X3321500Y279000D01*
X3321500Y279000D02*
G75*
G03*
X3331500Y279000I5000J0D01*
G01*
X3707500Y284000D02*
X3326500Y284000D01*
X3326500Y274000D02*
G75*
G02*
X3326500Y284000I0J5000D01*
G01*
X3326500Y274000D02*
X3707500Y274000D01*
X3707500Y274000D02*
G75*
G03*
X3707500Y284000I0J5000D01*
G01*
X3829500Y1041000D02*
X3829500Y406000D01*
X3839500Y406000D02*
G75*
G02*
X3829500Y406000I-5000J0D01*
G01*
X3839500Y406000D02*
X3839500Y1041000D01*
X3839500Y1041000D02*
G75*
G03*
X3829500Y1041000I-5000J0D01*
G01*
X3830964Y409535D02*
X3703964Y282536D01*
X3711035Y275465D02*
G75*
G02*
X3703964Y282536I-3536J3536D01*
G01*
X3711036Y275465D02*
X3838035Y402464D01*
X3838035Y402464D02*
G75*
G03*
X3830964Y409535I-3536J3536D01*
G01*
G04 #@! TO.C,C11*
X932500Y230000D02*
X1092500Y230000D01*
X932500Y150000D02*
X932500Y230000D01*
X1092500Y230000D02*
X1092500Y150000D01*
X1092500Y150000D02*
X932500Y150000D01*
G04 #@! TO.C,R6*
X4777500Y1587000D02*
X4882500Y1587000D01*
X4777500Y1533000D02*
X4777500Y1587000D01*
X4882500Y1587000D02*
X4882500Y1533000D01*
X4882500Y1533000D02*
X4777500Y1533000D01*
X1665000Y282500D02*
X1665000Y532500D01*
X1655000Y532500D02*
G75*
G02*
X1665000Y532500I5000J0D01*
G01*
X1655000Y532500D02*
X1655000Y282500D01*
X1655000Y282500D02*
G75*
G03*
X1665000Y282500I5000J0D01*
G01*
X1810000Y287500D02*
X1660000Y287500D01*
X1660000Y277500D02*
G75*
G02*
X1660000Y287500I0J5000D01*
G01*
X1660000Y277500D02*
X1810000Y277500D01*
X1810000Y277500D02*
G75*
G03*
X1810000Y287500I0J5000D01*
G01*
X1860000Y537500D02*
X1660000Y537500D01*
X1660000Y527500D02*
G75*
G02*
X1660000Y537500I0J5000D01*
G01*
X1660000Y527500D02*
X1860000Y527500D01*
X1860000Y527500D02*
G75*
G03*
X1860000Y537500I0J5000D01*
G01*
X1856464Y336036D02*
X1806464Y286036D01*
X1813535Y278965D02*
G75*
G02*
X1806464Y286036I-3536J3536D01*
G01*
X1813536Y278965D02*
X1863535Y328964D01*
X1863535Y328965D02*
G75*
G03*
X1856464Y336036I-3536J3536D01*
G01*
X1865000Y332500D02*
X1865000Y532500D01*
X1855000Y532500D02*
G75*
G02*
X1865000Y532500I5000J0D01*
G01*
X1855000Y532500D02*
X1855000Y332500D01*
X1855000Y332500D02*
G75*
G03*
X1865000Y332500I5000J0D01*
G01*
G04 #@! TO.C,C6*
X3225147Y1681716D02*
X3338284Y1794853D01*
X3281716Y1625147D02*
X3225147Y1681716D01*
X3338284Y1794853D02*
X3394853Y1738284D01*
X3394853Y1738284D02*
X3281716Y1625147D01*
G04 #@! TO.C,FID1*
X350000Y100000D02*
G75*
G02*
X250000Y100000I-50000J0D01*
G01*
X250000Y100000D02*
G75*
G02*
X350000Y100000I50000J0D01*
G01*
G04 #@! TO.C,C2*
X1745147Y2138284D02*
X1801716Y2194853D01*
X1801716Y2194853D02*
X1914853Y2081716D01*
X1858284Y2025147D02*
X1745147Y2138284D01*
X1914853Y2081716D02*
X1858284Y2025147D01*
G04 #@! TO.C,R12*
X1473000Y902500D02*
X1527000Y902500D01*
X1473000Y797500D02*
X1473000Y902500D01*
X1527000Y902500D02*
X1527000Y797500D01*
X1527000Y797500D02*
X1473000Y797500D01*
G04 #@! TO.C,C18*
X1866967Y1202322D02*
X1937678Y1273033D01*
X1902322Y1166967D02*
X1866967Y1202322D01*
X1937678Y1273033D02*
X1973033Y1237678D01*
X1973033Y1237678D02*
X1902322Y1166967D01*
G04 #@! TO.C,FID2*
X4800000Y4700000D02*
G75*
G02*
X4700000Y4700000I-50000J0D01*
G01*
X4700000Y4700000D02*
G75*
G02*
X4800000Y4700000I50000J0D01*
G01*
G04 #@! TO.C,FID3*
X4700000Y100000D02*
G75*
G02*
X4600000Y100000I-50000J0D01*
G01*
X4600000Y100000D02*
G75*
G02*
X4700000Y100000I50000J0D01*
G01*
G04 #@! TO.C,C15*
X3350000Y2620000D02*
X3430000Y2620000D01*
X3350000Y2460000D02*
X3350000Y2620000D01*
X3430000Y2620000D02*
X3430000Y2460000D01*
X3430000Y2460000D02*
X3350000Y2460000D01*
X3937500Y772000D02*
X4042500Y772000D01*
X4042500Y782000D02*
G75*
G02*
X4042500Y772000I0J-5000D01*
G01*
X4042500Y782000D02*
X3937500Y782000D01*
X3937500Y782000D02*
G75*
G03*
X3937500Y772000I0J-5000D01*
G01*
X3942500Y723000D02*
X3942500Y777000D01*
X3932500Y777000D02*
G75*
G02*
X3942500Y777000I5000J0D01*
G01*
X3932500Y777000D02*
X3932500Y723000D01*
X3932500Y723000D02*
G75*
G03*
X3942500Y723000I5000J0D01*
G01*
X4037500Y777000D02*
X4037500Y723000D01*
X4047500Y723000D02*
G75*
G02*
X4037500Y723000I-5000J0D01*
G01*
X4047500Y723000D02*
X4047500Y777000D01*
X4047500Y777000D02*
G75*
G03*
X4037500Y777000I-5000J0D01*
G01*
X4042500Y728000D02*
X3937500Y728000D01*
X3937500Y718000D02*
G75*
G02*
X3937500Y728000I0J5000D01*
G01*
X3937500Y718000D02*
X4042500Y718000D01*
X4042500Y718000D02*
G75*
G03*
X4042500Y728000I0J5000D01*
G01*
G04 #@! TO.C,R11*
X1577500Y647000D02*
X1682500Y647000D01*
X1577500Y593000D02*
X1577500Y647000D01*
X1682500Y647000D02*
X1682500Y593000D01*
X1682500Y593000D02*
X1577500Y593000D01*
G04 #@! TO.C,C7*
X1545000Y380000D02*
X1595000Y380000D01*
X1545000Y280000D02*
X1545000Y380000D01*
X1595000Y380000D02*
X1595000Y280000D01*
X1595000Y280000D02*
X1545000Y280000D01*
G04 #@! TO.C,C16*
X3555000Y2550000D02*
X3605000Y2550000D01*
X3555000Y2450000D02*
X3555000Y2550000D01*
X3605000Y2550000D02*
X3605000Y2450000D01*
X3605000Y2450000D02*
X3555000Y2450000D01*
G04 #@! TO.C,C12*
X3080000Y950000D02*
X3160000Y950000D01*
X3080000Y790000D02*
X3080000Y950000D01*
X3160000Y950000D02*
X3160000Y790000D01*
X3160000Y790000D02*
X3080000Y790000D01*
G04 #@! TO.C,R5*
X4777500Y1117000D02*
X4882500Y1117000D01*
X4777500Y1063000D02*
X4777500Y1117000D01*
X4882500Y1117000D02*
X4882500Y1063000D01*
X4882500Y1063000D02*
X4777500Y1063000D01*
G04 #@! TO.C,D1*
X3170000Y2650000D02*
X3170000Y2520000D01*
X3170000Y2520000D02*
X3200000Y2490000D01*
X3200000Y2490000D02*
X3250000Y2490000D01*
X3250000Y2650000D02*
X3170000Y2650000D01*
X3250000Y2490000D02*
X3250000Y2650000D01*
G04 #@! TO.C,C20*
X4810000Y1925000D02*
X4910000Y1925000D01*
X4810000Y1875000D02*
X4810000Y1925000D01*
X4910000Y1925000D02*
X4910000Y1875000D01*
X4910000Y1875000D02*
X4810000Y1875000D01*
G04 #@! TO.C,C8*
X1200000Y1095000D02*
X1300000Y1095000D01*
X1200000Y1045000D02*
X1200000Y1095000D01*
X1300000Y1095000D02*
X1300000Y1045000D01*
X1300000Y1045000D02*
X1200000Y1045000D01*
G04 #@! TO.C,R10*
X2793000Y1102500D02*
X2847000Y1102500D01*
X2793000Y997500D02*
X2793000Y1102500D01*
X2847000Y1102500D02*
X2847000Y997500D01*
X2847000Y997500D02*
X2793000Y997500D01*
X1155000Y1370000D02*
X1445000Y1370000D01*
X1445000Y1380000D02*
G75*
G02*
X1445000Y1370000I0J-5000D01*
G01*
X1445000Y1380000D02*
X1155000Y1380000D01*
X1155000Y1380000D02*
G75*
G03*
X1155000Y1370000I0J-5000D01*
G01*
X1160000Y1277500D02*
X1160000Y1375000D01*
X1150000Y1375000D02*
G75*
G02*
X1160000Y1375000I5000J0D01*
G01*
X1150000Y1375000D02*
X1150000Y1277500D01*
X1150000Y1277500D02*
G75*
G03*
X1160000Y1277500I5000J0D01*
G01*
X1191036Y1248536D02*
X1158536Y1281036D01*
X1151465Y1273965D02*
G75*
G02*
X1158536Y1281036I3536J3536D01*
G01*
X1151465Y1273964D02*
X1183964Y1241465D01*
X1183965Y1241465D02*
G75*
G03*
X1191036Y1248536I3536J3536D01*
G01*
X1440000Y1375000D02*
X1440000Y1245000D01*
X1450000Y1245000D02*
G75*
G02*
X1440000Y1245000I-5000J0D01*
G01*
X1450000Y1245000D02*
X1450000Y1375000D01*
X1450000Y1375000D02*
G75*
G03*
X1440000Y1375000I-5000J0D01*
G01*
X1445000Y1250000D02*
X1187500Y1250000D01*
X1187500Y1240000D02*
G75*
G02*
X1187500Y1250000I0J5000D01*
G01*
X1187500Y1240000D02*
X1445000Y1240000D01*
X1445000Y1240000D02*
G75*
G03*
X1445000Y1250000I0J5000D01*
G01*
G04 #@! TO.C,U2*
X865000Y550000D02*
X1115000Y550000D01*
X865000Y390000D02*
X865000Y550000D01*
X1115000Y550000D02*
X1155000Y510000D01*
X1155000Y510000D02*
X1155000Y390000D01*
X1155000Y390000D02*
X865000Y390000D01*
G04 #@! TO.C,C17*
X1626967Y1897678D02*
X1662322Y1933033D01*
X1662322Y1933033D02*
X1733033Y1862322D01*
X1697678Y1826967D02*
X1626967Y1897678D01*
X1733033Y1862322D02*
X1697678Y1826967D01*
G04 #@! TO.C,C3*
X2116967Y1022322D02*
X2187678Y1093033D01*
X2152322Y986967D02*
X2116967Y1022322D01*
X2187678Y1093033D02*
X2223033Y1057678D01*
X2223033Y1057678D02*
X2152322Y986967D01*
D16*
G04 #@! TO.C,D3*
X2860000Y900000D02*
X3020000Y900000D01*
X2860000Y740000D02*
X2860000Y900000D01*
X2953000Y740000D02*
X2860000Y740000D01*
X3020000Y901000D02*
X3020000Y782000D01*
X3020000Y782000D02*
X2953000Y740000D01*
D17*
X3015000Y719000D02*
G75*
G02*
X2995000Y719000I-10000J0D01*
G01*
X2995000Y719000D02*
G75*
G02*
X3015000Y719000I10000J0D01*
G01*
D15*
G04 #@! TO.C,C1*
X1726967Y2007678D02*
X1762322Y2043033D01*
X1762322Y2043033D02*
X1833033Y1972322D01*
X1797678Y1936967D02*
X1726967Y2007678D01*
X1833033Y1972322D02*
X1797678Y1936967D01*
G04 #@! TO.C,C10*
X970000Y800000D02*
X1130000Y800000D01*
X970000Y720000D02*
X970000Y800000D01*
X1130000Y800000D02*
X1130000Y720000D01*
X1130000Y720000D02*
X970000Y720000D01*
G04 #@! TD*
X3271000Y1095500D02*
X3889000Y224500D01*
X3271000Y224500D02*
X3889000Y1095500D01*
X1617500Y575000D02*
X1902500Y240000D01*
X1617500Y240000D02*
X1902500Y575000D01*
X3892500Y801500D02*
X4087500Y698500D01*
X3892500Y698500D02*
X4087500Y801500D01*
X1125500Y1507500D02*
X1474500Y1112500D01*
X1125500Y1112500D02*
X1474500Y1507500D01*
M02*
