G04 #@! TF.GenerationSoftware,KiCad,Pcbnew,9.0.6-9.0.6~ubuntu24.04.1*
G04 #@! TF.CreationDate,2025-12-10T18:40:26-05:00*
G04 #@! TF.ProjectId,ttdbv3-fpga-ICE40UP5k,74746462-7633-42d6-9670-67612d494345,2.0*
G04 #@! TF.SameCoordinates,PX2160ec0PY4d3f640*
G04 #@! TF.FileFunction,Paste,Top*
G04 #@! TF.FilePolarity,Positive*
%FSLAX45Y45*%
G04 Gerber Fmt 4.5, Leading zero omitted, Abs format (unit mm)*
G04 Created by KiCad (PCBNEW 9.0.6-9.0.6~ubuntu24.04.1) date 2025-12-10 18:40:26*
%MOMM*%
%LPD*%
G01*
G04 APERTURE LIST*
G04 Aperture macros list*
%AMRoundRect*
0 Rectangle with rounded corners*
0 $1 Rounding radius*
0 $2 $3 $4 $5 $6 $7 $8 $9 X,Y pos of 4 corners*
0 Add a 4 corners polygon primitive as box body*
4,1,4,$2,$3,$4,$5,$6,$7,$8,$9,$2,$3,0*
0 Add four circle primitives for the rounded corners*
1,1,$1+$1,$2,$3*
1,1,$1+$1,$4,$5*
1,1,$1+$1,$6,$7*
1,1,$1+$1,$8,$9*
0 Add four rect primitives between the rounded corners*
20,1,$1+$1,$2,$3,$4,$5,0*
20,1,$1+$1,$4,$5,$6,$7,0*
20,1,$1+$1,$6,$7,$8,$9,0*
20,1,$1+$1,$8,$9,$2,$3,0*%
G04 Aperture macros list end*
%ADD10RoundRect,0.250000X0.000000X0.445477X-0.445477X0.000000X0.000000X-0.445477X0.445477X0.000000X0*%
%ADD11RoundRect,0.062500X0.220971X0.309359X-0.309359X-0.220971X-0.220971X-0.309359X0.309359X0.220971X0*%
%ADD12RoundRect,0.062500X-0.220971X0.309359X-0.309359X0.220971X0.220971X-0.309359X0.309359X-0.220971X0*%
%ADD13RoundRect,0.225000X-0.017678X0.335876X-0.335876X0.017678X0.017678X-0.335876X0.335876X-0.017678X0*%
%ADD14RoundRect,0.225000X-0.250000X0.225000X-0.250000X-0.225000X0.250000X-0.225000X0.250000X0.225000X0*%
%ADD15RoundRect,0.225000X-0.225000X-0.250000X0.225000X-0.250000X0.225000X0.250000X-0.225000X0.250000X0*%
%ADD16RoundRect,0.135000X0.185000X-0.135000X0.185000X0.135000X-0.185000X0.135000X-0.185000X-0.135000X0*%
%ADD17RoundRect,0.135000X0.135000X0.185000X-0.135000X0.185000X-0.135000X-0.185000X0.135000X-0.185000X0*%
%ADD18RoundRect,0.140000X0.021213X-0.219203X0.219203X-0.021213X-0.021213X0.219203X-0.219203X0.021213X0*%
%ADD19RoundRect,0.140000X-0.170000X0.140000X-0.170000X-0.140000X0.170000X-0.140000X0.170000X0.140000X0*%
%ADD20RoundRect,0.225000X0.225000X0.250000X-0.225000X0.250000X-0.225000X-0.250000X0.225000X-0.250000X0*%
%ADD21RoundRect,0.150000X0.200000X-0.150000X0.200000X0.150000X-0.200000X0.150000X-0.200000X-0.150000X0*%
%ADD22RoundRect,0.135000X-0.135000X-0.185000X0.135000X-0.185000X0.135000X0.185000X-0.135000X0.185000X0*%
%ADD23RoundRect,0.200000X0.200000X0.250000X-0.200000X0.250000X-0.200000X-0.250000X0.200000X-0.250000X0*%
%ADD24RoundRect,0.225000X0.017678X-0.335876X0.335876X-0.017678X-0.017678X0.335876X-0.335876X0.017678X0*%
%ADD25RoundRect,0.225000X0.335876X0.017678X0.017678X0.335876X-0.335876X-0.017678X-0.017678X-0.335876X0*%
%ADD26RoundRect,0.140000X-0.021213X0.219203X-0.219203X0.021213X0.021213X-0.219203X0.219203X-0.021213X0*%
%ADD27RoundRect,0.225000X0.250000X-0.225000X0.250000X0.225000X-0.250000X0.225000X-0.250000X-0.225000X0*%
%ADD28RoundRect,0.140000X0.170000X-0.140000X0.170000X0.140000X-0.170000X0.140000X-0.170000X-0.140000X0*%
%ADD29RoundRect,0.218750X0.256250X-0.218750X0.256250X0.218750X-0.256250X0.218750X-0.256250X-0.218750X0*%
%ADD30RoundRect,0.140000X-0.140000X-0.170000X0.140000X-0.170000X0.140000X0.170000X-0.140000X0.170000X0*%
%ADD31RoundRect,0.150000X0.150000X-0.587500X0.150000X0.587500X-0.150000X0.587500X-0.150000X-0.587500X0*%
%ADD32RoundRect,0.150000X-0.150000X0.512500X-0.150000X-0.512500X0.150000X-0.512500X0.150000X0.512500X0*%
%ADD33RoundRect,0.140000X0.219203X0.021213X0.021213X0.219203X-0.219203X-0.021213X-0.021213X-0.219203X0*%
%ADD34R,0.550000X0.800000*%
G04 APERTURE END LIST*
D10*
G04 #@! TO.C,U1*
X2796985Y1600000D03*
X2697990Y1698995D03*
X2598995Y1797990D03*
X2500000Y1896985D03*
X2697990Y1501005D03*
X2598995Y1600000D03*
X2500000Y1698995D03*
X2401005Y1797990D03*
X2598995Y1402010D03*
X2500000Y1501005D03*
X2401005Y1600000D03*
X2302010Y1698995D03*
X2500000Y1303015D03*
X2401005Y1402010D03*
X2302010Y1501005D03*
X2203015Y1600000D03*
D11*
X2937522Y1648614D03*
X2902167Y1683969D03*
X2866812Y1719324D03*
X2831456Y1754680D03*
X2796101Y1790035D03*
X2760746Y1825390D03*
X2725390Y1860746D03*
X2690035Y1896101D03*
X2654680Y1931456D03*
X2619324Y1966812D03*
X2583969Y2002167D03*
X2548614Y2037522D03*
D12*
X2451386Y2037522D03*
X2416031Y2002167D03*
X2380676Y1966812D03*
X2345320Y1931456D03*
X2309965Y1896101D03*
X2274610Y1860746D03*
X2239254Y1825390D03*
X2203899Y1790035D03*
X2168544Y1754680D03*
X2133188Y1719324D03*
X2097833Y1683969D03*
X2062478Y1648614D03*
D11*
X2062478Y1551386D03*
X2097833Y1516031D03*
X2133188Y1480676D03*
X2168544Y1445320D03*
X2203899Y1409965D03*
X2239254Y1374610D03*
X2274610Y1339254D03*
X2309965Y1303899D03*
X2345320Y1268544D03*
X2380676Y1233188D03*
X2416031Y1197833D03*
X2451386Y1162478D03*
D12*
X2548614Y1162478D03*
X2583969Y1197833D03*
X2619324Y1233188D03*
X2654680Y1268544D03*
X2690035Y1303899D03*
X2725390Y1339254D03*
X2760746Y1374610D03*
X2796101Y1409965D03*
X2831456Y1445320D03*
X2866812Y1480676D03*
X2902167Y1516031D03*
X2937522Y1551386D03*
G04 #@! TD*
D13*
G04 #@! TO.C,C4*
X2094801Y1134801D03*
X1985199Y1025199D03*
G04 #@! TD*
D14*
G04 #@! TO.C,C13*
X1280000Y927500D03*
X1280000Y772500D03*
G04 #@! TD*
D15*
G04 #@! TO.C,C19*
X4742500Y1770000D03*
X4897500Y1770000D03*
G04 #@! TD*
D16*
G04 #@! TO.C,R8*
X2920000Y1049000D03*
X2920000Y1151000D03*
G04 #@! TD*
G04 #@! TO.C,R3*
X3200000Y2769000D03*
X3200000Y2871000D03*
G04 #@! TD*
D17*
G04 #@! TO.C,R1*
X4872000Y1360000D03*
X4770000Y1360000D03*
G04 #@! TD*
D16*
G04 #@! TO.C,R9*
X2720000Y889000D03*
X2720000Y991000D03*
G04 #@! TD*
D18*
G04 #@! TO.C,C5*
X3146059Y1716059D03*
X3213941Y1783941D03*
G04 #@! TD*
D19*
G04 #@! TO.C,C14*
X1400000Y898000D03*
X1400000Y802000D03*
G04 #@! TD*
D20*
G04 #@! TO.C,C9*
X1167500Y1480000D03*
X1012500Y1480000D03*
G04 #@! TD*
D21*
G04 #@! TO.C,D2*
X1040000Y1350000D03*
X1040000Y1210000D03*
G04 #@! TD*
D22*
G04 #@! TO.C,R4*
X3909000Y1180000D03*
X4011000Y1180000D03*
G04 #@! TD*
D20*
G04 #@! TO.C,C11*
X1090000Y190000D03*
X935000Y190000D03*
G04 #@! TD*
D17*
G04 #@! TO.C,R6*
X4881000Y1560000D03*
X4779000Y1560000D03*
G04 #@! TD*
D23*
G04 #@! TO.C,X1*
X1832500Y315000D03*
X1832500Y500000D03*
X1687500Y500000D03*
X1687500Y315000D03*
G04 #@! TD*
D24*
G04 #@! TO.C,C6*
X3255199Y1655199D03*
X3364801Y1764801D03*
G04 #@! TD*
D25*
G04 #@! TO.C,C2*
X1884801Y2055199D03*
X1775199Y2164801D03*
G04 #@! TD*
D16*
G04 #@! TO.C,R12*
X1500000Y799000D03*
X1500000Y901000D03*
G04 #@! TD*
D26*
G04 #@! TO.C,C18*
X1953941Y1253941D03*
X1886059Y1186059D03*
G04 #@! TD*
D27*
G04 #@! TO.C,C15*
X3390000Y2462500D03*
X3390000Y2617500D03*
G04 #@! TD*
D22*
G04 #@! TO.C,R2*
X3939000Y750000D03*
X4041000Y750000D03*
G04 #@! TD*
G04 #@! TO.C,R11*
X1579000Y620000D03*
X1681000Y620000D03*
G04 #@! TD*
D28*
G04 #@! TO.C,C7*
X1570000Y282000D03*
X1570000Y378000D03*
G04 #@! TD*
G04 #@! TO.C,C16*
X3580000Y2452000D03*
X3580000Y2548000D03*
G04 #@! TD*
D14*
G04 #@! TO.C,C12*
X3120000Y947500D03*
X3120000Y792500D03*
G04 #@! TD*
D22*
G04 #@! TO.C,R5*
X4779000Y1090000D03*
X4881000Y1090000D03*
G04 #@! TD*
D29*
G04 #@! TO.C,D1*
X3210000Y2491250D03*
X3210000Y2648750D03*
G04 #@! TD*
D30*
G04 #@! TO.C,C20*
X4812000Y1900000D03*
X4908000Y1900000D03*
G04 #@! TD*
G04 #@! TO.C,C8*
X1202000Y1070000D03*
X1298000Y1070000D03*
G04 #@! TD*
D16*
G04 #@! TO.C,R10*
X2820000Y999000D03*
X2820000Y1101000D03*
G04 #@! TD*
D31*
G04 #@! TO.C,D4*
X1205000Y1216250D03*
X1395000Y1216250D03*
X1300000Y1403750D03*
G04 #@! TD*
D32*
G04 #@! TO.C,U2*
X1105000Y583750D03*
X1010000Y583750D03*
X915000Y583750D03*
X915000Y356250D03*
X1105000Y356250D03*
G04 #@! TD*
D33*
G04 #@! TO.C,C17*
X1713941Y1846059D03*
X1646059Y1913941D03*
G04 #@! TD*
D26*
G04 #@! TO.C,C3*
X2203941Y1073941D03*
X2136059Y1006059D03*
G04 #@! TD*
D34*
G04 #@! TO.C,D3*
X2985000Y750000D03*
X2895000Y750000D03*
X2895000Y890000D03*
X2985000Y890000D03*
G04 #@! TD*
D33*
G04 #@! TO.C,C1*
X1813941Y1956059D03*
X1746059Y2023941D03*
G04 #@! TD*
D15*
G04 #@! TO.C,C10*
X972500Y760000D03*
X1127500Y760000D03*
G04 #@! TD*
M02*
