G04 #@! TF.GenerationSoftware,KiCad,Pcbnew,9.0.6-9.0.6~ubuntu24.04.1*
G04 #@! TF.CreationDate,2025-12-10T18:40:26-05:00*
G04 #@! TF.ProjectId,ttdbv3-fpga-ICE40UP5k,74746462-7633-42d6-9670-67612d494345,2.0*
G04 #@! TF.SameCoordinates,PX2160ec0PY4d3f640*
G04 #@! TF.FileFunction,Paste,Bot*
G04 #@! TF.FilePolarity,Positive*
%FSLAX45Y45*%
G04 Gerber Fmt 4.5, Leading zero omitted, Abs format (unit mm)*
G04 Created by KiCad (PCBNEW 9.0.6-9.0.6~ubuntu24.04.1) date 2025-12-10 18:40:26*
%MOMM*%
%LPD*%
G01*
G04 APERTURE LIST*
%ADD10C,0.010000*%
%ADD11R,1.800000X0.800000*%
G04 APERTURE END LIST*
D10*
G04 #@! TO.C,J1*
X4260000Y1886000D02*
X4140000Y1886000D01*
X4140000Y1914000D01*
X4260000Y1914000D01*
X4260000Y1886000D01*
G36*
X4260000Y1886000D02*
G01*
X4140000Y1886000D01*
X4140000Y1914000D01*
X4260000Y1914000D01*
X4260000Y1886000D01*
G37*
X4260000Y1836000D02*
X4140000Y1836000D01*
X4140000Y1864000D01*
X4260000Y1864000D01*
X4260000Y1836000D01*
G36*
X4260000Y1836000D02*
G01*
X4140000Y1836000D01*
X4140000Y1864000D01*
X4260000Y1864000D01*
X4260000Y1836000D01*
G37*
X4260000Y1786000D02*
X4140000Y1786000D01*
X4140000Y1814000D01*
X4260000Y1814000D01*
X4260000Y1786000D01*
G36*
X4260000Y1786000D02*
G01*
X4140000Y1786000D01*
X4140000Y1814000D01*
X4260000Y1814000D01*
X4260000Y1786000D01*
G37*
X4260000Y1736000D02*
X4140000Y1736000D01*
X4140000Y1764000D01*
X4260000Y1764000D01*
X4260000Y1736000D01*
G36*
X4260000Y1736000D02*
G01*
X4140000Y1736000D01*
X4140000Y1764000D01*
X4260000Y1764000D01*
X4260000Y1736000D01*
G37*
X4260000Y1686000D02*
X4140000Y1686000D01*
X4140000Y1714000D01*
X4260000Y1714000D01*
X4260000Y1686000D01*
G36*
X4260000Y1686000D02*
G01*
X4140000Y1686000D01*
X4140000Y1714000D01*
X4260000Y1714000D01*
X4260000Y1686000D01*
G37*
X4260000Y1636000D02*
X4140000Y1636000D01*
X4140000Y1664000D01*
X4260000Y1664000D01*
X4260000Y1636000D01*
G36*
X4260000Y1636000D02*
G01*
X4140000Y1636000D01*
X4140000Y1664000D01*
X4260000Y1664000D01*
X4260000Y1636000D01*
G37*
X4260000Y1586000D02*
X4140000Y1586000D01*
X4140000Y1614000D01*
X4260000Y1614000D01*
X4260000Y1586000D01*
G36*
X4260000Y1586000D02*
G01*
X4140000Y1586000D01*
X4140000Y1614000D01*
X4260000Y1614000D01*
X4260000Y1586000D01*
G37*
X4260000Y1536000D02*
X4140000Y1536000D01*
X4140000Y1564000D01*
X4260000Y1564000D01*
X4260000Y1536000D01*
G36*
X4260000Y1536000D02*
G01*
X4140000Y1536000D01*
X4140000Y1564000D01*
X4260000Y1564000D01*
X4260000Y1536000D01*
G37*
X4260000Y1486000D02*
X4140000Y1486000D01*
X4140000Y1514000D01*
X4260000Y1514000D01*
X4260000Y1486000D01*
G36*
X4260000Y1486000D02*
G01*
X4140000Y1486000D01*
X4140000Y1514000D01*
X4260000Y1514000D01*
X4260000Y1486000D01*
G37*
X4260000Y1436000D02*
X4140000Y1436000D01*
X4140000Y1464000D01*
X4260000Y1464000D01*
X4260000Y1436000D01*
G36*
X4260000Y1436000D02*
G01*
X4140000Y1436000D01*
X4140000Y1464000D01*
X4260000Y1464000D01*
X4260000Y1436000D01*
G37*
X4260000Y1386000D02*
X4140000Y1386000D01*
X4140000Y1414000D01*
X4260000Y1414000D01*
X4260000Y1386000D01*
G36*
X4260000Y1386000D02*
G01*
X4140000Y1386000D01*
X4140000Y1414000D01*
X4260000Y1414000D01*
X4260000Y1386000D01*
G37*
X4260000Y1336000D02*
X4140000Y1336000D01*
X4140000Y1364000D01*
X4260000Y1364000D01*
X4260000Y1336000D01*
G36*
X4260000Y1336000D02*
G01*
X4140000Y1336000D01*
X4140000Y1364000D01*
X4260000Y1364000D01*
X4260000Y1336000D01*
G37*
X4260000Y1286000D02*
X4140000Y1286000D01*
X4140000Y1314000D01*
X4260000Y1314000D01*
X4260000Y1286000D01*
G36*
X4260000Y1286000D02*
G01*
X4140000Y1286000D01*
X4140000Y1314000D01*
X4260000Y1314000D01*
X4260000Y1286000D01*
G37*
X4260000Y1236000D02*
X4140000Y1236000D01*
X4140000Y1264000D01*
X4260000Y1264000D01*
X4260000Y1236000D01*
G36*
X4260000Y1236000D02*
G01*
X4140000Y1236000D01*
X4140000Y1264000D01*
X4260000Y1264000D01*
X4260000Y1236000D01*
G37*
X4260000Y1186000D02*
X4140000Y1186000D01*
X4140000Y1214000D01*
X4260000Y1214000D01*
X4260000Y1186000D01*
G36*
X4260000Y1186000D02*
G01*
X4140000Y1186000D01*
X4140000Y1214000D01*
X4260000Y1214000D01*
X4260000Y1186000D01*
G37*
X4260000Y1136000D02*
X4140000Y1136000D01*
X4140000Y1164000D01*
X4260000Y1164000D01*
X4260000Y1136000D01*
G36*
X4260000Y1136000D02*
G01*
X4140000Y1136000D01*
X4140000Y1164000D01*
X4260000Y1164000D01*
X4260000Y1136000D01*
G37*
X4260000Y1086000D02*
X4140000Y1086000D01*
X4140000Y1114000D01*
X4260000Y1114000D01*
X4260000Y1086000D01*
G36*
X4260000Y1086000D02*
G01*
X4140000Y1086000D01*
X4140000Y1114000D01*
X4260000Y1114000D01*
X4260000Y1086000D01*
G37*
X4260000Y1036000D02*
X4140000Y1036000D01*
X4140000Y1064000D01*
X4260000Y1064000D01*
X4260000Y1036000D01*
G36*
X4260000Y1036000D02*
G01*
X4140000Y1036000D01*
X4140000Y1064000D01*
X4260000Y1064000D01*
X4260000Y1036000D01*
G37*
X4260000Y986000D02*
X4140000Y986000D01*
X4140000Y1014000D01*
X4260000Y1014000D01*
X4260000Y986000D01*
G36*
X4260000Y986000D02*
G01*
X4140000Y986000D01*
X4140000Y1014000D01*
X4260000Y1014000D01*
X4260000Y986000D01*
G37*
X4260000Y936000D02*
X4140000Y936000D01*
X4140000Y964000D01*
X4260000Y964000D01*
X4260000Y936000D01*
G36*
X4260000Y936000D02*
G01*
X4140000Y936000D01*
X4140000Y964000D01*
X4260000Y964000D01*
X4260000Y936000D01*
G37*
X4260000Y886000D02*
X4140000Y886000D01*
X4140000Y914000D01*
X4260000Y914000D01*
X4260000Y886000D01*
G36*
X4260000Y886000D02*
G01*
X4140000Y886000D01*
X4140000Y914000D01*
X4260000Y914000D01*
X4260000Y886000D01*
G37*
X4260000Y836000D02*
X4140000Y836000D01*
X4140000Y864000D01*
X4260000Y864000D01*
X4260000Y836000D01*
G36*
X4260000Y836000D02*
G01*
X4140000Y836000D01*
X4140000Y864000D01*
X4260000Y864000D01*
X4260000Y836000D01*
G37*
X4260000Y786000D02*
X4140000Y786000D01*
X4140000Y814000D01*
X4260000Y814000D01*
X4260000Y786000D01*
G36*
X4260000Y786000D02*
G01*
X4140000Y786000D01*
X4140000Y814000D01*
X4260000Y814000D01*
X4260000Y786000D01*
G37*
X4260000Y736000D02*
X4140000Y736000D01*
X4140000Y764000D01*
X4260000Y764000D01*
X4260000Y736000D01*
G36*
X4260000Y736000D02*
G01*
X4140000Y736000D01*
X4140000Y764000D01*
X4260000Y764000D01*
X4260000Y736000D01*
G37*
X4260000Y686000D02*
X4140000Y686000D01*
X4140000Y714000D01*
X4260000Y714000D01*
X4260000Y686000D01*
G36*
X4260000Y686000D02*
G01*
X4140000Y686000D01*
X4140000Y714000D01*
X4260000Y714000D01*
X4260000Y686000D01*
G37*
X4660000Y1886000D02*
X4540000Y1886000D01*
X4540000Y1914000D01*
X4660000Y1914000D01*
X4660000Y1886000D01*
G36*
X4660000Y1886000D02*
G01*
X4540000Y1886000D01*
X4540000Y1914000D01*
X4660000Y1914000D01*
X4660000Y1886000D01*
G37*
X4660000Y1836000D02*
X4540000Y1836000D01*
X4540000Y1864000D01*
X4660000Y1864000D01*
X4660000Y1836000D01*
G36*
X4660000Y1836000D02*
G01*
X4540000Y1836000D01*
X4540000Y1864000D01*
X4660000Y1864000D01*
X4660000Y1836000D01*
G37*
X4660000Y1786000D02*
X4540000Y1786000D01*
X4540000Y1814000D01*
X4660000Y1814000D01*
X4660000Y1786000D01*
G36*
X4660000Y1786000D02*
G01*
X4540000Y1786000D01*
X4540000Y1814000D01*
X4660000Y1814000D01*
X4660000Y1786000D01*
G37*
X4660000Y1736000D02*
X4540000Y1736000D01*
X4540000Y1764000D01*
X4660000Y1764000D01*
X4660000Y1736000D01*
G36*
X4660000Y1736000D02*
G01*
X4540000Y1736000D01*
X4540000Y1764000D01*
X4660000Y1764000D01*
X4660000Y1736000D01*
G37*
X4660000Y1686000D02*
X4540000Y1686000D01*
X4540000Y1714000D01*
X4660000Y1714000D01*
X4660000Y1686000D01*
G36*
X4660000Y1686000D02*
G01*
X4540000Y1686000D01*
X4540000Y1714000D01*
X4660000Y1714000D01*
X4660000Y1686000D01*
G37*
X4660000Y1636000D02*
X4540000Y1636000D01*
X4540000Y1664000D01*
X4660000Y1664000D01*
X4660000Y1636000D01*
G36*
X4660000Y1636000D02*
G01*
X4540000Y1636000D01*
X4540000Y1664000D01*
X4660000Y1664000D01*
X4660000Y1636000D01*
G37*
X4660000Y1586000D02*
X4540000Y1586000D01*
X4540000Y1614000D01*
X4660000Y1614000D01*
X4660000Y1586000D01*
G36*
X4660000Y1586000D02*
G01*
X4540000Y1586000D01*
X4540000Y1614000D01*
X4660000Y1614000D01*
X4660000Y1586000D01*
G37*
X4660000Y1536000D02*
X4540000Y1536000D01*
X4540000Y1564000D01*
X4660000Y1564000D01*
X4660000Y1536000D01*
G36*
X4660000Y1536000D02*
G01*
X4540000Y1536000D01*
X4540000Y1564000D01*
X4660000Y1564000D01*
X4660000Y1536000D01*
G37*
X4660000Y1486000D02*
X4540000Y1486000D01*
X4540000Y1514000D01*
X4660000Y1514000D01*
X4660000Y1486000D01*
G36*
X4660000Y1486000D02*
G01*
X4540000Y1486000D01*
X4540000Y1514000D01*
X4660000Y1514000D01*
X4660000Y1486000D01*
G37*
X4660000Y1436000D02*
X4540000Y1436000D01*
X4540000Y1464000D01*
X4660000Y1464000D01*
X4660000Y1436000D01*
G36*
X4660000Y1436000D02*
G01*
X4540000Y1436000D01*
X4540000Y1464000D01*
X4660000Y1464000D01*
X4660000Y1436000D01*
G37*
X4660000Y1386000D02*
X4540000Y1386000D01*
X4540000Y1414000D01*
X4660000Y1414000D01*
X4660000Y1386000D01*
G36*
X4660000Y1386000D02*
G01*
X4540000Y1386000D01*
X4540000Y1414000D01*
X4660000Y1414000D01*
X4660000Y1386000D01*
G37*
X4660000Y1336000D02*
X4540000Y1336000D01*
X4540000Y1364000D01*
X4660000Y1364000D01*
X4660000Y1336000D01*
G36*
X4660000Y1336000D02*
G01*
X4540000Y1336000D01*
X4540000Y1364000D01*
X4660000Y1364000D01*
X4660000Y1336000D01*
G37*
X4660000Y1286000D02*
X4540000Y1286000D01*
X4540000Y1314000D01*
X4660000Y1314000D01*
X4660000Y1286000D01*
G36*
X4660000Y1286000D02*
G01*
X4540000Y1286000D01*
X4540000Y1314000D01*
X4660000Y1314000D01*
X4660000Y1286000D01*
G37*
X4660000Y1236000D02*
X4540000Y1236000D01*
X4540000Y1264000D01*
X4660000Y1264000D01*
X4660000Y1236000D01*
G36*
X4660000Y1236000D02*
G01*
X4540000Y1236000D01*
X4540000Y1264000D01*
X4660000Y1264000D01*
X4660000Y1236000D01*
G37*
X4660000Y1186000D02*
X4540000Y1186000D01*
X4540000Y1214000D01*
X4660000Y1214000D01*
X4660000Y1186000D01*
G36*
X4660000Y1186000D02*
G01*
X4540000Y1186000D01*
X4540000Y1214000D01*
X4660000Y1214000D01*
X4660000Y1186000D01*
G37*
X4660000Y1136000D02*
X4540000Y1136000D01*
X4540000Y1164000D01*
X4660000Y1164000D01*
X4660000Y1136000D01*
G36*
X4660000Y1136000D02*
G01*
X4540000Y1136000D01*
X4540000Y1164000D01*
X4660000Y1164000D01*
X4660000Y1136000D01*
G37*
X4660000Y1086000D02*
X4540000Y1086000D01*
X4540000Y1114000D01*
X4660000Y1114000D01*
X4660000Y1086000D01*
G36*
X4660000Y1086000D02*
G01*
X4540000Y1086000D01*
X4540000Y1114000D01*
X4660000Y1114000D01*
X4660000Y1086000D01*
G37*
X4660000Y1036000D02*
X4540000Y1036000D01*
X4540000Y1064000D01*
X4660000Y1064000D01*
X4660000Y1036000D01*
G36*
X4660000Y1036000D02*
G01*
X4540000Y1036000D01*
X4540000Y1064000D01*
X4660000Y1064000D01*
X4660000Y1036000D01*
G37*
X4660000Y986000D02*
X4540000Y986000D01*
X4540000Y1014000D01*
X4660000Y1014000D01*
X4660000Y986000D01*
G36*
X4660000Y986000D02*
G01*
X4540000Y986000D01*
X4540000Y1014000D01*
X4660000Y1014000D01*
X4660000Y986000D01*
G37*
X4660000Y936000D02*
X4540000Y936000D01*
X4540000Y964000D01*
X4660000Y964000D01*
X4660000Y936000D01*
G36*
X4660000Y936000D02*
G01*
X4540000Y936000D01*
X4540000Y964000D01*
X4660000Y964000D01*
X4660000Y936000D01*
G37*
X4660000Y886000D02*
X4540000Y886000D01*
X4540000Y914000D01*
X4660000Y914000D01*
X4660000Y886000D01*
G36*
X4660000Y886000D02*
G01*
X4540000Y886000D01*
X4540000Y914000D01*
X4660000Y914000D01*
X4660000Y886000D01*
G37*
X4660000Y836000D02*
X4540000Y836000D01*
X4540000Y864000D01*
X4660000Y864000D01*
X4660000Y836000D01*
G36*
X4660000Y836000D02*
G01*
X4540000Y836000D01*
X4540000Y864000D01*
X4660000Y864000D01*
X4660000Y836000D01*
G37*
X4660000Y786000D02*
X4540000Y786000D01*
X4540000Y814000D01*
X4660000Y814000D01*
X4660000Y786000D01*
G36*
X4660000Y786000D02*
G01*
X4540000Y786000D01*
X4540000Y814000D01*
X4660000Y814000D01*
X4660000Y786000D01*
G37*
X4660000Y736000D02*
X4540000Y736000D01*
X4540000Y764000D01*
X4660000Y764000D01*
X4660000Y736000D01*
G36*
X4660000Y736000D02*
G01*
X4540000Y736000D01*
X4540000Y764000D01*
X4660000Y764000D01*
X4660000Y736000D01*
G37*
X4660000Y686000D02*
X4540000Y686000D01*
X4540000Y714000D01*
X4660000Y714000D01*
X4660000Y686000D01*
G36*
X4660000Y686000D02*
G01*
X4540000Y686000D01*
X4540000Y714000D01*
X4660000Y714000D01*
X4660000Y686000D01*
G37*
G04 #@! TO.C,J2*
X460000Y3511000D02*
X340000Y3511000D01*
X340000Y3539000D01*
X460000Y3539000D01*
X460000Y3511000D01*
G36*
X460000Y3511000D02*
G01*
X340000Y3511000D01*
X340000Y3539000D01*
X460000Y3539000D01*
X460000Y3511000D01*
G37*
X460000Y3461000D02*
X340000Y3461000D01*
X340000Y3489000D01*
X460000Y3489000D01*
X460000Y3461000D01*
G36*
X460000Y3461000D02*
G01*
X340000Y3461000D01*
X340000Y3489000D01*
X460000Y3489000D01*
X460000Y3461000D01*
G37*
X460000Y3411000D02*
X340000Y3411000D01*
X340000Y3439000D01*
X460000Y3439000D01*
X460000Y3411000D01*
G36*
X460000Y3411000D02*
G01*
X340000Y3411000D01*
X340000Y3439000D01*
X460000Y3439000D01*
X460000Y3411000D01*
G37*
X460000Y3361000D02*
X340000Y3361000D01*
X340000Y3389000D01*
X460000Y3389000D01*
X460000Y3361000D01*
G36*
X460000Y3361000D02*
G01*
X340000Y3361000D01*
X340000Y3389000D01*
X460000Y3389000D01*
X460000Y3361000D01*
G37*
X460000Y3311000D02*
X340000Y3311000D01*
X340000Y3339000D01*
X460000Y3339000D01*
X460000Y3311000D01*
G36*
X460000Y3311000D02*
G01*
X340000Y3311000D01*
X340000Y3339000D01*
X460000Y3339000D01*
X460000Y3311000D01*
G37*
X460000Y3261000D02*
X340000Y3261000D01*
X340000Y3289000D01*
X460000Y3289000D01*
X460000Y3261000D01*
G36*
X460000Y3261000D02*
G01*
X340000Y3261000D01*
X340000Y3289000D01*
X460000Y3289000D01*
X460000Y3261000D01*
G37*
X460000Y3211000D02*
X340000Y3211000D01*
X340000Y3239000D01*
X460000Y3239000D01*
X460000Y3211000D01*
G36*
X460000Y3211000D02*
G01*
X340000Y3211000D01*
X340000Y3239000D01*
X460000Y3239000D01*
X460000Y3211000D01*
G37*
X460000Y3161000D02*
X340000Y3161000D01*
X340000Y3189000D01*
X460000Y3189000D01*
X460000Y3161000D01*
G36*
X460000Y3161000D02*
G01*
X340000Y3161000D01*
X340000Y3189000D01*
X460000Y3189000D01*
X460000Y3161000D01*
G37*
X460000Y3111000D02*
X340000Y3111000D01*
X340000Y3139000D01*
X460000Y3139000D01*
X460000Y3111000D01*
G36*
X460000Y3111000D02*
G01*
X340000Y3111000D01*
X340000Y3139000D01*
X460000Y3139000D01*
X460000Y3111000D01*
G37*
X460000Y3061000D02*
X340000Y3061000D01*
X340000Y3089000D01*
X460000Y3089000D01*
X460000Y3061000D01*
G36*
X460000Y3061000D02*
G01*
X340000Y3061000D01*
X340000Y3089000D01*
X460000Y3089000D01*
X460000Y3061000D01*
G37*
X460000Y3011000D02*
X340000Y3011000D01*
X340000Y3039000D01*
X460000Y3039000D01*
X460000Y3011000D01*
G36*
X460000Y3011000D02*
G01*
X340000Y3011000D01*
X340000Y3039000D01*
X460000Y3039000D01*
X460000Y3011000D01*
G37*
X460000Y2961000D02*
X340000Y2961000D01*
X340000Y2989000D01*
X460000Y2989000D01*
X460000Y2961000D01*
G36*
X460000Y2961000D02*
G01*
X340000Y2961000D01*
X340000Y2989000D01*
X460000Y2989000D01*
X460000Y2961000D01*
G37*
X460000Y2911000D02*
X340000Y2911000D01*
X340000Y2939000D01*
X460000Y2939000D01*
X460000Y2911000D01*
G36*
X460000Y2911000D02*
G01*
X340000Y2911000D01*
X340000Y2939000D01*
X460000Y2939000D01*
X460000Y2911000D01*
G37*
X460000Y2861000D02*
X340000Y2861000D01*
X340000Y2889000D01*
X460000Y2889000D01*
X460000Y2861000D01*
G36*
X460000Y2861000D02*
G01*
X340000Y2861000D01*
X340000Y2889000D01*
X460000Y2889000D01*
X460000Y2861000D01*
G37*
X460000Y2811000D02*
X340000Y2811000D01*
X340000Y2839000D01*
X460000Y2839000D01*
X460000Y2811000D01*
G36*
X460000Y2811000D02*
G01*
X340000Y2811000D01*
X340000Y2839000D01*
X460000Y2839000D01*
X460000Y2811000D01*
G37*
X460000Y2761000D02*
X340000Y2761000D01*
X340000Y2789000D01*
X460000Y2789000D01*
X460000Y2761000D01*
G36*
X460000Y2761000D02*
G01*
X340000Y2761000D01*
X340000Y2789000D01*
X460000Y2789000D01*
X460000Y2761000D01*
G37*
X460000Y2711000D02*
X340000Y2711000D01*
X340000Y2739000D01*
X460000Y2739000D01*
X460000Y2711000D01*
G36*
X460000Y2711000D02*
G01*
X340000Y2711000D01*
X340000Y2739000D01*
X460000Y2739000D01*
X460000Y2711000D01*
G37*
X460000Y2661000D02*
X340000Y2661000D01*
X340000Y2689000D01*
X460000Y2689000D01*
X460000Y2661000D01*
G36*
X460000Y2661000D02*
G01*
X340000Y2661000D01*
X340000Y2689000D01*
X460000Y2689000D01*
X460000Y2661000D01*
G37*
X460000Y2611000D02*
X340000Y2611000D01*
X340000Y2639000D01*
X460000Y2639000D01*
X460000Y2611000D01*
G36*
X460000Y2611000D02*
G01*
X340000Y2611000D01*
X340000Y2639000D01*
X460000Y2639000D01*
X460000Y2611000D01*
G37*
X460000Y2561000D02*
X340000Y2561000D01*
X340000Y2589000D01*
X460000Y2589000D01*
X460000Y2561000D01*
G36*
X460000Y2561000D02*
G01*
X340000Y2561000D01*
X340000Y2589000D01*
X460000Y2589000D01*
X460000Y2561000D01*
G37*
X460000Y2511000D02*
X340000Y2511000D01*
X340000Y2539000D01*
X460000Y2539000D01*
X460000Y2511000D01*
G36*
X460000Y2511000D02*
G01*
X340000Y2511000D01*
X340000Y2539000D01*
X460000Y2539000D01*
X460000Y2511000D01*
G37*
X460000Y2461000D02*
X340000Y2461000D01*
X340000Y2489000D01*
X460000Y2489000D01*
X460000Y2461000D01*
G36*
X460000Y2461000D02*
G01*
X340000Y2461000D01*
X340000Y2489000D01*
X460000Y2489000D01*
X460000Y2461000D01*
G37*
X460000Y2411000D02*
X340000Y2411000D01*
X340000Y2439000D01*
X460000Y2439000D01*
X460000Y2411000D01*
G36*
X460000Y2411000D02*
G01*
X340000Y2411000D01*
X340000Y2439000D01*
X460000Y2439000D01*
X460000Y2411000D01*
G37*
X460000Y2361000D02*
X340000Y2361000D01*
X340000Y2389000D01*
X460000Y2389000D01*
X460000Y2361000D01*
G36*
X460000Y2361000D02*
G01*
X340000Y2361000D01*
X340000Y2389000D01*
X460000Y2389000D01*
X460000Y2361000D01*
G37*
X460000Y2311000D02*
X340000Y2311000D01*
X340000Y2339000D01*
X460000Y2339000D01*
X460000Y2311000D01*
G36*
X460000Y2311000D02*
G01*
X340000Y2311000D01*
X340000Y2339000D01*
X460000Y2339000D01*
X460000Y2311000D01*
G37*
X460000Y2261000D02*
X340000Y2261000D01*
X340000Y2289000D01*
X460000Y2289000D01*
X460000Y2261000D01*
G36*
X460000Y2261000D02*
G01*
X340000Y2261000D01*
X340000Y2289000D01*
X460000Y2289000D01*
X460000Y2261000D01*
G37*
X460000Y2211000D02*
X340000Y2211000D01*
X340000Y2239000D01*
X460000Y2239000D01*
X460000Y2211000D01*
G36*
X460000Y2211000D02*
G01*
X340000Y2211000D01*
X340000Y2239000D01*
X460000Y2239000D01*
X460000Y2211000D01*
G37*
X460000Y2161000D02*
X340000Y2161000D01*
X340000Y2189000D01*
X460000Y2189000D01*
X460000Y2161000D01*
G36*
X460000Y2161000D02*
G01*
X340000Y2161000D01*
X340000Y2189000D01*
X460000Y2189000D01*
X460000Y2161000D01*
G37*
X460000Y2111000D02*
X340000Y2111000D01*
X340000Y2139000D01*
X460000Y2139000D01*
X460000Y2111000D01*
G36*
X460000Y2111000D02*
G01*
X340000Y2111000D01*
X340000Y2139000D01*
X460000Y2139000D01*
X460000Y2111000D01*
G37*
X460000Y2061000D02*
X340000Y2061000D01*
X340000Y2089000D01*
X460000Y2089000D01*
X460000Y2061000D01*
G36*
X460000Y2061000D02*
G01*
X340000Y2061000D01*
X340000Y2089000D01*
X460000Y2089000D01*
X460000Y2061000D01*
G37*
X860000Y3511000D02*
X740000Y3511000D01*
X740000Y3539000D01*
X860000Y3539000D01*
X860000Y3511000D01*
G36*
X860000Y3511000D02*
G01*
X740000Y3511000D01*
X740000Y3539000D01*
X860000Y3539000D01*
X860000Y3511000D01*
G37*
X860000Y3461000D02*
X740000Y3461000D01*
X740000Y3489000D01*
X860000Y3489000D01*
X860000Y3461000D01*
G36*
X860000Y3461000D02*
G01*
X740000Y3461000D01*
X740000Y3489000D01*
X860000Y3489000D01*
X860000Y3461000D01*
G37*
X860000Y3411000D02*
X740000Y3411000D01*
X740000Y3439000D01*
X860000Y3439000D01*
X860000Y3411000D01*
G36*
X860000Y3411000D02*
G01*
X740000Y3411000D01*
X740000Y3439000D01*
X860000Y3439000D01*
X860000Y3411000D01*
G37*
X860000Y3361000D02*
X740000Y3361000D01*
X740000Y3389000D01*
X860000Y3389000D01*
X860000Y3361000D01*
G36*
X860000Y3361000D02*
G01*
X740000Y3361000D01*
X740000Y3389000D01*
X860000Y3389000D01*
X860000Y3361000D01*
G37*
X860000Y3311000D02*
X740000Y3311000D01*
X740000Y3339000D01*
X860000Y3339000D01*
X860000Y3311000D01*
G36*
X860000Y3311000D02*
G01*
X740000Y3311000D01*
X740000Y3339000D01*
X860000Y3339000D01*
X860000Y3311000D01*
G37*
X860000Y3261000D02*
X740000Y3261000D01*
X740000Y3289000D01*
X860000Y3289000D01*
X860000Y3261000D01*
G36*
X860000Y3261000D02*
G01*
X740000Y3261000D01*
X740000Y3289000D01*
X860000Y3289000D01*
X860000Y3261000D01*
G37*
X860000Y3211000D02*
X740000Y3211000D01*
X740000Y3239000D01*
X860000Y3239000D01*
X860000Y3211000D01*
G36*
X860000Y3211000D02*
G01*
X740000Y3211000D01*
X740000Y3239000D01*
X860000Y3239000D01*
X860000Y3211000D01*
G37*
X860000Y3161000D02*
X740000Y3161000D01*
X740000Y3189000D01*
X860000Y3189000D01*
X860000Y3161000D01*
G36*
X860000Y3161000D02*
G01*
X740000Y3161000D01*
X740000Y3189000D01*
X860000Y3189000D01*
X860000Y3161000D01*
G37*
X860000Y3111000D02*
X740000Y3111000D01*
X740000Y3139000D01*
X860000Y3139000D01*
X860000Y3111000D01*
G36*
X860000Y3111000D02*
G01*
X740000Y3111000D01*
X740000Y3139000D01*
X860000Y3139000D01*
X860000Y3111000D01*
G37*
X860000Y3061000D02*
X740000Y3061000D01*
X740000Y3089000D01*
X860000Y3089000D01*
X860000Y3061000D01*
G36*
X860000Y3061000D02*
G01*
X740000Y3061000D01*
X740000Y3089000D01*
X860000Y3089000D01*
X860000Y3061000D01*
G37*
X860000Y3011000D02*
X740000Y3011000D01*
X740000Y3039000D01*
X860000Y3039000D01*
X860000Y3011000D01*
G36*
X860000Y3011000D02*
G01*
X740000Y3011000D01*
X740000Y3039000D01*
X860000Y3039000D01*
X860000Y3011000D01*
G37*
X860000Y2961000D02*
X740000Y2961000D01*
X740000Y2989000D01*
X860000Y2989000D01*
X860000Y2961000D01*
G36*
X860000Y2961000D02*
G01*
X740000Y2961000D01*
X740000Y2989000D01*
X860000Y2989000D01*
X860000Y2961000D01*
G37*
X860000Y2911000D02*
X740000Y2911000D01*
X740000Y2939000D01*
X860000Y2939000D01*
X860000Y2911000D01*
G36*
X860000Y2911000D02*
G01*
X740000Y2911000D01*
X740000Y2939000D01*
X860000Y2939000D01*
X860000Y2911000D01*
G37*
X860000Y2861000D02*
X740000Y2861000D01*
X740000Y2889000D01*
X860000Y2889000D01*
X860000Y2861000D01*
G36*
X860000Y2861000D02*
G01*
X740000Y2861000D01*
X740000Y2889000D01*
X860000Y2889000D01*
X860000Y2861000D01*
G37*
X860000Y2811000D02*
X740000Y2811000D01*
X740000Y2839000D01*
X860000Y2839000D01*
X860000Y2811000D01*
G36*
X860000Y2811000D02*
G01*
X740000Y2811000D01*
X740000Y2839000D01*
X860000Y2839000D01*
X860000Y2811000D01*
G37*
X860000Y2761000D02*
X740000Y2761000D01*
X740000Y2789000D01*
X860000Y2789000D01*
X860000Y2761000D01*
G36*
X860000Y2761000D02*
G01*
X740000Y2761000D01*
X740000Y2789000D01*
X860000Y2789000D01*
X860000Y2761000D01*
G37*
X860000Y2711000D02*
X740000Y2711000D01*
X740000Y2739000D01*
X860000Y2739000D01*
X860000Y2711000D01*
G36*
X860000Y2711000D02*
G01*
X740000Y2711000D01*
X740000Y2739000D01*
X860000Y2739000D01*
X860000Y2711000D01*
G37*
X860000Y2661000D02*
X740000Y2661000D01*
X740000Y2689000D01*
X860000Y2689000D01*
X860000Y2661000D01*
G36*
X860000Y2661000D02*
G01*
X740000Y2661000D01*
X740000Y2689000D01*
X860000Y2689000D01*
X860000Y2661000D01*
G37*
X860000Y2611000D02*
X740000Y2611000D01*
X740000Y2639000D01*
X860000Y2639000D01*
X860000Y2611000D01*
G36*
X860000Y2611000D02*
G01*
X740000Y2611000D01*
X740000Y2639000D01*
X860000Y2639000D01*
X860000Y2611000D01*
G37*
X860000Y2561000D02*
X740000Y2561000D01*
X740000Y2589000D01*
X860000Y2589000D01*
X860000Y2561000D01*
G36*
X860000Y2561000D02*
G01*
X740000Y2561000D01*
X740000Y2589000D01*
X860000Y2589000D01*
X860000Y2561000D01*
G37*
X860000Y2511000D02*
X740000Y2511000D01*
X740000Y2539000D01*
X860000Y2539000D01*
X860000Y2511000D01*
G36*
X860000Y2511000D02*
G01*
X740000Y2511000D01*
X740000Y2539000D01*
X860000Y2539000D01*
X860000Y2511000D01*
G37*
X860000Y2461000D02*
X740000Y2461000D01*
X740000Y2489000D01*
X860000Y2489000D01*
X860000Y2461000D01*
G36*
X860000Y2461000D02*
G01*
X740000Y2461000D01*
X740000Y2489000D01*
X860000Y2489000D01*
X860000Y2461000D01*
G37*
X860000Y2411000D02*
X740000Y2411000D01*
X740000Y2439000D01*
X860000Y2439000D01*
X860000Y2411000D01*
G36*
X860000Y2411000D02*
G01*
X740000Y2411000D01*
X740000Y2439000D01*
X860000Y2439000D01*
X860000Y2411000D01*
G37*
X860000Y2361000D02*
X740000Y2361000D01*
X740000Y2389000D01*
X860000Y2389000D01*
X860000Y2361000D01*
G36*
X860000Y2361000D02*
G01*
X740000Y2361000D01*
X740000Y2389000D01*
X860000Y2389000D01*
X860000Y2361000D01*
G37*
X860000Y2311000D02*
X740000Y2311000D01*
X740000Y2339000D01*
X860000Y2339000D01*
X860000Y2311000D01*
G36*
X860000Y2311000D02*
G01*
X740000Y2311000D01*
X740000Y2339000D01*
X860000Y2339000D01*
X860000Y2311000D01*
G37*
X860000Y2261000D02*
X740000Y2261000D01*
X740000Y2289000D01*
X860000Y2289000D01*
X860000Y2261000D01*
G36*
X860000Y2261000D02*
G01*
X740000Y2261000D01*
X740000Y2289000D01*
X860000Y2289000D01*
X860000Y2261000D01*
G37*
X860000Y2211000D02*
X740000Y2211000D01*
X740000Y2239000D01*
X860000Y2239000D01*
X860000Y2211000D01*
G36*
X860000Y2211000D02*
G01*
X740000Y2211000D01*
X740000Y2239000D01*
X860000Y2239000D01*
X860000Y2211000D01*
G37*
X860000Y2161000D02*
X740000Y2161000D01*
X740000Y2189000D01*
X860000Y2189000D01*
X860000Y2161000D01*
G36*
X860000Y2161000D02*
G01*
X740000Y2161000D01*
X740000Y2189000D01*
X860000Y2189000D01*
X860000Y2161000D01*
G37*
X860000Y2111000D02*
X740000Y2111000D01*
X740000Y2139000D01*
X860000Y2139000D01*
X860000Y2111000D01*
G36*
X860000Y2111000D02*
G01*
X740000Y2111000D01*
X740000Y2139000D01*
X860000Y2139000D01*
X860000Y2111000D01*
G37*
X860000Y2061000D02*
X740000Y2061000D01*
X740000Y2089000D01*
X860000Y2089000D01*
X860000Y2061000D01*
G36*
X860000Y2061000D02*
G01*
X740000Y2061000D01*
X740000Y2089000D01*
X860000Y2089000D01*
X860000Y2061000D01*
G37*
G04 #@! TD*
D11*
G04 #@! TO.C,J1*
X4400000Y2070000D03*
X4400000Y530000D03*
G04 #@! TD*
G04 #@! TO.C,J2*
X600000Y3695000D03*
X600000Y1905000D03*
G04 #@! TD*
M02*
