M48
; DRILL file {KiCad 9.0.6-9.0.6~ubuntu24.04.1} date 2025-12-10T18:40:26-0500
; FORMAT={-:-/ absolute / metric / decimal}
; #@! TF.CreationDate,2025-12-10T18:40:26-05:00
; #@! TF.GenerationSoftware,Kicad,Pcbnew,9.0.6-9.0.6~ubuntu24.04.1
; #@! TF.FileFunction,MixedPlating,1,4
FMAT,2
METRIC
; #@! TA.AperFunction,Plated,PTH,ViaDrill
T1C0.250
; #@! TA.AperFunction,Plated,PTH,ViaDrill
T2C0.300
; #@! TA.AperFunction,Plated,PTH,ViaDrill
T3C0.400
; #@! TA.AperFunction,Plated,PTH,ComponentDrill
T4C0.400
; #@! TA.AperFunction,Plated,PTH,ComponentDrill
T5C1.000
%
G90
G05
T1
X1.275Y25.171
X1.328Y33.359
X1.336Y32.559
X1.438Y34.247
X1.531Y30.986
X1.541Y31.786
X1.589Y35.773
X1.612Y30.19
X1.617Y25.894
X1.65Y23.85
X1.846Y24.599
X1.967Y22.425
X1.989Y26.602
X2.096Y27.436
X2.1Y23.174
X2.128Y21.642
X2.237Y34.218
X2.297Y28.771
X2.654Y21.038
X2.679Y24.875
X2.729Y26.925
X2.754Y29.367
X2.831Y28.175
X2.868Y22.723
X2.925Y30.725
X20.537Y20.165
X39.8Y15.2
X39.808Y19.4
X39.808Y18.5
X39.808Y17.25
X39.808Y16.3
X39.808Y14.192
X39.9Y13.3
X40.6Y12.9
X40.79Y16.457
X40.938Y11.135
X41.0Y9.1
X47.1Y13.6
X47.125Y15.037
T2
X0.825Y22.2
X0.825Y20.492
X4.2Y19.8
X5.6Y16.6
X5.6Y15.5
X7.673Y19.927
X9.207Y31.312
X9.273Y28.327
X9.5Y26.6
X9.5Y25.3
X10.1Y24.3
X10.1Y23.2
X10.2Y31.3
X10.3Y20.2
X10.4Y28.5
X10.7Y35.1
X10.8Y36.9
X10.9Y21.7
X11.2Y31.3
X11.2Y20.9
X11.523Y38.823
X11.6Y34.2
X11.7Y45.7
X11.7Y44.583
X11.7Y43.467
X11.7Y42.35
X11.7Y41.233
X11.7Y40.117
X11.7Y36.1
X13.0Y19.9
X13.829Y25.961
X17.8Y15.1
X18.5Y14.1
X18.627Y16.127
X19.0Y14.8
X19.041Y17.541
X19.727Y19.13
X20.52Y21.435
X20.9Y19.1
X21.448Y21.715
X21.716Y20.816
X22.758Y21.834
X23.157Y20.742
X24.5Y21.4
X25.76Y10.311
X26.358Y21.9
X26.525Y10.785
X27.258Y21.898
X28.158Y21.913
X29.166Y21.908
X29.176Y9.893
X30.066Y21.894
X30.2Y5.5
X30.545Y7.008
X32.0Y22.4
X33.511Y21.928
X34.2Y28.7
X34.5Y21.9
X35.7Y22.0
X38.382Y11.77
X39.39Y8.2
X39.8Y20.7
X40.41Y8.3
X42.2Y19.8
X47.134Y10.99
X47.236Y16.305
X47.275Y19.205
X47.484Y11.819
X47.783Y9.725
X47.785Y18.436
X47.8Y17.0
X47.809Y8.826
X47.833Y7.926
X47.9Y7.0
X48.505Y10.252
X48.588Y12.705
X48.72Y14.42
T3
X1.5Y36.8
X2.4Y46.5
X3.3Y47.1
X4.5Y13.0
X5.3Y12.3
X8.0Y1.9
X8.1Y9.4
X8.7Y14.8
X8.8Y8.7
X9.3Y0.9
X11.275Y8.886
X12.8Y6.3
X14.0Y10.6
X14.0Y7.1
X14.637Y23.137
X14.8Y3.9
X15.7Y1.8
X15.8Y21.3
X16.5Y20.6
X16.5Y1.0
X18.1Y11.2
X18.7Y19.0
X19.0Y9.5
X19.7Y47.1
X19.8Y23.9
X20.1Y5.0
X20.6Y9.2
X20.9Y47.1
X21.5Y12.7
X22.4Y9.8
X23.0Y16.0
X25.0Y18.0
X25.0Y14.0
X25.4Y33.9
X26.0Y8.5
X26.7Y7.8
X27.0Y16.0
X29.5Y37.5
X30.5Y37.5
X30.5Y28.9
X31.17Y5.585
X32.7Y1.8
X32.77Y18.47
X33.5Y1.0
X33.544Y16.212
X33.9Y27.3
X34.339Y16.972
X34.78Y24.18
X35.0Y25.3
X40.7Y6.4
X40.8Y3.5
X40.94Y4.338
X48.2Y20.3
T4
X1.0Y44.0
X1.0Y40.0
X1.0Y19.0
X1.0Y15.0
X1.0Y11.0
X1.0Y7.0
X1.0Y3.0
X4.0Y45.9
X5.5Y1.0
X6.1Y13.2
X7.5Y8.3
X9.3Y10.0
X9.6Y45.9
X11.3Y18.0
X11.6Y33.0
X13.5Y45.9
X13.5Y1.0
X16.0Y13.4
X16.8Y27.2
X17.1Y1.9
X19.8Y1.0
X20.3Y45.9
X22.0Y22.8
X23.8Y1.0
X24.5Y34.9
X24.7Y47.0
X25.3Y22.0
X25.3Y9.4
X26.3Y6.7
X26.9Y33.9
X27.8Y1.0
X28.7Y47.0
X29.7Y22.9
X30.6Y38.8
X31.4Y16.0
X31.8Y1.0
X32.6Y10.4
X32.7Y47.0
X33.9Y30.2
X35.9Y23.2
X36.7Y47.0
X39.1Y21.4
X40.0Y1.0
X40.7Y47.0
X42.0Y3.8
X44.0Y1.0
X44.7Y47.0
X49.0Y45.1
X49.0Y41.1
X49.0Y37.1
X49.0Y33.1
X49.0Y29.1
X49.0Y25.1
X49.0Y21.1
X49.0Y3.5
T5
X34.535Y9.14
X34.535Y6.6
X34.535Y4.06
X37.075Y9.14
X37.075Y6.6
X37.075Y4.06
M30
