G04 #@! TF.GenerationSoftware,KiCad,Pcbnew,9.0.6-9.0.6~ubuntu24.04.1*
G04 #@! TF.CreationDate,2025-12-10T18:40:26-05:00*
G04 #@! TF.ProjectId,ttdbv3-fpga-ICE40UP5k,74746462-7633-42d6-9670-67612d494345,2.0*
G04 #@! TF.SameCoordinates,PX2160ec0PY4d3f640*
G04 #@! TF.FileFunction,Soldermask,Bot*
G04 #@! TF.FilePolarity,Negative*
%FSLAX45Y45*%
G04 Gerber Fmt 4.5, Leading zero omitted, Abs format (unit mm)*
G04 Created by KiCad (PCBNEW 9.0.6-9.0.6~ubuntu24.04.1) date 2025-12-10 18:40:26*
%MOMM*%
%LPD*%
G01*
G04 APERTURE LIST*
G04 Aperture macros list*
%AMRoundRect*
0 Rectangle with rounded corners*
0 $1 Rounding radius*
0 $2 $3 $4 $5 $6 $7 $8 $9 X,Y pos of 4 corners*
0 Add a 4 corners polygon primitive as box body*
4,1,4,$2,$3,$4,$5,$6,$7,$8,$9,$2,$3,0*
0 Add four circle primitives for the rounded corners*
1,1,$1+$1,$2,$3*
1,1,$1+$1,$4,$5*
1,1,$1+$1,$6,$7*
1,1,$1+$1,$8,$9*
0 Add four rect primitives between the rounded corners*
20,1,$1+$1,$2,$3,$4,$5,0*
20,1,$1+$1,$4,$5,$6,$7,0*
20,1,$1+$1,$6,$7,$8,$9,0*
20,1,$1+$1,$8,$9,$2,$3,0*%
G04 Aperture macros list end*
%ADD10C,0.010000*%
%ADD11R,1.700000X1.700000*%
%ADD12C,1.700000*%
%ADD13RoundRect,0.102000X0.900000X-0.400000X0.900000X0.400000X-0.900000X0.400000X-0.900000X-0.400000X0*%
G04 APERTURE END LIST*
D10*
G04 #@! TO.C,J1*
X4305000Y1880000D02*
X4135000Y1880000D01*
X4135000Y1920000D01*
X4305000Y1920000D01*
X4305000Y1880000D01*
G36*
X4305000Y1880000D02*
G01*
X4135000Y1880000D01*
X4135000Y1920000D01*
X4305000Y1920000D01*
X4305000Y1880000D01*
G37*
X4305000Y1830000D02*
X4135000Y1830000D01*
X4135000Y1870000D01*
X4305000Y1870000D01*
X4305000Y1830000D01*
G36*
X4305000Y1830000D02*
G01*
X4135000Y1830000D01*
X4135000Y1870000D01*
X4305000Y1870000D01*
X4305000Y1830000D01*
G37*
X4305000Y1780000D02*
X4135000Y1780000D01*
X4135000Y1820000D01*
X4305000Y1820000D01*
X4305000Y1780000D01*
G36*
X4305000Y1780000D02*
G01*
X4135000Y1780000D01*
X4135000Y1820000D01*
X4305000Y1820000D01*
X4305000Y1780000D01*
G37*
X4305000Y1730000D02*
X4135000Y1730000D01*
X4135000Y1770000D01*
X4305000Y1770000D01*
X4305000Y1730000D01*
G36*
X4305000Y1730000D02*
G01*
X4135000Y1730000D01*
X4135000Y1770000D01*
X4305000Y1770000D01*
X4305000Y1730000D01*
G37*
X4305000Y1680000D02*
X4135000Y1680000D01*
X4135000Y1720000D01*
X4305000Y1720000D01*
X4305000Y1680000D01*
G36*
X4305000Y1680000D02*
G01*
X4135000Y1680000D01*
X4135000Y1720000D01*
X4305000Y1720000D01*
X4305000Y1680000D01*
G37*
X4305000Y1630000D02*
X4135000Y1630000D01*
X4135000Y1670000D01*
X4305000Y1670000D01*
X4305000Y1630000D01*
G36*
X4305000Y1630000D02*
G01*
X4135000Y1630000D01*
X4135000Y1670000D01*
X4305000Y1670000D01*
X4305000Y1630000D01*
G37*
X4305000Y1580000D02*
X4135000Y1580000D01*
X4135000Y1620000D01*
X4305000Y1620000D01*
X4305000Y1580000D01*
G36*
X4305000Y1580000D02*
G01*
X4135000Y1580000D01*
X4135000Y1620000D01*
X4305000Y1620000D01*
X4305000Y1580000D01*
G37*
X4305000Y1530000D02*
X4135000Y1530000D01*
X4135000Y1570000D01*
X4305000Y1570000D01*
X4305000Y1530000D01*
G36*
X4305000Y1530000D02*
G01*
X4135000Y1530000D01*
X4135000Y1570000D01*
X4305000Y1570000D01*
X4305000Y1530000D01*
G37*
X4305000Y1480000D02*
X4135000Y1480000D01*
X4135000Y1520000D01*
X4305000Y1520000D01*
X4305000Y1480000D01*
G36*
X4305000Y1480000D02*
G01*
X4135000Y1480000D01*
X4135000Y1520000D01*
X4305000Y1520000D01*
X4305000Y1480000D01*
G37*
X4305000Y1430000D02*
X4135000Y1430000D01*
X4135000Y1470000D01*
X4305000Y1470000D01*
X4305000Y1430000D01*
G36*
X4305000Y1430000D02*
G01*
X4135000Y1430000D01*
X4135000Y1470000D01*
X4305000Y1470000D01*
X4305000Y1430000D01*
G37*
X4305000Y1380000D02*
X4135000Y1380000D01*
X4135000Y1420000D01*
X4305000Y1420000D01*
X4305000Y1380000D01*
G36*
X4305000Y1380000D02*
G01*
X4135000Y1380000D01*
X4135000Y1420000D01*
X4305000Y1420000D01*
X4305000Y1380000D01*
G37*
X4305000Y1330000D02*
X4135000Y1330000D01*
X4135000Y1370000D01*
X4305000Y1370000D01*
X4305000Y1330000D01*
G36*
X4305000Y1330000D02*
G01*
X4135000Y1330000D01*
X4135000Y1370000D01*
X4305000Y1370000D01*
X4305000Y1330000D01*
G37*
X4305000Y1280000D02*
X4135000Y1280000D01*
X4135000Y1320000D01*
X4305000Y1320000D01*
X4305000Y1280000D01*
G36*
X4305000Y1280000D02*
G01*
X4135000Y1280000D01*
X4135000Y1320000D01*
X4305000Y1320000D01*
X4305000Y1280000D01*
G37*
X4305000Y1230000D02*
X4135000Y1230000D01*
X4135000Y1270000D01*
X4305000Y1270000D01*
X4305000Y1230000D01*
G36*
X4305000Y1230000D02*
G01*
X4135000Y1230000D01*
X4135000Y1270000D01*
X4305000Y1270000D01*
X4305000Y1230000D01*
G37*
X4305000Y1180000D02*
X4135000Y1180000D01*
X4135000Y1220000D01*
X4305000Y1220000D01*
X4305000Y1180000D01*
G36*
X4305000Y1180000D02*
G01*
X4135000Y1180000D01*
X4135000Y1220000D01*
X4305000Y1220000D01*
X4305000Y1180000D01*
G37*
X4305000Y1130000D02*
X4135000Y1130000D01*
X4135000Y1170000D01*
X4305000Y1170000D01*
X4305000Y1130000D01*
G36*
X4305000Y1130000D02*
G01*
X4135000Y1130000D01*
X4135000Y1170000D01*
X4305000Y1170000D01*
X4305000Y1130000D01*
G37*
X4305000Y1080000D02*
X4135000Y1080000D01*
X4135000Y1120000D01*
X4305000Y1120000D01*
X4305000Y1080000D01*
G36*
X4305000Y1080000D02*
G01*
X4135000Y1080000D01*
X4135000Y1120000D01*
X4305000Y1120000D01*
X4305000Y1080000D01*
G37*
X4305000Y1030000D02*
X4135000Y1030000D01*
X4135000Y1070000D01*
X4305000Y1070000D01*
X4305000Y1030000D01*
G36*
X4305000Y1030000D02*
G01*
X4135000Y1030000D01*
X4135000Y1070000D01*
X4305000Y1070000D01*
X4305000Y1030000D01*
G37*
X4305000Y980000D02*
X4135000Y980000D01*
X4135000Y1020000D01*
X4305000Y1020000D01*
X4305000Y980000D01*
G36*
X4305000Y980000D02*
G01*
X4135000Y980000D01*
X4135000Y1020000D01*
X4305000Y1020000D01*
X4305000Y980000D01*
G37*
X4305000Y930000D02*
X4135000Y930000D01*
X4135000Y970000D01*
X4305000Y970000D01*
X4305000Y930000D01*
G36*
X4305000Y930000D02*
G01*
X4135000Y930000D01*
X4135000Y970000D01*
X4305000Y970000D01*
X4305000Y930000D01*
G37*
X4305000Y880000D02*
X4135000Y880000D01*
X4135000Y920000D01*
X4305000Y920000D01*
X4305000Y880000D01*
G36*
X4305000Y880000D02*
G01*
X4135000Y880000D01*
X4135000Y920000D01*
X4305000Y920000D01*
X4305000Y880000D01*
G37*
X4305000Y830000D02*
X4135000Y830000D01*
X4135000Y870000D01*
X4305000Y870000D01*
X4305000Y830000D01*
G36*
X4305000Y830000D02*
G01*
X4135000Y830000D01*
X4135000Y870000D01*
X4305000Y870000D01*
X4305000Y830000D01*
G37*
X4305000Y780000D02*
X4135000Y780000D01*
X4135000Y820000D01*
X4305000Y820000D01*
X4305000Y780000D01*
G36*
X4305000Y780000D02*
G01*
X4135000Y780000D01*
X4135000Y820000D01*
X4305000Y820000D01*
X4305000Y780000D01*
G37*
X4305000Y730000D02*
X4135000Y730000D01*
X4135000Y770000D01*
X4305000Y770000D01*
X4305000Y730000D01*
G36*
X4305000Y730000D02*
G01*
X4135000Y730000D01*
X4135000Y770000D01*
X4305000Y770000D01*
X4305000Y730000D01*
G37*
X4305000Y680000D02*
X4135000Y680000D01*
X4135000Y720000D01*
X4305000Y720000D01*
X4305000Y680000D01*
G36*
X4305000Y680000D02*
G01*
X4135000Y680000D01*
X4135000Y720000D01*
X4305000Y720000D01*
X4305000Y680000D01*
G37*
X4665000Y1880000D02*
X4495000Y1880000D01*
X4495000Y1920000D01*
X4665000Y1920000D01*
X4665000Y1880000D01*
G36*
X4665000Y1880000D02*
G01*
X4495000Y1880000D01*
X4495000Y1920000D01*
X4665000Y1920000D01*
X4665000Y1880000D01*
G37*
X4665000Y1830000D02*
X4495000Y1830000D01*
X4495000Y1870000D01*
X4665000Y1870000D01*
X4665000Y1830000D01*
G36*
X4665000Y1830000D02*
G01*
X4495000Y1830000D01*
X4495000Y1870000D01*
X4665000Y1870000D01*
X4665000Y1830000D01*
G37*
X4665000Y1780000D02*
X4495000Y1780000D01*
X4495000Y1820000D01*
X4665000Y1820000D01*
X4665000Y1780000D01*
G36*
X4665000Y1780000D02*
G01*
X4495000Y1780000D01*
X4495000Y1820000D01*
X4665000Y1820000D01*
X4665000Y1780000D01*
G37*
X4665000Y1730000D02*
X4495000Y1730000D01*
X4495000Y1770000D01*
X4665000Y1770000D01*
X4665000Y1730000D01*
G36*
X4665000Y1730000D02*
G01*
X4495000Y1730000D01*
X4495000Y1770000D01*
X4665000Y1770000D01*
X4665000Y1730000D01*
G37*
X4665000Y1680000D02*
X4495000Y1680000D01*
X4495000Y1720000D01*
X4665000Y1720000D01*
X4665000Y1680000D01*
G36*
X4665000Y1680000D02*
G01*
X4495000Y1680000D01*
X4495000Y1720000D01*
X4665000Y1720000D01*
X4665000Y1680000D01*
G37*
X4665000Y1630000D02*
X4495000Y1630000D01*
X4495000Y1670000D01*
X4665000Y1670000D01*
X4665000Y1630000D01*
G36*
X4665000Y1630000D02*
G01*
X4495000Y1630000D01*
X4495000Y1670000D01*
X4665000Y1670000D01*
X4665000Y1630000D01*
G37*
X4665000Y1580000D02*
X4495000Y1580000D01*
X4495000Y1620000D01*
X4665000Y1620000D01*
X4665000Y1580000D01*
G36*
X4665000Y1580000D02*
G01*
X4495000Y1580000D01*
X4495000Y1620000D01*
X4665000Y1620000D01*
X4665000Y1580000D01*
G37*
X4665000Y1530000D02*
X4495000Y1530000D01*
X4495000Y1570000D01*
X4665000Y1570000D01*
X4665000Y1530000D01*
G36*
X4665000Y1530000D02*
G01*
X4495000Y1530000D01*
X4495000Y1570000D01*
X4665000Y1570000D01*
X4665000Y1530000D01*
G37*
X4665000Y1480000D02*
X4495000Y1480000D01*
X4495000Y1520000D01*
X4665000Y1520000D01*
X4665000Y1480000D01*
G36*
X4665000Y1480000D02*
G01*
X4495000Y1480000D01*
X4495000Y1520000D01*
X4665000Y1520000D01*
X4665000Y1480000D01*
G37*
X4665000Y1430000D02*
X4495000Y1430000D01*
X4495000Y1470000D01*
X4665000Y1470000D01*
X4665000Y1430000D01*
G36*
X4665000Y1430000D02*
G01*
X4495000Y1430000D01*
X4495000Y1470000D01*
X4665000Y1470000D01*
X4665000Y1430000D01*
G37*
X4665000Y1380000D02*
X4495000Y1380000D01*
X4495000Y1420000D01*
X4665000Y1420000D01*
X4665000Y1380000D01*
G36*
X4665000Y1380000D02*
G01*
X4495000Y1380000D01*
X4495000Y1420000D01*
X4665000Y1420000D01*
X4665000Y1380000D01*
G37*
X4665000Y1330000D02*
X4495000Y1330000D01*
X4495000Y1370000D01*
X4665000Y1370000D01*
X4665000Y1330000D01*
G36*
X4665000Y1330000D02*
G01*
X4495000Y1330000D01*
X4495000Y1370000D01*
X4665000Y1370000D01*
X4665000Y1330000D01*
G37*
X4665000Y1280000D02*
X4495000Y1280000D01*
X4495000Y1320000D01*
X4665000Y1320000D01*
X4665000Y1280000D01*
G36*
X4665000Y1280000D02*
G01*
X4495000Y1280000D01*
X4495000Y1320000D01*
X4665000Y1320000D01*
X4665000Y1280000D01*
G37*
X4665000Y1230000D02*
X4495000Y1230000D01*
X4495000Y1270000D01*
X4665000Y1270000D01*
X4665000Y1230000D01*
G36*
X4665000Y1230000D02*
G01*
X4495000Y1230000D01*
X4495000Y1270000D01*
X4665000Y1270000D01*
X4665000Y1230000D01*
G37*
X4665000Y1180000D02*
X4495000Y1180000D01*
X4495000Y1220000D01*
X4665000Y1220000D01*
X4665000Y1180000D01*
G36*
X4665000Y1180000D02*
G01*
X4495000Y1180000D01*
X4495000Y1220000D01*
X4665000Y1220000D01*
X4665000Y1180000D01*
G37*
X4665000Y1130000D02*
X4495000Y1130000D01*
X4495000Y1170000D01*
X4665000Y1170000D01*
X4665000Y1130000D01*
G36*
X4665000Y1130000D02*
G01*
X4495000Y1130000D01*
X4495000Y1170000D01*
X4665000Y1170000D01*
X4665000Y1130000D01*
G37*
X4665000Y1080000D02*
X4495000Y1080000D01*
X4495000Y1120000D01*
X4665000Y1120000D01*
X4665000Y1080000D01*
G36*
X4665000Y1080000D02*
G01*
X4495000Y1080000D01*
X4495000Y1120000D01*
X4665000Y1120000D01*
X4665000Y1080000D01*
G37*
X4665000Y1030000D02*
X4495000Y1030000D01*
X4495000Y1070000D01*
X4665000Y1070000D01*
X4665000Y1030000D01*
G36*
X4665000Y1030000D02*
G01*
X4495000Y1030000D01*
X4495000Y1070000D01*
X4665000Y1070000D01*
X4665000Y1030000D01*
G37*
X4665000Y980000D02*
X4495000Y980000D01*
X4495000Y1020000D01*
X4665000Y1020000D01*
X4665000Y980000D01*
G36*
X4665000Y980000D02*
G01*
X4495000Y980000D01*
X4495000Y1020000D01*
X4665000Y1020000D01*
X4665000Y980000D01*
G37*
X4665000Y930000D02*
X4495000Y930000D01*
X4495000Y970000D01*
X4665000Y970000D01*
X4665000Y930000D01*
G36*
X4665000Y930000D02*
G01*
X4495000Y930000D01*
X4495000Y970000D01*
X4665000Y970000D01*
X4665000Y930000D01*
G37*
X4665000Y880000D02*
X4495000Y880000D01*
X4495000Y920000D01*
X4665000Y920000D01*
X4665000Y880000D01*
G36*
X4665000Y880000D02*
G01*
X4495000Y880000D01*
X4495000Y920000D01*
X4665000Y920000D01*
X4665000Y880000D01*
G37*
X4665000Y830000D02*
X4495000Y830000D01*
X4495000Y870000D01*
X4665000Y870000D01*
X4665000Y830000D01*
G36*
X4665000Y830000D02*
G01*
X4495000Y830000D01*
X4495000Y870000D01*
X4665000Y870000D01*
X4665000Y830000D01*
G37*
X4665000Y780000D02*
X4495000Y780000D01*
X4495000Y820000D01*
X4665000Y820000D01*
X4665000Y780000D01*
G36*
X4665000Y780000D02*
G01*
X4495000Y780000D01*
X4495000Y820000D01*
X4665000Y820000D01*
X4665000Y780000D01*
G37*
X4665000Y730000D02*
X4495000Y730000D01*
X4495000Y770000D01*
X4665000Y770000D01*
X4665000Y730000D01*
G36*
X4665000Y730000D02*
G01*
X4495000Y730000D01*
X4495000Y770000D01*
X4665000Y770000D01*
X4665000Y730000D01*
G37*
X4665000Y680000D02*
X4495000Y680000D01*
X4495000Y720000D01*
X4665000Y720000D01*
X4665000Y680000D01*
G36*
X4665000Y680000D02*
G01*
X4495000Y680000D01*
X4495000Y720000D01*
X4665000Y720000D01*
X4665000Y680000D01*
G37*
G04 #@! TO.C,J2*
X505000Y3505000D02*
X335000Y3505000D01*
X335000Y3545000D01*
X505000Y3545000D01*
X505000Y3505000D01*
G36*
X505000Y3505000D02*
G01*
X335000Y3505000D01*
X335000Y3545000D01*
X505000Y3545000D01*
X505000Y3505000D01*
G37*
X505000Y3455000D02*
X335000Y3455000D01*
X335000Y3495000D01*
X505000Y3495000D01*
X505000Y3455000D01*
G36*
X505000Y3455000D02*
G01*
X335000Y3455000D01*
X335000Y3495000D01*
X505000Y3495000D01*
X505000Y3455000D01*
G37*
X505000Y3405000D02*
X335000Y3405000D01*
X335000Y3445000D01*
X505000Y3445000D01*
X505000Y3405000D01*
G36*
X505000Y3405000D02*
G01*
X335000Y3405000D01*
X335000Y3445000D01*
X505000Y3445000D01*
X505000Y3405000D01*
G37*
X505000Y3355000D02*
X335000Y3355000D01*
X335000Y3395000D01*
X505000Y3395000D01*
X505000Y3355000D01*
G36*
X505000Y3355000D02*
G01*
X335000Y3355000D01*
X335000Y3395000D01*
X505000Y3395000D01*
X505000Y3355000D01*
G37*
X505000Y3305000D02*
X335000Y3305000D01*
X335000Y3345000D01*
X505000Y3345000D01*
X505000Y3305000D01*
G36*
X505000Y3305000D02*
G01*
X335000Y3305000D01*
X335000Y3345000D01*
X505000Y3345000D01*
X505000Y3305000D01*
G37*
X505000Y3255000D02*
X335000Y3255000D01*
X335000Y3295000D01*
X505000Y3295000D01*
X505000Y3255000D01*
G36*
X505000Y3255000D02*
G01*
X335000Y3255000D01*
X335000Y3295000D01*
X505000Y3295000D01*
X505000Y3255000D01*
G37*
X505000Y3205000D02*
X335000Y3205000D01*
X335000Y3245000D01*
X505000Y3245000D01*
X505000Y3205000D01*
G36*
X505000Y3205000D02*
G01*
X335000Y3205000D01*
X335000Y3245000D01*
X505000Y3245000D01*
X505000Y3205000D01*
G37*
X505000Y3155000D02*
X335000Y3155000D01*
X335000Y3195000D01*
X505000Y3195000D01*
X505000Y3155000D01*
G36*
X505000Y3155000D02*
G01*
X335000Y3155000D01*
X335000Y3195000D01*
X505000Y3195000D01*
X505000Y3155000D01*
G37*
X505000Y3105000D02*
X335000Y3105000D01*
X335000Y3145000D01*
X505000Y3145000D01*
X505000Y3105000D01*
G36*
X505000Y3105000D02*
G01*
X335000Y3105000D01*
X335000Y3145000D01*
X505000Y3145000D01*
X505000Y3105000D01*
G37*
X505000Y3055000D02*
X335000Y3055000D01*
X335000Y3095000D01*
X505000Y3095000D01*
X505000Y3055000D01*
G36*
X505000Y3055000D02*
G01*
X335000Y3055000D01*
X335000Y3095000D01*
X505000Y3095000D01*
X505000Y3055000D01*
G37*
X505000Y3005000D02*
X335000Y3005000D01*
X335000Y3045000D01*
X505000Y3045000D01*
X505000Y3005000D01*
G36*
X505000Y3005000D02*
G01*
X335000Y3005000D01*
X335000Y3045000D01*
X505000Y3045000D01*
X505000Y3005000D01*
G37*
X505000Y2955000D02*
X335000Y2955000D01*
X335000Y2995000D01*
X505000Y2995000D01*
X505000Y2955000D01*
G36*
X505000Y2955000D02*
G01*
X335000Y2955000D01*
X335000Y2995000D01*
X505000Y2995000D01*
X505000Y2955000D01*
G37*
X505000Y2905000D02*
X335000Y2905000D01*
X335000Y2945000D01*
X505000Y2945000D01*
X505000Y2905000D01*
G36*
X505000Y2905000D02*
G01*
X335000Y2905000D01*
X335000Y2945000D01*
X505000Y2945000D01*
X505000Y2905000D01*
G37*
X505000Y2855000D02*
X335000Y2855000D01*
X335000Y2895000D01*
X505000Y2895000D01*
X505000Y2855000D01*
G36*
X505000Y2855000D02*
G01*
X335000Y2855000D01*
X335000Y2895000D01*
X505000Y2895000D01*
X505000Y2855000D01*
G37*
X505000Y2805000D02*
X335000Y2805000D01*
X335000Y2845000D01*
X505000Y2845000D01*
X505000Y2805000D01*
G36*
X505000Y2805000D02*
G01*
X335000Y2805000D01*
X335000Y2845000D01*
X505000Y2845000D01*
X505000Y2805000D01*
G37*
X505000Y2755000D02*
X335000Y2755000D01*
X335000Y2795000D01*
X505000Y2795000D01*
X505000Y2755000D01*
G36*
X505000Y2755000D02*
G01*
X335000Y2755000D01*
X335000Y2795000D01*
X505000Y2795000D01*
X505000Y2755000D01*
G37*
X505000Y2705000D02*
X335000Y2705000D01*
X335000Y2745000D01*
X505000Y2745000D01*
X505000Y2705000D01*
G36*
X505000Y2705000D02*
G01*
X335000Y2705000D01*
X335000Y2745000D01*
X505000Y2745000D01*
X505000Y2705000D01*
G37*
X505000Y2655000D02*
X335000Y2655000D01*
X335000Y2695000D01*
X505000Y2695000D01*
X505000Y2655000D01*
G36*
X505000Y2655000D02*
G01*
X335000Y2655000D01*
X335000Y2695000D01*
X505000Y2695000D01*
X505000Y2655000D01*
G37*
X505000Y2605000D02*
X335000Y2605000D01*
X335000Y2645000D01*
X505000Y2645000D01*
X505000Y2605000D01*
G36*
X505000Y2605000D02*
G01*
X335000Y2605000D01*
X335000Y2645000D01*
X505000Y2645000D01*
X505000Y2605000D01*
G37*
X505000Y2555000D02*
X335000Y2555000D01*
X335000Y2595000D01*
X505000Y2595000D01*
X505000Y2555000D01*
G36*
X505000Y2555000D02*
G01*
X335000Y2555000D01*
X335000Y2595000D01*
X505000Y2595000D01*
X505000Y2555000D01*
G37*
X505000Y2505000D02*
X335000Y2505000D01*
X335000Y2545000D01*
X505000Y2545000D01*
X505000Y2505000D01*
G36*
X505000Y2505000D02*
G01*
X335000Y2505000D01*
X335000Y2545000D01*
X505000Y2545000D01*
X505000Y2505000D01*
G37*
X505000Y2455000D02*
X335000Y2455000D01*
X335000Y2495000D01*
X505000Y2495000D01*
X505000Y2455000D01*
G36*
X505000Y2455000D02*
G01*
X335000Y2455000D01*
X335000Y2495000D01*
X505000Y2495000D01*
X505000Y2455000D01*
G37*
X505000Y2405000D02*
X335000Y2405000D01*
X335000Y2445000D01*
X505000Y2445000D01*
X505000Y2405000D01*
G36*
X505000Y2405000D02*
G01*
X335000Y2405000D01*
X335000Y2445000D01*
X505000Y2445000D01*
X505000Y2405000D01*
G37*
X505000Y2355000D02*
X335000Y2355000D01*
X335000Y2395000D01*
X505000Y2395000D01*
X505000Y2355000D01*
G36*
X505000Y2355000D02*
G01*
X335000Y2355000D01*
X335000Y2395000D01*
X505000Y2395000D01*
X505000Y2355000D01*
G37*
X505000Y2305000D02*
X335000Y2305000D01*
X335000Y2345000D01*
X505000Y2345000D01*
X505000Y2305000D01*
G36*
X505000Y2305000D02*
G01*
X335000Y2305000D01*
X335000Y2345000D01*
X505000Y2345000D01*
X505000Y2305000D01*
G37*
X505000Y2255000D02*
X335000Y2255000D01*
X335000Y2295000D01*
X505000Y2295000D01*
X505000Y2255000D01*
G36*
X505000Y2255000D02*
G01*
X335000Y2255000D01*
X335000Y2295000D01*
X505000Y2295000D01*
X505000Y2255000D01*
G37*
X505000Y2205000D02*
X335000Y2205000D01*
X335000Y2245000D01*
X505000Y2245000D01*
X505000Y2205000D01*
G36*
X505000Y2205000D02*
G01*
X335000Y2205000D01*
X335000Y2245000D01*
X505000Y2245000D01*
X505000Y2205000D01*
G37*
X505000Y2155000D02*
X335000Y2155000D01*
X335000Y2195000D01*
X505000Y2195000D01*
X505000Y2155000D01*
G36*
X505000Y2155000D02*
G01*
X335000Y2155000D01*
X335000Y2195000D01*
X505000Y2195000D01*
X505000Y2155000D01*
G37*
X505000Y2105000D02*
X335000Y2105000D01*
X335000Y2145000D01*
X505000Y2145000D01*
X505000Y2105000D01*
G36*
X505000Y2105000D02*
G01*
X335000Y2105000D01*
X335000Y2145000D01*
X505000Y2145000D01*
X505000Y2105000D01*
G37*
X505000Y2055000D02*
X335000Y2055000D01*
X335000Y2095000D01*
X505000Y2095000D01*
X505000Y2055000D01*
G36*
X505000Y2055000D02*
G01*
X335000Y2055000D01*
X335000Y2095000D01*
X505000Y2095000D01*
X505000Y2055000D01*
G37*
X865000Y3505000D02*
X695000Y3505000D01*
X695000Y3545000D01*
X865000Y3545000D01*
X865000Y3505000D01*
G36*
X865000Y3505000D02*
G01*
X695000Y3505000D01*
X695000Y3545000D01*
X865000Y3545000D01*
X865000Y3505000D01*
G37*
X865000Y3455000D02*
X695000Y3455000D01*
X695000Y3495000D01*
X865000Y3495000D01*
X865000Y3455000D01*
G36*
X865000Y3455000D02*
G01*
X695000Y3455000D01*
X695000Y3495000D01*
X865000Y3495000D01*
X865000Y3455000D01*
G37*
X865000Y3405000D02*
X695000Y3405000D01*
X695000Y3445000D01*
X865000Y3445000D01*
X865000Y3405000D01*
G36*
X865000Y3405000D02*
G01*
X695000Y3405000D01*
X695000Y3445000D01*
X865000Y3445000D01*
X865000Y3405000D01*
G37*
X865000Y3355000D02*
X695000Y3355000D01*
X695000Y3395000D01*
X865000Y3395000D01*
X865000Y3355000D01*
G36*
X865000Y3355000D02*
G01*
X695000Y3355000D01*
X695000Y3395000D01*
X865000Y3395000D01*
X865000Y3355000D01*
G37*
X865000Y3305000D02*
X695000Y3305000D01*
X695000Y3345000D01*
X865000Y3345000D01*
X865000Y3305000D01*
G36*
X865000Y3305000D02*
G01*
X695000Y3305000D01*
X695000Y3345000D01*
X865000Y3345000D01*
X865000Y3305000D01*
G37*
X865000Y3255000D02*
X695000Y3255000D01*
X695000Y3295000D01*
X865000Y3295000D01*
X865000Y3255000D01*
G36*
X865000Y3255000D02*
G01*
X695000Y3255000D01*
X695000Y3295000D01*
X865000Y3295000D01*
X865000Y3255000D01*
G37*
X865000Y3205000D02*
X695000Y3205000D01*
X695000Y3245000D01*
X865000Y3245000D01*
X865000Y3205000D01*
G36*
X865000Y3205000D02*
G01*
X695000Y3205000D01*
X695000Y3245000D01*
X865000Y3245000D01*
X865000Y3205000D01*
G37*
X865000Y3155000D02*
X695000Y3155000D01*
X695000Y3195000D01*
X865000Y3195000D01*
X865000Y3155000D01*
G36*
X865000Y3155000D02*
G01*
X695000Y3155000D01*
X695000Y3195000D01*
X865000Y3195000D01*
X865000Y3155000D01*
G37*
X865000Y3105000D02*
X695000Y3105000D01*
X695000Y3145000D01*
X865000Y3145000D01*
X865000Y3105000D01*
G36*
X865000Y3105000D02*
G01*
X695000Y3105000D01*
X695000Y3145000D01*
X865000Y3145000D01*
X865000Y3105000D01*
G37*
X865000Y3055000D02*
X695000Y3055000D01*
X695000Y3095000D01*
X865000Y3095000D01*
X865000Y3055000D01*
G36*
X865000Y3055000D02*
G01*
X695000Y3055000D01*
X695000Y3095000D01*
X865000Y3095000D01*
X865000Y3055000D01*
G37*
X865000Y3005000D02*
X695000Y3005000D01*
X695000Y3045000D01*
X865000Y3045000D01*
X865000Y3005000D01*
G36*
X865000Y3005000D02*
G01*
X695000Y3005000D01*
X695000Y3045000D01*
X865000Y3045000D01*
X865000Y3005000D01*
G37*
X865000Y2955000D02*
X695000Y2955000D01*
X695000Y2995000D01*
X865000Y2995000D01*
X865000Y2955000D01*
G36*
X865000Y2955000D02*
G01*
X695000Y2955000D01*
X695000Y2995000D01*
X865000Y2995000D01*
X865000Y2955000D01*
G37*
X865000Y2905000D02*
X695000Y2905000D01*
X695000Y2945000D01*
X865000Y2945000D01*
X865000Y2905000D01*
G36*
X865000Y2905000D02*
G01*
X695000Y2905000D01*
X695000Y2945000D01*
X865000Y2945000D01*
X865000Y2905000D01*
G37*
X865000Y2855000D02*
X695000Y2855000D01*
X695000Y2895000D01*
X865000Y2895000D01*
X865000Y2855000D01*
G36*
X865000Y2855000D02*
G01*
X695000Y2855000D01*
X695000Y2895000D01*
X865000Y2895000D01*
X865000Y2855000D01*
G37*
X865000Y2805000D02*
X695000Y2805000D01*
X695000Y2845000D01*
X865000Y2845000D01*
X865000Y2805000D01*
G36*
X865000Y2805000D02*
G01*
X695000Y2805000D01*
X695000Y2845000D01*
X865000Y2845000D01*
X865000Y2805000D01*
G37*
X865000Y2755000D02*
X695000Y2755000D01*
X695000Y2795000D01*
X865000Y2795000D01*
X865000Y2755000D01*
G36*
X865000Y2755000D02*
G01*
X695000Y2755000D01*
X695000Y2795000D01*
X865000Y2795000D01*
X865000Y2755000D01*
G37*
X865000Y2705000D02*
X695000Y2705000D01*
X695000Y2745000D01*
X865000Y2745000D01*
X865000Y2705000D01*
G36*
X865000Y2705000D02*
G01*
X695000Y2705000D01*
X695000Y2745000D01*
X865000Y2745000D01*
X865000Y2705000D01*
G37*
X865000Y2655000D02*
X695000Y2655000D01*
X695000Y2695000D01*
X865000Y2695000D01*
X865000Y2655000D01*
G36*
X865000Y2655000D02*
G01*
X695000Y2655000D01*
X695000Y2695000D01*
X865000Y2695000D01*
X865000Y2655000D01*
G37*
X865000Y2605000D02*
X695000Y2605000D01*
X695000Y2645000D01*
X865000Y2645000D01*
X865000Y2605000D01*
G36*
X865000Y2605000D02*
G01*
X695000Y2605000D01*
X695000Y2645000D01*
X865000Y2645000D01*
X865000Y2605000D01*
G37*
X865000Y2555000D02*
X695000Y2555000D01*
X695000Y2595000D01*
X865000Y2595000D01*
X865000Y2555000D01*
G36*
X865000Y2555000D02*
G01*
X695000Y2555000D01*
X695000Y2595000D01*
X865000Y2595000D01*
X865000Y2555000D01*
G37*
X865000Y2505000D02*
X695000Y2505000D01*
X695000Y2545000D01*
X865000Y2545000D01*
X865000Y2505000D01*
G36*
X865000Y2505000D02*
G01*
X695000Y2505000D01*
X695000Y2545000D01*
X865000Y2545000D01*
X865000Y2505000D01*
G37*
X865000Y2455000D02*
X695000Y2455000D01*
X695000Y2495000D01*
X865000Y2495000D01*
X865000Y2455000D01*
G36*
X865000Y2455000D02*
G01*
X695000Y2455000D01*
X695000Y2495000D01*
X865000Y2495000D01*
X865000Y2455000D01*
G37*
X865000Y2405000D02*
X695000Y2405000D01*
X695000Y2445000D01*
X865000Y2445000D01*
X865000Y2405000D01*
G36*
X865000Y2405000D02*
G01*
X695000Y2405000D01*
X695000Y2445000D01*
X865000Y2445000D01*
X865000Y2405000D01*
G37*
X865000Y2355000D02*
X695000Y2355000D01*
X695000Y2395000D01*
X865000Y2395000D01*
X865000Y2355000D01*
G36*
X865000Y2355000D02*
G01*
X695000Y2355000D01*
X695000Y2395000D01*
X865000Y2395000D01*
X865000Y2355000D01*
G37*
X865000Y2305000D02*
X695000Y2305000D01*
X695000Y2345000D01*
X865000Y2345000D01*
X865000Y2305000D01*
G36*
X865000Y2305000D02*
G01*
X695000Y2305000D01*
X695000Y2345000D01*
X865000Y2345000D01*
X865000Y2305000D01*
G37*
X865000Y2255000D02*
X695000Y2255000D01*
X695000Y2295000D01*
X865000Y2295000D01*
X865000Y2255000D01*
G36*
X865000Y2255000D02*
G01*
X695000Y2255000D01*
X695000Y2295000D01*
X865000Y2295000D01*
X865000Y2255000D01*
G37*
X865000Y2205000D02*
X695000Y2205000D01*
X695000Y2245000D01*
X865000Y2245000D01*
X865000Y2205000D01*
G36*
X865000Y2205000D02*
G01*
X695000Y2205000D01*
X695000Y2245000D01*
X865000Y2245000D01*
X865000Y2205000D01*
G37*
X865000Y2155000D02*
X695000Y2155000D01*
X695000Y2195000D01*
X865000Y2195000D01*
X865000Y2155000D01*
G36*
X865000Y2155000D02*
G01*
X695000Y2155000D01*
X695000Y2195000D01*
X865000Y2195000D01*
X865000Y2155000D01*
G37*
X865000Y2105000D02*
X695000Y2105000D01*
X695000Y2145000D01*
X865000Y2145000D01*
X865000Y2105000D01*
G36*
X865000Y2105000D02*
G01*
X695000Y2105000D01*
X695000Y2145000D01*
X865000Y2145000D01*
X865000Y2105000D01*
G37*
X865000Y2055000D02*
X695000Y2055000D01*
X695000Y2095000D01*
X865000Y2095000D01*
X865000Y2055000D01*
G36*
X865000Y2055000D02*
G01*
X695000Y2055000D01*
X695000Y2095000D01*
X865000Y2095000D01*
X865000Y2055000D01*
G37*
G04 #@! TD*
D11*
G04 #@! TO.C,J3*
X3707500Y406000D03*
D12*
X3453500Y406000D03*
X3707500Y660000D03*
X3453500Y660000D03*
X3707500Y914000D03*
X3453500Y914000D03*
G04 #@! TD*
D13*
G04 #@! TO.C,J1*
X4400000Y2070000D03*
X4400000Y530000D03*
G04 #@! TD*
G04 #@! TO.C,J2*
X600000Y3695000D03*
X600000Y1905000D03*
G04 #@! TD*
M02*
