M48
; DRILL file {KiCad 9.0.6-9.0.6~ubuntu24.04.1} date 2025-11-30T20:08:45-0500
; FORMAT={-:-/ absolute / metric / decimal}
; #@! TF.CreationDate,2025-11-30T20:08:45-05:00
; #@! TF.GenerationSoftware,Kicad,Pcbnew,9.0.6-9.0.6~ubuntu24.04.1
; #@! TF.FileFunction,MixedPlating,1,4
FMAT,2
METRIC
; #@! TA.AperFunction,Plated,PTH,ViaDrill
T1C0.250
; #@! TA.AperFunction,Plated,PTH,ViaDrill
T2C0.300
; #@! TA.AperFunction,Plated,PTH,ComponentDrill
T3C0.300
; #@! TA.AperFunction,Plated,PTH,ViaDrill
T4C0.400
; #@! TA.AperFunction,Plated,PTH,ComponentDrill
T5C0.400
; #@! TA.AperFunction,Plated,PTH,ComponentDrill
T6C0.600
; #@! TA.AperFunction,Plated,PTH,ComponentDrill
T7C1.000
; #@! TA.AperFunction,Plated,PTH,ComponentDrill
T8C3.200
; #@! TA.AperFunction,NonPlated,NPTH,ComponentDrill
T9C0.650
%
G90
G05
T1
X84.488Y-50.807
X84.9Y-49.88
X85.35Y-49.148
X85.8Y-48.181
X86.25Y-47.445
X86.919Y-45.809
X88.168Y-42.756
X88.25Y-46.668
X88.364Y-51.071
X88.572Y-50.245
X88.716Y-44.575
X88.752Y-40.121
X88.773Y-48.149
X88.807Y-42.322
X88.821Y-49.449
X88.846Y-43.786
X88.859Y-39.329
X88.879Y-41.525
X88.912Y-46.14
X89.085Y-53.308
X89.2Y-47.5
X89.4Y-38.7
X89.5Y-51.9
X89.566Y-48.834
X89.641Y-40.852
X89.692Y-51.048
X89.928Y-42.975
X90.017Y-44.625
X90.253Y-45.397
X91.5Y-53.9
X96.217Y-42.425
X97.1Y-39.756
X98.0Y-52.85
X98.742Y-43.233
X99.8Y-50.45
X100.19Y-45.04
X101.574Y-46.909
X103.678Y-62.24
X104.071Y-60.775
X104.2Y-66.29
X104.208Y-59.692
X104.45Y-62.05
X106.2Y-60.5
X106.276Y-66.322
X106.3Y-61.8
X106.3Y-62.6
X108.518Y-67.769
X109.182Y-69.45
X112.1Y-69.419
X112.463Y-67.725
X112.917Y-69.2
X113.4Y-67.7
X113.8Y-62.6
X114.358Y-61.525
X114.394Y-65.8
X114.4Y-64.3
X114.415Y-65.05
X116.119Y-59.597
X116.154Y-62.15
X116.172Y-64.339
X116.624Y-62.798
X116.85Y-60.295
X126.0Y-70.5
X126.5Y-57.9
X127.2Y-65.35
X127.241Y-64.542
X127.25Y-66.675
X127.391Y-63.701
X127.667Y-62.305
X127.686Y-66.004
X127.9Y-67.302
X127.953Y-63.066
X127.968Y-64.324
X128.173Y-61.713
X128.182Y-60.6
X134.303Y-57.821
X134.408Y-67.559
X134.477Y-56.294
X134.491Y-65.205
X134.749Y-63.244
X134.917Y-58.455
X134.95Y-62.0
X135.393Y-64.361
X136.3Y-60.004
X136.314Y-65.209
X136.325Y-63.931
X136.725Y-58.917
X137.1Y-61.2
T2
X68.5Y-27.3
X71.5Y-92.0
X72.5Y-77.95
X73.6Y-75.0
X74.0Y-61.4
X74.7Y-72.1
X74.8Y-86.3
X75.5Y-78.9
X75.7Y-89.45
X75.847Y-45.064
X76.2Y-79.6
X76.415Y-44.412
X76.896Y-43.598
X76.9Y-80.2
X76.925Y-67.2
X77.45Y-91.25
X77.6Y-42.7
X77.6Y-68.8
X77.6Y-80.9
X77.8Y-86.3
X77.9Y-89.5
X78.225Y-41.925
X78.3Y-81.6
X78.305Y-67.975
X78.8Y-89.5
X79.0Y-41.0
X79.0Y-69.7
X79.356Y-82.3
X79.6Y-40.0
X80.0Y-83.1
X80.4Y-39.3
X80.7Y-68.5
X80.7Y-77.7
X82.7Y-52.3
X83.2Y-72.9
X84.1Y-70.375
X84.2Y-73.5
X85.08Y-76.4
X85.7Y-65.919
X86.5Y-70.375
X87.652Y-75.715
X88.231Y-63.525
X88.633Y-62.72
X88.9Y-73.7
X90.1Y-66.625
X90.661Y-64.139
X90.8Y-72.1
X91.5Y-66.1
X91.5Y-74.1
X92.022Y-28.975
X92.7Y-62.8
X92.7Y-66.1
X94.9Y-26.2
X95.1Y-24.2
X95.2Y-29.1
X96.4Y-74.8
X97.7Y-86.3
X98.046Y-28.975
X98.305Y-26.194
X99.4Y-31.4
X100.192Y-65.325
X100.4Y-35.9
X100.65Y-88.2
X101.1Y-63.3
X101.1Y-92.0
X101.5Y-28.975
X101.7Y-56.4
X101.743Y-26.197
X101.982Y-62.4
X102.0Y-60.3
X102.3Y-75.715
X102.7Y-54.8
X102.859Y-62.686
X103.0Y-76.4
X103.4Y-89.5
X103.9Y-74.1
X104.2Y-89.5
X104.5Y-52.7
X104.578Y-73.585
X104.581Y-64.541
X105.0Y-28.975
X105.25Y-26.2
X105.8Y-83.2
X105.9Y-71.1
X106.2Y-72.9
X106.268Y-50.165
X106.673Y-45.573
X106.7Y-78.6
X106.714Y-54.125
X106.894Y-71.1
X107.093Y-48.993
X107.1Y-59.7
X107.584Y-74.071
X108.0Y-81.6
X108.4Y-28.975
X108.62Y-26.2
X108.675Y-51.5
X108.8Y-42.7
X108.95Y-72.75
X109.192Y-71.109
X109.2Y-79.5
X109.832Y-46.668
X110.005Y-28.975
X110.1Y-24.2
X110.3Y-49.625
X110.3Y-53.5
X110.463Y-82.2
X111.099Y-41.499
X111.701Y-42.101
X111.8Y-28.9
X111.9Y-80.2
X112.058Y-26.2
X112.1Y-70.5
X112.504Y-71.644
X112.55Y-55.0
X112.55Y-55.7
X112.9Y-44.6
X112.9Y-48.9
X113.0Y-75.7
X113.02Y-83.2
X113.1Y-74.55
X113.9Y-79.6
X114.1Y-80.7
X114.5Y-48.3
X114.5Y-78.6
X115.1Y-69.0
X115.2Y-49.1
X115.6Y-26.2
X115.7Y-34.4
X115.7Y-55.1
X115.7Y-55.8
X115.7Y-56.5
X115.7Y-58.1
X115.9Y-32.2
X115.9Y-77.8
X116.2Y-41.3
X116.9Y-69.0
X117.1Y-65.4
X117.125Y-85.4
X117.6Y-57.2
X117.9Y-28.975
X118.0Y-37.7
X118.267Y-62.076
X118.4Y-44.4
X118.7Y-40.8
X118.7Y-72.5
X118.8Y-39.8
X118.91Y-26.2
X118.925Y-70.4
X119.25Y-61.2
X119.4Y-54.2
X119.477Y-46.723
X119.5Y-71.6
X119.529Y-63.015
X119.6Y-53.075
X120.0Y-38.8
X120.066Y-45.911
X120.2Y-24.2
X120.3Y-62.5
X120.375Y-69.6
X120.4Y-27.4
X120.7Y-49.8
X121.1Y-37.09
X121.4Y-28.9
X121.4Y-63.7
X121.475Y-38.572
X121.5Y-79.0
X121.7Y-39.6
X122.1Y-87.4
X122.2Y-64.6
X122.2Y-77.3
X122.5Y-26.2
X123.1Y-65.4
X123.1Y-76.0
X123.1Y-86.7
X123.8Y-89.5
X123.871Y-86.124
X123.9Y-66.2
X123.9Y-74.7
X124.6Y-89.5
X124.8Y-67.0
X124.8Y-73.3
X124.9Y-28.8
X124.9Y-84.6
X125.5Y-71.8
X125.7Y-24.2
X125.7Y-83.9
X125.75Y-26.15
X125.929Y-50.458
X126.52Y-72.639
X126.6Y-83.3
X126.675Y-69.077
X127.701Y-70.897
X128.169Y-51.5
X128.2Y-47.5
X128.6Y-26.2
X128.6Y-28.3
X129.6Y-80.3
X130.0Y-25.7
X130.0Y-75.5
X130.8Y-84.8
X131.5Y-24.5
X131.715Y-47.4
X131.715Y-49.2
X131.715Y-51.6
X132.0Y-41.6
X132.1Y-87.5
X133.3Y-84.0
X133.573Y-40.35
X133.8Y-37.7
X134.008Y-39.562
X134.6Y-86.8
X135.1Y-72.6
X135.268Y-38.213
X135.88Y-71.22
X136.775Y-47.3
X136.9Y-68.9
X137.1Y-44.4
X137.1Y-86.1
X137.4Y-46.7
X137.7Y-77.4
X138.075Y-52.2
X138.3Y-83.2
X138.4Y-74.8
X139.183Y-63.15
X141.0Y-73.3
X141.0Y-84.0
X141.699Y-31.499
X141.784Y-76.345
X141.8Y-65.387
X142.301Y-32.101
X142.5Y-81.4
X143.9Y-63.085
X143.9Y-71.915
X143.9Y-83.9
X146.3Y-70.6
X146.4Y-83.2
X146.815Y-61.7
X147.3Y-36.9
X147.5Y-63.0
X148.3Y-63.7
T3
X88.9Y-66.5
X88.9Y-71.2
X93.5Y-18.9
X95.5Y-64.8
X101.1Y-18.9
X108.0Y-65.85
X109.7Y-64.1
X109.75Y-63.0
X109.9Y-84.0
X109.9Y-91.0
X110.85Y-63.0
X110.9Y-64.1
X111.2Y-18.9
X112.7Y-61.25
X112.7Y-65.85
X117.5Y-39.9
X119.7Y-67.3
X120.4Y-71.2
X123.9Y-18.9
X127.2Y-47.4
X130.0Y-74.0
X131.4Y-88.5
X131.4Y-91.6
X134.1Y-72.6
X135.3Y-87.6
X135.3Y-90.9
X136.5Y-69.7
T4
X69.0Y-30.5
X69.7Y-29.7
X70.5Y-87.0
X70.5Y-88.0
X88.7Y-30.0
X88.7Y-30.9
X101.9Y-71.7
X102.65Y-55.871
X102.666Y-53.83
X107.863Y-49.6
X119.2Y-87.6
X119.2Y-88.5
X119.2Y-89.5
X120.3Y-55.0
X124.973Y-50.65
X132.9Y-28.9
X132.9Y-29.75
X133.7Y-42.4
X134.159Y-41.519
X134.75Y-29.75
X135.11Y-18.6
X135.4Y-30.4
X136.61Y-18.6
X138.01Y-24.9
X138.15Y-39.65
X139.01Y-24.9
X139.1Y-41.55
X139.41Y-29.7
X139.5Y-55.2
X139.779Y-40.643
X140.05Y-46.55
X140.4Y-42.3
X140.61Y-28.0
X142.01Y-29.0
X143.2Y-41.6
X143.25Y-46.55
X144.2Y-41.6
X144.31Y-29.0
X145.61Y-28.0
X145.97Y-92.74
X147.0Y-92.5
X147.09Y-28.9
X147.1Y-48.2
X147.75Y-67.35
X148.01Y-24.8
X148.91Y-24.8
X149.4Y-41.6
T5
X68.0Y-55.1
X68.0Y-60.1
X68.0Y-65.1
X68.0Y-70.1
X68.0Y-75.1
X68.0Y-80.1
X68.0Y-85.1
X68.0Y-90.1
X69.4Y-87.5
X69.8Y-34.9
X69.8Y-37.43
X69.8Y-39.96
X69.8Y-42.49
X69.8Y-45.1
X69.8Y-52.61
X70.1Y-31.1
X71.7Y-87.7
X72.4Y-45.1
X72.5Y-93.1
X74.45Y-53.1
X74.7Y-66.4
X74.7Y-71.0
X75.3Y-25.1
X75.5Y-80.4
X76.0Y-18.5
X76.3Y-42.55
X76.4Y-90.6
X77.9Y-40.85
X78.3Y-82.7
X78.4Y-88.5
X78.5Y-29.0
X78.5Y-85.4
X80.45Y-38.15
X81.0Y-18.5
X81.7Y-53.0
X81.7Y-60.1
X81.7Y-66.1
X81.8Y-71.0
X81.8Y-76.9
X82.9Y-84.1
X82.9Y-88.3
X83.5Y-29.0
X83.7Y-62.0
X86.0Y-18.5
X87.3Y-31.1
X89.85Y-29.0
X89.85Y-31.05
X89.85Y-36.05
X89.85Y-37.95
X90.7Y-59.5
X90.7Y-62.0
X91.8Y-58.0
X93.05Y-31.0
X93.7Y-90.9
X93.8Y-85.4
X94.1Y-36.1
X94.1Y-60.2
X95.6Y-62.0
X96.2Y-54.5
X96.3Y-85.4
X96.3Y-88.3
X96.3Y-93.5
X98.5Y-71.2
X100.9Y-54.5
X101.9Y-57.7
X103.8Y-88.5
X103.8Y-90.6
X104.4Y-76.9
X104.7Y-51.4
X105.8Y-84.3
X106.9Y-76.9
X110.0Y-41.85
X112.8Y-41.85
X113.0Y-81.9
X115.05Y-36.65
X115.9Y-76.7
X116.8Y-72.5
X118.0Y-88.5
X118.2Y-53.2
X118.8Y-36.7
X119.2Y-90.6
X120.4Y-73.4
X120.4Y-77.9
X120.4Y-84.5
X120.4Y-88.5
X121.2Y-55.9
X121.3Y-86.5
X121.6Y-42.3
X122.2Y-31.4
X122.2Y-35.6
X124.2Y-88.4
X124.2Y-90.6
X124.3Y-33.5
X126.45Y-31.4
X127.0Y-49.0
X127.5Y-82.4
X128.7Y-88.4
X128.7Y-90.6
X129.7Y-49.0
X129.7Y-51.6
X130.2Y-78.3
X130.5Y-33.5
X131.1Y-42.3
X132.6Y-18.5
X133.8Y-36.0
X134.05Y-28.8
X134.7Y-31.4
X134.7Y-84.3
X135.5Y-33.5
X136.8Y-30.25
X137.1Y-78.2
X137.6Y-43.3
X137.6Y-45.7
X138.75Y-33.8
X139.3Y-86.3
X139.8Y-43.3
X139.8Y-74.3
X140.3Y-20.0
X140.55Y-31.45
X142.15Y-33.2
X143.7Y-40.4
X145.4Y-46.7
X146.5Y-21.4
X146.6Y-45.2
X147.9Y-93.3
X148.5Y-42.6
X149.2Y-18.5
X149.2Y-40.0
X150.9Y-22.5
X150.9Y-27.5
X150.9Y-32.5
X150.9Y-37.5
T7
X69.84Y-95.54
X72.38Y-95.54
X74.92Y-95.54
X77.46Y-95.54
X80.0Y-93.0
X80.0Y-95.54
X82.54Y-93.0
X82.54Y-95.54
X85.08Y-93.0
X85.08Y-95.54
X87.62Y-93.0
X87.62Y-95.54
X90.16Y-93.0
X90.16Y-95.54
X92.2Y-19.96
X92.2Y-22.5
X92.7Y-93.0
X92.7Y-95.54
X94.74Y-19.96
X94.74Y-22.5
X95.24Y-95.54
X97.28Y-19.96
X97.28Y-22.5
X97.78Y-95.54
X99.82Y-19.96
X99.82Y-22.5
X100.32Y-95.54
X102.36Y-19.96
X102.36Y-22.5
X102.86Y-93.0
X102.86Y-95.54
X104.9Y-19.96
X104.9Y-22.5
X105.4Y-93.0
X105.4Y-95.54
X107.44Y-19.96
X107.44Y-22.5
X107.94Y-93.0
X107.94Y-95.54
X109.98Y-19.96
X109.98Y-22.5
X110.48Y-93.0
X110.48Y-95.54
X112.52Y-19.96
X112.52Y-22.5
X113.02Y-93.0
X113.02Y-95.54
X115.06Y-19.96
X115.06Y-22.5
X115.56Y-93.0
X115.56Y-95.54
X117.6Y-19.96
X117.6Y-22.5
X118.1Y-95.54
X120.14Y-19.96
X120.14Y-22.5
X120.64Y-95.54
X122.68Y-19.96
X122.68Y-22.5
X123.18Y-95.54
X125.22Y-19.96
X125.22Y-22.5
X125.72Y-93.0
X125.72Y-95.54
X127.76Y-19.96
X127.76Y-22.5
X128.26Y-93.0
X128.26Y-95.54
X130.3Y-19.96
X130.3Y-22.5
X130.8Y-93.0
X130.8Y-95.54
X133.34Y-93.0
X133.34Y-95.54
X135.88Y-93.0
X135.88Y-95.54
X138.42Y-93.0
X138.42Y-95.54
X140.96Y-95.54
X141.88Y-50.24
X141.88Y-52.78
X141.88Y-55.32
X141.88Y-57.86
X141.88Y-60.4
X143.5Y-95.54
X144.42Y-50.24
X144.42Y-52.78
X144.42Y-55.32
X144.42Y-57.86
X144.42Y-60.4
X146.04Y-95.54
X148.58Y-95.54
X150.0Y-45.18
X150.0Y-47.72
X150.0Y-50.26
X150.0Y-52.8
X150.0Y-55.34
X150.0Y-57.88
X150.0Y-60.42
X150.0Y-62.96
X150.0Y-65.5
X150.0Y-68.04
X150.0Y-70.58
X150.0Y-73.12
X150.0Y-75.66
X150.0Y-78.2
X150.0Y-80.74
X150.0Y-83.28
X150.0Y-88.355
X150.0Y-90.895
T8
X71.0Y-21.5
X144.0Y-89.0
T9
X140.32Y-22.6
X146.1Y-22.6
T6
X138.89Y-19.25G85X138.89Y-18.65
G05
X138.89Y-23.68G85X138.89Y-22.58
G05
X147.53Y-19.25G85X147.53Y-18.65
G05
X147.53Y-23.68G85X147.53Y-22.58
G05
M30
