G04 #@! TF.GenerationSoftware,KiCad,Pcbnew,9.0.6-9.0.6~ubuntu24.04.1*
G04 #@! TF.CreationDate,2025-11-30T20:08:45-05:00*
G04 #@! TF.ProjectId,tinytapeout-demo,74696e79-7461-4706-956f-75742d64656d,3.2*
G04 #@! TF.SameCoordinates,PX3fe56c0PY5cfbb60*
G04 #@! TF.FileFunction,Soldermask,Bot*
G04 #@! TF.FilePolarity,Negative*
%FSLAX45Y45*%
G04 Gerber Fmt 4.5, Leading zero omitted, Abs format (unit mm)*
G04 Created by KiCad (PCBNEW 9.0.6-9.0.6~ubuntu24.04.1) date 2025-11-30 20:08:45*
%MOMM*%
%LPD*%
G01*
G04 APERTURE LIST*
G04 Aperture macros list*
%AMRoundRect*
0 Rectangle with rounded corners*
0 $1 Rounding radius*
0 $2 $3 $4 $5 $6 $7 $8 $9 X,Y pos of 4 corners*
0 Add a 4 corners polygon primitive as box body*
4,1,4,$2,$3,$4,$5,$6,$7,$8,$9,$2,$3,0*
0 Add four circle primitives for the rounded corners*
1,1,$1+$1,$2,$3*
1,1,$1+$1,$4,$5*
1,1,$1+$1,$6,$7*
1,1,$1+$1,$8,$9*
0 Add four rect primitives between the rounded corners*
20,1,$1+$1,$2,$3,$4,$5,0*
20,1,$1+$1,$4,$5,$6,$7,0*
20,1,$1+$1,$6,$7,$8,$9,0*
20,1,$1+$1,$8,$9,$2,$3,0*%
G04 Aperture macros list end*
%ADD10C,0.100000*%
%ADD11R,1.700000X1.700000*%
%ADD12O,1.700000X1.700000*%
%ADD13C,1.700000*%
%ADD14C,6.400000*%
%ADD15C,0.650000*%
%ADD16O,1.000000X2.100000*%
%ADD17O,1.000000X1.600000*%
%ADD18RoundRect,0.200000X-0.200000X-0.275000X0.200000X-0.275000X0.200000X0.275000X-0.200000X0.275000X0*%
G04 APERTURE END LIST*
G04 #@! TO.C,JP5*
D10*
X6050000Y2257857D02*
X6180000Y2257857D01*
X6180000Y2287857D01*
X6050000Y2287857D01*
X6050000Y2257857D01*
G36*
X6050000Y2257857D02*
G01*
X6180000Y2257857D01*
X6180000Y2287857D01*
X6050000Y2287857D01*
X6050000Y2257857D01*
G37*
G04 #@! TO.C,JP8*
X6050000Y1825000D02*
X6180000Y1825000D01*
X6180000Y1855000D01*
X6050000Y1855000D01*
X6050000Y1825000D01*
G36*
X6050000Y1825000D02*
G01*
X6180000Y1825000D01*
X6180000Y1855000D01*
X6050000Y1855000D01*
X6050000Y1825000D01*
G37*
G04 #@! TO.C,JP2*
X6050000Y2690714D02*
X6180000Y2690714D01*
X6180000Y2720714D01*
X6050000Y2720714D01*
X6050000Y2690714D01*
G36*
X6050000Y2690714D02*
G01*
X6180000Y2690714D01*
X6180000Y2720714D01*
X6050000Y2720714D01*
X6050000Y2690714D01*
G37*
G04 #@! TO.C,JP7*
X6050000Y1969286D02*
X6180000Y1969286D01*
X6180000Y1999286D01*
X6050000Y1999286D01*
X6050000Y1969286D01*
G36*
X6050000Y1969286D02*
G01*
X6180000Y1969286D01*
X6180000Y1999286D01*
X6050000Y1999286D01*
X6050000Y1969286D01*
G37*
G04 #@! TO.C,JP1*
X6050000Y2835000D02*
X6180000Y2835000D01*
X6180000Y2865000D01*
X6050000Y2865000D01*
X6050000Y2835000D01*
G36*
X6050000Y2835000D02*
G01*
X6180000Y2835000D01*
X6180000Y2865000D01*
X6050000Y2865000D01*
X6050000Y2835000D01*
G37*
G04 #@! TO.C,JP6*
X6050000Y2113571D02*
X6180000Y2113571D01*
X6180000Y2143571D01*
X6050000Y2143571D01*
X6050000Y2113571D01*
G36*
X6050000Y2113571D02*
G01*
X6180000Y2113571D01*
X6180000Y2143571D01*
X6050000Y2143571D01*
X6050000Y2113571D01*
G37*
G04 #@! TO.C,JP4*
X6050000Y2402143D02*
X6180000Y2402143D01*
X6180000Y2432143D01*
X6050000Y2432143D01*
X6050000Y2402143D01*
G36*
X6050000Y2402143D02*
G01*
X6180000Y2402143D01*
X6180000Y2432143D01*
X6050000Y2432143D01*
X6050000Y2402143D01*
G37*
G04 #@! TO.C,JP3*
X6050000Y2546429D02*
X6180000Y2546429D01*
X6180000Y2576429D01*
X6050000Y2576429D01*
X6050000Y2546429D01*
G36*
X6050000Y2546429D02*
G01*
X6180000Y2546429D01*
X6180000Y2576429D01*
X6050000Y2576429D01*
X6050000Y2546429D01*
G37*
G04 #@! TD*
D11*
G04 #@! TO.C,J12*
X4856000Y450000D03*
D12*
X4602000Y450000D03*
X4348000Y450000D03*
X4094000Y450000D03*
X3840000Y450000D03*
D13*
X3586000Y450000D03*
D12*
X4856000Y196000D03*
X4602000Y196000D03*
X4348000Y196000D03*
X4094000Y196000D03*
X3840000Y196000D03*
X3586000Y196000D03*
G04 #@! TD*
D11*
G04 #@! TO.C,J10*
X1046000Y196000D03*
D13*
X792000Y196000D03*
X538000Y196000D03*
X284000Y196000D03*
G04 #@! TD*
D11*
G04 #@! TO.C,J9*
X3332000Y196000D03*
D13*
X3078000Y196000D03*
X2824000Y196000D03*
G04 #@! TD*
D11*
G04 #@! TO.C,J14*
X2520000Y7500000D03*
D13*
X2520000Y7754000D03*
X2774000Y7500000D03*
X2774000Y7754000D03*
X3028000Y7500000D03*
X3028000Y7754000D03*
X3282000Y7500000D03*
X3282000Y7754000D03*
X3536000Y7500000D03*
X3536000Y7754000D03*
X3790000Y7500000D03*
X3790000Y7754000D03*
X4044000Y7500000D03*
X4044000Y7754000D03*
X4298000Y7500000D03*
X4298000Y7754000D03*
X4552000Y7500000D03*
X4552000Y7754000D03*
X4806000Y7500000D03*
X4806000Y7754000D03*
X5060000Y7500000D03*
X5060000Y7754000D03*
X5314000Y7500000D03*
X5314000Y7754000D03*
X5568000Y7500000D03*
X5568000Y7754000D03*
X5822000Y7500000D03*
X5822000Y7754000D03*
X6076000Y7500000D03*
X6076000Y7754000D03*
X6330000Y7500000D03*
X6330000Y7754000D03*
G04 #@! TD*
D14*
G04 #@! TO.C,MT1*
X400000Y7600000D03*
G04 #@! TD*
D15*
G04 #@! TO.C,J1*
X7910000Y7490000D03*
X7332000Y7490000D03*
D16*
X8053000Y7437000D03*
D17*
X8053000Y7855000D03*
D16*
X7189000Y7437000D03*
D17*
X7189000Y7855000D03*
G04 #@! TD*
D11*
G04 #@! TO.C,J13*
X7142000Y450000D03*
D12*
X6888000Y450000D03*
X6634000Y450000D03*
X6380000Y450000D03*
X6126000Y450000D03*
D13*
X5872000Y450000D03*
D12*
X7142000Y196000D03*
X6888000Y196000D03*
X6634000Y196000D03*
X6380000Y196000D03*
X6126000Y196000D03*
X5872000Y196000D03*
G04 #@! TD*
D11*
G04 #@! TO.C,J16*
X7488000Y3710000D03*
D13*
X7742000Y3710000D03*
X7488000Y3964000D03*
X7742000Y3964000D03*
X7488000Y4218000D03*
X7742000Y4218000D03*
X7488000Y4472000D03*
X7742000Y4472000D03*
X7488000Y4726000D03*
X7742000Y4726000D03*
G04 #@! TD*
D11*
G04 #@! TO.C,J7*
X8300000Y660500D03*
D13*
X8300000Y914500D03*
G04 #@! TD*
D11*
G04 #@! TO.C,J8*
X8300000Y1422000D03*
D13*
X8300000Y1676000D03*
X8300000Y1930000D03*
X8300000Y2184000D03*
X8300000Y2438000D03*
X8300000Y2692000D03*
X8300000Y2946000D03*
X8300000Y3200000D03*
X8300000Y3454000D03*
X8300000Y3708000D03*
X8300000Y3962000D03*
X8300000Y4216000D03*
X8300000Y4470000D03*
X8300000Y4724000D03*
X8300000Y4978000D03*
X8300000Y5232000D03*
G04 #@! TD*
D14*
G04 #@! TO.C,MT2*
X7700000Y850000D03*
G04 #@! TD*
D11*
G04 #@! TO.C,J11*
X2570000Y450000D03*
D12*
X2316000Y450000D03*
X2062000Y450000D03*
X1808000Y450000D03*
X1554000Y450000D03*
D13*
X1300000Y450000D03*
D12*
X2570000Y196000D03*
X2316000Y196000D03*
X2062000Y196000D03*
X1808000Y196000D03*
X1554000Y196000D03*
X1300000Y196000D03*
G04 #@! TD*
D11*
G04 #@! TO.C,J6*
X5618000Y196000D03*
D13*
X5364000Y196000D03*
X5110000Y196000D03*
G04 #@! TD*
D11*
G04 #@! TO.C,J4*
X8158000Y196000D03*
D13*
X7904000Y196000D03*
X7650000Y196000D03*
X7396000Y196000D03*
G04 #@! TD*
D18*
G04 #@! TO.C,JP5*
X6037500Y2272857D03*
X6202500Y2272857D03*
G04 #@! TD*
G04 #@! TO.C,JP8*
X6037500Y1840000D03*
X6202500Y1840000D03*
G04 #@! TD*
G04 #@! TO.C,JP2*
X6037500Y2705714D03*
X6202500Y2705714D03*
G04 #@! TD*
G04 #@! TO.C,JP7*
X6037500Y1984286D03*
X6202500Y1984286D03*
G04 #@! TD*
G04 #@! TO.C,JP1*
X6037500Y2850000D03*
X6202500Y2850000D03*
G04 #@! TD*
G04 #@! TO.C,JP6*
X6037500Y2128571D03*
X6202500Y2128571D03*
G04 #@! TD*
G04 #@! TO.C,JP4*
X6037500Y2417143D03*
X6202500Y2417143D03*
G04 #@! TD*
G04 #@! TO.C,JP3*
X6037500Y2561429D03*
X6202500Y2561429D03*
G04 #@! TD*
M02*
