G04 #@! TF.GenerationSoftware,KiCad,Pcbnew,9.0.6-9.0.6~ubuntu24.04.1*
G04 #@! TF.CreationDate,2025-11-30T20:08:45-05:00*
G04 #@! TF.ProjectId,tinytapeout-demo,74696e79-7461-4706-956f-75742d64656d,3.2*
G04 #@! TF.SameCoordinates,PX3fe56c0PY5cfbb60*
G04 #@! TF.FileFunction,Paste,Top*
G04 #@! TF.FilePolarity,Positive*
%FSLAX45Y45*%
G04 Gerber Fmt 4.5, Leading zero omitted, Abs format (unit mm)*
G04 Created by KiCad (PCBNEW 9.0.6-9.0.6~ubuntu24.04.1) date 2025-11-30 20:08:45*
%MOMM*%
%LPD*%
G01*
G04 APERTURE LIST*
G04 Aperture macros list*
%AMRoundRect*
0 Rectangle with rounded corners*
0 $1 Rounding radius*
0 $2 $3 $4 $5 $6 $7 $8 $9 X,Y pos of 4 corners*
0 Add a 4 corners polygon primitive as box body*
4,1,4,$2,$3,$4,$5,$6,$7,$8,$9,$2,$3,0*
0 Add four circle primitives for the rounded corners*
1,1,$1+$1,$2,$3*
1,1,$1+$1,$4,$5*
1,1,$1+$1,$6,$7*
1,1,$1+$1,$8,$9*
0 Add four rect primitives between the rounded corners*
20,1,$1+$1,$2,$3,$4,$5,0*
20,1,$1+$1,$4,$5,$6,$7,0*
20,1,$1+$1,$6,$7,$8,$9,0*
20,1,$1+$1,$8,$9,$2,$3,0*%
G04 Aperture macros list end*
%ADD10C,0.010000*%
%ADD11RoundRect,0.140000X-0.170000X0.140000X-0.170000X-0.140000X0.170000X-0.140000X0.170000X0.140000X0*%
%ADD12RoundRect,0.135000X-0.135000X-0.185000X0.135000X-0.185000X0.135000X0.185000X-0.135000X0.185000X0*%
%ADD13RoundRect,0.200000X0.300000X-0.950000X0.300000X0.950000X-0.300000X0.950000X-0.300000X-0.950000X0*%
%ADD14R,1.000000X2.300000*%
%ADD15RoundRect,0.140000X0.140000X0.170000X-0.140000X0.170000X-0.140000X-0.170000X0.140000X-0.170000X0*%
%ADD16RoundRect,0.135000X0.135000X0.185000X-0.135000X0.185000X-0.135000X-0.185000X0.135000X-0.185000X0*%
%ADD17RoundRect,0.218750X-0.218750X-0.256250X0.218750X-0.256250X0.218750X0.256250X-0.218750X0.256250X0*%
%ADD18RoundRect,0.140000X-0.140000X-0.170000X0.140000X-0.170000X0.140000X0.170000X-0.140000X0.170000X0*%
%ADD19RoundRect,0.140000X0.170000X-0.140000X0.170000X0.140000X-0.170000X0.140000X-0.170000X-0.140000X0*%
%ADD20R,1.400000X1.500000*%
%ADD21RoundRect,0.218750X-0.256250X0.218750X-0.256250X-0.218750X0.256250X-0.218750X0.256250X0.218750X0*%
%ADD22RoundRect,0.135000X-0.185000X0.135000X-0.185000X-0.135000X0.185000X-0.135000X0.185000X0.135000X0*%
%ADD23RoundRect,0.243750X-0.456250X0.243750X-0.456250X-0.243750X0.456250X-0.243750X0.456250X0.243750X0*%
%ADD24R,2.600000X1.550000*%
%ADD25RoundRect,0.135000X0.185000X-0.135000X0.185000X0.135000X-0.185000X0.135000X-0.185000X-0.135000X0*%
%ADD26RoundRect,0.250000X-0.475000X0.250000X-0.475000X-0.250000X0.475000X-0.250000X0.475000X0.250000X0*%
%ADD27RoundRect,0.225000X-0.225000X-0.250000X0.225000X-0.250000X0.225000X0.250000X-0.225000X0.250000X0*%
%ADD28R,1.200000X1.820000*%
%ADD29RoundRect,0.225000X0.225000X0.250000X-0.225000X0.250000X-0.225000X-0.250000X0.225000X-0.250000X0*%
%ADD30RoundRect,0.250000X-0.250000X-0.475000X0.250000X-0.475000X0.250000X0.475000X-0.250000X0.475000X0*%
%ADD31RoundRect,0.162500X0.650000X0.162500X-0.650000X0.162500X-0.650000X-0.162500X0.650000X-0.162500X0*%
%ADD32RoundRect,0.225000X-0.250000X0.225000X-0.250000X-0.225000X0.250000X-0.225000X0.250000X0.225000X0*%
%ADD33RoundRect,0.218750X0.256250X-0.218750X0.256250X0.218750X-0.256250X0.218750X-0.256250X-0.218750X0*%
%ADD34RoundRect,0.218750X0.218750X0.256250X-0.218750X0.256250X-0.218750X-0.256250X0.218750X-0.256250X0*%
%ADD35RoundRect,0.150000X0.150000X0.575000X-0.150000X0.575000X-0.150000X-0.575000X0.150000X-0.575000X0*%
%ADD36RoundRect,0.075000X0.075000X0.650000X-0.075000X0.650000X-0.075000X-0.650000X0.075000X-0.650000X0*%
%ADD37O,1.200000X2.300000*%
%ADD38O,1.200000X1.800000*%
%ADD39RoundRect,0.225000X0.250000X-0.225000X0.250000X0.225000X-0.250000X0.225000X-0.250000X-0.225000X0*%
%ADD40RoundRect,0.250000X0.250000X0.475000X-0.250000X0.475000X-0.250000X-0.475000X0.250000X-0.475000X0*%
%ADD41RoundRect,0.200000X0.275000X-0.200000X0.275000X0.200000X-0.275000X0.200000X-0.275000X-0.200000X0*%
%ADD42RoundRect,0.227500X-0.227500X-0.227500X0.227500X-0.227500X0.227500X0.227500X-0.227500X0.227500X0*%
%ADD43RoundRect,0.050000X-0.350000X-0.050000X0.350000X-0.050000X0.350000X0.050000X-0.350000X0.050000X0*%
%ADD44RoundRect,0.050000X-0.050000X-0.350000X0.050000X-0.350000X0.050000X0.350000X-0.050000X0.350000X0*%
%ADD45R,1.800000X0.800000*%
%ADD46RoundRect,0.375000X0.625000X0.375000X-0.625000X0.375000X-0.625000X-0.375000X0.625000X-0.375000X0*%
%ADD47RoundRect,0.500000X0.500000X1.400000X-0.500000X1.400000X-0.500000X-1.400000X0.500000X-1.400000X0*%
%ADD48RoundRect,0.250000X0.475000X-0.250000X0.475000X0.250000X-0.475000X0.250000X-0.475000X-0.250000X0*%
%ADD49RoundRect,0.250000X-0.450000X-0.350000X0.450000X-0.350000X0.450000X0.350000X-0.450000X0.350000X0*%
G04 APERTURE END LIST*
G04 #@! TO.C,J5*
D10*
X2362500Y5864000D02*
X2482500Y5864000D01*
X2482500Y5836000D01*
X2362500Y5836000D01*
X2362500Y5864000D01*
G36*
X2362500Y5864000D02*
G01*
X2482500Y5864000D01*
X2482500Y5836000D01*
X2362500Y5836000D01*
X2362500Y5864000D01*
G37*
X2362500Y5864000D02*
X2482500Y5864000D01*
X2482500Y5836000D01*
X2362500Y5836000D01*
X2362500Y5864000D01*
G36*
X2362500Y5864000D02*
G01*
X2482500Y5864000D01*
X2482500Y5836000D01*
X2362500Y5836000D01*
X2362500Y5864000D01*
G37*
X2362500Y5814000D02*
X2482500Y5814000D01*
X2482500Y5786000D01*
X2362500Y5786000D01*
X2362500Y5814000D01*
G36*
X2362500Y5814000D02*
G01*
X2482500Y5814000D01*
X2482500Y5786000D01*
X2362500Y5786000D01*
X2362500Y5814000D01*
G37*
X2362500Y5764000D02*
X2482500Y5764000D01*
X2482500Y5736000D01*
X2362500Y5736000D01*
X2362500Y5764000D01*
G36*
X2362500Y5764000D02*
G01*
X2482500Y5764000D01*
X2482500Y5736000D01*
X2362500Y5736000D01*
X2362500Y5764000D01*
G37*
X2362500Y5714000D02*
X2482500Y5714000D01*
X2482500Y5686000D01*
X2362500Y5686000D01*
X2362500Y5714000D01*
G36*
X2362500Y5714000D02*
G01*
X2482500Y5714000D01*
X2482500Y5686000D01*
X2362500Y5686000D01*
X2362500Y5714000D01*
G37*
X2362500Y5664000D02*
X2482500Y5664000D01*
X2482500Y5636000D01*
X2362500Y5636000D01*
X2362500Y5664000D01*
G36*
X2362500Y5664000D02*
G01*
X2482500Y5664000D01*
X2482500Y5636000D01*
X2362500Y5636000D01*
X2362500Y5664000D01*
G37*
X2362500Y5614000D02*
X2482500Y5614000D01*
X2482500Y5586000D01*
X2362500Y5586000D01*
X2362500Y5614000D01*
G36*
X2362500Y5614000D02*
G01*
X2482500Y5614000D01*
X2482500Y5586000D01*
X2362500Y5586000D01*
X2362500Y5614000D01*
G37*
X2362500Y5564000D02*
X2482500Y5564000D01*
X2482500Y5536000D01*
X2362500Y5536000D01*
X2362500Y5564000D01*
G36*
X2362500Y5564000D02*
G01*
X2482500Y5564000D01*
X2482500Y5536000D01*
X2362500Y5536000D01*
X2362500Y5564000D01*
G37*
X2362500Y5514000D02*
X2482500Y5514000D01*
X2482500Y5486000D01*
X2362500Y5486000D01*
X2362500Y5514000D01*
G36*
X2362500Y5514000D02*
G01*
X2482500Y5514000D01*
X2482500Y5486000D01*
X2362500Y5486000D01*
X2362500Y5514000D01*
G37*
X2362500Y5464000D02*
X2482500Y5464000D01*
X2482500Y5436000D01*
X2362500Y5436000D01*
X2362500Y5464000D01*
G36*
X2362500Y5464000D02*
G01*
X2482500Y5464000D01*
X2482500Y5436000D01*
X2362500Y5436000D01*
X2362500Y5464000D01*
G37*
X2362500Y5414000D02*
X2482500Y5414000D01*
X2482500Y5386000D01*
X2362500Y5386000D01*
X2362500Y5414000D01*
G36*
X2362500Y5414000D02*
G01*
X2482500Y5414000D01*
X2482500Y5386000D01*
X2362500Y5386000D01*
X2362500Y5414000D01*
G37*
X2362500Y5364000D02*
X2482500Y5364000D01*
X2482500Y5336000D01*
X2362500Y5336000D01*
X2362500Y5364000D01*
G36*
X2362500Y5364000D02*
G01*
X2482500Y5364000D01*
X2482500Y5336000D01*
X2362500Y5336000D01*
X2362500Y5364000D01*
G37*
X2362500Y5314000D02*
X2482500Y5314000D01*
X2482500Y5286000D01*
X2362500Y5286000D01*
X2362500Y5314000D01*
G36*
X2362500Y5314000D02*
G01*
X2482500Y5314000D01*
X2482500Y5286000D01*
X2362500Y5286000D01*
X2362500Y5314000D01*
G37*
X2362500Y5264000D02*
X2482500Y5264000D01*
X2482500Y5236000D01*
X2362500Y5236000D01*
X2362500Y5264000D01*
G36*
X2362500Y5264000D02*
G01*
X2482500Y5264000D01*
X2482500Y5236000D01*
X2362500Y5236000D01*
X2362500Y5264000D01*
G37*
X2362500Y5214000D02*
X2482500Y5214000D01*
X2482500Y5186000D01*
X2362500Y5186000D01*
X2362500Y5214000D01*
G36*
X2362500Y5214000D02*
G01*
X2482500Y5214000D01*
X2482500Y5186000D01*
X2362500Y5186000D01*
X2362500Y5214000D01*
G37*
X2362500Y5164000D02*
X2482500Y5164000D01*
X2482500Y5136000D01*
X2362500Y5136000D01*
X2362500Y5164000D01*
G36*
X2362500Y5164000D02*
G01*
X2482500Y5164000D01*
X2482500Y5136000D01*
X2362500Y5136000D01*
X2362500Y5164000D01*
G37*
X2362500Y5114000D02*
X2482500Y5114000D01*
X2482500Y5086000D01*
X2362500Y5086000D01*
X2362500Y5114000D01*
G36*
X2362500Y5114000D02*
G01*
X2482500Y5114000D01*
X2482500Y5086000D01*
X2362500Y5086000D01*
X2362500Y5114000D01*
G37*
X2362500Y5064000D02*
X2482500Y5064000D01*
X2482500Y5036000D01*
X2362500Y5036000D01*
X2362500Y5064000D01*
G36*
X2362500Y5064000D02*
G01*
X2482500Y5064000D01*
X2482500Y5036000D01*
X2362500Y5036000D01*
X2362500Y5064000D01*
G37*
X2362500Y5014000D02*
X2482500Y5014000D01*
X2482500Y4986000D01*
X2362500Y4986000D01*
X2362500Y5014000D01*
G36*
X2362500Y5014000D02*
G01*
X2482500Y5014000D01*
X2482500Y4986000D01*
X2362500Y4986000D01*
X2362500Y5014000D01*
G37*
X2362500Y4964000D02*
X2482500Y4964000D01*
X2482500Y4936000D01*
X2362500Y4936000D01*
X2362500Y4964000D01*
G36*
X2362500Y4964000D02*
G01*
X2482500Y4964000D01*
X2482500Y4936000D01*
X2362500Y4936000D01*
X2362500Y4964000D01*
G37*
X2362500Y4914000D02*
X2482500Y4914000D01*
X2482500Y4886000D01*
X2362500Y4886000D01*
X2362500Y4914000D01*
G36*
X2362500Y4914000D02*
G01*
X2482500Y4914000D01*
X2482500Y4886000D01*
X2362500Y4886000D01*
X2362500Y4914000D01*
G37*
X2362500Y4864000D02*
X2482500Y4864000D01*
X2482500Y4836000D01*
X2362500Y4836000D01*
X2362500Y4864000D01*
G36*
X2362500Y4864000D02*
G01*
X2482500Y4864000D01*
X2482500Y4836000D01*
X2362500Y4836000D01*
X2362500Y4864000D01*
G37*
X2362500Y4814000D02*
X2482500Y4814000D01*
X2482500Y4786000D01*
X2362500Y4786000D01*
X2362500Y4814000D01*
G36*
X2362500Y4814000D02*
G01*
X2482500Y4814000D01*
X2482500Y4786000D01*
X2362500Y4786000D01*
X2362500Y4814000D01*
G37*
X2362500Y4764000D02*
X2482500Y4764000D01*
X2482500Y4736000D01*
X2362500Y4736000D01*
X2362500Y4764000D01*
G36*
X2362500Y4764000D02*
G01*
X2482500Y4764000D01*
X2482500Y4736000D01*
X2362500Y4736000D01*
X2362500Y4764000D01*
G37*
X2362500Y4714000D02*
X2482500Y4714000D01*
X2482500Y4686000D01*
X2362500Y4686000D01*
X2362500Y4714000D01*
G36*
X2362500Y4714000D02*
G01*
X2482500Y4714000D01*
X2482500Y4686000D01*
X2362500Y4686000D01*
X2362500Y4714000D01*
G37*
X2362500Y4664000D02*
X2482500Y4664000D01*
X2482500Y4636000D01*
X2362500Y4636000D01*
X2362500Y4664000D01*
G36*
X2362500Y4664000D02*
G01*
X2482500Y4664000D01*
X2482500Y4636000D01*
X2362500Y4636000D01*
X2362500Y4664000D01*
G37*
X2362500Y4614000D02*
X2482500Y4614000D01*
X2482500Y4586000D01*
X2362500Y4586000D01*
X2362500Y4614000D01*
G36*
X2362500Y4614000D02*
G01*
X2482500Y4614000D01*
X2482500Y4586000D01*
X2362500Y4586000D01*
X2362500Y4614000D01*
G37*
X2362500Y4564000D02*
X2482500Y4564000D01*
X2482500Y4536000D01*
X2362500Y4536000D01*
X2362500Y4564000D01*
G36*
X2362500Y4564000D02*
G01*
X2482500Y4564000D01*
X2482500Y4536000D01*
X2362500Y4536000D01*
X2362500Y4564000D01*
G37*
X2362500Y4514000D02*
X2482500Y4514000D01*
X2482500Y4486000D01*
X2362500Y4486000D01*
X2362500Y4514000D01*
G36*
X2362500Y4514000D02*
G01*
X2482500Y4514000D01*
X2482500Y4486000D01*
X2362500Y4486000D01*
X2362500Y4514000D01*
G37*
X2362500Y4464000D02*
X2482500Y4464000D01*
X2482500Y4436000D01*
X2362500Y4436000D01*
X2362500Y4464000D01*
G36*
X2362500Y4464000D02*
G01*
X2482500Y4464000D01*
X2482500Y4436000D01*
X2362500Y4436000D01*
X2362500Y4464000D01*
G37*
X2362500Y4414000D02*
X2482500Y4414000D01*
X2482500Y4386000D01*
X2362500Y4386000D01*
X2362500Y4414000D01*
G36*
X2362500Y4414000D02*
G01*
X2482500Y4414000D01*
X2482500Y4386000D01*
X2362500Y4386000D01*
X2362500Y4414000D01*
G37*
X2362500Y4414000D02*
X2482500Y4414000D01*
X2482500Y4386000D01*
X2362500Y4386000D01*
X2362500Y4414000D01*
G36*
X2362500Y4414000D02*
G01*
X2482500Y4414000D01*
X2482500Y4386000D01*
X2362500Y4386000D01*
X2362500Y4414000D01*
G37*
X2762500Y5864000D02*
X2882500Y5864000D01*
X2882500Y5836000D01*
X2762500Y5836000D01*
X2762500Y5864000D01*
G36*
X2762500Y5864000D02*
G01*
X2882500Y5864000D01*
X2882500Y5836000D01*
X2762500Y5836000D01*
X2762500Y5864000D01*
G37*
X2762500Y5864000D02*
X2882500Y5864000D01*
X2882500Y5836000D01*
X2762500Y5836000D01*
X2762500Y5864000D01*
G36*
X2762500Y5864000D02*
G01*
X2882500Y5864000D01*
X2882500Y5836000D01*
X2762500Y5836000D01*
X2762500Y5864000D01*
G37*
X2762500Y5814000D02*
X2882500Y5814000D01*
X2882500Y5786000D01*
X2762500Y5786000D01*
X2762500Y5814000D01*
G36*
X2762500Y5814000D02*
G01*
X2882500Y5814000D01*
X2882500Y5786000D01*
X2762500Y5786000D01*
X2762500Y5814000D01*
G37*
X2762500Y5764000D02*
X2882500Y5764000D01*
X2882500Y5736000D01*
X2762500Y5736000D01*
X2762500Y5764000D01*
G36*
X2762500Y5764000D02*
G01*
X2882500Y5764000D01*
X2882500Y5736000D01*
X2762500Y5736000D01*
X2762500Y5764000D01*
G37*
X2762500Y5714000D02*
X2882500Y5714000D01*
X2882500Y5686000D01*
X2762500Y5686000D01*
X2762500Y5714000D01*
G36*
X2762500Y5714000D02*
G01*
X2882500Y5714000D01*
X2882500Y5686000D01*
X2762500Y5686000D01*
X2762500Y5714000D01*
G37*
X2762500Y5664000D02*
X2882500Y5664000D01*
X2882500Y5636000D01*
X2762500Y5636000D01*
X2762500Y5664000D01*
G36*
X2762500Y5664000D02*
G01*
X2882500Y5664000D01*
X2882500Y5636000D01*
X2762500Y5636000D01*
X2762500Y5664000D01*
G37*
X2762500Y5614000D02*
X2882500Y5614000D01*
X2882500Y5586000D01*
X2762500Y5586000D01*
X2762500Y5614000D01*
G36*
X2762500Y5614000D02*
G01*
X2882500Y5614000D01*
X2882500Y5586000D01*
X2762500Y5586000D01*
X2762500Y5614000D01*
G37*
X2762500Y5564000D02*
X2882500Y5564000D01*
X2882500Y5536000D01*
X2762500Y5536000D01*
X2762500Y5564000D01*
G36*
X2762500Y5564000D02*
G01*
X2882500Y5564000D01*
X2882500Y5536000D01*
X2762500Y5536000D01*
X2762500Y5564000D01*
G37*
X2762500Y5514000D02*
X2882500Y5514000D01*
X2882500Y5486000D01*
X2762500Y5486000D01*
X2762500Y5514000D01*
G36*
X2762500Y5514000D02*
G01*
X2882500Y5514000D01*
X2882500Y5486000D01*
X2762500Y5486000D01*
X2762500Y5514000D01*
G37*
X2762500Y5464000D02*
X2882500Y5464000D01*
X2882500Y5436000D01*
X2762500Y5436000D01*
X2762500Y5464000D01*
G36*
X2762500Y5464000D02*
G01*
X2882500Y5464000D01*
X2882500Y5436000D01*
X2762500Y5436000D01*
X2762500Y5464000D01*
G37*
X2762500Y5414000D02*
X2882500Y5414000D01*
X2882500Y5386000D01*
X2762500Y5386000D01*
X2762500Y5414000D01*
G36*
X2762500Y5414000D02*
G01*
X2882500Y5414000D01*
X2882500Y5386000D01*
X2762500Y5386000D01*
X2762500Y5414000D01*
G37*
X2762500Y5364000D02*
X2882500Y5364000D01*
X2882500Y5336000D01*
X2762500Y5336000D01*
X2762500Y5364000D01*
G36*
X2762500Y5364000D02*
G01*
X2882500Y5364000D01*
X2882500Y5336000D01*
X2762500Y5336000D01*
X2762500Y5364000D01*
G37*
X2762500Y5314000D02*
X2882500Y5314000D01*
X2882500Y5286000D01*
X2762500Y5286000D01*
X2762500Y5314000D01*
G36*
X2762500Y5314000D02*
G01*
X2882500Y5314000D01*
X2882500Y5286000D01*
X2762500Y5286000D01*
X2762500Y5314000D01*
G37*
X2762500Y5264000D02*
X2882500Y5264000D01*
X2882500Y5236000D01*
X2762500Y5236000D01*
X2762500Y5264000D01*
G36*
X2762500Y5264000D02*
G01*
X2882500Y5264000D01*
X2882500Y5236000D01*
X2762500Y5236000D01*
X2762500Y5264000D01*
G37*
X2762500Y5214000D02*
X2882500Y5214000D01*
X2882500Y5186000D01*
X2762500Y5186000D01*
X2762500Y5214000D01*
G36*
X2762500Y5214000D02*
G01*
X2882500Y5214000D01*
X2882500Y5186000D01*
X2762500Y5186000D01*
X2762500Y5214000D01*
G37*
X2762500Y5164000D02*
X2882500Y5164000D01*
X2882500Y5136000D01*
X2762500Y5136000D01*
X2762500Y5164000D01*
G36*
X2762500Y5164000D02*
G01*
X2882500Y5164000D01*
X2882500Y5136000D01*
X2762500Y5136000D01*
X2762500Y5164000D01*
G37*
X2762500Y5114000D02*
X2882500Y5114000D01*
X2882500Y5086000D01*
X2762500Y5086000D01*
X2762500Y5114000D01*
G36*
X2762500Y5114000D02*
G01*
X2882500Y5114000D01*
X2882500Y5086000D01*
X2762500Y5086000D01*
X2762500Y5114000D01*
G37*
X2762500Y5064000D02*
X2882500Y5064000D01*
X2882500Y5036000D01*
X2762500Y5036000D01*
X2762500Y5064000D01*
G36*
X2762500Y5064000D02*
G01*
X2882500Y5064000D01*
X2882500Y5036000D01*
X2762500Y5036000D01*
X2762500Y5064000D01*
G37*
X2762500Y5014000D02*
X2882500Y5014000D01*
X2882500Y4986000D01*
X2762500Y4986000D01*
X2762500Y5014000D01*
G36*
X2762500Y5014000D02*
G01*
X2882500Y5014000D01*
X2882500Y4986000D01*
X2762500Y4986000D01*
X2762500Y5014000D01*
G37*
X2762500Y4964000D02*
X2882500Y4964000D01*
X2882500Y4936000D01*
X2762500Y4936000D01*
X2762500Y4964000D01*
G36*
X2762500Y4964000D02*
G01*
X2882500Y4964000D01*
X2882500Y4936000D01*
X2762500Y4936000D01*
X2762500Y4964000D01*
G37*
X2762500Y4914000D02*
X2882500Y4914000D01*
X2882500Y4886000D01*
X2762500Y4886000D01*
X2762500Y4914000D01*
G36*
X2762500Y4914000D02*
G01*
X2882500Y4914000D01*
X2882500Y4886000D01*
X2762500Y4886000D01*
X2762500Y4914000D01*
G37*
X2762500Y4864000D02*
X2882500Y4864000D01*
X2882500Y4836000D01*
X2762500Y4836000D01*
X2762500Y4864000D01*
G36*
X2762500Y4864000D02*
G01*
X2882500Y4864000D01*
X2882500Y4836000D01*
X2762500Y4836000D01*
X2762500Y4864000D01*
G37*
X2762500Y4814000D02*
X2882500Y4814000D01*
X2882500Y4786000D01*
X2762500Y4786000D01*
X2762500Y4814000D01*
G36*
X2762500Y4814000D02*
G01*
X2882500Y4814000D01*
X2882500Y4786000D01*
X2762500Y4786000D01*
X2762500Y4814000D01*
G37*
X2762500Y4764000D02*
X2882500Y4764000D01*
X2882500Y4736000D01*
X2762500Y4736000D01*
X2762500Y4764000D01*
G36*
X2762500Y4764000D02*
G01*
X2882500Y4764000D01*
X2882500Y4736000D01*
X2762500Y4736000D01*
X2762500Y4764000D01*
G37*
X2762500Y4714000D02*
X2882500Y4714000D01*
X2882500Y4686000D01*
X2762500Y4686000D01*
X2762500Y4714000D01*
G36*
X2762500Y4714000D02*
G01*
X2882500Y4714000D01*
X2882500Y4686000D01*
X2762500Y4686000D01*
X2762500Y4714000D01*
G37*
X2762500Y4664000D02*
X2882500Y4664000D01*
X2882500Y4636000D01*
X2762500Y4636000D01*
X2762500Y4664000D01*
G36*
X2762500Y4664000D02*
G01*
X2882500Y4664000D01*
X2882500Y4636000D01*
X2762500Y4636000D01*
X2762500Y4664000D01*
G37*
X2762500Y4614000D02*
X2882500Y4614000D01*
X2882500Y4586000D01*
X2762500Y4586000D01*
X2762500Y4614000D01*
G36*
X2762500Y4614000D02*
G01*
X2882500Y4614000D01*
X2882500Y4586000D01*
X2762500Y4586000D01*
X2762500Y4614000D01*
G37*
X2762500Y4564000D02*
X2882500Y4564000D01*
X2882500Y4536000D01*
X2762500Y4536000D01*
X2762500Y4564000D01*
G36*
X2762500Y4564000D02*
G01*
X2882500Y4564000D01*
X2882500Y4536000D01*
X2762500Y4536000D01*
X2762500Y4564000D01*
G37*
X2762500Y4514000D02*
X2882500Y4514000D01*
X2882500Y4486000D01*
X2762500Y4486000D01*
X2762500Y4514000D01*
G36*
X2762500Y4514000D02*
G01*
X2882500Y4514000D01*
X2882500Y4486000D01*
X2762500Y4486000D01*
X2762500Y4514000D01*
G37*
X2762500Y4464000D02*
X2882500Y4464000D01*
X2882500Y4436000D01*
X2762500Y4436000D01*
X2762500Y4464000D01*
G36*
X2762500Y4464000D02*
G01*
X2882500Y4464000D01*
X2882500Y4436000D01*
X2762500Y4436000D01*
X2762500Y4464000D01*
G37*
X2762500Y4414000D02*
X2882500Y4414000D01*
X2882500Y4386000D01*
X2762500Y4386000D01*
X2762500Y4414000D01*
G36*
X2762500Y4414000D02*
G01*
X2882500Y4414000D01*
X2882500Y4386000D01*
X2762500Y4386000D01*
X2762500Y4414000D01*
G37*
X2762500Y4414000D02*
X2882500Y4414000D01*
X2882500Y4386000D01*
X2762500Y4386000D01*
X2762500Y4414000D01*
G36*
X2762500Y4414000D02*
G01*
X2882500Y4414000D01*
X2882500Y4386000D01*
X2762500Y4386000D01*
X2762500Y4414000D01*
G37*
X6162500Y4239000D02*
X6282500Y4239000D01*
X6282500Y4211000D01*
X6162500Y4211000D01*
X6162500Y4239000D01*
G36*
X6162500Y4239000D02*
G01*
X6282500Y4239000D01*
X6282500Y4211000D01*
X6162500Y4211000D01*
X6162500Y4239000D01*
G37*
X6162500Y4239000D02*
X6282500Y4239000D01*
X6282500Y4211000D01*
X6162500Y4211000D01*
X6162500Y4239000D01*
G36*
X6162500Y4239000D02*
G01*
X6282500Y4239000D01*
X6282500Y4211000D01*
X6162500Y4211000D01*
X6162500Y4239000D01*
G37*
X6162500Y4189000D02*
X6282500Y4189000D01*
X6282500Y4161000D01*
X6162500Y4161000D01*
X6162500Y4189000D01*
G36*
X6162500Y4189000D02*
G01*
X6282500Y4189000D01*
X6282500Y4161000D01*
X6162500Y4161000D01*
X6162500Y4189000D01*
G37*
X6162500Y4139000D02*
X6282500Y4139000D01*
X6282500Y4111000D01*
X6162500Y4111000D01*
X6162500Y4139000D01*
G36*
X6162500Y4139000D02*
G01*
X6282500Y4139000D01*
X6282500Y4111000D01*
X6162500Y4111000D01*
X6162500Y4139000D01*
G37*
X6162500Y4089000D02*
X6282500Y4089000D01*
X6282500Y4061000D01*
X6162500Y4061000D01*
X6162500Y4089000D01*
G36*
X6162500Y4089000D02*
G01*
X6282500Y4089000D01*
X6282500Y4061000D01*
X6162500Y4061000D01*
X6162500Y4089000D01*
G37*
X6162500Y4039000D02*
X6282500Y4039000D01*
X6282500Y4011000D01*
X6162500Y4011000D01*
X6162500Y4039000D01*
G36*
X6162500Y4039000D02*
G01*
X6282500Y4039000D01*
X6282500Y4011000D01*
X6162500Y4011000D01*
X6162500Y4039000D01*
G37*
X6162500Y3989000D02*
X6282500Y3989000D01*
X6282500Y3961000D01*
X6162500Y3961000D01*
X6162500Y3989000D01*
G36*
X6162500Y3989000D02*
G01*
X6282500Y3989000D01*
X6282500Y3961000D01*
X6162500Y3961000D01*
X6162500Y3989000D01*
G37*
X6162500Y3939000D02*
X6282500Y3939000D01*
X6282500Y3911000D01*
X6162500Y3911000D01*
X6162500Y3939000D01*
G36*
X6162500Y3939000D02*
G01*
X6282500Y3939000D01*
X6282500Y3911000D01*
X6162500Y3911000D01*
X6162500Y3939000D01*
G37*
X6162500Y3889000D02*
X6282500Y3889000D01*
X6282500Y3861000D01*
X6162500Y3861000D01*
X6162500Y3889000D01*
G36*
X6162500Y3889000D02*
G01*
X6282500Y3889000D01*
X6282500Y3861000D01*
X6162500Y3861000D01*
X6162500Y3889000D01*
G37*
X6162500Y3839000D02*
X6282500Y3839000D01*
X6282500Y3811000D01*
X6162500Y3811000D01*
X6162500Y3839000D01*
G36*
X6162500Y3839000D02*
G01*
X6282500Y3839000D01*
X6282500Y3811000D01*
X6162500Y3811000D01*
X6162500Y3839000D01*
G37*
X6162500Y3789000D02*
X6282500Y3789000D01*
X6282500Y3761000D01*
X6162500Y3761000D01*
X6162500Y3789000D01*
G36*
X6162500Y3789000D02*
G01*
X6282500Y3789000D01*
X6282500Y3761000D01*
X6162500Y3761000D01*
X6162500Y3789000D01*
G37*
X6162500Y3739000D02*
X6282500Y3739000D01*
X6282500Y3711000D01*
X6162500Y3711000D01*
X6162500Y3739000D01*
G36*
X6162500Y3739000D02*
G01*
X6282500Y3739000D01*
X6282500Y3711000D01*
X6162500Y3711000D01*
X6162500Y3739000D01*
G37*
X6162500Y3689000D02*
X6282500Y3689000D01*
X6282500Y3661000D01*
X6162500Y3661000D01*
X6162500Y3689000D01*
G36*
X6162500Y3689000D02*
G01*
X6282500Y3689000D01*
X6282500Y3661000D01*
X6162500Y3661000D01*
X6162500Y3689000D01*
G37*
X6162500Y3639000D02*
X6282500Y3639000D01*
X6282500Y3611000D01*
X6162500Y3611000D01*
X6162500Y3639000D01*
G36*
X6162500Y3639000D02*
G01*
X6282500Y3639000D01*
X6282500Y3611000D01*
X6162500Y3611000D01*
X6162500Y3639000D01*
G37*
X6162500Y3589000D02*
X6282500Y3589000D01*
X6282500Y3561000D01*
X6162500Y3561000D01*
X6162500Y3589000D01*
G36*
X6162500Y3589000D02*
G01*
X6282500Y3589000D01*
X6282500Y3561000D01*
X6162500Y3561000D01*
X6162500Y3589000D01*
G37*
X6162500Y3539000D02*
X6282500Y3539000D01*
X6282500Y3511000D01*
X6162500Y3511000D01*
X6162500Y3539000D01*
G36*
X6162500Y3539000D02*
G01*
X6282500Y3539000D01*
X6282500Y3511000D01*
X6162500Y3511000D01*
X6162500Y3539000D01*
G37*
X6162500Y3489000D02*
X6282500Y3489000D01*
X6282500Y3461000D01*
X6162500Y3461000D01*
X6162500Y3489000D01*
G36*
X6162500Y3489000D02*
G01*
X6282500Y3489000D01*
X6282500Y3461000D01*
X6162500Y3461000D01*
X6162500Y3489000D01*
G37*
X6162500Y3439000D02*
X6282500Y3439000D01*
X6282500Y3411000D01*
X6162500Y3411000D01*
X6162500Y3439000D01*
G36*
X6162500Y3439000D02*
G01*
X6282500Y3439000D01*
X6282500Y3411000D01*
X6162500Y3411000D01*
X6162500Y3439000D01*
G37*
X6162500Y3389000D02*
X6282500Y3389000D01*
X6282500Y3361000D01*
X6162500Y3361000D01*
X6162500Y3389000D01*
G36*
X6162500Y3389000D02*
G01*
X6282500Y3389000D01*
X6282500Y3361000D01*
X6162500Y3361000D01*
X6162500Y3389000D01*
G37*
X6162500Y3339000D02*
X6282500Y3339000D01*
X6282500Y3311000D01*
X6162500Y3311000D01*
X6162500Y3339000D01*
G36*
X6162500Y3339000D02*
G01*
X6282500Y3339000D01*
X6282500Y3311000D01*
X6162500Y3311000D01*
X6162500Y3339000D01*
G37*
X6162500Y3289000D02*
X6282500Y3289000D01*
X6282500Y3261000D01*
X6162500Y3261000D01*
X6162500Y3289000D01*
G36*
X6162500Y3289000D02*
G01*
X6282500Y3289000D01*
X6282500Y3261000D01*
X6162500Y3261000D01*
X6162500Y3289000D01*
G37*
X6162500Y3239000D02*
X6282500Y3239000D01*
X6282500Y3211000D01*
X6162500Y3211000D01*
X6162500Y3239000D01*
G36*
X6162500Y3239000D02*
G01*
X6282500Y3239000D01*
X6282500Y3211000D01*
X6162500Y3211000D01*
X6162500Y3239000D01*
G37*
X6162500Y3189000D02*
X6282500Y3189000D01*
X6282500Y3161000D01*
X6162500Y3161000D01*
X6162500Y3189000D01*
G36*
X6162500Y3189000D02*
G01*
X6282500Y3189000D01*
X6282500Y3161000D01*
X6162500Y3161000D01*
X6162500Y3189000D01*
G37*
X6162500Y3139000D02*
X6282500Y3139000D01*
X6282500Y3111000D01*
X6162500Y3111000D01*
X6162500Y3139000D01*
G36*
X6162500Y3139000D02*
G01*
X6282500Y3139000D01*
X6282500Y3111000D01*
X6162500Y3111000D01*
X6162500Y3139000D01*
G37*
X6162500Y3089000D02*
X6282500Y3089000D01*
X6282500Y3061000D01*
X6162500Y3061000D01*
X6162500Y3089000D01*
G36*
X6162500Y3089000D02*
G01*
X6282500Y3089000D01*
X6282500Y3061000D01*
X6162500Y3061000D01*
X6162500Y3089000D01*
G37*
X6162500Y3039000D02*
X6282500Y3039000D01*
X6282500Y3011000D01*
X6162500Y3011000D01*
X6162500Y3039000D01*
G36*
X6162500Y3039000D02*
G01*
X6282500Y3039000D01*
X6282500Y3011000D01*
X6162500Y3011000D01*
X6162500Y3039000D01*
G37*
X6162500Y3039000D02*
X6282500Y3039000D01*
X6282500Y3011000D01*
X6162500Y3011000D01*
X6162500Y3039000D01*
G36*
X6162500Y3039000D02*
G01*
X6282500Y3039000D01*
X6282500Y3011000D01*
X6162500Y3011000D01*
X6162500Y3039000D01*
G37*
X6562500Y4239000D02*
X6682500Y4239000D01*
X6682500Y4211000D01*
X6562500Y4211000D01*
X6562500Y4239000D01*
G36*
X6562500Y4239000D02*
G01*
X6682500Y4239000D01*
X6682500Y4211000D01*
X6562500Y4211000D01*
X6562500Y4239000D01*
G37*
X6562500Y4239000D02*
X6682500Y4239000D01*
X6682500Y4211000D01*
X6562500Y4211000D01*
X6562500Y4239000D01*
G36*
X6562500Y4239000D02*
G01*
X6682500Y4239000D01*
X6682500Y4211000D01*
X6562500Y4211000D01*
X6562500Y4239000D01*
G37*
X6562500Y4189000D02*
X6682500Y4189000D01*
X6682500Y4161000D01*
X6562500Y4161000D01*
X6562500Y4189000D01*
G36*
X6562500Y4189000D02*
G01*
X6682500Y4189000D01*
X6682500Y4161000D01*
X6562500Y4161000D01*
X6562500Y4189000D01*
G37*
X6562500Y4139000D02*
X6682500Y4139000D01*
X6682500Y4111000D01*
X6562500Y4111000D01*
X6562500Y4139000D01*
G36*
X6562500Y4139000D02*
G01*
X6682500Y4139000D01*
X6682500Y4111000D01*
X6562500Y4111000D01*
X6562500Y4139000D01*
G37*
X6562500Y4089000D02*
X6682500Y4089000D01*
X6682500Y4061000D01*
X6562500Y4061000D01*
X6562500Y4089000D01*
G36*
X6562500Y4089000D02*
G01*
X6682500Y4089000D01*
X6682500Y4061000D01*
X6562500Y4061000D01*
X6562500Y4089000D01*
G37*
X6562500Y4039000D02*
X6682500Y4039000D01*
X6682500Y4011000D01*
X6562500Y4011000D01*
X6562500Y4039000D01*
G36*
X6562500Y4039000D02*
G01*
X6682500Y4039000D01*
X6682500Y4011000D01*
X6562500Y4011000D01*
X6562500Y4039000D01*
G37*
X6562500Y3989000D02*
X6682500Y3989000D01*
X6682500Y3961000D01*
X6562500Y3961000D01*
X6562500Y3989000D01*
G36*
X6562500Y3989000D02*
G01*
X6682500Y3989000D01*
X6682500Y3961000D01*
X6562500Y3961000D01*
X6562500Y3989000D01*
G37*
X6562500Y3939000D02*
X6682500Y3939000D01*
X6682500Y3911000D01*
X6562500Y3911000D01*
X6562500Y3939000D01*
G36*
X6562500Y3939000D02*
G01*
X6682500Y3939000D01*
X6682500Y3911000D01*
X6562500Y3911000D01*
X6562500Y3939000D01*
G37*
X6562500Y3889000D02*
X6682500Y3889000D01*
X6682500Y3861000D01*
X6562500Y3861000D01*
X6562500Y3889000D01*
G36*
X6562500Y3889000D02*
G01*
X6682500Y3889000D01*
X6682500Y3861000D01*
X6562500Y3861000D01*
X6562500Y3889000D01*
G37*
X6562500Y3839000D02*
X6682500Y3839000D01*
X6682500Y3811000D01*
X6562500Y3811000D01*
X6562500Y3839000D01*
G36*
X6562500Y3839000D02*
G01*
X6682500Y3839000D01*
X6682500Y3811000D01*
X6562500Y3811000D01*
X6562500Y3839000D01*
G37*
X6562500Y3789000D02*
X6682500Y3789000D01*
X6682500Y3761000D01*
X6562500Y3761000D01*
X6562500Y3789000D01*
G36*
X6562500Y3789000D02*
G01*
X6682500Y3789000D01*
X6682500Y3761000D01*
X6562500Y3761000D01*
X6562500Y3789000D01*
G37*
X6562500Y3739000D02*
X6682500Y3739000D01*
X6682500Y3711000D01*
X6562500Y3711000D01*
X6562500Y3739000D01*
G36*
X6562500Y3739000D02*
G01*
X6682500Y3739000D01*
X6682500Y3711000D01*
X6562500Y3711000D01*
X6562500Y3739000D01*
G37*
X6562500Y3689000D02*
X6682500Y3689000D01*
X6682500Y3661000D01*
X6562500Y3661000D01*
X6562500Y3689000D01*
G36*
X6562500Y3689000D02*
G01*
X6682500Y3689000D01*
X6682500Y3661000D01*
X6562500Y3661000D01*
X6562500Y3689000D01*
G37*
X6562500Y3639000D02*
X6682500Y3639000D01*
X6682500Y3611000D01*
X6562500Y3611000D01*
X6562500Y3639000D01*
G36*
X6562500Y3639000D02*
G01*
X6682500Y3639000D01*
X6682500Y3611000D01*
X6562500Y3611000D01*
X6562500Y3639000D01*
G37*
X6562500Y3589000D02*
X6682500Y3589000D01*
X6682500Y3561000D01*
X6562500Y3561000D01*
X6562500Y3589000D01*
G36*
X6562500Y3589000D02*
G01*
X6682500Y3589000D01*
X6682500Y3561000D01*
X6562500Y3561000D01*
X6562500Y3589000D01*
G37*
X6562500Y3539000D02*
X6682500Y3539000D01*
X6682500Y3511000D01*
X6562500Y3511000D01*
X6562500Y3539000D01*
G36*
X6562500Y3539000D02*
G01*
X6682500Y3539000D01*
X6682500Y3511000D01*
X6562500Y3511000D01*
X6562500Y3539000D01*
G37*
X6562500Y3489000D02*
X6682500Y3489000D01*
X6682500Y3461000D01*
X6562500Y3461000D01*
X6562500Y3489000D01*
G36*
X6562500Y3489000D02*
G01*
X6682500Y3489000D01*
X6682500Y3461000D01*
X6562500Y3461000D01*
X6562500Y3489000D01*
G37*
X6562500Y3439000D02*
X6682500Y3439000D01*
X6682500Y3411000D01*
X6562500Y3411000D01*
X6562500Y3439000D01*
G36*
X6562500Y3439000D02*
G01*
X6682500Y3439000D01*
X6682500Y3411000D01*
X6562500Y3411000D01*
X6562500Y3439000D01*
G37*
X6562500Y3389000D02*
X6682500Y3389000D01*
X6682500Y3361000D01*
X6562500Y3361000D01*
X6562500Y3389000D01*
G36*
X6562500Y3389000D02*
G01*
X6682500Y3389000D01*
X6682500Y3361000D01*
X6562500Y3361000D01*
X6562500Y3389000D01*
G37*
X6562500Y3339000D02*
X6682500Y3339000D01*
X6682500Y3311000D01*
X6562500Y3311000D01*
X6562500Y3339000D01*
G36*
X6562500Y3339000D02*
G01*
X6682500Y3339000D01*
X6682500Y3311000D01*
X6562500Y3311000D01*
X6562500Y3339000D01*
G37*
X6562500Y3289000D02*
X6682500Y3289000D01*
X6682500Y3261000D01*
X6562500Y3261000D01*
X6562500Y3289000D01*
G36*
X6562500Y3289000D02*
G01*
X6682500Y3289000D01*
X6682500Y3261000D01*
X6562500Y3261000D01*
X6562500Y3289000D01*
G37*
X6562500Y3239000D02*
X6682500Y3239000D01*
X6682500Y3211000D01*
X6562500Y3211000D01*
X6562500Y3239000D01*
G36*
X6562500Y3239000D02*
G01*
X6682500Y3239000D01*
X6682500Y3211000D01*
X6562500Y3211000D01*
X6562500Y3239000D01*
G37*
X6562500Y3189000D02*
X6682500Y3189000D01*
X6682500Y3161000D01*
X6562500Y3161000D01*
X6562500Y3189000D01*
G36*
X6562500Y3189000D02*
G01*
X6682500Y3189000D01*
X6682500Y3161000D01*
X6562500Y3161000D01*
X6562500Y3189000D01*
G37*
X6562500Y3139000D02*
X6682500Y3139000D01*
X6682500Y3111000D01*
X6562500Y3111000D01*
X6562500Y3139000D01*
G36*
X6562500Y3139000D02*
G01*
X6682500Y3139000D01*
X6682500Y3111000D01*
X6562500Y3111000D01*
X6562500Y3139000D01*
G37*
X6562500Y3089000D02*
X6682500Y3089000D01*
X6682500Y3061000D01*
X6562500Y3061000D01*
X6562500Y3089000D01*
G36*
X6562500Y3089000D02*
G01*
X6682500Y3089000D01*
X6682500Y3061000D01*
X6562500Y3061000D01*
X6562500Y3089000D01*
G37*
X6562500Y3039000D02*
X6682500Y3039000D01*
X6682500Y3011000D01*
X6562500Y3011000D01*
X6562500Y3039000D01*
G36*
X6562500Y3039000D02*
G01*
X6682500Y3039000D01*
X6682500Y3011000D01*
X6562500Y3011000D01*
X6562500Y3039000D01*
G37*
X6562500Y3039000D02*
X6682500Y3039000D01*
X6682500Y3011000D01*
X6562500Y3011000D01*
X6562500Y3039000D01*
G36*
X6562500Y3039000D02*
G01*
X6682500Y3039000D01*
X6682500Y3011000D01*
X6562500Y3011000D01*
X6562500Y3039000D01*
G37*
G04 #@! TD*
D11*
G04 #@! TO.C,C33*
X4930000Y2928000D03*
X4930000Y2832000D03*
G04 #@! TD*
D12*
G04 #@! TO.C,R38*
X3033714Y7050000D03*
X3135714Y7050000D03*
G04 #@! TD*
D13*
G04 #@! TO.C,U2*
X7250000Y1805000D03*
D14*
X7400000Y1805000D03*
X7550000Y1805000D03*
X7700000Y1805000D03*
X7850000Y1805000D03*
X7850000Y2895000D03*
X7700000Y2895000D03*
X7550000Y2895000D03*
X7400000Y2895000D03*
X7250000Y2895000D03*
G04 #@! TD*
D15*
G04 #@! TO.C,C10*
X7549000Y6950000D03*
X7453000Y6950000D03*
G04 #@! TD*
D16*
G04 #@! TO.C,R41*
X4231952Y6930000D03*
X4129952Y6930000D03*
G04 #@! TD*
D12*
G04 #@! TO.C,R7*
X228000Y5368571D03*
X330000Y5368571D03*
G04 #@! TD*
G04 #@! TO.C,R57*
X4397750Y2506500D03*
X4499750Y2506500D03*
G04 #@! TD*
D17*
G04 #@! TO.C,FB1*
X7251250Y6110000D03*
X7408750Y6110000D03*
G04 #@! TD*
D18*
G04 #@! TO.C,C20*
X1299500Y731000D03*
X1395500Y731000D03*
G04 #@! TD*
D19*
G04 #@! TO.C,C11*
X2170000Y5962000D03*
X2170000Y6058000D03*
G04 #@! TD*
D18*
G04 #@! TO.C,C16*
X6542000Y4540000D03*
X6638000Y4540000D03*
G04 #@! TD*
D20*
G04 #@! TO.C,SW2*
X8000000Y5875000D03*
X8000000Y6525000D03*
G04 #@! TD*
D16*
G04 #@! TO.C,R51*
X5951000Y6930000D03*
X5849000Y6930000D03*
G04 #@! TD*
D21*
G04 #@! TO.C,D4*
X680000Y7237750D03*
X680000Y7080250D03*
G04 #@! TD*
D12*
G04 #@! TO.C,R47*
X5505191Y6930000D03*
X5607190Y6930000D03*
G04 #@! TD*
D11*
G04 #@! TO.C,C41*
X4960000Y4030000D03*
X4960000Y3934000D03*
G04 #@! TD*
D12*
G04 #@! TO.C,R9*
X228000Y4862857D03*
X330000Y4862857D03*
G04 #@! TD*
D19*
G04 #@! TO.C,C35*
X5060000Y3842000D03*
X5060000Y3938000D03*
G04 #@! TD*
D12*
G04 #@! TO.C,R8*
X228000Y5115714D03*
X330000Y5115714D03*
G04 #@! TD*
D11*
G04 #@! TO.C,C19*
X870000Y1216000D03*
X870000Y1120000D03*
G04 #@! TD*
D22*
G04 #@! TO.C,R59*
X4960000Y4223000D03*
X4960000Y4121000D03*
G04 #@! TD*
D19*
G04 #@! TO.C,C5*
X6300000Y6982000D03*
X6300000Y7078000D03*
G04 #@! TD*
D23*
G04 #@! TO.C,F1*
X7080000Y6253750D03*
X7080000Y6066250D03*
G04 #@! TD*
D12*
G04 #@! TO.C,R4*
X228000Y6127143D03*
X330000Y6127143D03*
G04 #@! TD*
D24*
G04 #@! TO.C,SW1*
X730000Y6389000D03*
X730000Y6135000D03*
X730000Y5881000D03*
X730000Y5627000D03*
X730000Y5373000D03*
X730000Y5119000D03*
X730000Y4865000D03*
X730000Y4611000D03*
X1570000Y4611000D03*
X1570000Y4865000D03*
X1570000Y5119000D03*
X1570000Y5373000D03*
X1570000Y5627000D03*
X1570000Y5881000D03*
X1570000Y6135000D03*
X1570000Y6389000D03*
G04 #@! TD*
D16*
G04 #@! TO.C,R35*
X3831000Y7050000D03*
X3729000Y7050000D03*
G04 #@! TD*
D22*
G04 #@! TO.C,R1*
X7270000Y7032000D03*
X7270000Y6930000D03*
G04 #@! TD*
D25*
G04 #@! TO.C,R25*
X7251358Y1432358D03*
X7251358Y1534358D03*
G04 #@! TD*
D16*
G04 #@! TO.C,R36*
X2921000Y6930000D03*
X2819000Y6930000D03*
G04 #@! TD*
D22*
G04 #@! TO.C,R63*
X5540000Y5772000D03*
X5540000Y5670000D03*
G04 #@! TD*
D12*
G04 #@! TO.C,R32*
X2509000Y6930000D03*
X2611000Y6930000D03*
G04 #@! TD*
D16*
G04 #@! TO.C,R46*
X4854762Y7050000D03*
X4752762Y7050000D03*
G04 #@! TD*
G04 #@! TO.C,R52*
X5263381Y6930000D03*
X5161381Y6930000D03*
G04 #@! TD*
D12*
G04 #@! TO.C,R16*
X3049000Y2910000D03*
X3151000Y2910000D03*
G04 #@! TD*
D25*
G04 #@! TO.C,R24*
X7391358Y1432358D03*
X7391358Y1534358D03*
G04 #@! TD*
D26*
G04 #@! TO.C,C12*
X490000Y7105000D03*
X490000Y6915000D03*
G04 #@! TD*
D22*
G04 #@! TO.C,R26*
X7391358Y3274358D03*
X7391358Y3172358D03*
G04 #@! TD*
D27*
G04 #@! TO.C,C1*
X7247500Y6260000D03*
X7402500Y6260000D03*
G04 #@! TD*
D22*
G04 #@! TO.C,R30*
X8075000Y2441000D03*
X8075000Y2339000D03*
G04 #@! TD*
D19*
G04 #@! TO.C,C32*
X3970000Y4132000D03*
X3970000Y4228000D03*
G04 #@! TD*
D22*
G04 #@! TO.C,R2*
X8010000Y7060000D03*
X8010000Y6958000D03*
G04 #@! TD*
D12*
G04 #@! TO.C,R3*
X229000Y6380000D03*
X331000Y6380000D03*
G04 #@! TD*
G04 #@! TO.C,R42*
X3377524Y7050000D03*
X3479524Y7050000D03*
G04 #@! TD*
D28*
G04 #@! TO.C,L1*
X4604000Y4440000D03*
X4786000Y4440000D03*
G04 #@! TD*
D22*
G04 #@! TO.C,R54*
X4370000Y4661000D03*
X4370000Y4559000D03*
G04 #@! TD*
D12*
G04 #@! TO.C,R10*
X229000Y4610000D03*
X331000Y4610000D03*
G04 #@! TD*
D29*
G04 #@! TO.C,C25*
X6030000Y801000D03*
X5875000Y801000D03*
G04 #@! TD*
D30*
G04 #@! TO.C,C14*
X6475000Y4690000D03*
X6665000Y4690000D03*
G04 #@! TD*
D21*
G04 #@! TO.C,D5*
X630000Y3928750D03*
X630000Y3771250D03*
G04 #@! TD*
D31*
G04 #@! TO.C,U4*
X4878750Y5019500D03*
X4878750Y5146500D03*
X4878750Y5273500D03*
X4878750Y5400500D03*
X4161250Y5400500D03*
X4161250Y5273500D03*
X4161250Y5146500D03*
X4161250Y5019500D03*
G04 #@! TD*
D11*
G04 #@! TO.C,C7*
X7171000Y7030000D03*
X7171000Y6934000D03*
G04 #@! TD*
D29*
G04 #@! TO.C,C2*
X7407500Y5960000D03*
X7252500Y5960000D03*
G04 #@! TD*
G04 #@! TO.C,C21*
X1447500Y850000D03*
X1292500Y850000D03*
G04 #@! TD*
D25*
G04 #@! TO.C,R19*
X870000Y907000D03*
X870000Y1009000D03*
G04 #@! TD*
D32*
G04 #@! TO.C,C13*
X310000Y7027500D03*
X310000Y6872500D03*
G04 #@! TD*
D20*
G04 #@! TO.C,SW3*
X550000Y2425000D03*
X550000Y3075000D03*
G04 #@! TD*
D12*
G04 #@! TO.C,R39*
X4065143Y7050000D03*
X4167143Y7050000D03*
G04 #@! TD*
D33*
G04 #@! TO.C,D3*
X7820000Y5231250D03*
X7820000Y5388750D03*
G04 #@! TD*
D22*
G04 #@! TO.C,R17*
X7700000Y5481000D03*
X7700000Y5379000D03*
G04 #@! TD*
D34*
G04 #@! TO.C,D1*
X7843250Y7070000D03*
X7685750Y7070000D03*
G04 #@! TD*
D25*
G04 #@! TO.C,R31*
X8075000Y2592000D03*
X8075000Y2694000D03*
G04 #@! TD*
D11*
G04 #@! TO.C,C39*
X4240000Y2724500D03*
X4240000Y2628500D03*
G04 #@! TD*
D12*
G04 #@! TO.C,R43*
X4408952Y7050000D03*
X4510952Y7050000D03*
G04 #@! TD*
D27*
G04 #@! TO.C,C42*
X4622500Y4100000D03*
X4777500Y4100000D03*
G04 #@! TD*
D16*
G04 #@! TO.C,R15*
X3151000Y3010000D03*
X3049000Y3010000D03*
G04 #@! TD*
D35*
G04 #@! TO.C,J1*
X7946000Y7345500D03*
X7866000Y7345500D03*
D36*
X7746000Y7345500D03*
X7646000Y7345500D03*
X7596000Y7345500D03*
X7496000Y7345500D03*
D35*
X7376000Y7345500D03*
X7296000Y7345500D03*
X7296000Y7345500D03*
X7376000Y7345500D03*
D36*
X7446000Y7345500D03*
X7546000Y7345500D03*
X7696000Y7345500D03*
X7796000Y7345500D03*
D35*
X7866000Y7345500D03*
X7946000Y7345500D03*
D37*
X8053000Y7437000D03*
D38*
X8053000Y7855000D03*
D37*
X7189000Y7437000D03*
D38*
X7189000Y7855000D03*
G04 #@! TD*
D25*
G04 #@! TO.C,R60*
X620000Y3549000D03*
X620000Y3651000D03*
G04 #@! TD*
D39*
G04 #@! TO.C,C17*
X6811000Y7620000D03*
X6811000Y7775000D03*
G04 #@! TD*
D16*
G04 #@! TO.C,R48*
X4919572Y6930000D03*
X4817572Y6930000D03*
G04 #@! TD*
D22*
G04 #@! TO.C,R56*
X5031250Y5284500D03*
X5031250Y5182500D03*
G04 #@! TD*
D15*
G04 #@! TO.C,C29*
X3596750Y3416500D03*
X3500750Y3416500D03*
G04 #@! TD*
G04 #@! TO.C,C22*
X3510000Y680000D03*
X3414000Y680000D03*
G04 #@! TD*
D25*
G04 #@! TO.C,R61*
X5300000Y5939000D03*
X5300000Y6041000D03*
G04 #@! TD*
D19*
G04 #@! TO.C,C27*
X3970000Y5002000D03*
X3970000Y5098000D03*
G04 #@! TD*
D16*
G04 #@! TO.C,R34*
X2791905Y7050000D03*
X2689905Y7050000D03*
G04 #@! TD*
D11*
G04 #@! TO.C,C28*
X4608750Y2474500D03*
X4608750Y2378500D03*
G04 #@! TD*
D12*
G04 #@! TO.C,R53*
X6059000Y7050000D03*
X6161000Y7050000D03*
G04 #@! TD*
D18*
G04 #@! TO.C,C31*
X5100750Y3446500D03*
X5196750Y3446500D03*
G04 #@! TD*
D40*
G04 #@! TO.C,C3*
X7420000Y5785000D03*
X7230000Y5785000D03*
G04 #@! TD*
D15*
G04 #@! TO.C,C40*
X3525100Y3187321D03*
X3429100Y3187321D03*
G04 #@! TD*
D27*
G04 #@! TO.C,C23*
X3362000Y800000D03*
X3517000Y800000D03*
G04 #@! TD*
D12*
G04 #@! TO.C,R44*
X4549000Y6930000D03*
X4651000Y6930000D03*
G04 #@! TD*
D11*
G04 #@! TO.C,C30*
X4448750Y2724500D03*
X4448750Y2628500D03*
G04 #@! TD*
D41*
G04 #@! TO.C,R11*
X6961000Y7617500D03*
X6961000Y7782500D03*
G04 #@! TD*
D19*
G04 #@! TO.C,C8*
X6835000Y3992000D03*
X6835000Y4088000D03*
G04 #@! TD*
D18*
G04 #@! TO.C,C9*
X7682000Y6950000D03*
X7778000Y6950000D03*
G04 #@! TD*
D42*
G04 #@! TO.C,U3*
X4218750Y3509500D03*
X4218750Y3396500D03*
X4218750Y3283500D03*
X4331750Y3509500D03*
X4331750Y3396500D03*
X4331750Y3283500D03*
X4444750Y3509500D03*
X4444750Y3396500D03*
X4444750Y3283500D03*
D43*
X3836750Y3776500D03*
X3836750Y3736500D03*
X3836750Y3696500D03*
X3836750Y3656500D03*
X3836750Y3616500D03*
X3836750Y3576500D03*
X3836750Y3536500D03*
X3836750Y3496500D03*
X3836750Y3456500D03*
X3836750Y3416500D03*
X3836750Y3376500D03*
X3836750Y3336500D03*
X3836750Y3296500D03*
X3836750Y3256500D03*
X3836750Y3216500D03*
X3836750Y3176500D03*
X3836750Y3136500D03*
X3836750Y3096500D03*
X3836750Y3056500D03*
X3836750Y3016500D03*
D44*
X3951750Y2901500D03*
X3991750Y2901500D03*
X4031750Y2901500D03*
X4071750Y2901500D03*
X4111750Y2901500D03*
X4151750Y2901500D03*
X4191750Y2901500D03*
X4231750Y2901500D03*
X4271750Y2901500D03*
X4311750Y2901500D03*
X4351750Y2901500D03*
X4391750Y2901500D03*
X4431750Y2901500D03*
X4471750Y2901500D03*
X4511750Y2901500D03*
X4551750Y2901500D03*
X4591750Y2901500D03*
X4631750Y2901500D03*
X4671750Y2901500D03*
X4711750Y2901500D03*
D43*
X4826750Y3016500D03*
X4826750Y3056500D03*
X4826750Y3096500D03*
X4826750Y3136500D03*
X4826750Y3176500D03*
X4826750Y3216500D03*
X4826750Y3256500D03*
X4826750Y3296500D03*
X4826750Y3336500D03*
X4826750Y3376500D03*
X4826750Y3416500D03*
X4826750Y3456500D03*
X4826750Y3496500D03*
X4826750Y3536500D03*
X4826750Y3576500D03*
X4826750Y3616500D03*
X4826750Y3656500D03*
X4826750Y3696500D03*
X4826750Y3736500D03*
X4826750Y3776500D03*
D44*
X4711750Y3891500D03*
X4671750Y3891500D03*
X4631750Y3891500D03*
X4591750Y3891500D03*
X4551750Y3891500D03*
X4511750Y3891500D03*
X4471750Y3891500D03*
X4431750Y3891500D03*
X4391750Y3891500D03*
X4351750Y3891500D03*
X4311750Y3891500D03*
X4271750Y3891500D03*
X4231750Y3891500D03*
X4191750Y3891500D03*
X4151750Y3891500D03*
X4111750Y3891500D03*
X4071750Y3891500D03*
X4031750Y3891500D03*
X3991750Y3891500D03*
X3951750Y3891500D03*
G04 #@! TD*
D12*
G04 #@! TO.C,R49*
X5774000Y7050000D03*
X5876000Y7050000D03*
G04 #@! TD*
G04 #@! TO.C,R33*
X3519000Y6930000D03*
X3621000Y6930000D03*
G04 #@! TD*
D25*
G04 #@! TO.C,R18*
X690000Y6849000D03*
X690000Y6951000D03*
G04 #@! TD*
D12*
G04 #@! TO.C,R6*
X228000Y5621429D03*
X330000Y5621429D03*
G04 #@! TD*
D16*
G04 #@! TO.C,R40*
X3200524Y6930000D03*
X3098524Y6930000D03*
G04 #@! TD*
D22*
G04 #@! TO.C,R14*
X2960000Y3011000D03*
X2960000Y2909000D03*
G04 #@! TD*
D25*
G04 #@! TO.C,R22*
X980000Y1017000D03*
X980000Y1119000D03*
G04 #@! TD*
D45*
G04 #@! TO.C,J5*
X2622500Y6025000D03*
X6422500Y4400000D03*
X2622500Y4225000D03*
X6422500Y2850000D03*
G04 #@! TD*
D22*
G04 #@! TO.C,R12*
X5140000Y5191000D03*
X5140000Y5089000D03*
G04 #@! TD*
D11*
G04 #@! TO.C,C34*
X4040000Y2724500D03*
X4040000Y2628500D03*
G04 #@! TD*
D22*
G04 #@! TO.C,R21*
X7841358Y3274358D03*
X7841358Y3172358D03*
G04 #@! TD*
G04 #@! TO.C,R55*
X4475000Y4661000D03*
X4475000Y4559000D03*
G04 #@! TD*
D12*
G04 #@! TO.C,R5*
X228000Y5874286D03*
X330000Y5874286D03*
G04 #@! TD*
D15*
G04 #@! TO.C,C37*
X3596750Y3616500D03*
X3500750Y3616500D03*
G04 #@! TD*
D32*
G04 #@! TO.C,C15*
X8360000Y5747500D03*
X8360000Y5592500D03*
G04 #@! TD*
D11*
G04 #@! TO.C,C6*
X8110000Y7058000D03*
X8110000Y6962000D03*
G04 #@! TD*
D18*
G04 #@! TO.C,C24*
X5882000Y680000D03*
X5978000Y680000D03*
G04 #@! TD*
D19*
G04 #@! TO.C,C26*
X4050000Y2170000D03*
X4050000Y2266000D03*
G04 #@! TD*
D22*
G04 #@! TO.C,R27*
X7241358Y3274358D03*
X7241358Y3172358D03*
G04 #@! TD*
G04 #@! TO.C,R20*
X7691358Y3274358D03*
X7691358Y3172358D03*
G04 #@! TD*
D18*
G04 #@! TO.C,C36*
X5100750Y3346500D03*
X5196750Y3346500D03*
G04 #@! TD*
D16*
G04 #@! TO.C,R45*
X5542381Y7050000D03*
X5440381Y7050000D03*
G04 #@! TD*
D25*
G04 #@! TO.C,R62*
X5540000Y5939000D03*
X5540000Y6041000D03*
G04 #@! TD*
G04 #@! TO.C,R28*
X7851358Y1432358D03*
X7851358Y1534358D03*
G04 #@! TD*
D27*
G04 #@! TO.C,C43*
X4622500Y4250000D03*
X4777500Y4250000D03*
G04 #@! TD*
D46*
G04 #@! TO.C,U1*
X7480000Y5095000D03*
X7480000Y5325000D03*
D47*
X6850000Y5325000D03*
D46*
X7480000Y5555000D03*
G04 #@! TD*
D48*
G04 #@! TO.C,C4*
X6450000Y6985000D03*
X6450000Y7175000D03*
G04 #@! TD*
D25*
G04 #@! TO.C,R58*
X5031250Y4992500D03*
X5031250Y5094500D03*
G04 #@! TD*
D22*
G04 #@! TO.C,R29*
X8075000Y2188000D03*
X8075000Y2086000D03*
G04 #@! TD*
D25*
G04 #@! TO.C,R13*
X8110000Y6759000D03*
X8110000Y6861000D03*
G04 #@! TD*
D19*
G04 #@! TO.C,C38*
X4330000Y4222000D03*
X4330000Y4318000D03*
G04 #@! TD*
D27*
G04 #@! TO.C,C18*
X432500Y2230000D03*
X587500Y2230000D03*
G04 #@! TD*
D16*
G04 #@! TO.C,R37*
X3941000Y6930000D03*
X3839000Y6930000D03*
G04 #@! TD*
D25*
G04 #@! TO.C,R23*
X7691358Y1432358D03*
X7691358Y1534358D03*
G04 #@! TD*
D17*
G04 #@! TO.C,D2*
X7385750Y7070000D03*
X7543250Y7070000D03*
G04 #@! TD*
D12*
G04 #@! TO.C,R50*
X5096571Y7050000D03*
X5198571Y7050000D03*
G04 #@! TD*
D20*
G04 #@! TO.C,SW4*
X550000Y1775000D03*
X550000Y1125000D03*
G04 #@! TD*
D49*
G04 #@! TO.C,Y1*
X4200000Y2185000D03*
X4420000Y2185000D03*
X4420000Y2355000D03*
X4200000Y2355000D03*
G04 #@! TD*
M02*
